<svg width="286" height="180" viewBox="0 0 286 180" fill="none" xmlns="http://www.w3.org/2000/svg">
<g clip-path="url(#clip0)">
<path d="M128.765 69.9209V55.7297M237.64 31.3687C233.625 29.6799 233.885 39.8312 232.844 43.218C231.803 46.6049 203.922 75.1178 198.867 75.5097C193.811 75.8922 189.406 61.4491 189.406 61.4491C188.142 57.8943 186.292 70.686 183.96 69.1279C181.618 67.5604 182.789 51.9417 180.976 50.2529C179.155 48.5549 174.49 51.9417 172.928 49.3386C171.376 46.7355 168.003 51.2886 165.93 53.4998C163.858 55.7204 162.687 56.8867 158.412 54.8061C154.127 52.7254 160.744 44.3936 160.614 43.218C160.484 42.0517 149.852 44.0017 144.927 42.6955C139.992 41.3986 139.35 46.0824 136.748 46.6049C135.8 46.7915 129.165 46.5395 120.735 46.0824C116.562 45.8584 111.944 45.5879 107.353 45.2986H107.343C101.962 44.9627 96.6277 44.5989 92.0924 44.2723C87.1854 43.9084 83.2356 43.5726 81.2003 43.3486C81.0795 43.33 80.968 43.3113 80.8564 43.302C72.9941 42.3503 70.9216 40.6989 65.9867 38.6182C61.0704 36.5469 57.4551 41.9771 54.0909 42.6022C54.0816 42.6115 54.0723 42.6115 54.063 42.6115C52.7898 42.8448 51.3771 42.8075 50.0296 42.6955C47.7991 42.5089 45.7173 42.1077 44.6393 42.2663C44.379 42.3037 44.1653 42.7422 43.9701 43.4793C43.8958 43.7778 43.8307 44.123 43.7657 44.5149C42.8921 49.6651 42.8363 62.2702 42.5668 68.0456C42.2136 75.3324 41.4423 78.8872 39.8809 82.47C38.3289 86.0528 39.0352 88.9824 40.3363 91.5202C41.6374 94.058 43.5147 103.015 45.0668 107.708C46.6281 112.392 50.0853 114.304 53.5425 114.995C56.9998 115.695 65.1224 125.669 71.3491 128.449C77.5758 131.229 97.334 131.099 100.187 131.752C103.04 132.396 112.241 142.556 114.193 144.506C116.135 146.456 119.378 141.772 123.914 141.381C128.449 140.989 137.919 159.089 142.073 160.778C146.218 162.476 144.796 159.994 145.828 154.014C146.869 148.024 151.274 141.511 153.997 138.908C156.72 136.305 169.434 141.119 173.319 141.903C177.213 142.687 176.432 141.642 184.211 135.391C191.999 129.139 197.575 129.793 206.515 134.868C215.465 139.953 216.376 151.28 218.058 154.014C219.749 156.747 223.894 150.366 221.692 142.817C219.489 135.26 211.841 127.712 210.539 126.928C209.238 126.154 226.747 101.018 227.658 98.8071C228.569 96.5958 224.935 90.8671 223.894 89.0851C222.863 87.3123 229.601 77.3291 235.047 69.9116C240.493 62.4848 238.941 59.6204 236.989 56.2336C235.047 52.8561 243.606 47.7805 244.647 43.7405C245.679 39.7005 241.664 33.0668 237.64 31.3687Z" stroke="#800180" stroke-width="1.5" stroke-miterlimit="10" stroke-linecap="round" stroke-linejoin="round"/>
<path d="M244.814 17.7002L247.76 20.3033" stroke="#800180" stroke-width="1.5" stroke-miterlimit="10" stroke-linecap="round" stroke-linejoin="round"/>
<path d="M251.524 24.6045C251.524 24.6045 257.231 27.4689 259.303 41.0069" stroke="#800180" stroke-width="1.5" stroke-miterlimit="10" stroke-linecap="round" stroke-linejoin="round"/>
<path d="M27.697 110.918C27.697 110.918 30.5502 123.029 38.3289 127.843" stroke="#800180" stroke-width="1.5" stroke-miterlimit="10" stroke-linecap="round" stroke-linejoin="round"/>
<path d="M42.353 130.707C42.353 130.707 44.6857 132.657 48.4496 133.571" stroke="#800180" stroke-width="1.5" stroke-miterlimit="10" stroke-linecap="round" stroke-linejoin="round"/>
<path d="M48.4403 110.918H128.765V69.9215V55.7303V48.4248" stroke="#800180" stroke-width="1.5" stroke-miterlimit="10" stroke-linecap="round" stroke-linejoin="round"/>
<path d="M68.0313 55.7295L70.3268 62.8297H77.7524L71.7394 67.2149L74.035 74.3058L68.0313 69.9207L62.0183 74.3058L64.3138 67.2149L58.3009 62.8297H65.7265L68.0313 55.7295Z" stroke="#800180" stroke-width="1.5" stroke-miterlimit="10" stroke-linecap="round" stroke-linejoin="round"/>
<path d="M83.4586 77.665L85.7542 84.756H93.1891L87.1761 89.1411L89.4716 96.2414L83.4586 91.8562L77.4457 96.2414L79.7412 89.1411L73.7282 84.756H81.1631L83.4586 77.665Z" stroke="#800180" stroke-width="1.5" stroke-miterlimit="10" stroke-linecap="round" stroke-linejoin="round"/>
<path d="M53.2451 77.665L55.5407 84.756H62.9755L56.9626 89.1411L59.2581 96.2414L53.2451 91.8562L47.2322 96.2414L49.5277 89.1411L43.5147 84.756H50.9496L53.2451 77.665Z" stroke="#800180" stroke-width="1.5" stroke-miterlimit="10" stroke-linecap="round" stroke-linejoin="round"/>
<path d="M114.583 77.665L116.878 84.756H124.313L118.3 89.1411L120.596 96.2414L114.583 91.8562L108.57 96.2414L110.866 89.1411L104.853 84.756H112.287L114.583 77.665Z" stroke="#800180" stroke-width="1.5" stroke-miterlimit="10" stroke-linecap="round" stroke-linejoin="round"/>
<path d="M98.7652 55.7295L101.061 62.8297H108.486L102.473 67.2149L104.769 74.3058L98.7652 69.9207L92.7523 74.3058L95.0478 67.2149L89.0348 62.8297H96.4604L98.7652 55.7295Z" stroke="#800180" stroke-width="1.5" stroke-miterlimit="10" stroke-linecap="round" stroke-linejoin="round"/>
<path d="M128.765 55.7295V69.9207L122.752 74.3058L125.057 67.2149L119.044 62.8297H126.469L128.765 55.7295Z" stroke="#800180" stroke-width="1.5" stroke-miterlimit="10" stroke-linecap="round" stroke-linejoin="round"/>
<path d="M118.291 47.8646L120.587 54.9649L114.574 50.5797L108.57 54.9649L110.865 47.8646L107.353 45.2988C111.944 45.5881 116.562 45.8586 120.735 46.0826L118.291 47.8646Z" stroke="#800180" stroke-width="1.5" stroke-miterlimit="10" stroke-linecap="round" stroke-linejoin="round"/>
<path d="M87.1668 47.8644L89.4623 54.9647L83.4586 50.5795L77.4457 54.9647L79.7412 47.8644L73.7282 43.4793H81.1538L81.2003 43.3486C83.2356 43.5726 87.1854 43.9084 92.0924 44.2723L87.1668 47.8644Z" stroke="#800180" stroke-width="1.5" stroke-miterlimit="10" stroke-linecap="round" stroke-linejoin="round"/>
<path d="M55.7916 47.8648L58.0871 54.965L52.0741 50.5798L46.0612 54.965L48.3567 47.8648L43.7657 44.5152C43.8307 44.1234 43.8958 43.7781 43.9701 43.4796H49.7786L50.0295 42.6958C51.3771 42.8078 52.7897 42.8451 54.063 42.6119C54.0723 42.6119 54.0816 42.6119 54.0908 42.6025L54.3697 43.4796H61.8045L55.7916 47.8648Z" stroke="#800180" stroke-width="1.5" stroke-miterlimit="10" stroke-linecap="round" stroke-linejoin="round"/>
<path d="M131.005 59.6211H179.592" stroke="#800180" stroke-width="1.5" stroke-miterlimit="10" stroke-linecap="round" stroke-linejoin="round"/>
<path d="M131.005 72.4678H186.162" stroke="#800180" stroke-width="1.5" stroke-miterlimit="10" stroke-linecap="round" stroke-linejoin="round"/>
<path d="M222.472 59.6211H236.311" stroke="#800180" stroke-width="1.5" stroke-miterlimit="10" stroke-linecap="round" stroke-linejoin="round"/>
<path d="M233.885 45.2988H240.279" stroke="#800180" stroke-width="1.5" stroke-miterlimit="10" stroke-linecap="round" stroke-linejoin="round"/>
<path d="M156.599 45.2988H141.033" stroke="#800180" stroke-width="1.5" stroke-miterlimit="10" stroke-linecap="round" stroke-linejoin="round"/>
<path d="M131.005 86.1836H220.92" stroke="#800180" stroke-width="1.5" stroke-miterlimit="10" stroke-linecap="round" stroke-linejoin="round"/>
<path d="M208.987 72.4678H229.387" stroke="#800180" stroke-width="1.5" stroke-miterlimit="10" stroke-linecap="round" stroke-linejoin="round"/>
<path d="M131.005 98.8535H223.513" stroke="#800180" stroke-width="1.5" stroke-miterlimit="10" stroke-linecap="round" stroke-linejoin="round"/>
<path d="M132.389 110.918H217.287" stroke="#800180" stroke-width="1.5" stroke-miterlimit="10" stroke-linecap="round" stroke-linejoin="round"/>
<path d="M77.0646 124.372H203.625" stroke="#800180" stroke-width="1.5" stroke-miterlimit="10" stroke-linecap="round" stroke-linejoin="round"/>
<path d="M110.605 137.91H148.821" stroke="#800180" stroke-width="1.5" stroke-miterlimit="10" stroke-linecap="round" stroke-linejoin="round"/>
<path d="M212.965 137.91H217.287" stroke="#800180" stroke-width="1.5" stroke-miterlimit="10" stroke-linecap="round" stroke-linejoin="round"/>
<path d="M136.367 151.858H144.164" stroke="#800180" stroke-width="1.5" stroke-miterlimit="10" stroke-linecap="round" stroke-linejoin="round"/>
<path d="M218.699 50.1318C210.967 57.8385 201.032 67.6072 201.032 67.6072" stroke="#800180" stroke-width="1.5" stroke-miterlimit="10" stroke-linecap="round" stroke-linejoin="round"/>
<path d="M229.387 27.8516C229.387 27.8516 228.346 39.9155 227.658 40.9978" stroke="#800180" stroke-width="1.5" stroke-miterlimit="10" stroke-linecap="round" stroke-linejoin="round"/>
<path d="M191.729 140.056C193.449 139.188 195.168 138.805 196.794 139.3" stroke="#800180" stroke-width="1.5" stroke-miterlimit="10" stroke-linecap="round" stroke-linejoin="round"/>
<path d="M158.588 144.768C158.588 144.768 175.623 150.758 179.592 149.19" stroke="#800180" stroke-width="1.5" stroke-miterlimit="10" stroke-linecap="round" stroke-linejoin="round"/>
</g>
<defs>
<clipPath id="clip0">
<rect width="233" height="145" fill="white" transform="translate(27 17)"/>
</clipPath>
</defs>
</svg>
