<svg width="286" height="180" viewBox="0 0 286 180" fill="none" xmlns="http://www.w3.org/2000/svg">
<path d="M146.234 93.6936C146.426 93.8739 146.599 94.0542 146.747 94.2398C147.304 94.9375 148.036 95.7199 148.929 95.7199C149.822 95.7199 150.568 94.9758 150.264 94.1361C149.909 93.1574 149.244 92.2669 148.39 91.4647C147.528 90.6542 146.234 90.2489 145.156 90.0463V88.2186C145.156 87.3255 144.432 86.6016 143.539 86.6016C142.646 86.6016 141.922 87.3255 141.922 88.2186V90.0463C140.628 90.2489 139.55 90.6542 138.688 91.4647C137.394 92.6805 136.532 94.0989 136.532 95.7199C136.532 97.341 137.394 98.7594 138.688 99.9752C139.982 100.988 141.706 101.596 143.647 101.596C144.725 101.596 145.803 102.001 146.45 102.609C147.096 103.217 147.528 103.825 147.528 104.636C147.528 105.446 147.096 106.054 146.45 106.662C144.94 107.878 142.353 107.878 140.844 106.662C140.652 106.482 140.479 106.301 140.331 106.116C139.774 105.418 139.042 104.636 138.149 104.636C137.256 104.636 136.51 105.38 136.814 106.22C137.169 107.198 137.834 108.089 138.688 108.891C139.55 109.701 140.844 110.107 141.922 110.309V111.934C141.922 112.827 142.646 113.551 143.539 113.551C144.432 113.551 145.156 112.827 145.156 111.934V110.309C146.45 110.107 147.528 109.499 148.39 108.891C149.684 107.675 150.546 106.257 150.546 104.636C150.546 103.015 149.684 101.596 148.39 100.38C147.096 99.3673 145.372 98.7594 143.431 98.7594C142.353 98.7594 141.275 98.3541 140.628 97.7463C139.982 97.1384 139.55 96.5305 139.55 95.7199C139.55 94.9094 139.982 94.3015 140.628 93.6936C141.922 92.4779 144.725 92.4779 146.234 93.6936Z" fill="#10E8E8" stroke="#FAF7FB"/>
<path d="M230.318 106.285H208.287V95.5387C208.287 94.464 207.481 93.658 206.406 93.658H188.136C186.793 91.7773 184.912 90.4339 182.763 89.6279C185.718 86.1352 186.256 81.0305 183.838 76.7318C181.42 72.7017 176.584 70.5524 172.016 71.3584C172.822 66.791 170.942 61.955 166.643 59.5369C162.613 57.1189 157.239 57.6562 153.747 60.6116C152.135 56.3129 148.105 53.0889 143.269 53.0889C138.433 53.0889 134.134 56.3129 132.791 60.6116C129.298 57.6562 123.924 57.1189 119.894 59.5369C115.596 61.955 113.715 66.791 114.521 71.3584C109.954 70.5524 105.118 72.7017 102.7 76.7318C100.282 81.0305 100.819 86.1352 103.774 89.6279C101.625 90.4339 99.7442 91.7773 98.4008 93.658H79.8626C78.788 93.658 77.982 94.464 77.982 95.5387V106.285H55.6824L66.1605 124.018L55.6824 141.481H98.1322V128.854H109.685C111.028 129.122 112.64 129.391 114.252 129.122C113.446 133.69 115.327 138.526 119.626 140.944C123.656 143.362 129.029 142.825 132.522 139.869C134.134 144.168 138.164 147.392 143 147.392C147.836 147.392 152.135 144.168 153.478 139.869C156.971 142.825 162.344 143.362 166.374 140.944C170.673 138.526 172.554 133.69 171.748 129.122C173.36 129.391 174.972 129.391 176.315 128.854H187.599V141.481H230.318L219.84 124.018L230.318 106.285ZM204.257 97.688V125.092H182.763C183.032 124.555 183.3 124.286 183.569 123.749C185.181 121.062 185.45 118.107 184.644 115.152C184.106 113.54 183.3 111.928 182.226 110.853C186.524 109.241 189.749 105.211 189.749 100.375C189.749 99.5687 189.48 98.494 189.48 97.688H204.257ZM81.7433 97.688H96.7888C96.5202 98.494 96.5202 99.3 96.5202 100.375C96.5202 105.211 99.7442 109.241 104.043 110.853C101.088 114.346 100.55 119.45 102.968 123.749C103.237 124.286 103.506 124.555 103.774 125.092H81.7433V97.688ZM70.7279 124.018L62.6678 110.315H77.982V126.973C77.982 127.51 78.2506 128.048 78.788 128.585L90.6094 137.72H62.6678L70.7279 124.018ZM94.3708 135.57L85.7734 128.854H94.3708V135.57ZM170.404 124.286C170.136 124.018 169.867 124.018 169.598 123.749C169.33 123.749 169.33 123.48 169.061 123.48L168.792 123.212L166.106 126.167C166.374 126.436 166.374 126.436 166.643 126.704C166.912 126.973 166.912 127.242 167.18 127.51C169.061 131.003 167.986 135.302 164.494 137.451C163.419 137.988 162.076 138.526 161.001 138.526C158.314 138.526 155.896 137.182 154.821 135.033C154.553 134.764 154.553 134.496 154.284 134.227C154.284 133.958 154.015 133.69 154.015 133.152L150.254 134.227C150.254 134.496 150.523 134.764 150.523 135.302C150.523 135.57 150.523 135.839 150.523 136.108C150.523 140.138 147.299 143.362 143.269 143.362C139.239 143.362 136.015 140.138 136.015 136.108C136.015 135.839 136.015 135.57 136.015 135.302C136.015 135.033 136.015 134.764 136.015 134.764C136.015 134.496 136.015 134.496 136.015 134.227L132.253 133.152V133.421C132.253 133.69 131.985 133.958 131.985 134.227C131.985 134.496 131.716 134.764 131.447 135.033C129.567 138.257 124.999 139.6 121.506 137.72C118.014 135.839 116.939 131.272 118.82 127.779C119.088 127.51 119.088 127.242 119.357 126.973C119.626 126.704 119.626 126.704 119.894 126.436L120.163 126.167L117.208 123.48C116.939 123.749 116.939 123.749 116.67 124.018C116.402 124.286 116.133 124.286 115.864 124.555C114.79 125.092 113.715 125.361 112.372 125.63V125.361H110.222C108.61 124.824 106.998 123.749 105.924 122.137C104.043 118.644 105.118 114.346 108.61 112.196C108.879 111.928 109.148 111.928 109.416 111.659C109.685 111.659 109.954 111.39 110.491 111.39L109.416 107.091C109.148 107.091 108.879 107.36 108.342 107.36C108.073 107.36 107.804 107.36 107.536 107.36C103.506 107.36 100.282 104.136 100.282 100.106C100.282 96.076 103.506 92.852 107.536 92.852C107.804 92.852 108.073 92.852 108.342 92.852C108.61 92.852 108.879 92.852 108.879 92.852C109.148 92.852 109.148 92.852 109.416 92.852L110.491 89.0906C110.222 89.0906 110.222 89.0906 110.222 89.0906C109.954 89.0906 109.954 88.8219 109.685 88.8219C109.416 88.8219 109.148 88.5533 108.879 88.2846C105.386 86.4039 104.312 81.8365 106.192 78.3438C108.073 75.1198 112.64 73.7764 116.133 75.6571C116.402 75.9258 116.67 75.9258 116.939 76.1945C117.208 76.4631 117.476 76.4631 117.476 76.7318L120.163 74.0451C119.894 73.7764 119.626 73.5078 119.626 73.2391C119.357 72.9704 119.357 72.7017 119.088 72.4331C117.208 68.9404 118.282 64.6417 121.775 62.4923C122.85 61.955 124.193 61.4176 125.268 61.4176C127.955 61.4176 130.373 62.761 131.447 64.9103C131.716 65.179 131.716 65.4477 131.985 65.7163C131.985 65.985 132.253 66.2537 132.253 66.791L136.015 65.7163C136.015 65.4477 135.746 65.179 135.746 64.6417C135.746 64.373 135.746 64.1043 135.746 63.8357C135.746 59.8056 138.97 56.5816 143 56.5816C147.03 56.5816 150.254 59.8056 150.254 63.8357C150.254 64.1043 150.254 64.373 150.254 64.6417V66.2537L153.478 67.3284L154.284 65.7163C154.284 65.4477 154.553 65.179 154.821 64.9103C156.702 61.6863 161.27 60.3429 164.762 62.2236C166.374 63.2983 167.718 64.6417 168.255 66.5223C168.792 68.403 168.524 70.2837 167.449 72.1644C167.18 72.4331 167.18 72.7017 166.912 72.9704C166.643 73.2391 166.643 73.5078 166.374 73.5078L166.106 73.7764L169.061 76.4631C169.33 76.1945 169.33 76.1945 169.598 75.9258C169.867 75.6571 170.136 75.6571 170.404 75.3884C173.628 73.5078 178.464 74.5824 180.345 78.0751C182.226 81.5678 181.151 85.8666 177.658 88.0159C177.39 88.2846 177.121 88.2846 176.852 88.5533C176.584 88.5533 176.315 88.8219 175.778 88.8219L176.852 92.5833C177.121 92.5833 177.39 92.3146 177.927 92.3146C178.196 92.3146 178.464 92.3146 178.733 92.3146C182.763 92.3146 185.987 95.5387 185.987 99.5687C185.987 103.599 182.763 106.823 178.733 106.823C178.464 106.823 178.196 106.823 177.927 106.823L175.778 106.554V108.435L175.24 110.584L176.852 111.39C177.121 111.39 177.39 111.659 177.658 111.928C179.27 113.002 180.614 114.346 181.151 116.226C181.688 118.107 181.42 119.988 180.345 121.6C179.539 123.212 177.927 124.286 176.046 124.824H173.628V125.092C172.554 125.092 171.479 124.824 170.404 124.286ZM200.495 128.854L191.898 135.57V128.854H200.495ZM223.332 137.72H195.659L207.481 128.585C208.018 128.316 208.287 127.779 208.287 126.973V110.315H223.601L215.541 124.018L223.332 137.72Z" fill="#800180" stroke="#FAF7FB"/>
<path d="M145.149 40.8665V25.015C145.149 23.9022 144.247 23 143.134 23C142.021 23 141.119 23.9022 141.119 25.015V40.8665C141.119 41.9794 142.021 42.8815 143.134 42.8815C144.247 42.8815 145.149 41.9794 145.149 40.8665Z" fill="#800180" stroke="#FAF7FB"/>
<path d="M114.965 48.0183L107.039 34.2909C106.483 33.3272 105.251 32.997 104.287 33.5534C103.323 34.1098 102.993 35.3422 103.549 36.3059L111.475 50.0333C112.032 50.9971 113.264 51.3273 114.228 50.7708C115.191 50.2144 115.522 48.9821 114.965 48.0183Z" fill="#800180" stroke="#FAF7FB"/>
<path d="M92.5796 68.8376L78.8522 60.9118C77.8884 60.3554 76.6561 60.6856 76.0997 61.6493C75.5432 62.613 75.8734 63.8454 76.8372 64.4018L90.5646 72.3276C91.5283 72.884 92.7606 72.5538 93.3171 71.5901C93.8735 70.6263 93.5433 69.394 92.5796 68.8376Z" fill="#800180" stroke="#FAF7FB"/>
<path d="M195.457 72.2581L209.184 64.3307C210.148 63.7742 210.478 62.5418 209.922 61.578C209.365 60.6143 208.133 60.2842 207.169 60.8407L193.441 68.7681C192.478 69.3246 192.148 70.557 192.704 71.5208C193.261 72.4845 194.493 72.8146 195.457 72.2581Z" fill="#800180" stroke="#FAF7FB"/>
<path d="M174.474 49.9913L182.4 36.2639C182.956 35.3002 182.626 34.0679 181.662 33.5114C180.698 32.955 179.466 33.2852 178.91 34.2489L170.984 47.9763C170.427 48.9401 170.758 50.1724 171.721 50.7288C172.685 51.2853 173.917 50.9551 174.474 49.9913Z" fill="#800180" stroke="#FAF7FB"/>
<path d="M143 126.487L121.204 99.2331C111.504 87.1043 127.412 71.2612 139.506 81.0062V81.0062C141.545 82.6498 144.455 82.6498 146.494 81.0062V81.0062C158.588 71.2612 174.496 87.1043 164.796 99.2331L143 126.487Z" stroke="#10E8E8" stroke-width="2.5"/>
</svg>
