<svg width="286" height="180" viewBox="0 0 286 180" fill="none" xmlns="http://www.w3.org/2000/svg">
<path d="M148.924 138.529H96.9433C96.1183 138.529 95.4496 139.198 95.4496 140.023C95.4496 140.848 96.1183 141.517 96.9433 141.517H148.924C149.749 141.517 150.418 140.848 150.418 140.023C150.418 139.198 149.749 138.529 148.924 138.529Z" fill="#10E8E8" stroke="#FAF7FB" stroke-width="0.8"/>
<path d="M110.187 130.263C110.187 131.088 110.856 131.757 111.681 131.757C112.506 131.757 113.175 131.088 113.175 130.263C113.175 129.438 112.506 128.77 111.681 128.77C110.856 128.77 110.187 129.438 110.187 130.263Z" fill="#800180" stroke="#FAF7FB" stroke-width="0.8"/>
<path d="M117.357 130.263C117.357 131.088 118.026 131.757 118.851 131.757C119.676 131.757 120.345 131.088 120.345 130.263C120.345 129.438 119.676 128.77 118.851 128.77C118.026 128.77 117.357 129.438 117.357 130.263Z" fill="#800180" stroke="#FAF7FB" stroke-width="0.8"/>
<path d="M124.726 130.263C124.726 131.088 125.395 131.757 126.22 131.757C127.045 131.757 127.713 131.088 127.713 130.263C127.713 129.438 127.045 128.77 126.22 128.77C125.395 128.77 124.726 129.438 124.726 130.263Z" fill="#800180" stroke="#FAF7FB" stroke-width="0.8"/>
<path d="M102.819 130.263C102.819 131.088 103.487 131.757 104.312 131.757C105.137 131.757 105.806 131.088 105.806 130.263C105.806 129.438 105.137 128.77 104.312 128.77C103.487 128.77 102.819 129.438 102.819 130.263Z" fill="#800180" stroke="#FAF7FB" stroke-width="0.8"/>
<path d="M95.4496 130.263C95.4496 131.088 96.1183 131.757 96.9433 131.757C97.7682 131.757 98.4369 131.088 98.4369 130.263C98.4369 129.438 97.7682 128.77 96.9433 128.77C96.1183 128.77 95.4496 129.438 95.4496 130.263Z" fill="#800180" stroke="#FAF7FB" stroke-width="0.8"/>
<path d="M181.885 118.215C182.252 118.49 182.535 118.808 182.733 119.168C183.13 119.891 183.749 120.604 184.574 120.604C185.398 120.604 186.088 119.925 185.878 119.127C185.565 117.937 184.874 116.879 183.876 116.024C182.881 115.227 181.686 114.63 180.491 114.431V112.14C180.491 111.315 179.822 110.646 178.997 110.646C178.172 110.646 177.503 111.315 177.503 112.14V114.431C176.308 114.63 175.113 115.227 174.118 116.024C172.724 117.219 171.927 118.812 171.927 120.604C171.927 122.397 172.724 123.99 174.118 125.185C175.512 126.38 177.105 126.978 179.097 126.978C180.292 126.978 181.287 127.376 182.084 127.973C182.881 128.571 183.279 129.367 183.279 130.363C183.279 131.16 182.881 131.957 182.084 132.753C180.491 134.147 177.703 134.147 176.109 132.753C175.772 132.5 175.505 132.211 175.311 131.886C174.859 131.131 174.201 130.363 173.321 130.363C172.441 130.363 171.704 131.09 171.943 131.937C172.267 133.088 172.948 134.112 173.918 134.944C174.914 135.741 176.109 136.338 177.304 136.537V138.828C177.304 139.653 177.973 140.321 178.798 140.321C179.623 140.321 180.292 139.653 180.292 138.828V136.537C181.487 136.338 182.682 135.741 183.677 134.944C185.071 133.749 185.868 132.156 185.868 130.363C185.868 128.571 185.071 126.978 183.677 125.783C182.283 124.588 180.69 123.99 178.698 123.99C177.503 123.99 176.508 123.592 175.711 122.994C174.914 122.397 174.516 121.6 174.516 120.604C174.516 119.808 174.914 119.011 175.711 118.215C177.503 117.02 180.292 117.02 181.885 118.215Z" fill="#10E8E8" stroke="#FAF7FB" stroke-width="0.8"/>
<path d="M202 125.385C202 114.431 194.432 105.469 184.275 102.88V46.3185H201.004V44.9244C201.004 44.9244 201.203 41.5387 201.203 40.3437C201.203 32.7756 195.826 27 188.656 27H182.881H99.8311H98.2378C98.2378 27 98.2378 27 98.0387 27C90.0723 27 83.5 33.5723 83.5 41.5387V156.255H184.076V147.89C194.432 145.5 202 136.339 202 125.385ZM198.216 40.1445C198.216 40.742 198.216 42.1361 198.216 43.3311H112.577C112.577 42.7336 112.776 41.937 112.776 41.3395C112.776 36.5597 110.586 32.3773 107.001 29.7882H188.656C194.233 29.7882 198.216 34.1697 198.216 40.1445ZM181.287 153.267H86.6866V41.3395C86.6866 34.9664 91.8647 29.7882 98.2378 29.7882C104.611 29.7882 109.789 34.9664 109.789 41.3395C109.789 42.1361 109.59 43.5303 109.391 44.3269L108.992 45.9202L110.586 46.1193H181.287V102.482C180.491 102.482 179.694 102.282 178.897 102.282C177.105 102.282 175.512 102.482 173.918 102.88V56.6748H95.2504V114.033H158.782C156.791 117.418 155.795 121.203 155.795 125.385C155.795 138.131 166.151 148.487 178.897 148.487C179.694 148.487 180.491 148.487 181.287 148.288V153.267ZM160.774 111.245H155.795V100.49H170.931V103.876C166.948 105.27 163.363 107.859 160.774 111.245ZM98.2378 100.49H134.684V111.045H98.2378V100.49ZM98.2378 86.9471H134.684V97.5025H98.2378V86.9471ZM98.2378 73.205H134.684V83.7605H98.2378V73.205ZM170.931 70.2176H155.795V59.6622H170.931V70.2176ZM170.931 83.9597H155.795V73.4042H170.931V83.9597ZM170.931 97.5025H155.795V86.9471H170.931V97.5025ZM137.671 86.9471H152.808V97.5025H137.671V86.9471ZM137.671 73.205H152.808V83.7605H137.671V73.205ZM152.808 70.2176H137.671V59.6622H152.808V70.2176ZM134.684 70.2176H98.2378V59.6622H134.684V70.2176ZM137.671 100.49H152.808V111.045H137.671V100.49ZM178.897 145.5C167.745 145.5 158.782 136.538 158.782 125.385C158.782 114.232 167.745 105.27 178.897 105.27C190.05 105.27 199.013 114.431 199.013 125.385C199.013 136.339 190.05 145.5 178.897 145.5Z" fill="#800180" stroke="#FAF7FB" stroke-width="0.8"/>
</svg>
