<svg width="286" height="180" viewBox="0 0 286 180" fill="none" xmlns="http://www.w3.org/2000/svg">
<g clip-path="url(#clip0)">
<path d="M200.74 44.2158C200.74 44.2158 200.572 46.4459 201.026 47.4894C201.48 48.5329 201.707 48.4993 201.707 48.4993C201.707 48.4993 204.079 46.9677 207.856 48.4993C211.633 50.0309 230.047 59.3972 232.218 64.8673C234.388 70.3373 211.558 80.7808 211.558 80.7808" stroke="#800180" stroke-width="1.5" stroke-miterlimit="10" stroke-linecap="round" stroke-linejoin="round"/>
<path d="M204.963 60.0879C204.963 60.0879 220.676 69.1176 224.403 67.2073C228.129 65.297 221.694 63.5382 210.262 76.7252" stroke="#800180" stroke-width="1.5" stroke-miterlimit="10" stroke-linecap="round" stroke-linejoin="round"/>
<path d="M216.941 67.9899C216.941 67.9899 224.647 63.5633 225.48 57.0498" stroke="#800180" stroke-width="1.5" stroke-miterlimit="10" stroke-linecap="round" stroke-linejoin="round"/>
<path d="M206.914 62.5195C206.914 62.5195 204.567 68.099 204.963 74.806" stroke="#800180" stroke-width="1.5" stroke-miterlimit="10" stroke-linecap="round" stroke-linejoin="round"/>
<path d="M185.884 55.4668C185.884 55.4668 181.459 62.3085 184.513 67.9974C187.575 73.6862 186.422 81.0244 186.422 81.0244" stroke="#800180" stroke-width="1.5" stroke-miterlimit="10" stroke-linecap="round" stroke-linejoin="round"/>
<path d="M185.564 79.9559C185.564 79.9559 192.53 83.1454 201.707 78.458" stroke="#800180" stroke-width="1.5" stroke-miterlimit="10" stroke-linecap="round" stroke-linejoin="round"/>
<path d="M208.243 77.0701C208.243 77.0701 207.57 74.4613 206.771 74.5286C205.972 74.5959 201.783 79.216 202.254 79.6284C202.733 80.0407 205.552 78.6101 206.788 76.9775" stroke="#800180" stroke-width="1.5" stroke-miterlimit="10" stroke-linecap="round" stroke-linejoin="round"/>
<path d="M209.303 77.6337C209.303 77.6337 203.44 81.4291 203.533 82.7335C203.625 84.0379 210.826 79.9311 210.826 79.098C210.826 78.2649 210.279 77.1961 209.303 77.6337Z" stroke="#800180" stroke-width="1.5" stroke-miterlimit="10" stroke-linecap="round" stroke-linejoin="round"/>
<path d="M206.914 83.1455C206.914 83.1455 210.515 83.4485 210.658 81.9085C210.75 80.865 210.01 81.0165 210.01 81.0165" stroke="#800180" stroke-width="1.5" stroke-miterlimit="10" stroke-linecap="round" stroke-linejoin="round"/>
<path d="M211.415 82.1865C211.415 82.1865 212.433 82.683 211.928 83.6845C211.516 84.5008 208.891 84.1052 208.891 84.1052" stroke="#800180" stroke-width="1.5" stroke-miterlimit="10" stroke-linecap="round" stroke-linejoin="round"/>
<path d="M200.572 49.0635C200.572 49.0635 197.324 53.5826 193.64 54.9711C189.947 56.3597 190.3 53.0608 192.378 51.1505" stroke="#800180" stroke-width="1.5" stroke-miterlimit="10" stroke-linecap="round" stroke-linejoin="round"/>
<path d="M192.689 52.1856C192.689 52.1856 192.168 53.5153 193.8 52.9935C195.423 52.4718 199.857 47.877 199.857 47.877" stroke="#800180" stroke-width="1.5" stroke-miterlimit="10" stroke-linecap="round" stroke-linejoin="round"/>
<path d="M192.942 39.9407C192.942 39.9407 194.271 44.5692 198.847 44.5944C202.557 44.6113 204.416 40.6981 204.416 37.7611C204.416 36.0696 204.492 28.4873 204.492 28.4873" stroke="#800180" stroke-width="1.5" stroke-miterlimit="10" stroke-linecap="round" stroke-linejoin="round"/>
<path d="M202.7 32.5609C201.758 32.3842 200.016 32.1822 199.301 32.7713C198.031 33.8148 200.513 37.6775 199.31 38.0309C198.553 38.2581 197.703 37.9131 197.703 37.9131" stroke="#800180" stroke-width="1.5" stroke-miterlimit="10" stroke-linecap="round" stroke-linejoin="round"/>
<path d="M201.354 34.3027V35.6324" stroke="#800180" stroke-width="1.5" stroke-miterlimit="10" stroke-linecap="round" stroke-linejoin="round"/>
<path d="M195.524 34.3027V35.6324" stroke="#800180" stroke-width="1.5" stroke-miterlimit="10" stroke-linecap="round" stroke-linejoin="round"/>
<path d="M196.761 32.6025C196.761 32.6025 195.036 31.8199 193.505 32.7961" stroke="#800180" stroke-width="1.5" stroke-miterlimit="10" stroke-linecap="round" stroke-linejoin="round"/>
<path d="M196.231 39.9662C196.231 39.9662 200.731 39.84 200.824 40.1261C200.925 40.4206 198.351 43.0631 196.231 39.9662Z" stroke="#800180" stroke-width="1.5" stroke-miterlimit="10" stroke-linecap="round" stroke-linejoin="round"/>
<path d="M180.097 59.6329C180.097 59.6329 179.903 54.3564 183.445 48.432C186.986 42.5075 184.976 30.8437 190.511 24.7257C196.046 18.6077 200.21 22.8996 200.21 22.8996C200.21 22.8996 201.749 20.619 204.921 23.8084C208.092 26.9979 211.869 37.7444 211.802 45.5623" stroke="#800180" stroke-width="1.5" stroke-miterlimit="10" stroke-linecap="round" stroke-linejoin="round"/>
<path d="M190.83 32.3076C190.83 32.3076 191.1 40.3864 187.777 46.496C184.454 52.6056 185.043 54.6169 185.043 54.6169" stroke="#800180" stroke-width="1.5" stroke-miterlimit="10" stroke-linecap="round" stroke-linejoin="round"/>
<path d="M192.942 33.7139C192.942 33.7139 193.741 43.9639 191.638 49.8631C189.308 56.4019 188.29 60.416 190.149 64.3881C190.149 64.3881 185.43 62.3263 187.642 49.0636" stroke="#800180" stroke-width="1.5" stroke-miterlimit="10" stroke-linecap="round" stroke-linejoin="round"/>
<path d="M206.595 32.3076C206.595 32.3076 206.965 39.0147 210.044 44.0724C212.542 48.1791 212.517 49.8706 212.517 49.8706" stroke="#800180" stroke-width="1.5" stroke-miterlimit="10" stroke-linecap="round" stroke-linejoin="round"/>
<path d="M196.761 26.3584C196.761 26.3584 196.231 29.2281 200.572 30.9785C204.163 32.4343 204.248 36.8777 204.248 36.8777" stroke="#800180" stroke-width="1.5" stroke-miterlimit="10" stroke-linecap="round" stroke-linejoin="round"/>
<path d="M197.518 28.8154C197.518 28.8154 196.668 32.3078 192.109 32.7959" stroke="#800180" stroke-width="1.5" stroke-miterlimit="10" stroke-linecap="round" stroke-linejoin="round"/>
<path d="M186.17 53.3633C186.17 53.3633 175.142 65.1112 174.233 65.7592" stroke="#800180" stroke-width="1.5" stroke-miterlimit="10" stroke-linecap="round" stroke-linejoin="round"/>
<path d="M174.873 65.1699L170.591 63.3438" stroke="#800180" stroke-width="1.5" stroke-miterlimit="10" stroke-linecap="round" stroke-linejoin="round"/>
<path d="M170.591 70.3794C170.591 70.3794 174.175 74.0232 176.387 73.6361C178.599 73.249 183.806 68.4102 183.806 68.4102" stroke="#800180" stroke-width="1.5" stroke-miterlimit="10" stroke-linecap="round" stroke-linejoin="round"/>
<path d="M175.142 62.8984C175.142 62.8984 176.446 67.8551 182.174 71.0446" stroke="#800180" stroke-width="1.5" stroke-miterlimit="10" stroke-linecap="round" stroke-linejoin="round"/>
<path d="M199.857 52.1855C199.857 52.1855 199.175 54.7943 201.716 58.1016" stroke="#800180" stroke-width="1.5" stroke-miterlimit="10" stroke-linecap="round" stroke-linejoin="round"/>
<path d="M210.666 85.3594C210.666 85.3594 211.423 100.473 210.666 108.544C209.909 116.614 210.843 129.389 212.071 135.381C213.299 141.372 210.666 162.478 210.666 162.478C210.666 162.478 207.478 162.562 206.569 163C205.661 163.438 203.533 163 203.533 163C203.533 163 202.296 139.42 200.572 131.737C198.847 124.053 196.82 97.9993 196.609 96.1732" stroke="#800180" stroke-width="1.5" stroke-miterlimit="10" stroke-linecap="round" stroke-linejoin="round"/>
<path d="M190.317 90.8965C190.317 90.8965 193.438 94.4815 197.93 96.5601" stroke="#800180" stroke-width="1.5" stroke-miterlimit="10" stroke-linecap="round" stroke-linejoin="round"/>
<path d="M185.043 82.498L171.457 96.5602" stroke="#800180" stroke-width="1.5" stroke-miterlimit="10" stroke-linecap="round" stroke-linejoin="round"/>
<path d="M194.12 95.6094C194.12 95.6094 177.699 110.025 175.142 108.031C172.585 106.036 175.882 104.21 178.658 111.851C181.434 119.492 188.164 139.681 188.164 139.681C188.164 139.681 186.212 139.748 184.908 140.203C183.604 140.657 181.846 140.203 181.846 140.203C181.846 140.203 173.249 124.836 170.583 121.319" stroke="#800180" stroke-width="1.5" stroke-miterlimit="10" stroke-linecap="round" stroke-linejoin="round"/>
<path d="M210.447 163.698C210.447 163.698 211.903 169.32 211.061 174.369H190.376C190.376 174.369 189.459 173.292 190.746 172.795C194.414 171.365 200.201 168.621 202.212 167.359C203.768 166.383 203.894 164.102 203.894 164.102" stroke="#800180" stroke-width="1.5" stroke-miterlimit="10" stroke-linecap="round" stroke-linejoin="round"/>
<path d="M198.384 169.404C198.384 169.404 197.535 171.642 211.23 168.646" stroke="#800180" stroke-width="1.5" stroke-miterlimit="10" stroke-linecap="round" stroke-linejoin="round"/>
<path d="M188.467 140.791C188.467 140.791 189.922 146.413 189.081 151.462H168.404C168.404 151.462 167.487 150.385 168.774 149.888C172.442 148.457 178.229 145.714 180.24 144.452C181.796 143.476 181.922 141.195 181.922 141.195" stroke="#800180" stroke-width="1.5" stroke-miterlimit="10" stroke-linecap="round" stroke-linejoin="round"/>
<path d="M176.404 146.497C176.404 146.497 175.554 148.735 189.249 145.739" stroke="#800180" stroke-width="1.5" stroke-miterlimit="10" stroke-linecap="round" stroke-linejoin="round"/>
<path d="M144.051 14.8965L143.63 25.7524C143.63 25.7524 143.159 30.0442 147.172 30.9447C151.184 31.8451 154.112 29.1522 154.112 29.1522" stroke="#800180" stroke-width="1.5" stroke-miterlimit="10" stroke-linecap="round" stroke-linejoin="round"/>
<path d="M146.793 26.0303C146.793 26.0303 148.164 26.5015 150.192 26.0303" stroke="#800180" stroke-width="1.5" stroke-miterlimit="10" stroke-linecap="round" stroke-linejoin="round"/>
<path d="M145.094 17.2109C145.094 17.2109 147.685 17.5391 147.828 18.7678C147.971 19.9964 146.692 22.6389 146.793 22.8745C146.886 23.1101 148.257 24.0527 148.257 24.0527" stroke="#800180" stroke-width="1.5" stroke-miterlimit="10" stroke-linecap="round" stroke-linejoin="round"/>
<path d="M151.412 20.417V21.8308" stroke="#800180" stroke-width="1.5" stroke-miterlimit="10" stroke-linecap="round" stroke-linejoin="round"/>
<path d="M145.893 19.9883V21.4105" stroke="#800180" stroke-width="1.5" stroke-miterlimit="10" stroke-linecap="round" stroke-linejoin="round"/>
<path d="M150.183 17.8164C150.183 17.8164 152.118 17.4882 153.439 18.7589" stroke="#800180" stroke-width="1.5" stroke-miterlimit="10" stroke-linecap="round" stroke-linejoin="round"/>
<path d="M158.158 19.3143C158.158 19.3143 160.185 17.9594 161.464 19.9875C162.743 22.0156 160.942 24.0017 158.873 24.2794" stroke="#800180" stroke-width="1.5" stroke-miterlimit="10" stroke-linecap="round" stroke-linejoin="round"/>
<path d="M158.865 24.2881C158.865 24.2881 157.822 33.6965 158.217 36.2548" stroke="#800180" stroke-width="1.5" stroke-miterlimit="10" stroke-linecap="round" stroke-linejoin="round"/>
<path d="M146.028 31.29C146.028 31.29 146.205 35.5567 145.893 36.6002" stroke="#800180" stroke-width="1.5" stroke-miterlimit="10" stroke-linecap="round" stroke-linejoin="round"/>
<path d="M156.652 16.4531C156.652 16.4531 156.232 21.7885 157.174 21.8306C158.116 21.8811 157.88 19.9876 157.88 19.9876" stroke="#800180" stroke-width="1.5" stroke-miterlimit="10" stroke-linecap="round" stroke-linejoin="round"/>
<path d="M161.27 18.7675C161.27 18.7675 162.314 12.397 157.897 9.84716C153.481 7.29729 149.754 9.28333 147.298 7.76855" stroke="#800180" stroke-width="1.5" stroke-miterlimit="10" stroke-linecap="round" stroke-linejoin="round"/>
<path d="M146.793 6.82616C146.793 6.82616 146.886 5.88363 147.079 5.648C147.264 5.41236 140.005 8.90477 143.26 12.7759C146.516 16.647 151.613 14.0971 155.862 15.9401" stroke="#800180" stroke-width="1.5" stroke-miterlimit="10" stroke-linecap="round" stroke-linejoin="round"/>
<path d="M153.439 40.7993C153.439 40.7993 160.219 36.255 162.061 32.8047C163.054 30.9364 159.125 31.7527 159.125 31.7527" stroke="#800180" stroke-width="1.5" stroke-miterlimit="10" stroke-linecap="round" stroke-linejoin="round"/>
<path d="M152.362 40.5378C152.362 40.5378 150.932 38.6696 147.937 37.7523C144.943 36.8434 138.306 34.7901 137.978 32.56C137.649 30.3299 145.17 34.6975 145.17 34.6975" stroke="#800180" stroke-width="1.5" stroke-miterlimit="10" stroke-linecap="round" stroke-linejoin="round"/>
<path d="M137.961 34.3027C137.961 34.3027 138.297 35.8007 137.128 36.8779C135.959 37.955 136.674 39.453 136.674 39.453C136.674 39.453 139.508 38.7629 144.539 40.7069C149.569 42.6508 150.587 41.8009 150.587 41.8009" stroke="#800180" stroke-width="1.5" stroke-miterlimit="10" stroke-linecap="round" stroke-linejoin="round"/>
<path d="M163.382 33.4443C163.382 33.4443 164.862 36.2467 164.728 37.2313C164.602 38.2075 158.696 37.7867 155.786 40.7994" stroke="#800180" stroke-width="1.5" stroke-miterlimit="10" stroke-linecap="round" stroke-linejoin="round"/>
<path d="M135.95 39.9404C135.95 39.9404 132.24 40.2266 130.222 42.6754C128.203 45.1159 126.512 47.2703 126.512 47.2703" stroke="#800180" stroke-width="1.5" stroke-miterlimit="10" stroke-linecap="round" stroke-linejoin="round"/>
<path d="M166.545 37.9131C166.545 37.9131 176.404 37.9131 182.174 46.8755" stroke="#800180" stroke-width="1.5" stroke-miterlimit="10" stroke-linecap="round" stroke-linejoin="round"/>
<path d="M133.696 51.6885C133.696 51.6885 136.934 68.8644 137.961 72.1632C138.987 75.462 134.436 79.3668 136.455 82.4973C138.474 85.6195 138.39 86.9239 145.893 87.4456C153.397 87.9674 157.342 85.5353 159.109 86.4021C160.875 87.2689 165.847 86.8986 168.959 87.5129C168.959 87.5129 175.941 88.0179 174.242 81.3613C173.594 78.8366 170.86 78.2055 170.599 73.6611C170.339 69.1168 171.037 54.7685 170.944 52.1766" stroke="#800180" stroke-width="1.5" stroke-miterlimit="10" stroke-linecap="round" stroke-linejoin="round"/>
<path d="M137.843 86.7979C137.843 86.7979 135.042 92.3352 135.757 92.6634C136.472 92.9916 142.444 96.5093 143.008 95.8529C143.571 95.2049 141.881 91.1655 144.741 92.209C147.601 93.2525 147.29 96.5093 147.87 96.5766C148.45 96.6439 154.12 97.0983 158.932 95.2049C163.744 93.3114 170.978 89.9284 173.838 90.9046C173.838 90.9046 171.104 87.8414 171.037 87.4543" stroke="#800180" stroke-width="1.5" stroke-miterlimit="10" stroke-linecap="round" stroke-linejoin="round"/>
<path d="M143.294 92.2936L144.463 88.877" stroke="#800180" stroke-width="1.5" stroke-miterlimit="10" stroke-linecap="round" stroke-linejoin="round"/>
<path d="M170.591 92.293C170.591 92.293 170.33 106.591 170.591 110.108C170.852 113.626 170.069 120.266 169.809 123.001C169.548 125.736 168.841 142.02 168.093 146.514" stroke="#800180" stroke-width="1.5" stroke-miterlimit="10" stroke-linecap="round" stroke-linejoin="round"/>
<path d="M155.92 97.1738C155.92 97.1738 156.753 111.152 156.467 117.236C156.181 123.312 157.098 133.217 156.467 137.038C155.836 140.858 156.307 142.424 156.307 142.424" stroke="#800180" stroke-width="1.5" stroke-miterlimit="10" stroke-linecap="round" stroke-linejoin="round"/>
<path d="M168.505 147.885C168.505 147.885 165.813 148.365 161.472 146.522C157.132 144.679 154.869 141.38 154.743 142.415C154.617 143.451 153.481 148.929 154.743 149.973C156.005 151.016 163.037 154.752 166.419 154.837" stroke="#800180" stroke-width="1.5" stroke-miterlimit="10" stroke-linecap="round" stroke-linejoin="round"/>
<path d="M167.117 154.054C167.117 154.054 166.595 152.489 167.117 150.839C167.638 149.19 168.084 149.19 168.084 149.19C168.084 149.19 165.115 150.191 159.479 147.305" stroke="#800180" stroke-width="1.5" stroke-miterlimit="10" stroke-linecap="round" stroke-linejoin="round"/>
<path d="M151.193 97.8643C151.193 97.8643 146.415 109.848 145.935 113.626C145.456 117.405 135.824 136.828 134.781 140.791C133.738 144.755 132.484 149.19 132.484 149.19" stroke="#800180" stroke-width="1.5" stroke-miterlimit="10" stroke-linecap="round" stroke-linejoin="round"/>
<path d="M136.127 93.7324C136.127 93.7324 129.355 115.133 129.01 118.011C128.665 120.881 129.355 120.712 128.573 122.791C127.791 124.878 123.61 139.066 123.61 139.066" stroke="#800180" stroke-width="1.5" stroke-miterlimit="10" stroke-linecap="round" stroke-linejoin="round"/>
<path d="M123.887 146.127C123.887 146.127 125.881 148.492 128.926 149.619C131.963 150.747 132.922 150.166 132.922 150.671C132.922 151.185 131.45 153.263 131.357 154.046C131.273 154.829 130.491 156.133 129.532 155.779C128.573 155.434 123.887 153.263 123.887 153.263" stroke="#800180" stroke-width="1.5" stroke-miterlimit="10" stroke-linecap="round" stroke-linejoin="round"/>
<path d="M158.351 154.054C158.351 154.054 158.738 171.852 158.94 172.374C159.142 172.896 172.61 172.181 173.064 172.374C173.518 172.568 174.561 164.497 167.075 164.169C159.588 163.841 159.79 168.646 159.79 168.646" stroke="#800180" stroke-width="1.5" stroke-miterlimit="10" stroke-linecap="round" stroke-linejoin="round"/>
<path d="M166.158 155.847C166.158 155.847 164.778 161.502 166.158 163.311" stroke="#800180" stroke-width="1.5" stroke-miterlimit="10" stroke-linecap="round" stroke-linejoin="round"/>
<path d="M159.226 163.159C159.226 163.159 161.439 164.093 166.158 163.311" stroke="#800180" stroke-width="1.5" stroke-miterlimit="10" stroke-linecap="round" stroke-linejoin="round"/>
<path d="M159.479 169.993C159.479 169.993 159.521 171.036 162.288 170.674C165.056 170.312 167.916 168.007 171.861 170.22" stroke="#800180" stroke-width="1.5" stroke-miterlimit="10" stroke-linecap="round" stroke-linejoin="round"/>
<path d="M127.622 155.847C127.622 155.847 124.476 159.911 125.2 163.311" stroke="#800180" stroke-width="1.5" stroke-miterlimit="10" stroke-linecap="round" stroke-linejoin="round"/>
<path d="M102.924 31.8704C104.987 31.8704 106.659 30.1975 106.659 28.1339C106.659 26.0703 104.987 24.3975 102.924 24.3975C100.862 24.3975 99.1895 26.0703 99.1895 28.1339C99.1895 30.1975 100.862 31.8704 102.924 31.8704Z" stroke="#800180" stroke-width="1.5" stroke-miterlimit="10" stroke-linecap="round" stroke-linejoin="round"/>
<path d="M111.824 31.8704C113.887 31.8704 115.559 30.1975 115.559 28.1339C115.559 26.0703 113.887 24.3975 111.824 24.3975C109.762 24.3975 108.089 26.0703 108.089 28.1339C108.089 30.1975 109.762 31.8704 111.824 31.8704Z" stroke="#800180" stroke-width="1.5" stroke-miterlimit="10" stroke-linecap="round" stroke-linejoin="round"/>
<path d="M103.143 28.0078V28.782" stroke="#800180" stroke-width="1.5" stroke-miterlimit="10" stroke-linecap="round" stroke-linejoin="round"/>
<path d="M111.471 28.0078V28.782" stroke="#800180" stroke-width="1.5" stroke-miterlimit="10" stroke-linecap="round" stroke-linejoin="round"/>
<path d="M107.585 29.3965C107.585 29.3965 107.703 31.635 108.308 32.5607C109.032 33.6631 107.114 33.5032 106.786 33.3265" stroke="#800180" stroke-width="1.5" stroke-miterlimit="10" stroke-linecap="round" stroke-linejoin="round"/>
<path d="M105.356 35.3128C105.356 35.3128 107.274 35.5064 109.259 35.3128C111.244 35.1108 107.366 38.7716 105.356 35.3128Z" stroke="#800180" stroke-width="1.5" stroke-miterlimit="10" stroke-linecap="round" stroke-linejoin="round"/>
<path d="M112.388 23.8756C112.388 23.8756 112.001 23.4548 112.388 22.1504" stroke="#800180" stroke-width="1.5" stroke-miterlimit="10" stroke-linecap="round" stroke-linejoin="round"/>
<path d="M112.968 20.6865C112.968 20.6865 115.618 21.6459 115.551 24.5324" stroke="#800180" stroke-width="1.5" stroke-miterlimit="10" stroke-linecap="round" stroke-linejoin="round"/>
<path d="M110.857 18.5068C110.756 18.4395 109.065 15.351 106.138 14.4337C103.211 13.5164 98.6175 15.3426 99.6606 19.1884" stroke="#800180" stroke-width="1.5" stroke-miterlimit="10" stroke-linecap="round" stroke-linejoin="round"/>
<path d="M98.7773 19.1885C98.7773 19.1885 96.4472 21.1072 99.1895 22.4116C103.631 24.5323 103.429 20.0384 110.479 22.3443" stroke="#800180" stroke-width="1.5" stroke-miterlimit="10" stroke-linecap="round" stroke-linejoin="round"/>
<path d="M99.1895 23.4209C99.1895 23.4209 98.8447 24.3971 99.3326 25.6005" stroke="#800180" stroke-width="1.5" stroke-miterlimit="10" stroke-linecap="round" stroke-linejoin="round"/>
<path d="M108.653 32.7372C108.653 32.7372 110.26 34.1257 112.211 33.4441C114.163 32.7624 114.079 31.9209 114.079 31.9209C114.079 31.9209 115.164 38.9478 112.211 41.7669C111.303 42.6337 108.468 43.896 108.468 43.896C108.468 43.896 102.58 42.6674 101.494 38.729C100.535 35.2534 101.15 32.5184 101.15 32.5184C101.15 32.5184 101.722 33.2926 103.143 33.7807C105.776 34.6727 106.786 33.3263 106.786 33.3263" stroke="#800180" stroke-width="1.5" stroke-miterlimit="10" stroke-linecap="round" stroke-linejoin="round"/>
<path d="M98.7605 30.3896C98.7605 30.3896 97.9782 32.0307 100.064 33.4445" stroke="#800180" stroke-width="1.5" stroke-miterlimit="10" stroke-linecap="round" stroke-linejoin="round"/>
<path d="M115.77 30.3896C115.77 30.3896 115.988 32.5608 114.987 33.2088" stroke="#800180" stroke-width="1.5" stroke-miterlimit="10" stroke-linecap="round" stroke-linejoin="round"/>
<path d="M102.924 42.373C102.924 42.373 103.227 42.8106 102.924 44.1571" stroke="#800180" stroke-width="1.5" stroke-miterlimit="10" stroke-linecap="round" stroke-linejoin="round"/>
<path d="M112.211 42.668C112.211 42.668 111.993 43.459 112.388 44.1575" stroke="#800180" stroke-width="1.5" stroke-miterlimit="10" stroke-linecap="round" stroke-linejoin="round"/>
<path d="M101.839 43.8965C101.839 43.8965 88.6913 44.5865 86.3443 53.1535C83.9974 61.7204 90.3821 78.5849 97.28 79.1739C104.178 79.763 116.88 66.9295 119.092 64.4554" stroke="#800180" stroke-width="1.5" stroke-miterlimit="10" stroke-linecap="round" stroke-linejoin="round"/>
<path d="M112.91 73.2487C112.91 73.2487 125.41 80.2166 129.574 77.0945C133.738 73.9724 133.612 58.4712 126.907 48.7598" stroke="#800180" stroke-width="1.5" stroke-miterlimit="10" stroke-linecap="round" stroke-linejoin="round"/>
<path d="M120.783 64.7162C120.783 64.7162 129.978 64.1608 134.646 70.9015C137.952 75.6815 131.719 75.2018 131.719 75.2018" stroke="#800180" stroke-width="1.5" stroke-miterlimit="10" stroke-linecap="round" stroke-linejoin="round"/>
<path d="M135.639 71.2296C135.639 71.2296 134.907 61.4004 129.835 52.1855" stroke="#800180" stroke-width="1.5" stroke-miterlimit="10" stroke-linecap="round" stroke-linejoin="round"/>
<path d="M100.317 67.1645C100.317 67.1645 116.813 58.7827 122.928 60.0871" stroke="#800180" stroke-width="1.5" stroke-miterlimit="10" stroke-linecap="round" stroke-linejoin="round"/>
<path d="M104.355 64.5053C104.355 64.5053 103.219 63.4702 101.722 62.3004C99.8036 60.8109 97.2968 59.1194 95.7658 59.0942C93.0319 59.0521 91.728 59.2541 93.2086 59.9525C94.6807 60.651 96.2453 60.5669 96.2453 60.5669" stroke="#800180" stroke-width="1.5" stroke-miterlimit="10" stroke-linecap="round" stroke-linejoin="round"/>
<path d="M94.3778 61.1729C94.3778 61.1729 92.8132 61.56 94.0329 62.1743C95.2443 62.7802 97.9782 62.4941 97.9782 62.4941" stroke="#800180" stroke-width="1.5" stroke-miterlimit="10" stroke-linecap="round" stroke-linejoin="round"/>
<path d="M95.7658 63.5635C95.7658 63.5635 94.6218 64.2788 96.6743 64.506C98.4577 64.708 99.5428 64.6491 99.5428 64.6491" stroke="#800180" stroke-width="1.5" stroke-miterlimit="10" stroke-linecap="round" stroke-linejoin="round"/>
<path d="M98.3231 65.5654C98.3231 65.5654 96.7416 67.055 100.317 66.2639" stroke="#800180" stroke-width="1.5" stroke-miterlimit="10" stroke-linecap="round" stroke-linejoin="round"/>
<path d="M97.4987 66.8623C97.4987 66.8623 89.6923 68.9493 88.3885 72.9803C87.0846 77.0197 90.8195 75.8921 90.8195 75.8921" stroke="#800180" stroke-width="1.5" stroke-miterlimit="10" stroke-linecap="round" stroke-linejoin="round"/>
<path d="M85.3433 61.1729C85.3433 61.1729 86.3443 68.2923 87.379 73.2911" stroke="#800180" stroke-width="1.5" stroke-miterlimit="10" stroke-linecap="round" stroke-linejoin="round"/>
<path d="M100.628 44.847C100.628 44.847 104.388 51.7308 109.814 52.7911C112.91 53.3971 114.861 44.502 114.861 44.502" stroke="#800180" stroke-width="1.5" stroke-miterlimit="10" stroke-linecap="round" stroke-linejoin="round"/>
<path d="M116.687 46.6734C116.602 46.7997 114.516 54.7102 110.739 54.8364C106.962 54.9626 100.367 49.8461 98.281 45.4111" stroke="#800180" stroke-width="1.5" stroke-miterlimit="10" stroke-linecap="round" stroke-linejoin="round"/>
<path d="M102.47 46.2861C102.47 46.2861 106.003 49.7869 109.999 48.6677C113.995 47.5484 114.272 44.8555 114.272 44.8555" stroke="#800180" stroke-width="1.5" stroke-miterlimit="10" stroke-linecap="round" stroke-linejoin="round"/>
<path d="M95.4462 80.2175C95.4462 80.2175 95.3621 94.2881 95.7658 94.2207C96.1696 94.1534 120.522 98.8408 124.106 89.5334C124.106 89.5334 124.173 87.6483 125.41 86.7983C126.646 85.9484 125.41 79.1992 125.41 79.1992" stroke="#800180" stroke-width="1.5" stroke-miterlimit="10" stroke-linecap="round" stroke-linejoin="round"/>
<path d="M94.0246 79.1904L93.5619 93.0843L94.0246 93.7323" stroke="#800180" stroke-width="1.5" stroke-miterlimit="10" stroke-linecap="round" stroke-linejoin="round"/>
<path d="M123.887 93.084C123.887 93.084 124.972 106.995 124.737 117.211C124.501 127.427 123.198 133.116 122.937 137.635C122.676 142.154 123.458 154.828 123.458 154.828" stroke="#800180" stroke-width="1.5" stroke-miterlimit="10" stroke-linecap="round" stroke-linejoin="round"/>
<path d="M113.902 102.299C113.465 102.56 108.174 107.592 108.174 107.592" stroke="#800180" stroke-width="1.5" stroke-miterlimit="10" stroke-linecap="round" stroke-linejoin="round"/>
<path d="M111.042 106.204C111.042 106.204 112.868 125.139 112.514 127.133C112.169 129.128 111.303 128.606 112.253 130.306C113.204 132.006 112.338 133.882 112.169 140.404C111.993 146.935 113.381 155.443 113.381 155.443" stroke="#800180" stroke-width="1.5" stroke-miterlimit="10" stroke-linecap="round" stroke-linejoin="round"/>
<path d="M94.7227 90.585C94.7227 90.585 94.8994 96.8208 94.7227 99.337C94.5461 101.853 93.9152 112.709 93.7974 115.225C93.6796 117.742 94.462 122.446 94.0329 123.304C93.5955 124.171 93.5703 126.687 93.5703 126.687" stroke="#800180" stroke-width="1.5" stroke-miterlimit="10" stroke-linecap="round" stroke-linejoin="round"/>
<path d="M109.048 107.593C109.048 107.593 103.841 125.391 104.531 127.041C105.229 128.69 98.3652 131.905 98.3652 131.905" stroke="#800180" stroke-width="1.5" stroke-miterlimit="10" stroke-linecap="round" stroke-linejoin="round"/>
<path d="M102.882 130.65L98.8867 146.926" stroke="#800180" stroke-width="1.5" stroke-miterlimit="10" stroke-linecap="round" stroke-linejoin="round"/>
<path d="M112.775 155.847C112.775 155.847 114.163 158.826 123.887 156.486V162.04C123.887 162.04 117.578 164.472 113.742 162.04" stroke="#800180" stroke-width="1.5" stroke-miterlimit="10" stroke-linecap="round" stroke-linejoin="round"/>
<path d="M112.775 156.999V160.121C112.775 160.121 113.86 162.301 119.547 161.594" stroke="#800180" stroke-width="1.5" stroke-miterlimit="10" stroke-linecap="round" stroke-linejoin="round"/>
<path d="M88.6492 159.953C88.6492 159.953 86.4789 163.353 92.2075 163.698" stroke="#800180" stroke-width="1.5" stroke-miterlimit="10" stroke-linecap="round" stroke-linejoin="round"/>
<path d="M123.441 162.284C123.441 162.284 123.282 164.396 123.685 165.415C124.089 166.433 135.033 169.185 136.245 169.749C137.456 170.313 137.262 172.921 137.262 172.921L115.013 173.14V163.723" stroke="#800180" stroke-width="1.5" stroke-miterlimit="10" stroke-linecap="round" stroke-linejoin="round"/>
<path d="M123.685 165.415H115.189" stroke="#800180" stroke-width="1.5" stroke-miterlimit="10" stroke-linecap="round" stroke-linejoin="round"/>
<path d="M137.077 171.659H115.349" stroke="#800180" stroke-width="1.5" stroke-miterlimit="10" stroke-linecap="round" stroke-linejoin="round"/>
<path d="M113.557 43.0713C113.557 43.0713 119.74 43.3322 121.481 43.896C123.214 44.4598 126.756 48.0616 126.276 48.2131C125.797 48.3646 122.112 45.9325 122.112 45.9325" stroke="#800180" stroke-width="1.5" stroke-miterlimit="10" stroke-linecap="round" stroke-linejoin="round"/>
<path d="M115.837 44.6791C115.879 44.7464 118.201 46.8082 120.203 47.7843C122.196 48.7605 123.198 50.7382 123.997 50.1322C124.796 49.5263 120.354 44.5107 120.354 44.5107" stroke="#800180" stroke-width="1.5" stroke-miterlimit="10" stroke-linecap="round" stroke-linejoin="round"/>
<path d="M100.956 42.373C100.956 42.373 94.033 43.9383 88.7586 46.2189C83.4842 48.4995 78.6053 52.1854 78.6053 52.1854" stroke="#800180" stroke-width="1.5" stroke-miterlimit="10" stroke-linecap="round" stroke-linejoin="round"/>
<path d="M197.409 168.646C197.409 168.646 192.218 152.228 180.307 151.849C168.395 151.47 166.503 160.247 166.503 160.247" stroke="#800180" stroke-width="1.5" stroke-miterlimit="10" stroke-linecap="round" stroke-linejoin="round"/>
<path d="M66.6012 53.9268C66.6012 53.9268 58.0041 62.5273 59.8295 66.8697C61.655 71.212 63.1355 70.5136 63.085 76.4212" stroke="#800180" stroke-width="1.5" stroke-miterlimit="10" stroke-linecap="round" stroke-linejoin="round"/>
<path d="M78.5968 51.3185H77.1836C77.1836 51.3185 72.843 57.3102 69.0239 57.0494C65.2048 56.7885 68.2416 52.8248 68.2416 52.8248L68.2079 44.502" stroke="#800180" stroke-width="1.5" stroke-miterlimit="10" stroke-linecap="round" stroke-linejoin="round"/>
<path d="M78.5968 52.8252C78.5968 52.8252 80.8344 64.4216 84.4769 62.5618C84.4769 62.5618 82.5673 69.2942 82.0458 75.8077" stroke="#800180" stroke-width="1.5" stroke-miterlimit="10" stroke-linecap="round" stroke-linejoin="round"/>
<path d="M66.6013 52.8251C66.6013 52.8251 60.267 51.0662 57.8359 62.5617C55.4048 74.0572 53.8402 77.2887 55.0599 81.892C56.2797 86.4952 57.4742 90.1138 57.4742 90.1138" stroke="#800180" stroke-width="1.5" stroke-miterlimit="10" stroke-linecap="round" stroke-linejoin="round"/>
<path d="M74.9208 47.4561L76.5779 50.7801" stroke="#800180" stroke-width="1.5" stroke-miterlimit="10" stroke-linecap="round" stroke-linejoin="round"/>
<path d="M70.0502 44.2829C70.0502 44.2829 71.9177 47.607 76.1658 47.4556C78.4454 47.3714 79.539 44.9814 79.825 41.8761C79.8671 41.3796 80.6494 41.691 81.0027 40.9083C81.1289 40.6391 80.8008 40.4792 80.5484 40.1594C79.5726 38.9223 79.7661 37.458 79.7156 37.0625" stroke="#800180" stroke-width="1.5" stroke-miterlimit="10" stroke-linecap="round" stroke-linejoin="round"/>
<path d="M61.7727 77.0273C61.7727 77.0273 66.1638 76.6234 68.1827 77.9025" stroke="#800180" stroke-width="1.5" stroke-miterlimit="10" stroke-linecap="round" stroke-linejoin="round"/>
<path d="M69.0239 80.0821V76.96C69.0239 76.96 74.4245 75.2432 76.5779 75.807" stroke="#800180" stroke-width="1.5" stroke-miterlimit="10" stroke-linecap="round" stroke-linejoin="round"/>
<path d="M75.7536 78.7864C76.0648 78.5255 77.6883 76.043 77.6883 76.043C77.6883 76.043 82.5673 76.4469 82.5673 76.9687C82.5673 77.4904 81.9196 80.0908 81.9196 80.0908" stroke="#800180" stroke-width="1.5" stroke-miterlimit="10" stroke-linecap="round" stroke-linejoin="round"/>
<path d="M62.1934 77.8945L62.6055 80.3434H66.6013" stroke="#800180" stroke-width="1.5" stroke-miterlimit="10" stroke-linecap="round" stroke-linejoin="round"/>
<path d="M69.6801 81.3193C69.6801 81.3193 69.0492 88.4809 70.2437 91.9985" stroke="#800180" stroke-width="1.5" stroke-miterlimit="10" stroke-linecap="round" stroke-linejoin="round"/>
<path d="M77.764 38.0811V39.2508" stroke="#800180" stroke-width="1.5" stroke-miterlimit="10" stroke-linecap="round" stroke-linejoin="round"/>
<path d="M76.4518 36.7432C76.4518 36.7432 77.3266 36.1877 78.4202 36.4486" stroke="#800180" stroke-width="1.5" stroke-miterlimit="10" stroke-linecap="round" stroke-linejoin="round"/>
<path d="M79.5726 43.5511C79.5726 43.5511 77.764 43.1387 77.764 43.5174C77.764 43.6773 77.9323 44.5357 79.1857 44.8555" stroke="#800180" stroke-width="1.5" stroke-miterlimit="10" stroke-linecap="round" stroke-linejoin="round"/>
<path d="M69.5791 38.6621C69.5791 38.6621 65.5077 36.7434 65.2806 40.1264C65.0534 43.5094 68.8977 44.1069 68.8977 44.1069" stroke="#800180" stroke-width="1.5" stroke-miterlimit="10" stroke-linecap="round" stroke-linejoin="round"/>
<path d="M70.4287 38.0815C70.6222 38.0142 75.8797 37.2652 77.436 33.0322C77.436 33.0322 79.3792 33.3268 80.5232 35.8009" stroke="#800180" stroke-width="1.5" stroke-miterlimit="10" stroke-linecap="round" stroke-linejoin="round"/>
<path d="M80.8008 36.5579C80.8008 36.5579 79.8839 28.2603 70.0502 28.5212C70.0502 28.5212 73.8356 20.5349 68.1743 20.7453C62.513 20.9641 57.8359 27.0989 59.8296 30.381C61.1334 32.5269 64.3553 31.8452 64.3553 31.8452C64.3553 31.8452 65.2974 29.0345 68.8641 27.688" stroke="#800180" stroke-width="1.5" stroke-miterlimit="10" stroke-linecap="round" stroke-linejoin="round"/>
<path d="M64.6413 32.5439C64.6413 32.5439 58.736 45.1923 66.5928 44.1067" stroke="#800180" stroke-width="1.5" stroke-miterlimit="10" stroke-linecap="round" stroke-linejoin="round"/>
<path d="M56.7003 93.7324C56.7003 93.7324 58.8538 109.68 60.9484 117.708C63.043 125.745 62.8916 126.822 64.3973 130.651C65.9031 134.48 66.6854 135.271 68.1827 140.404C69.6801 145.546 72.801 154.837 72.801 154.837" stroke="#800180" stroke-width="1.5" stroke-miterlimit="10" stroke-linecap="round" stroke-linejoin="round"/>
<path d="M80.2288 154.618C80.2288 154.618 75.1479 156.301 72.9776 155.847C71.026 155.443 71.8504 154.357 71.8504 154.357" stroke="#800180" stroke-width="1.5" stroke-miterlimit="10" stroke-linecap="round" stroke-linejoin="round"/>
<path d="M71.455 156.183C71.455 156.183 72.0186 156.907 72.2794 157.622C72.4729 158.135 72.2373 158.649 72.8009 158.876C74.1469 159.414 77.8398 158.75 80.2204 157.311V155.442" stroke="#800180" stroke-width="1.5" stroke-miterlimit="10" stroke-linecap="round" stroke-linejoin="round"/>
<path d="M79.968 153.532C79.968 153.532 79.8418 142.937 77.3603 136.356C74.8787 129.775 74.1048 131.736 73.9786 126.258C73.8525 120.788 72.8094 100.986 72.8094 100.986" stroke="#800180" stroke-width="1.5" stroke-miterlimit="10" stroke-linecap="round" stroke-linejoin="round"/>
<path d="M68.1827 95.3398C68.3762 95.7774 73.844 102.552 76.5779 104.117" stroke="#800180" stroke-width="1.5" stroke-miterlimit="10" stroke-linecap="round" stroke-linejoin="round"/>
<path d="M75.2741 104.941C75.2741 104.941 84.3002 124.179 84.4769 128.218C84.6535 132.258 86.807 144.191 90.87 150.991" stroke="#800180" stroke-width="1.5" stroke-miterlimit="10" stroke-linecap="round" stroke-linejoin="round"/>
<path d="M79.968 85.4512C79.968 85.4512 85.4022 92.1162 89.5998 94.2116" stroke="#800180" stroke-width="1.5" stroke-miterlimit="10" stroke-linecap="round" stroke-linejoin="round"/>
<path d="M82.5673 81.3193C82.5673 81.3193 87.2528 88.565 89.5998 99.7239C91.9468 110.883 92.2075 127.646 94.7984 134.328C98.1212 142.903 98.3652 151.453 98.3652 151.453" stroke="#800180" stroke-width="1.5" stroke-miterlimit="10" stroke-linecap="round" stroke-linejoin="round"/>
<path d="M73.9786 126.267C73.9786 126.267 73.5412 129.784 73.6337 136.365" stroke="#800180" stroke-width="1.5" stroke-miterlimit="10" stroke-linecap="round" stroke-linejoin="round"/>
<path d="M90.8784 152.228C90.8364 152.186 89.4904 152.792 92.3421 153.011C95.2022 153.23 99.1054 151.942 99.2989 152.228C99.4924 152.514 99.5597 153.861 97.9277 154.357" stroke="#800180" stroke-width="1.5" stroke-miterlimit="10" stroke-linecap="round" stroke-linejoin="round"/>
<path d="M91.4252 154.357C91.4252 154.357 89.9952 156.293 92.9562 156.747C95.9172 157.202 100.544 156.705 99.3998 154.837" stroke="#800180" stroke-width="1.5" stroke-miterlimit="10" stroke-linecap="round" stroke-linejoin="round"/>
<path d="M75.6694 159.574L75.947 162.082" stroke="#800180" stroke-width="1.5" stroke-miterlimit="10" stroke-linecap="round" stroke-linejoin="round"/>
<path d="M81.4485 165.482C77.5285 169.05 73.844 165.692 73.844 165.692C73.844 165.692 71.4382 168.099 67.106 168.915C62.7738 169.732 61.3017 170.026 61.7391 172.921L81.886 173.132C81.886 173.132 82.0878 172.736 82.0963 170.38C82.1047 167.157 79.968 158.918 79.968 158.918" stroke="#800180" stroke-width="1.5" stroke-miterlimit="10" stroke-linecap="round" stroke-linejoin="round"/>
<path d="M61.9494 171.045H81.9196" stroke="#800180" stroke-width="1.5" stroke-miterlimit="10" stroke-linecap="round" stroke-linejoin="round"/>
<path d="M76.8387 166.677C76.8387 166.677 76.3845 162.082 74.3992 161.746C71.9261 161.325 73.844 163.286 73.844 165.701" stroke="#800180" stroke-width="1.5" stroke-miterlimit="10" stroke-linecap="round" stroke-linejoin="round"/>
<path d="M98.8867 157.243L99.9298 163.311" stroke="#800180" stroke-width="1.5" stroke-miterlimit="10" stroke-linecap="round" stroke-linejoin="round"/>
<path d="M97.6333 167.704C97.6333 167.704 95.5976 164.102 97.1118 163.724C98.6343 163.345 100.889 163.724 101.107 165.079" stroke="#800180" stroke-width="1.5" stroke-miterlimit="10" stroke-linecap="round" stroke-linejoin="round"/>
<path d="M101.099 165.331L103.791 169.202C103.791 169.202 108.535 169.707 109.343 171.045C110.125 172.333 109.73 173.132 109.73 173.132H95.5892" stroke="#800180" stroke-width="1.5" stroke-miterlimit="10" stroke-linecap="round" stroke-linejoin="round"/>
<path d="M94.2937 171.045H109.091" stroke="#800180" stroke-width="1.5" stroke-miterlimit="10" stroke-linecap="round" stroke-linejoin="round"/>
<path d="M94.504 165.769C94.504 165.769 94.7648 166.812 96.5482 165.769" stroke="#800180" stroke-width="1.5" stroke-miterlimit="10" stroke-linecap="round" stroke-linejoin="round"/>
<path d="M113.355 163.117L104.052 167.426" stroke="#800180" stroke-width="1.5" stroke-miterlimit="10" stroke-linecap="round" stroke-linejoin="round"/>
<path d="M110.108 170.287H113.742" stroke="#800180" stroke-width="1.5" stroke-miterlimit="10" stroke-linecap="round" stroke-linejoin="round"/>
<path d="M91.0803 166.114C86.0667 166.215 85.3685 170.018 85.3685 170.018V172.93H94.5881C93.545 167.839 95.5892 162.562 95.5892 162.562L94.3274 157.74" stroke="#800180" stroke-width="1.5" stroke-miterlimit="10" stroke-linecap="round" stroke-linejoin="round"/>
<path d="M85.6293 170.287H92.9562" stroke="#800180" stroke-width="1.5" stroke-miterlimit="10" stroke-linecap="round" stroke-linejoin="round"/>
<path d="M55.2786 95.3399C55.2786 95.3399 61.7727 87.5136 63.4972 83.6846" stroke="#800180" stroke-width="1.5" stroke-miterlimit="10" stroke-linecap="round" stroke-linejoin="round"/>
<path d="M61.7727 71.2295C61.7727 71.2295 59.8884 76.75 60.1997 78.4668C60.5109 80.1835 62.1849 85.4516 62.1849 85.4516" stroke="#800180" stroke-width="1.5" stroke-miterlimit="10" stroke-linecap="round" stroke-linejoin="round"/>
</g>
<defs>
<clipPath id="clip0">
<rect width="179" height="170" fill="white" transform="translate(54 5)"/>
</clipPath>
</defs>
</svg>
