<svg width="286" height="180" viewBox="0 0 286 180" fill="none" xmlns="http://www.w3.org/2000/svg">
<path d="M183.726 50.3906C183.521 50.1856 183.339 49.9806 183.186 49.7681C182.69 49.0745 182.005 48.3312 181.152 48.3312C180.299 48.3312 179.591 49.0361 179.835 49.8535C180.161 50.946 180.816 51.9473 181.666 52.6559C182.49 53.4797 183.726 53.8915 184.756 54.0975V55.8479C184.756 56.7009 185.447 57.3924 186.3 57.3924C187.153 57.3924 187.845 56.7009 187.845 55.8479V54.0975C189.08 53.8915 190.11 53.2737 190.934 52.6559C192.169 51.4203 192.993 49.9787 192.993 48.3312C192.993 46.6838 192.169 45.0363 190.934 44.0066C189.698 42.9769 188.051 42.3591 186.197 42.3591C185.167 42.3591 184.138 41.9472 183.52 41.3294C182.902 40.7116 182.49 40.0938 182.49 39.2701C182.49 38.4463 182.902 37.8285 183.52 37.2107C184.961 35.9751 187.433 35.9751 188.874 37.2107C189.079 37.4157 189.262 37.6207 189.414 37.8332C189.91 38.5269 190.595 39.2701 191.448 39.2701C192.301 39.2701 193.009 38.5652 192.765 37.7478C192.439 36.6553 191.784 35.654 190.934 34.9454C190.11 34.1217 188.874 33.7098 187.845 33.5038V31.5475C187.845 30.6944 187.153 30.0029 186.3 30.0029C185.447 30.0029 184.756 30.6944 184.756 31.5475V33.2979C183.52 33.5038 182.49 33.9157 181.666 34.7395C180.431 35.9751 179.607 37.4166 179.607 39.0641C179.607 40.7116 180.431 42.3591 181.666 43.3888C182.902 44.4185 184.55 45.0363 186.403 45.0363C187.433 45.0363 188.462 45.4481 189.08 46.066C189.698 46.6838 190.11 47.3016 190.11 48.1253C190.11 48.9491 189.698 49.5669 189.08 50.1847C187.639 51.6262 185.167 51.6262 183.726 50.3906Z" fill="#10E8E8" stroke="#FAF7FB"/>
<path d="M150.57 108.464C169.722 108.464 185.373 92.8124 185.373 73.6603C185.373 70.5713 184.961 67.4822 184.138 64.5991C184.756 64.5991 185.579 64.805 186.197 64.805C197.729 64.805 206.997 55.5379 206.997 44.0055C207.203 32.2671 197.935 23 186.403 23C175.488 23 166.633 31.4434 165.809 41.9461C161.073 39.6808 155.924 38.4452 150.776 38.4452C131.624 38.4452 115.973 54.0964 115.973 73.2484C115.767 92.8124 131.418 108.464 150.57 108.464ZM132.242 75.1019C132.448 81.2799 133.271 86.8402 134.919 91.5768C132.654 92.8124 130.388 94.2539 128.329 96.1073C122.975 90.753 119.474 83.3393 119.062 75.1019H132.242ZM167.251 51.6251C166.633 52.037 166.221 52.2429 165.603 52.6548C164.162 48.742 162.103 45.447 159.837 43.1817C161.897 43.7996 163.956 44.6233 165.809 45.653C165.809 47.5064 166.427 49.5658 167.251 51.6251ZM149.129 105.169C145.01 104.345 141.097 99.8142 138.626 93.2242C141.921 91.7827 145.422 91.1649 149.129 90.9589V105.169ZM141.509 103.933C137.39 102.697 133.683 100.638 130.388 97.9608C132.036 96.5192 133.889 95.2836 135.743 94.4599C137.39 98.3727 139.244 101.668 141.509 103.933ZM152.218 105.169V90.9589C155.924 91.1649 159.425 91.9886 162.72 93.2242C160.249 99.6083 156.336 104.345 152.218 105.169ZM165.603 94.4599C167.457 95.4895 169.31 96.7252 170.958 97.9608C167.663 100.638 163.956 102.697 159.837 103.933C162.103 101.668 163.956 98.3727 165.603 94.4599ZM152.218 87.8699V75.1019H166.015C165.809 80.6621 164.986 85.8105 163.544 90.3411C160.043 88.6936 156.13 87.8699 152.218 87.8699ZM152.218 72.0128V59.2448C156.13 59.0388 160.043 58.2151 163.75 56.7735C165.192 61.3041 166.015 66.4525 166.221 72.0128H152.218ZM152.218 56.1557V41.7402C156.336 42.5639 160.249 47.0945 162.72 53.6845C159.425 55.126 155.924 55.9498 152.218 56.1557ZM149.129 41.7402V55.9498C145.422 55.9498 141.921 55.126 138.626 53.8904C141.097 47.3005 145.01 42.7699 149.129 41.7402ZM135.743 52.4489C133.889 51.4192 132.036 50.1836 130.388 48.948C133.683 46.2708 137.39 44.2114 141.509 42.9758C139.244 45.447 137.39 48.5361 135.743 52.4489ZM149.129 59.2448V72.0128H135.331C135.537 66.4525 136.361 61.3041 137.802 56.7735C141.303 58.2151 145.216 59.0388 149.129 59.2448ZM149.129 75.1019V87.8699C145.216 88.0758 141.303 88.8996 137.596 90.3411C136.155 85.8105 135.331 80.6621 135.125 75.1019H149.129ZM173.223 95.9014C171.164 94.2539 168.898 92.6064 166.633 91.3708C168.075 86.6343 169.104 80.8681 169.31 74.8959H182.49C182.078 83.1334 178.577 90.5471 173.223 95.9014ZM182.49 72.0128H169.104C168.898 65.8347 168.075 60.2745 166.427 55.5379C167.045 55.126 167.663 54.9201 168.487 54.5082C171.164 59.0388 175.694 62.5397 180.843 63.9813C181.872 66.4525 182.284 69.1297 182.49 72.0128ZM186.403 26.089C196.082 26.089 204.114 34.1206 204.114 43.7996C204.114 53.4786 196.082 61.5101 186.403 61.5101C176.724 61.5101 168.693 53.4786 168.693 43.7996C168.693 34.1206 176.724 26.089 186.403 26.089ZM128.123 51.0073C130.182 52.6548 132.448 54.3023 134.713 55.5379C133.271 60.2745 132.242 66.0407 132.036 72.0128H118.856C119.268 63.7754 122.769 56.3617 128.123 51.0073Z" fill="#800180" stroke="#FAF7FB"/>
<path d="M194.64 117.939L168.075 129.677C168.075 129.265 168.281 128.853 168.281 128.441C168.281 124.735 165.192 121.646 161.485 121.646C161.485 121.646 161.485 121.646 161.279 121.646H142.95L128.947 115.056C126.064 113.614 122.769 112.996 119.474 112.996H108.765V108.054H78.6984V111.143H105.676V149.241H84.2586V152.33H108.765V147.388H116.797L142.539 156.037C144.186 156.655 146.039 156.861 147.893 156.861C150.57 156.861 153.247 156.243 155.718 155.007L200.407 131.53C204.113 129.883 205.967 125.558 204.319 121.851C202.672 118.145 198.347 116.497 194.64 117.939ZM201.436 126.382C201.024 127.412 200.201 128.235 198.965 128.853L154.277 152.33C150.982 153.977 147.069 154.389 143.568 153.154L117.62 144.504H108.765V116.085H119.474C122.151 116.085 125.034 116.703 127.505 117.939L142.127 124.735H161.279C163.338 124.735 164.986 126.382 164.986 128.441C164.986 130.501 163.338 132.354 161.073 132.354H138.832H138.626C136.566 132.766 132.654 134.414 132.654 138.532H135.743C135.743 136.267 138.42 135.443 139.038 135.237H161.485C162.72 135.237 163.75 134.825 164.574 134.414L195.876 120.616C196.906 120.204 198.141 120.204 199.171 120.616C200.201 121.028 201.024 121.851 201.436 122.881C201.848 124.117 201.848 125.352 201.436 126.382Z" fill="#800180" stroke="#FAF7FB"/>
<path d="M91.0545 142.548C91.0545 143.401 91.746 144.093 92.5991 144.093C93.4521 144.093 94.1436 143.401 94.1436 142.548C94.1436 141.695 93.4521 141.004 92.5991 141.004C91.746 141.004 91.0545 141.695 91.0545 142.548Z" fill="#800180" stroke="#FAF7FB"/>
<path d="M97.6445 142.548C97.6445 143.401 98.336 144.093 99.189 144.093C100.042 144.093 100.734 143.401 100.734 142.548C100.734 141.695 100.042 141.004 99.189 141.004C98.336 141.004 97.6445 141.695 97.6445 142.548Z" fill="#800180" stroke="#FAF7FB"/>
</svg>
