<svg width="286" height="180" viewBox="0 0 286 180" fill="none" xmlns="http://www.w3.org/2000/svg">
<g clip-path="url(#clip0)">
<path d="M201.887 51.3626C198.466 46.3687 193.807 42.1546 188.197 39.167" stroke="#800180" stroke-width="1.5" stroke-miterlimit="10" stroke-linecap="round" stroke-linejoin="round"/>
<path d="M97.8119 39.167C85.3435 45.808 77.5867 58.5117 77.5867 72.3105C77.5867 76.2618 78.2411 80.1868 79.3929 83.5687C80.7191 89.351 83.6246 95.5277 87.5422 101.661" stroke="#800180" stroke-width="1.5" stroke-miterlimit="10" stroke-linecap="round" stroke-linejoin="round"/>
<path d="M163.757 20.83C156.411 21.9164 148.872 24.7989 143.026 30.2308C128.167 16.502 104.591 15.2579 86.8006 25.0617C71.3045 33.5513 61.6544 49.7945 61.6544 67.4395C61.6544 72.4947 62.4658 77.5061 63.9055 81.8341C65.9385 90.9282 70.9293 100.785 77.5867 110.352" stroke="#800180" stroke-width="1.5" stroke-miterlimit="10" stroke-linecap="round" stroke-linejoin="round"/>
<path d="M224.346 67.4306C224.346 49.7943 214.704 33.5423 199.199 25.0615" stroke="#800180" stroke-width="1.5" stroke-miterlimit="10" stroke-linecap="round" stroke-linejoin="round"/>
<path d="M110.856 145.134C122.853 154.368 134.676 160.343 143.026 160.343C158.653 160.343 186.461 139.352 204.792 115.407" stroke="#800180" stroke-width="1.5" stroke-miterlimit="10" stroke-linecap="round" stroke-linejoin="round"/>
<path d="M192.306 34.559C176.653 26.1571 156.001 28.7066 143.026 40.429C129.982 28.7241 109.303 26.2009 93.7023 34.559C80.0996 41.7958 71.6448 55.6647 71.6448 70.7164C71.6448 75.0269 72.3603 79.3111 73.6167 82.9996C80.2741 111.929 123.002 149.996 143.026 149.996C163.007 149.996 205.708 111.929 212.244 83.4902C213.648 79.3024 214.364 75.0357 214.364 70.7164C214.364 55.6647 205.909 41.7958 192.306 34.559Z" stroke="#800180" stroke-width="1.5" stroke-miterlimit="10" stroke-linecap="round" stroke-linejoin="round"/>
<path d="M160.991 135.417C160.991 135.417 190.718 116.37 201.887 88.4834" stroke="#800180" stroke-width="1.5" stroke-miterlimit="10" stroke-linecap="round" stroke-linejoin="round"/>
</g>
<defs>
<clipPath id="clip0">
<rect width="164" height="143" fill="white" transform="translate(61 18)"/>
</clipPath>
</defs>
</svg>
