<svg width="202" height="145" viewBox="0 0 202 145" fill="none" xmlns="http://www.w3.org/2000/svg">
<path d="M166.772 81.6464C157.974 85.1248 151.017 92.6956 148.357 95.7648C147.948 96.3787 147.334 96.3787 146.925 96.3787C146.311 96.3787 145.902 96.1741 145.492 95.7648L128.509 71.211C128.305 71.0064 128.305 70.5971 128.305 70.1879C128.509 69.5741 128.918 68.7556 129.737 68.3464C130.351 67.9371 131.374 67.5279 132.602 66.9141C134.238 66.0956 136.285 65.2771 138.74 64.0495L137.308 61.3895C135.057 62.6171 133.011 63.4356 131.374 64.2541C129.942 64.8679 128.918 65.4818 128.1 65.891C126.668 66.9141 125.44 68.1418 125.235 69.7787C125.235 70.1879 125.235 70.5971 125.235 71.0064H77.56C77.56 70.5971 77.56 70.1879 77.56 69.7787C77.1508 68.3464 76.1277 66.9141 74.6954 65.891C73.8769 65.4818 72.8538 64.8679 71.4215 64.2541C69.58 63.4356 67.3292 62.4125 64.4646 60.9802L63.0323 63.6402C65.8969 65.2771 68.3523 66.3002 70.1938 67.1187C71.4215 67.7325 72.6492 68.1418 73.0585 68.551C73.8769 68.9602 74.4908 69.7787 74.4908 70.3925C74.4908 70.8018 74.4908 71.0064 74.2862 71.4156L57.3031 95.9695C57.0985 96.3787 56.4846 96.5833 55.8708 96.5833C55.4615 96.5833 54.8477 96.5833 54.2338 95.9695C51.5738 92.9002 44.6169 85.3295 35.8185 81.851L35 84.511C43.3892 87.9895 50.3462 95.5602 52.1877 97.811C53.2108 99.0387 54.4385 99.6525 56.0754 99.6525H56.28C57.7123 99.6525 58.94 99.0387 59.7585 98.0156C60.7815 99.0387 62.4185 100.471 63.0323 101.903C63.2369 102.517 63.4415 102.722 63.6462 103.131C63.6462 103.336 63.8508 103.54 63.8508 103.745C63.2369 104.154 62.6231 104.563 62.2138 105.177C61.1908 106.609 60.7815 108.451 60.9862 110.088C61.1908 111.929 62.2138 113.362 63.6462 114.385L63.8508 114.589C65.0785 115.408 66.3062 115.817 67.7385 115.817C68.1477 115.817 68.5569 115.817 68.9662 115.613C68.9662 116.022 68.9662 116.226 68.9662 116.636C69.1708 118.477 70.1938 120.114 71.6262 121.137C72.8538 121.956 74.2862 122.569 75.7185 122.569C76.3323 122.569 76.9462 122.569 77.3554 122.365C77.3554 122.569 77.3554 122.774 77.3554 122.979C77.56 124.82 78.5831 126.457 80.0154 127.48C81.2431 128.299 82.6754 128.913 84.1077 128.913C84.7215 128.913 85.3354 128.708 85.9492 128.503C85.9492 128.708 85.9492 128.708 85.9492 128.913C86.1538 130.549 86.9723 131.982 88.4046 133.005C89.4277 133.823 90.6554 134.233 92.0877 134.233C93.9292 134.233 95.5662 133.414 96.7938 131.982C98.0215 132.596 99.2492 133.005 100.477 133.005C100.886 133.005 101.295 133.005 101.705 132.8C103.546 132.391 105.183 131.368 106.206 129.936C107.025 128.708 107.434 127.276 107.434 126.048L109.071 127.276C110.298 128.094 111.731 128.503 112.958 128.503C115.209 128.503 117.46 127.48 118.688 125.434C119.506 124.206 119.915 122.774 119.915 121.546L120.325 121.751C121.552 122.569 122.985 122.979 124.212 122.979C124.622 122.979 125.031 122.979 125.44 122.774C127.282 122.365 128.918 121.342 129.942 119.909C130.76 118.682 131.169 117.249 131.169 115.817L131.988 116.431C133.215 117.249 134.648 117.659 135.875 117.659C138.126 117.659 140.377 116.636 141.605 114.589C142.628 112.953 143.037 111.111 142.628 109.269C142.218 107.428 141.195 105.791 139.763 104.768L116.846 89.2171H112.345C104.978 89.2171 103.955 83.6925 103.955 83.0787L104.569 81.4418H89.0185L88.8138 82.6695C88.2 86.3525 86.9723 88.8079 85.1308 89.831C84.1077 90.4448 83.0846 90.6495 82.2662 90.6495V80.4187L94.1338 73.871H95.9754H126.872L143.037 97.6064C143.855 98.8341 145.288 99.4479 146.72 99.6525H146.925C148.357 99.6525 149.789 99.0387 150.812 97.811C152.654 95.5602 159.611 87.9895 168 84.511L166.772 81.6464ZM65.6923 111.929L65.4877 111.725C64.6692 111.111 64.26 110.293 64.0554 109.474C63.8508 108.451 64.0554 107.633 64.6692 106.814C65.2831 105.996 66.3062 105.382 67.5338 105.382C68.3523 105.382 68.9662 105.586 69.58 105.996L69.7846 106.2C71.2169 107.223 71.6262 109.065 71.0123 110.497L70.1938 111.52V111.725C68.9662 112.748 67.1246 112.953 65.6923 111.929ZM73.4677 118.682C72.6492 118.068 72.24 117.249 72.0354 116.226C71.8308 115.408 72.0354 114.385 72.6492 113.566C72.8538 113.362 73.0585 113.157 73.0585 112.953C73.2631 112.748 74.9 110.293 74.9 110.293C75.5138 109.269 76.7415 108.86 77.9692 108.86C78.7877 108.86 79.6062 109.065 80.22 109.679C81.8569 110.906 82.2662 113.157 81.0385 114.794L78.7877 117.863C77.56 119.5 75.1046 119.705 73.4677 118.682ZM82.0615 124.82C81.2431 124.206 80.8338 123.388 80.6292 122.365C80.4246 121.342 80.6292 120.319 81.2431 119.705L83.4938 116.636L85.54 113.771C86.1538 112.748 87.3815 112.339 88.6092 112.339C89.4277 112.339 90.2462 112.543 90.86 113.157C91.6785 113.771 92.0877 114.589 92.2923 115.613C92.4969 116.636 92.2923 117.659 91.6785 118.273L87.3815 124.206C85.9492 125.639 83.4938 126.048 82.0615 124.82ZM95.1569 128.708L94.5431 129.526C93.52 130.754 91.6785 131.163 90.2462 130.14C89.6323 129.731 89.2231 128.913 89.0185 128.094C88.8138 127.276 89.0185 126.457 89.6323 125.843L90.2462 125.025C90.86 124.206 91.6785 123.797 92.7015 123.797C93.3154 123.797 93.9292 124.002 94.5431 124.411C95.9754 125.434 96.18 127.48 95.1569 128.708ZM78.9923 78.5771V93.1048L80.0154 93.5141C80.22 93.5141 83.2892 94.5371 86.3585 92.6956C88.8138 91.2633 90.4508 88.6033 91.2692 84.511H101.705C102.728 87.5802 105.797 92.0818 112.958 92.0818H116.437L138.535 107.019C139.354 107.633 139.968 108.451 140.172 109.474C140.377 110.497 140.172 111.52 139.558 112.339C138.331 114.18 135.875 114.589 134.034 113.362L112.549 98.6294L110.708 101.085L126.463 111.929C128.305 113.157 128.714 115.613 127.486 117.454C126.872 118.273 126.054 118.886 125.031 119.091C124.008 119.296 122.985 119.091 121.962 118.477L116.846 114.999L109.071 109.679L107.843 112.748L116.028 118.273C117.46 119.5 117.869 121.751 116.642 123.388C115.414 125.229 112.958 125.639 111.117 124.411L100.886 117.249L99.0446 119.705L102.728 122.365V122.569C104.569 123.797 104.978 126.253 103.751 128.094C103.137 128.913 102.318 129.526 101.295 129.731C100.272 129.936 99.2492 129.731 98.4308 129.117C99.2492 126.662 98.6354 123.797 96.3846 122.16C95.5662 121.546 94.3385 121.137 93.3154 121.137L93.9292 120.319C96.18 117.249 95.5662 112.953 92.4969 110.906C91.2692 110.088 89.8369 109.474 88.4046 109.474C86.9723 109.474 85.54 109.883 84.3123 110.906C83.9031 109.474 83.0846 108.246 81.8569 107.428C79.6062 105.791 76.1277 105.791 73.8769 107.428C73.4677 106.2 72.6492 104.973 71.6262 104.154L71.4215 103.949C69.9892 102.926 68.3523 102.517 66.7154 102.722C66.5108 102.517 66.5108 102.313 66.3062 101.903C66.1015 101.494 65.8969 101.085 65.6923 100.471C64.6692 98.4248 62.6231 96.5833 61.3954 95.5602L76.1277 73.871H87.5862L78.9923 78.5771Z" fill="#800180"/>
<path d="M101.5 60.7754C115.005 60.7754 126.054 49.7262 126.054 36.2216C126.054 22.717 115.005 11.6677 101.5 11.6677C87.9954 11.6677 76.9462 22.717 76.9462 36.2216C76.9462 49.7262 87.9954 60.7754 101.5 60.7754ZM101.5 14.9416C113.368 14.9416 122.985 24.5585 122.985 36.4262C122.985 48.2939 113.368 57.9108 101.5 57.9108C89.6323 57.9108 80.0154 48.0893 80.0154 36.4262C80.0154 24.7631 89.6323 14.9416 101.5 14.9416Z" fill="#10E8E8"/>
<path d="M87.8741 47.3405L87.8139 47.3104C87.0682 46.866 87.1285 45.932 87.4373 45.4198L96.7621 29.685C96.7621 29.685 96.8149 29.5871 96.8375 29.557C98.3891 26.9358 100.679 25.241 103.669 24.4803C106.705 23.7045 109.514 24.1338 112.06 25.7833C114.327 27.2145 115.826 29.218 116.557 31.7714C117.453 34.8898 116.979 38.2943 115.239 41.021C113.679 43.4689 111.435 45.0808 108.573 45.8341C105.582 46.5948 102.78 46.173 100.234 44.5159C97.6283 42.8212 96.0466 40.4033 95.444 37.285L89.7949 46.8057C89.7949 46.8057 89.132 48.0937 87.8741 47.3405ZM110.599 28.1635C108.655 26.868 106.577 26.529 104.257 27.1768C101.967 27.8396 100.287 29.1653 99.1272 31.1915C98.0275 33.1272 97.7564 35.176 98.246 37.3227C98.7356 39.4769 99.9257 41.0963 101.794 42.2186C103.699 43.3635 105.71 43.6572 107.895 43.0999C110.072 42.5425 111.736 41.3373 112.919 39.4091C114.086 37.511 114.433 35.4697 113.981 33.2553C113.536 31.0483 112.437 29.3461 110.599 28.1635Z" fill="#10E8E8"/>
<path d="M115.788 47.3407L115.848 47.3106C116.594 46.8662 116.534 45.9322 116.225 45.42L106.908 29.6853C106.908 29.6853 106.855 29.5873 106.832 29.5572C105.281 26.936 102.991 25.2413 100.001 24.4805C96.9577 23.7047 94.1558 24.134 91.6099 25.7911C89.3427 27.2298 87.8438 29.2258 87.1132 31.7792C86.2168 34.89 86.6913 38.3021 88.4313 41.0287C89.9905 43.4767 92.235 45.0811 95.0973 45.8343C98.0876 46.595 100.89 46.1732 103.435 44.5162C106.042 42.8214 107.623 40.4036 108.226 37.2852L113.868 46.8135C113.868 46.8059 114.53 48.0939 115.788 47.3407ZM93.0561 28.1638C94.9994 26.8682 97.0782 26.5293 99.3982 27.177C101.688 27.8399 103.368 29.1655 104.528 31.1917C105.627 33.1275 105.898 35.1762 105.409 37.3229C104.919 39.4771 103.729 41.0965 101.861 42.2188C99.9555 43.3637 97.9445 43.6575 95.7601 43.1001C93.5833 42.5427 91.9187 41.3376 90.7361 39.4093C89.5686 37.5112 89.2222 35.47 89.6741 33.2555C90.126 31.0486 91.2257 29.3463 93.0561 28.1638Z" fill="#10E8E8"/>
</svg>
