<svg width="202" height="145" viewBox="0 0 202 145" fill="none" xmlns="http://www.w3.org/2000/svg">
<path d="M180 57.9078H147.634C149.325 50.1785 150.049 45.1062 150.049 44.8647L150.291 43.1739L148.6 42.9324C115.992 38.8262 102.708 24.817 102.708 24.5755L101.258 23.1262L100.051 24.5755C99.8092 24.817 87.0077 38.8262 54.1585 42.9324L52.4677 43.1739L52.7092 44.8647C52.7092 45.5893 53.4338 50.6616 55.1246 57.9078H23L30.9708 78.197H40.1492L46.6708 94.8631H55.8492L62.3708 111.529H84.5923C89.1815 115.394 94.2538 118.775 100.292 121.432L101.017 121.674L101.742 121.432C108.022 119.017 113.335 115.394 117.925 111.529H140.146L146.668 94.8631H155.846L162.368 78.197H171.546L180 57.9078ZM33.3862 74.8155L28.0723 61.5308H55.6077C56.5738 65.637 58.0231 69.9847 59.9554 74.8155H33.3862ZM49.3277 91.4816L44.0138 78.197H61.6462C63.5785 82.5447 65.7523 86.8924 68.1677 91.4816H49.3277ZM65.0277 108.389L59.7138 95.1047H70.3415C73.4815 99.6939 76.8631 104.283 80.9692 108.389H65.0277ZM101.258 118.292C66.4769 102.351 57.7815 55.9755 56.3323 46.3139C83.6262 42.4493 97.3938 32.0631 101.258 28.4401C105.365 32.0631 118.891 42.6908 146.426 46.3139C144.977 55.9755 137.006 103.075 101.258 118.292ZM137.972 108.389H122.031C126.137 104.283 129.518 99.9354 132.658 95.1047H143.286L137.972 108.389ZM153.672 91.4816H134.832C137.489 87.1339 139.422 82.5447 141.354 78.197H158.986L153.672 91.4816ZM142.562 74.8155C144.252 70.2262 145.702 65.637 146.668 61.5308H174.686L169.372 74.8155H142.562Z" fill="#800180"/>
<path d="M80.5099 86.4063L80.4179 86.3603C79.2788 85.6815 79.3709 84.2548 79.8426 83.4724L94.0865 59.4373C94.0865 59.4373 94.167 59.2877 94.2016 59.2417C96.5717 55.2377 100.069 52.649 104.637 51.4869C109.274 50.3019 113.565 50.9577 117.454 53.4774C120.917 55.6635 123.207 58.7239 124.323 62.6243C125.692 67.3876 124.967 72.5881 122.31 76.7532C119.928 80.4925 116.499 82.9547 112.127 84.1052C107.56 85.2673 103.279 84.623 99.3906 82.0917C95.4096 79.503 92.9935 75.8097 92.073 71.0464L83.4439 85.5894C83.4439 85.5894 82.4314 87.5569 80.5099 86.4063ZM115.222 57.1132C112.254 55.1342 109.078 54.6164 105.535 55.6059C102.037 56.6184 99.4711 58.6434 97.6993 61.7384C96.0194 64.6953 95.6052 67.8248 96.3531 71.1039C97.101 74.3945 98.9188 76.8682 101.772 78.5825C104.683 80.3314 107.755 80.7801 111.092 79.9287C114.417 79.0773 116.96 77.2364 118.766 74.291C120.549 71.3916 121.079 68.2736 120.388 64.8909C119.709 61.5198 118.03 58.9195 115.222 57.1132Z" fill="#10E8E8"/>
<path d="M123.149 86.4064L123.241 86.3604C124.38 85.6816 124.288 84.2549 123.816 83.4725L109.584 59.4374C109.584 59.4374 109.503 59.2878 109.469 59.2418C107.099 55.2379 103.601 52.6491 99.0332 51.487C94.385 50.302 90.1049 50.9578 86.216 53.489C82.7528 55.6866 80.4632 58.7355 79.3472 62.6359C77.978 67.3877 78.7029 72.5998 81.3607 76.7648C83.7423 80.5041 87.171 82.9548 91.5431 84.1053C96.1108 85.2674 100.391 84.6231 104.28 82.0919C108.261 79.5031 110.677 75.8098 111.597 71.0465L120.215 85.6011C120.215 85.5895 121.227 87.557 123.149 86.4064ZM88.4251 57.1133C91.3935 55.1343 94.5691 54.6166 98.1128 55.606C101.61 56.6185 104.176 58.6435 105.948 61.7385C107.628 64.6954 108.042 67.8249 107.294 71.104C106.546 74.3946 104.728 76.8683 101.875 78.5827C98.9642 80.3315 95.8922 80.7802 92.5556 79.9288C89.2305 79.0774 86.6877 77.2365 84.8814 74.2911C83.098 71.3917 82.5688 68.2737 83.2591 64.891C83.9494 61.5199 85.6292 58.9196 88.4251 57.1133Z" fill="#10E8E8"/>
</svg>
