<svg width="202" height="145" viewBox="0 0 202 145" fill="none" xmlns="http://www.w3.org/2000/svg">
<path d="M63.6962 59.875L62.6738 56.2964C62.4182 56.2964 57.8171 57.5745 56.0277 62.9424L59.6064 63.9649C60.8845 60.8975 63.6962 59.875 63.6962 59.875L63.185 58.0857L63.6962 59.875Z" fill="#800180"/>
<path d="M169.266 73.1667C167.477 69.0769 162.876 67.0319 158.786 68.5656C155.718 69.8437 154.185 73.1667 155.463 76.2341L159.041 74.7004C158.53 73.678 159.041 72.3999 160.32 71.8887C162.62 71.1218 164.921 72.1443 165.943 74.1892C166.71 75.9785 166.71 78.2791 165.943 80.0684C165.176 81.8577 163.643 83.3914 161.853 84.1583C155.463 86.7144 148.05 83.647 145.238 77.2566C145.238 77.001 145.238 76.7454 145.238 76.4898C145.238 62.4308 141.404 56.0404 134.758 49.3944C133.48 47.8607 131.691 46.8382 130.157 45.5601L130.924 34.313C130.924 33.5462 130.668 32.7793 129.901 32.2681L128.623 31.7568L119.165 39.1697C111.752 36.1023 103.317 34.313 94.6261 34.313C85.4239 34.313 76.7329 36.1023 69.0644 39.681L60.1178 33.2905C59.351 32.7793 58.5841 32.7793 57.8173 33.0349L56.5392 33.8018L57.306 46.327C53.4718 49.1388 50.4044 52.7174 48.1038 57.0629C47.5926 58.0854 47.0814 58.8522 46.5702 59.8747C45.5477 61.4084 44.2696 62.1752 42.7359 62.1752H37.368C34.3006 62.1752 32 64.7314 32 67.5432V72.9111C32 75.9785 34.5562 78.2791 37.368 78.2791C40.4354 78.2791 43.2471 81.3465 44.7808 86.2032C44.7808 86.4588 45.0365 86.7144 45.0365 86.97C46.8258 92.338 49.8932 97.4503 53.983 101.54C55.2611 102.818 56.5392 103.841 57.8173 104.863L58.3285 105.374C59.8622 106.653 64.2077 110.487 64.7189 115.088C65.4858 121.734 69.8313 121.99 72.643 121.99H72.8987C73.1543 121.99 73.1543 121.99 73.4099 121.99C76.4773 121.99 81.0784 120.711 82.6121 113.043H105.618C106.129 115.855 107.151 118.155 108.685 119.689C110.219 121.223 112.264 121.99 114.564 121.99C114.82 121.99 114.82 121.99 115.075 121.99H115.331C118.143 121.99 122.488 121.734 123.255 115.088C124.022 109.72 129.646 105.63 129.646 105.374L130.157 104.863C137.314 99.4952 142.171 91.8268 143.704 83.3914C146.772 86.97 151.373 89.015 156.23 89.015C158.275 89.015 160.32 88.5037 162.365 87.7369C165.176 86.4588 167.477 84.4139 168.755 81.6021C170.289 79.0459 170.289 75.9785 169.266 73.1667ZM128.367 102.051L127.856 102.307C127.601 102.563 120.699 107.675 119.932 114.577C119.421 117.9 118.398 117.9 115.842 118.155H115.331C113.797 118.155 112.775 117.9 111.752 116.877C110.219 115.343 109.196 112.276 109.196 107.675H105.362C105.362 108.186 105.362 108.697 105.362 109.209H83.1233C83.1233 108.697 83.1233 108.186 83.1233 107.675H79.2891C79.2891 108.442 79.2891 109.209 79.2891 109.976C78.7779 118.155 74.688 118.155 73.4099 117.9H72.8987C70.0869 117.9 69.0644 117.9 68.8088 114.321C68.042 107.419 61.1403 102.307 60.8847 102.051H60.1178C58.8398 101.029 57.8173 100.262 56.7948 98.984C53.2162 95.4054 50.4044 90.8043 48.8707 85.9476C48.8707 85.692 48.6151 85.1807 48.6151 84.9251C46.5701 78.5347 42.2247 74.4448 37.6236 74.4448C36.8567 74.4448 36.0899 73.678 36.0899 72.9111V67.5432C36.0899 66.7763 36.8567 66.0095 37.6236 66.0095H42.9915C45.5477 66.0095 48.1038 64.4758 49.8932 61.9196C50.1488 61.4084 50.66 60.8971 50.9156 60.3859C50.9156 60.1303 51.1712 59.8747 51.1712 59.8747C51.4269 59.6191 51.4269 59.1078 51.6825 58.8522C53.2162 56.0404 55.5167 53.4842 57.8173 51.1837V52.2062L61.6515 51.9506L60.6291 38.9141L71.8762 47.6051L74.1768 44.5377L71.6206 42.4927C78.5222 39.681 85.9351 38.4029 93.8592 38.4029C101.272 38.4029 108.429 39.681 114.82 41.9815L121.466 44.5377L126.578 38.1473L125.556 51.1837L129.39 51.4393V50.1612C130.157 50.6725 130.924 51.4393 131.69 52.2062C137.825 58.341 140.893 63.9645 140.893 76.7454C140.893 86.7144 136.292 96.1722 128.367 102.051Z" fill="#800180"/>
<path d="M85.9354 45.5608L86.7023 49.3951C86.7023 49.3951 99.2275 46.8389 108.43 51.1844L109.963 47.6057C99.7387 42.749 86.4467 45.5608 85.9354 45.5608Z" fill="#800180"/>
<circle cx="140.637" cy="47.0939" r="22.3665" fill="white" stroke="#10E8E8" stroke-width="3.83425"/>
<path d="M145.863 37.6941L145.868 37.6928C147.74 37.2079 149.767 37.7658 151.141 39.1567C152.2 40.2295 152.779 41.6381 152.779 43.1397C152.779 44.6392 152.202 46.0461 151.144 47.12L150.064 48.1994L150.059 48.2044L150.054 48.2095L141.916 56.4632L132.692 47.1227L132.692 47.1227L132.688 47.1186C131.632 46.0555 131.052 44.6481 131.052 43.1397C131.052 41.6319 131.632 40.2244 132.691 39.158L132.691 39.158L132.696 39.1532C133.751 38.0836 135.128 37.5082 136.578 37.5082C138.05 37.5082 139.435 38.0867 140.491 39.1567C140.491 39.1567 140.492 39.1567 140.492 39.1567L140.553 39.2185L141.934 40.6179L143.298 39.2008L143.342 39.1548C144.061 38.4312 144.934 37.9321 145.863 37.6941Z" stroke="#10E8E8" stroke-width="3.83425"/>
</svg>
