<svg width="210" height="145" viewBox="0 0 210 145" fill="none" xmlns="http://www.w3.org/2000/svg">
<g filter="url(#filter0_d)">
<g clip-path="url(#clip0)">
<path d="M104.649 74.4241C107.324 74.2536 108.095 72.6747 108.095 72.6747C108.095 72.6747 108.886 72.7185 108.856 72.2166C108.827 71.7146 108.837 71.1542 108.222 71.1835C107.607 71.2176 106.699 69.8774 104.014 69.8774C101.329 69.8774 99.8109 71.7098 99.8109 71.7098C99.8109 71.7098 98.9176 71.8413 99.0543 72.2117C99.1909 72.5869 99.0835 73.1425 99.3325 73.2399C99.5864 73.3472 101.973 74.5947 104.649 74.4241Z" fill="white"/>
<path d="M16.4383 93.6006C16.4383 93.6006 17.4342 95.2331 17.4781 94.3072C17.522 93.3813 16.7263 84.0004 16.2186 83.8883C15.711 83.7811 11.1564 83.7909 11.4005 84.746C11.6446 85.706 16.4383 93.6006 16.4383 93.6006Z" fill="white"/>
<path d="M204.721 90.8958C204.487 92.7768 202.363 96.4853 200.772 96.8313C199.18 97.1773 177.223 98.8586 177.223 98.8586C177.511 95.5204 177.111 89.1512 171.473 83.123C165.346 76.5735 153.435 76.2372 147.192 84.1805C142.183 90.5449 143.565 98.0106 144.277 100.579H140.191H60.9681C60.9681 100.579 63.736 91.1784 55.6032 82.4846C49.4769 75.9351 37.5658 75.5988 31.3222 83.5421C25.0787 91.4854 28.6423 100.574 28.6423 100.574C28.6423 100.574 20.4217 100.662 13.4361 99.7796C6.45057 98.8976 5.65487 97.5721 6.18697 96.5146C6.71906 95.4571 9.07198 94.3363 7.76372 90.4377C6.45545 86.5391 5.65976 85.6571 6.80693 83.3618C7.9541 81.0666 7.9541 81.0666 7.9541 81.0666" stroke="#800180" stroke-width="1.5" stroke-miterlimit="10" stroke-linecap="round" stroke-linejoin="round"/>
<path d="M6.05029 87.6016V94.7505" stroke="#800180" stroke-width="1.5" stroke-miterlimit="10" stroke-linecap="round" stroke-linejoin="round"/>
<path d="M17.3463 94.7503C17.3463 94.7503 11.3126 85.691 11.4005 84.7505C11.4884 83.8099 16.1747 83.8099 16.4383 83.9854C16.7019 84.1608 17.3463 92.4599 17.3463 92.4599" stroke="#800180" stroke-width="1.5" stroke-miterlimit="10" stroke-linecap="round" stroke-linejoin="round"/>
<path d="M9.18915 80.0874C9.18915 80.0874 9.72124 82.0367 10.3363 81.949C10.9514 81.8613 18.8254 80.8038 19.7968 80.4968C20.7683 80.1849 27.6659 74.0983 27.6659 73.7425C27.6659 73.3868 27.2217 73.1236 24.0389 73.7425C20.8561 74.3614 11.5714 76.2425 11.0442 76.3594C10.5169 76.4764 9.18915 78.5085 9.18915 78.5085" stroke="#800180" stroke-width="1.5" stroke-miterlimit="10" stroke-linecap="round" stroke-linejoin="round"/>
<path d="M45.7132 52.0029C49.3841 54.4249 53.0746 57.0954 56.5552 59.9657" stroke="#800180" stroke-width="1.5" stroke-miterlimit="10" stroke-linecap="round" stroke-linejoin="round"/>
<path d="M22.4231 41.7399C20.2313 40.7409 18.8108 40.1659 18.469 40.0294C17.5074 39.6493 14.4369 40.8335 14.4369 40.8335V38.9037C14.4369 38.9037 17.1803 37.4223 18.43 37.5344C18.7961 37.5685 20.8317 38.3628 23.9315 39.8053" stroke="#800180" stroke-width="1.5" stroke-miterlimit="10" stroke-linecap="round" stroke-linejoin="round"/>
<path d="M57.2679 64.2153C57.2679 64.2153 55.8132 61.8615 55.1541 61.2768C54.6172 60.7992 52.523 59.1715 45.7132 54.8003" stroke="#800180" stroke-width="1.5" stroke-miterlimit="10" stroke-linecap="round" stroke-linejoin="round"/>
<path d="M55.6033 64.8288C51.6248 66.8609 41.105 68.2692 33.0601 69.5558C25.0153 70.8423 22.1058 72.6697 22.1058 72.6697L12.2597 74.4631C12.2597 74.4631 12.7918 72.2945 23.8193 69.8579C34.8468 67.4164 51.8835 65.4525 54.6318 63.9126" stroke="#800180" stroke-width="1.5" stroke-miterlimit="10" stroke-linecap="round" stroke-linejoin="round"/>
<path d="M60.3775 64.8291C60.3775 64.8291 83.8042 51.2378 91.7612 49.2057L88.4027 48.7622" stroke="#800180" stroke-width="1.5" stroke-miterlimit="10" stroke-linecap="round" stroke-linejoin="round"/>
<path d="M58.0782 62.8894C58.0782 62.8894 74.3437 53.5328 87.3433 49.3857" stroke="#800180" stroke-width="1.5" stroke-miterlimit="10" stroke-linecap="round" stroke-linejoin="round"/>
<path d="M90.4431 47.8899C90.4431 47.8899 94.4119 46.5644 101.666 46.2087C105.766 46.0089 131.898 45.1658 141.158 46.813C149.144 48.2359 160.416 51.3012 174.694 57.802C178.204 59.4004 180.957 60.2873 181.763 60.5261C181.763 60.5261 185.917 61.5982 191.282 62.2415C196.647 62.8848 200.005 62.3 200.181 62.8896C200.357 63.4793 200.772 65.2239 200.772 65.2239" stroke="#800180" stroke-width="1.5" stroke-miterlimit="10" stroke-linecap="round" stroke-linejoin="round"/>
<path d="M139.415 96.427C134.997 96.7779 67.363 97.4845 66.2158 97.3968C65.0687 97.3091 63.7409 93.8686 63.4773 91.8365C63.2137 89.8044 62.0616 81.5979 62.3301 67.3877" stroke="#800180" stroke-width="1.5" stroke-miterlimit="10" stroke-linecap="round" stroke-linejoin="round"/>
<path d="M63.4724 66.1546C63.4724 66.1546 87.5191 50.7992 97.3311 48.767C103.765 47.4366 118.38 47.2612 128.593 47.4951C128.593 47.4951 154.309 48.2992 164.663 62.8847C164.663 62.8847 79.9673 67.2316 74.8758 67.4752C67.4509 67.8261 64.7074 66.944 64.7074 66.944" stroke="#800180" stroke-width="1.5" stroke-miterlimit="10" stroke-linecap="round" stroke-linejoin="round"/>
<path d="M113.245 95.3696C113.245 95.3696 113.333 90.7791 113.245 87.9575C113.157 85.1359 111.458 80.5843 112.396 74.4734C113.333 68.3624 113.694 66.6714 113.694 66.6714" stroke="#800180" stroke-width="1.5" stroke-miterlimit="10" stroke-linecap="round" stroke-linejoin="round"/>
<path d="M114.309 64.2147L116.784 48.3281" stroke="#800180" stroke-width="1.5" stroke-miterlimit="10" stroke-linecap="round" stroke-linejoin="round"/>
<path d="M72.4008 64.8289C72.4008 64.8289 73.8165 66.0667 76.3354 66.3298C78.8543 66.593 79.9624 65.0043 79.6939 62.4459C79.4254 59.8875 76.2768 59.7023 74.4316 60.1506C72.5912 60.5989 72.2202 61.6077 72.3959 63.6788" stroke="#800180" stroke-width="1.5" stroke-miterlimit="10" stroke-linecap="round" stroke-linejoin="round"/>
<path d="M72.3617 62.2271L68.0269 64.8293" stroke="#800180" stroke-width="1.5" stroke-miterlimit="10" stroke-linecap="round" stroke-linejoin="round"/>
<path d="M72.7132 65.063L70.6776 66.3593" stroke="#800180" stroke-width="1.5" stroke-miterlimit="10" stroke-linecap="round" stroke-linejoin="round"/>
<path d="M63.0916 98.2494C63.326 93.7173 63.0331 86.0128 56.2525 80.087C49.472 74.1612 38.5129 73.362 30.7902 80.8862C23.0675 88.4104 25.8403 98.2494 25.8403 98.2494C25.8403 98.2494 7.86626 98.9901 6.7435 96.9531" stroke="#800180" stroke-width="1.5" stroke-miterlimit="10" stroke-linecap="round" stroke-linejoin="round"/>
<path d="M203.305 93.8394H201.831" stroke="#800180" stroke-width="1.5" stroke-miterlimit="10" stroke-linecap="round" stroke-linejoin="round"/>
<path d="M205.605 80.5991C205.605 80.5991 205.78 88.7178 205.312 89.8971C204.838 91.0715 201.363 93.6641 199.537 94.1904C197.711 94.7216 182.266 95.7206 182.266 95.7206C182.266 95.7206 183.623 86.7783 175.9 80.0679" stroke="#800180" stroke-width="1.5" stroke-miterlimit="10" stroke-linecap="round" stroke-linejoin="round"/>
<path d="M177.784 79.9409L193.122 79.5267C193.122 79.5267 196.749 77.631 197.809 73.2598" stroke="#800180" stroke-width="1.5" stroke-miterlimit="10" stroke-linecap="round" stroke-linejoin="round"/>
<path d="M202.671 72.2024C202.539 67.4803 201.699 65.4969 201.387 65.4969C201.079 65.4969 193.078 65.2776 192.59 65.4969C192.102 65.7162 191.795 66.8224 195.021 70.3067C198.248 73.791 202.446 74.3661 202.446 74.3661C202.446 74.3661 202.798 78.6594 205.156 80.1018" stroke="#800180" stroke-width="1.5" stroke-miterlimit="10" stroke-linecap="round" stroke-linejoin="round"/>
<path d="M202.144 67.2808H195.729C195.729 67.2808 197.145 69.3226 199.322 69.425C200.469 69.4786 201.358 69.4639 201.358 69.4639" stroke="#800180" stroke-width="1.5" stroke-miterlimit="10" stroke-linecap="round" stroke-linejoin="round"/>
<path d="M99.3374 71.7489C99.3374 71.7489 108.51 71.1105 108.666 71.1982C108.822 71.2859 108.954 72.436 108.778 72.4994C108.603 72.5627 99.4497 73.2937 99.3423 73.2498C99.2251 73.2011 99.0445 71.7684 99.3374 71.7489Z" stroke="#800180" stroke-width="1.5" stroke-miterlimit="10" stroke-linecap="round" stroke-linejoin="round"/>
<path d="M100.841 74.0202C100.841 74.0202 105.195 75.2775 107.514 73.3574" stroke="#800180" stroke-width="1.5" stroke-miterlimit="10" stroke-linecap="round" stroke-linejoin="round"/>
<path d="M100.465 70.9545C100.465 70.9545 104.18 68.8152 107.133 70.5354" stroke="#800180" stroke-width="1.5" stroke-miterlimit="10" stroke-linecap="round" stroke-linejoin="round"/>
<path d="M43.7996 93.9417C44.8199 93.7566 45.6937 94.6386 45.4984 95.6522C45.391 96.2175 44.9273 96.6805 44.361 96.7877C43.331 96.9875 42.4474 96.1006 42.6476 95.0723C42.7647 94.507 43.2333 94.0441 43.7996 93.9417Z" stroke="#800180" stroke-width="1.5" stroke-miterlimit="10" stroke-linecap="round" stroke-linejoin="round"/>
<path d="M44.073 108.201C36.9751 108.201 31.2149 102.455 31.2149 95.3647" stroke="#800180" stroke-width="1.5" stroke-miterlimit="10" stroke-linecap="round" stroke-linejoin="round"/>
<path d="M43.7996 93.9417C44.8199 93.7566 45.6937 94.6386 45.4984 95.6522C45.391 96.2175 44.9273 96.6805 44.361 96.7877C43.331 96.9875 42.4474 96.1006 42.6476 95.0723C42.7647 94.507 43.2333 94.0441 43.7996 93.9417Z" stroke="#800180" stroke-width="1.5" stroke-miterlimit="10" stroke-linecap="round" stroke-linejoin="round"/>
<path d="M45.2836 80.6764C36.1843 79.9503 28.6374 87.4794 29.355 96.563C29.9212 103.707 35.7157 109.492 42.8721 110.057C51.9665 110.773 59.4988 103.259 58.7861 94.18C58.2345 87.0408 52.44 81.2466 45.2836 80.6764ZM45.1664 105.851C38.4787 106.524 32.899 100.954 33.5727 94.2775C34.0706 89.3458 38.0686 85.3644 43.0088 84.882C49.677 84.229 55.2323 89.7747 54.583 96.4363C54.0949 101.363 50.1066 105.354 45.1664 105.851Z" stroke="#800180" stroke-width="1.5" stroke-miterlimit="10" stroke-linecap="round" stroke-linejoin="round"/>
<path d="M159.654 93.9417C160.675 93.7566 161.548 94.6386 161.353 95.6522C161.246 96.2175 160.782 96.6805 160.216 96.7877C159.186 96.9875 158.302 96.1006 158.502 95.0723C158.619 94.507 159.088 94.0441 159.654 93.9417Z" stroke="#800180" stroke-width="1.5" stroke-miterlimit="10" stroke-linecap="round" stroke-linejoin="round"/>
<path d="M159.928 108.201C152.83 108.201 147.07 102.455 147.07 95.3647" stroke="#800180" stroke-width="1.5" stroke-miterlimit="10" stroke-linecap="round" stroke-linejoin="round"/>
<path d="M159.654 93.9417C160.675 93.7566 161.548 94.6386 161.353 95.6522C161.246 96.2175 160.782 96.6805 160.216 96.7877C159.186 96.9875 158.302 96.1006 158.502 95.0723C158.619 94.507 159.088 94.0441 159.654 93.9417Z" stroke="#800180" stroke-width="1.5" stroke-miterlimit="10" stroke-linecap="round" stroke-linejoin="round"/>
<path d="M161.138 80.6764C152.039 79.9503 144.492 87.4794 145.21 96.563C145.776 103.707 151.57 109.492 158.727 110.057C167.821 110.773 175.353 103.259 174.641 94.18C174.089 87.0408 168.295 81.2466 161.138 80.6764ZM161.021 105.851C154.333 106.524 148.754 100.954 149.427 94.2775C149.925 89.3458 153.923 85.3644 158.863 84.882C165.532 84.229 171.087 89.7747 170.438 96.4363C169.95 101.363 165.961 105.354 161.021 105.851Z" stroke="#800180" stroke-width="1.5" stroke-miterlimit="10" stroke-linecap="round" stroke-linejoin="round"/>
<path opacity="0.1" d="M21.2369 66.5056L35.3154 64.1616C35.3154 64.1616 36.4333 63.0018 35.701 61.9784C34.9688 60.9502 34.9688 60.9502 34.9688 60.9502C34.9688 60.9502 41.4271 61.1159 42.7208 55.1852C44.0144 49.2545 37.5414 46.7984 37.5414 46.7984C37.5414 46.7984 40.2946 45.1951 39.0352 42.5587C37.7757 39.9223 35.3056 41.472 35.3056 41.472C35.3056 41.472 34.9298 34.518 30.136 34.8201C25.9086 35.0833 24.9127 38.4555 25.313 40.7069C25.313 40.7069 21.1783 42.4954 21.6372 46.4134C22.0961 50.3315 25.6694 52.0712 25.6694 52.0712C25.6694 52.0712 21.0075 53.5039 21.4663 57.9727C21.9252 62.4414 25.2545 62.6217 25.2545 62.6217C25.2545 62.6217 20.0312 62.8897 21.2369 66.5056Z" fill="#10E8E8"/>
<path d="M36.9165 64.2152C38.63 63.1967 36.9165 62.2318 36.9165 62.2318C36.9165 62.2318 42.9648 62.9579 44.4928 56.2767C46.0207 49.5956 39.7723 47.427 39.7723 47.427C39.7723 47.427 42.3986 45.2926 40.9927 43.241C39.5868 41.1893 37.5609 41.7595 37.5609 41.7595C37.6341 39.7079 34.5197 33.4994 29.3062 34.8639C24.0926 36.2284 25.0397 41.6425 25.0397 41.6425C22.3011 42.2127 20.5876 45.5752 21.3297 48.3286C22.2181 51.6131 25.0397 53.2651 25.0397 53.2651C25.0397 53.2651 21.5005 53.0361 20.9294 57.7095C20.3582 62.3829 24.0096 63.684 24.0096 63.684C24.0096 63.684 19.8408 63.5281 20.6999 66.6566" stroke="#10E8E8" stroke-width="2" stroke-miterlimit="10" stroke-linecap="round" stroke-linejoin="round"/>
<path d="M35.8329 55.7167C35.8329 55.7167 38.9717 53.6651 36.6871 50.9849C34.0706 47.9147 30.8634 50.9849 30.8634 50.9849C30.8634 50.9849 29.8383 48.8699 27.666 49.3864C25.4985 49.903 26.5822 52.9146 27.7782 52.6953" stroke="#10E8E8" stroke-width="2" stroke-miterlimit="10" stroke-linecap="round" stroke-linejoin="round"/>
<path d="M40.2848 33.8356C40.8316 35.7995 43.2528 37.1981 44.4537 35.6582C46.0793 33.5725 44.5123 30.0735 42.2277 30.5316C39.9431 30.9848 40.0945 33.1436 40.2848 33.8356Z" stroke="#10E8E8" stroke-width="2" stroke-miterlimit="10" stroke-linecap="round" stroke-linejoin="round"/>
<path d="M145.166 51.8955L145.605 62.8894" stroke="#800180" stroke-width="1.5" stroke-miterlimit="10" stroke-linecap="round" stroke-linejoin="round"/>
<path d="M146.318 51.8955L147.074 62.8894" stroke="#800180" stroke-width="1.5" stroke-miterlimit="10" stroke-linecap="round" stroke-linejoin="round"/>
<path d="M164.663 64.2144V77.5718" stroke="#800180" stroke-width="1.5" stroke-miterlimit="10" stroke-linecap="round" stroke-linejoin="round"/>
<path d="M4.36612 111.733C9.8579 111.587 15.3399 111.368 20.8268 111.071C20.4607 111.041 20.3338 111.129 20.4509 111.339C28.9888 111.524 37.4242 112.118 46.006 111.417C54.4073 110.729 63.609 109.302 71.8589 110.115C79.5474 110.876 88.0902 111.728 95.4809 110.807C102.305 109.959 108.578 111.309 115.373 110.919C121.695 110.554 129.33 110.422 136.364 110.086C144.458 109.696 153.313 109.306 161.407 109.994C169.461 110.676 178.146 110.676 186.122 109.628C191.721 108.892 197.316 108.975 202.905 108.458" stroke="#800180" stroke-width="1.5" stroke-miterlimit="10" stroke-linecap="round" stroke-linejoin="round"/>
<path d="M111.639 122.62C117.131 122.474 122.613 122.254 128.1 121.957C127.734 121.928 127.607 122.016 127.724 122.225C136.262 122.41 144.697 123.005 153.279 122.303C161.68 121.616 170.882 120.188 179.132 121.002" stroke="#800180" stroke-width="1.5" stroke-miterlimit="10" stroke-linecap="round" stroke-linejoin="round"/>
</g>
</g>
<defs>
<filter id="filter0_d" x="0" y="0" width="210" height="153" filterUnits="userSpaceOnUse" color-interpolation-filters="sRGB">
<feFlood flood-opacity="0" result="BackgroundImageFix"/>
<feColorMatrix in="SourceAlpha" type="matrix" values="0 0 0 0 0 0 0 0 0 0 0 0 0 0 0 0 0 0 127 0"/>
<feOffset dy="4"/>
<feGaussianBlur stdDeviation="2"/>
<feColorMatrix type="matrix" values="0 0 0 0 0 0 0 0 0 0 0 0 0 0 0 0 0 0 0.25 0"/>
<feBlend mode="normal" in2="BackgroundImageFix" result="effect1_dropShadow"/>
<feBlend mode="normal" in="SourceGraphic" in2="effect1_dropShadow" result="shape"/>
</filter>
<clipPath id="clip0">
<rect width="202" height="93" fill="white" transform="translate(4 30)"/>
</clipPath>
</defs>
</svg>
