<svg width="202" height="145" viewBox="0 0 202 145" fill="none" xmlns="http://www.w3.org/2000/svg">
<path d="M175.229 8.12744H25.7708C22.0092 8.12744 19 11.1367 19 14.8982V107.934C19 111.695 22.0092 114.704 25.7708 114.704H80.1877L70.1569 133.261H59.1231C58.12 133.261 57.3677 134.014 57.3677 135.017C57.3677 136.02 58.12 136.772 59.1231 136.772H141.877C142.88 136.772 143.632 136.02 143.632 135.017C143.632 134.014 142.88 133.261 141.877 133.261H130.843L120.812 114.704H175.229C178.991 114.704 182 111.695 182 107.934V14.8982C182 11.1367 178.991 8.12744 175.229 8.12744ZM25.7708 11.889H174.978C176.734 11.889 177.988 13.3936 177.988 14.8982V96.8997H22.5108V14.8982C22.7615 13.1428 24.0154 11.889 25.7708 11.889ZM126.58 133.261H74.42L84.4508 114.704H116.298L126.58 133.261ZM175.229 110.943H118.806H82.1938H25.7708C24.0154 110.943 22.7615 109.438 22.7615 107.934V100.661H178.238V107.934C178.238 109.689 176.985 110.943 175.229 110.943Z" fill="#800180"/>
<path d="M97.8128 44.4253C98.1628 44.7753 98.5128 45.1253 98.5128 45.6503H101.138C101.138 44.4253 100.613 43.2003 99.5628 42.5003C99.0378 41.9753 98.1628 41.6253 97.4628 41.4503V39.1753H94.8378V41.4503C94.1378 41.6253 93.2628 41.9753 92.7378 42.5003C91.6878 43.3753 91.1628 44.4253 91.1628 45.6503C91.1628 46.8753 91.6878 48.1003 92.7378 48.8003C93.6128 49.6753 94.8378 50.0253 96.2378 50.0253C96.9378 50.0253 97.4628 50.2003 97.9878 50.5503C98.3378 50.9003 98.6878 51.2503 98.6878 51.7753C98.6878 52.3003 98.5128 52.6503 97.9878 53.0003C97.1128 53.7003 95.3628 53.7003 94.4878 53.0003C94.1378 52.6503 93.7878 52.3003 93.7878 51.7753H91.1628C91.1628 53.0003 91.6878 54.2253 92.7378 54.9253C93.2628 55.4503 94.1378 55.8003 94.8378 55.9753V58.0753H97.4628V55.9753C98.3378 55.8003 99.0378 55.4503 99.5628 54.9253C100.613 54.0503 101.138 53.0003 101.138 51.7753C101.138 50.5503 100.613 49.3253 99.5628 48.6253C98.6878 47.7503 97.4628 47.4003 96.0628 47.4003C95.3628 47.4003 94.8378 47.2253 94.3128 46.8753C93.9628 46.5253 93.6128 46.1753 93.6128 45.6503C93.6128 45.1253 93.7878 44.7753 94.3128 44.4253C95.3628 43.5503 96.9378 43.5503 97.8128 44.4253Z" fill="#10E8E8"/>
<path d="M143.488 81V32.7H134.913V25H57.2129V72.425H64.9129V81H143.488ZM140.863 35.325V78.375H67.5379V72.425H134.913V35.325H140.863ZM59.8379 27.625H132.288V69.8H59.8379V27.625Z" fill="#10E8E8"/>
<path d="M120.913 35.1503V33.9253H71.388V35.3253C71.388 37.4253 69.638 39.1753 67.363 39.1753H66.138V58.4253H67.538C69.638 58.4253 71.563 60.1753 71.563 62.4503V63.8503H121.088V62.4503C121.088 60.3503 122.838 58.4253 125.113 58.4253H126.513V39.1753H125.113C122.663 39.1753 120.913 37.4253 120.913 35.1503ZM123.538 55.9753C120.913 56.5003 118.988 58.6003 118.463 61.0503H73.838C73.313 58.4253 71.213 56.5003 68.763 55.9753V41.6253C71.388 41.1003 73.313 39.0003 73.838 36.5503H118.288C118.988 39.0003 120.913 41.1003 123.538 41.6253V55.9753Z" fill="#10E8E8"/>
<path d="M107.772 103.921H93.2274C92.2244 103.921 91.472 104.674 91.472 105.677C91.472 106.68 92.2244 107.432 93.2274 107.432H107.772C108.775 107.432 109.527 106.68 109.527 105.677C109.527 104.674 108.775 103.921 107.772 103.921Z" fill="#800180"/>
</svg>
