<svg width="202" height="145" viewBox="0 0 202 145" fill="none" xmlns="http://www.w3.org/2000/svg">
<path d="M166.977 14.9995H34.0231C30.6769 14.9995 28 17.6764 28 21.0226V103.784C28 107.13 30.6769 109.807 34.0231 109.807H82.4308L73.5077 126.315H63.6923C62.8 126.315 62.1308 126.984 62.1308 127.876C62.1308 128.769 62.8 129.438 63.6923 129.438H137.308C138.2 129.438 138.869 128.769 138.869 127.876C138.869 126.984 138.2 126.315 137.308 126.315H127.492L118.569 109.807H166.977C170.323 109.807 173 107.13 173 103.784V21.0226C173 17.6764 170.323 14.9995 166.977 14.9995ZM34.0231 18.3457H166.754C168.315 18.3457 169.431 19.6841 169.431 21.0226V93.9687H31.1231V21.0226C31.3462 19.461 32.4615 18.3457 34.0231 18.3457ZM123.7 126.315H77.3L86.2231 109.807H114.554L123.7 126.315ZM166.977 106.461H116.785H84.2154H34.0231C32.4615 106.461 31.3462 105.123 31.3462 103.784V97.3149H169.654V103.784C169.654 105.346 168.538 106.461 166.977 106.461Z" fill="#800180"/>
<path d="M106.969 100.214H94.0305C93.1382 100.214 92.469 100.884 92.469 101.776C92.469 102.668 93.1382 103.337 94.0305 103.337H106.969C107.861 103.337 108.531 102.668 108.531 101.776C108.531 100.884 107.861 100.214 106.969 100.214Z" fill="#800180"/>
<path d="M136.192 67.8685C136.192 67.1993 135.746 66.5301 135.077 66.307L119.908 61.1762C120.8 58.7224 121.246 56.0455 121.246 53.1455C121.246 39.7608 110.315 28.8301 96.9308 28.8301C83.5462 28.8301 72.6154 39.7608 72.6154 53.1455C72.6154 66.5301 83.7692 77.4608 97.1538 77.4608C103.177 77.4608 108.977 75.2301 113.215 71.2147L117.454 83.707C117.677 84.3762 118.346 84.8224 119.015 84.8224C119.685 84.8224 120.354 84.3762 120.577 83.707L123.7 74.7839L133.069 84.1532C133.292 84.3762 133.738 84.5993 134.185 84.5993C134.631 84.5993 135.077 84.3762 135.3 84.1532C135.969 83.4839 135.969 82.3685 135.3 81.6993L126.154 72.7762L135.077 69.6532C135.746 69.207 136.192 68.7608 136.192 67.8685ZM97.1538 74.1147C85.5538 74.1147 76.1846 64.7455 76.1846 53.1455C76.1846 41.5455 85.5538 32.1762 97.1538 32.1762C108.754 32.1762 118.123 41.5455 118.123 53.1455C118.123 55.5993 117.677 57.8301 117.008 60.0608L111.877 58.2762C111.208 58.0532 110.538 58.2762 110.092 58.7224C109.646 59.1685 109.423 59.8378 109.646 60.507L112.1 67.8685C108.085 71.8839 102.731 74.1147 97.1538 74.1147ZM122.585 70.5455C122.362 70.5455 122.138 70.7685 121.915 70.9916C121.692 71.2147 121.692 71.4378 121.469 71.6609L119.015 78.5762L113.662 62.9608L129.277 68.3147L122.585 70.5455Z" fill="#10E8E8"/>
<path d="M100.277 45.3382C101.169 46.0074 101.615 46.8997 101.615 47.792H104.961C104.961 45.7843 104.069 43.9997 102.507 42.6613C101.392 41.769 100.054 41.0997 98.7152 40.8766V36.6382H95.369V41.0997C94.0306 41.3228 92.6921 41.992 91.5767 42.8843C90.0152 44.2228 89.1229 46.0074 89.1229 48.0151C89.1229 50.0228 90.0152 51.8074 91.5767 53.1459C93.1382 54.4843 94.9229 55.1536 96.9306 55.1536C98.269 55.1536 99.3844 55.5997 100.277 56.269C101.169 56.9382 101.615 57.8305 101.615 58.7228C101.615 59.6151 101.169 60.5074 100.277 61.1766C98.4921 62.7382 95.369 62.7382 93.8075 61.1766C92.9152 60.5074 92.469 59.6151 92.469 58.7228H89.1229C89.1229 60.7305 90.0152 62.5151 91.5767 63.8536C92.6921 64.7459 94.0306 65.4151 95.369 65.6382V69.6536H98.7152V65.6382C100.054 65.4151 101.392 64.7459 102.507 63.8536C104.069 62.5151 104.961 60.7305 104.961 58.7228C104.961 56.7151 104.069 54.9305 102.507 53.592C100.946 52.2536 99.1613 51.5843 97.1536 51.5843C95.8152 51.5843 94.6998 51.1382 93.8075 50.469C92.9152 49.7997 92.469 48.9074 92.469 48.0151C92.469 47.1228 92.9152 46.2305 93.8075 45.5613C95.5921 43.9997 98.7152 43.9997 100.277 45.3382Z" fill="#10E8E8"/>
</svg>
