<svg width="998" height="560" viewBox="0 0 998 560" fill="none" xmlns="http://www.w3.org/2000/svg">
<path d="M152.602 407.535C145.644 397.705 128.9 398.274 120.342 405.553C116.98 408.391 114.846 412.413 114.383 416.783C114.223 418.466 113.982 423.341 115.844 424.347C117.436 425.221 117.976 422.889 117.304 421.774C114.639 417.213 106.234 421.68 104.606 425.185C105.413 423.231 105.666 421.093 105.336 419.005C104.686 415.66 100.524 412.33 97.0482 413.977C94.9963 414.954 95.8068 417.73 97.2161 415.792C98.808 413.605 97.479 409.488 96.1501 407.565C93.7915 404.162 89.3664 402.507 85.4525 404.111C83.8538 404.717 82.5217 405.868 81.6919 407.36C81.2976 408.147 80.4213 411.004 81.7357 411.485C83.9629 412.287 83.4955 407.404 83.1961 406.384C82.9042 405.157 82.3262 404.016 81.5091 403.053C80.692 402.091 79.6588 401.335 78.4936 400.846C72.8637 398.66 65.6273 402.449 65.3498 408.679C64.3787 404.067 59.0482 400.183 54.8276 398.871C47.7664 396.685 39.7561 400.86 36.5723 407.331C34.5935 411.31 34.4839 417.708 37.748 421.177C38.3906 421.862 39.8656 422.634 39.3033 421.002C38.522 418.692 33.5858 418.626 31.8333 419.012C25.1957 420.47 22.8006 427.575 25.8237 433.186C23.3662 432.103 20.6768 431.649 17.9991 431.865C15.3215 432.082 12.7402 432.961 10.4893 434.425C6.10802 437.281 2.55192 442.761 5.2975 447.949" stroke="#800180" stroke-width="1.5" stroke-linecap="round" stroke-linejoin="round"/>
<path d="M30.4824 422.979C30.4824 422.979 31.366 421.397 35.1776 421.74" stroke="#800180" stroke-width="1.5" stroke-linecap="round" stroke-linejoin="round"/>
<path d="M41.7276 405.394C41.7276 405.394 47.2188 398.056 55.9886 401.751" stroke="#800180" stroke-width="1.5" stroke-linecap="round" stroke-linejoin="round"/>
<path d="M47.4013 404.685C48.2171 404.014 49.2042 403.584 50.2517 403.442C51.2991 403.3 52.3654 403.453 53.3306 403.883" stroke="#800180" stroke-width="1.5" stroke-linecap="round" stroke-linejoin="round"/>
<path d="M69.6216 406.804C70.5058 405.29 71.8627 404.107 73.4849 403.435C75.107 402.764 76.9048 402.642 78.6031 403.088" stroke="#800180" stroke-width="1.5" stroke-linecap="round" stroke-linejoin="round"/>
<path d="M86.4821 407.273C87.4276 406.742 88.5159 406.519 89.5947 406.636C90.6734 406.752 91.6889 407.201 92.499 407.922" stroke="#800180" stroke-width="1.5" stroke-linecap="round" stroke-linejoin="round"/>
<path d="M100.823 416.82C100.823 416.82 102.656 417.549 102.773 420.828" stroke="#800180" stroke-width="1.5" stroke-linecap="round" stroke-linejoin="round"/>
<path d="M121.014 410.283C125.395 403.513 136.698 401.851 143.533 405.182C145.812 406.315 147.779 407.986 149.265 410.049" stroke="#800180" stroke-width="1.5" stroke-linecap="round" stroke-linejoin="round"/>
<path opacity="0.1" d="M132.31 489.414C132.31 489.414 135.136 508.951 152.624 512.988C170.113 517.025 175.421 508.098 175.421 508.098C175.421 508.098 175.21 514.802 176.057 518.773C176.904 522.745 180.168 529.369 176.787 529.383C173.406 529.398 160.452 530.469 149.477 527.809C138.502 525.15 135.245 514.321 133.449 508.47C131.653 502.618 132.31 489.414 132.31 489.414Z" fill="#10E8E8"/>
<path opacity="0.1" d="M721.07 463.266L716.097 463.994C703.428 464.286 685.99 464.541 677.907 463.994C666.91 463.266 660.849 444.793 658.995 438.023C658.995 438.023 671.861 452.342 684.318 455.789C696.776 459.236 721.07 463.266 721.07 463.266Z" fill="#10E8E8"/>
<path opacity="0.1" d="M543.906 499.613C543.906 499.613 539.343 450.542 578.153 440.34C619.68 429.41 641.192 463.899 643.032 491.677L543.906 499.613Z" fill="#10E8E8"/>
<path opacity="0.1" d="M406.357 523.678L540.715 507.129L286.771 510.212C286.771 510.212 285.164 492.49 270.027 478.338C254.89 464.187 236.116 462.117 236.116 462.117C288.151 481.005 270.998 527.664 270.998 527.664L406.357 523.678Z" fill="#10E8E8"/>
<path opacity="0.1" d="M278.578 441.648L301.886 489.072L365.933 501.533L293.277 500.615L278.578 441.648Z" fill="#10E8E8"/>
<path opacity="0.1" d="M395.623 443.52L405.736 502.443L397.237 502.355L395.623 443.52Z" fill="#10E8E8"/>
<path opacity="0.1" d="M214.422 412.222C214.422 412.222 266.676 354.29 269.136 353.277C269.662 353.066 300.141 391.629 300.141 391.629V383.766L308.83 393.83V385.938L338.718 401.394L341.602 389.006L344.947 400.191L377.806 393.83L394.601 406.174L393.14 352.25L463.036 348.781L492.923 410.808L408.592 411.625L214.422 412.222Z" fill="#10E8E8"/>
<path opacity="0.1" d="M158.897 413.525L175.838 413.059L241.724 347.789L231.662 348.066L158.897 413.525Z" fill="#10E8E8"/>
<path opacity="0.1" d="M737.12 509.686L748.672 493.145L799.363 485.398L735.893 487.133L737.12 509.686Z" fill="#10E8E8"/>
<path opacity="0.1" d="M515.523 406.172L654.358 395.715L579.103 346.834C575.428 344.401 571.098 343.143 566.689 343.227L481.802 347.796L515.523 406.172Z" fill="#10E8E8"/>
<path opacity="0.1" d="M712.263 438.281C712.263 438.281 721.406 436.131 730.358 437.326C739.31 438.522 749.854 455.253 756.375 455.42C762.896 455.588 779.362 455.42 791.425 452.913C803.488 450.407 804.81 446.173 804.81 446.173L805.664 455.646C805.664 455.646 799.304 460.077 771.191 461.243C743.078 462.408 738.872 462.357 738.872 462.357C738.872 462.357 718.397 439.352 712.263 438.281Z" fill="#10E8E8"/>
<path d="M157.502 413.562L175.838 413.059L241.724 347.789L229.91 348.11" stroke="#800180" stroke-width="1.5" stroke-linecap="round" stroke-linejoin="round"/>
<path d="M491.478 411.193L205.17 412.257L266.632 349.165C266.632 349.165 269.027 347.067 278.395 346.804C286.333 346.593 434.806 343.839 465.394 343.008L501.686 405.276" stroke="#800180" stroke-width="1.5" stroke-linecap="round" stroke-linejoin="round"/>
<path d="M182.358 552.09C182.358 552.09 203.374 556.462 221.198 553.984C230.895 552.651 268.019 556.375 269.903 556.812C273.247 557.591 277.439 559.165 279.396 558.721C281.353 558.276 282.477 555.916 285.749 558.313" stroke="#800180" stroke-width="1.5" stroke-linecap="round" stroke-linejoin="round"/>
<path d="M550.69 545.317C550.69 545.317 571.632 542.038 589.544 543.78C600.359 544.836 636.395 542.031 638.308 542.322" stroke="#800180" stroke-width="1.5" stroke-linecap="round" stroke-linejoin="round"/>
<path d="M153.026 478.102L133.04 482.794C133.04 482.794 125.738 524.418 151.953 528.316C178.167 532.215 178.05 528.411 178.05 528.411" stroke="#800180" stroke-width="1.5" stroke-linecap="round" stroke-linejoin="round"/>
<path d="M659.718 395.569L576.875 338.278C572.49 335.245 567.279 333.622 561.943 333.629L512.858 333.716L417.639 335.392C348.014 337.076 242.593 339.626 238.249 339.765C231.728 339.947 222.914 346.287 222.914 346.287C222.914 346.287 159.715 405.384 149.806 415.827C139.897 426.269 144.183 433.884 144.183 433.884L145.366 476.98" stroke="#800180" stroke-width="1.5" stroke-linecap="round" stroke-linejoin="round"/>
<path d="M524.49 410.492C524.49 410.492 661.419 427.864 679.075 432.237C696.732 436.609 813.653 433.439 805.65 424.301C797.647 415.163 655.643 395.648 655.643 395.648L515.523 406.142L476.822 342.956L565.404 340.5" stroke="#800180" stroke-width="1.5" stroke-linecap="round" stroke-linejoin="round"/>
<path d="M702.741 470.271C702.741 470.271 748.81 470.031 779.895 466.336C810.98 462.642 811.805 462.817 813.258 463.8C814.711 464.784 806.489 499.383 787.095 513.352L640.696 517.725" stroke="#800180" stroke-width="1.5" stroke-linecap="round" stroke-linejoin="round"/>
<path d="M730.891 463.609C730.891 463.609 724.56 463.813 716.097 464.003C703.428 464.294 685.991 464.549 677.907 464.003C666.91 463.274 660.849 444.801 658.995 438.032C658.571 436.501 658.367 435.569 658.367 435.569C658.367 435.569 672.591 433.871 694.315 437.915C716.039 441.959 730.891 463.609 730.891 463.609Z" stroke="#800180" stroke-width="1.5" stroke-linecap="round" stroke-linejoin="round"/>
<path d="M712.263 438.281C712.263 438.281 733.637 452.95 738.901 462.372C738.901 462.372 748.394 462.722 765.919 461.643C783.444 460.565 804.547 457.745 805.708 455.675C806.869 453.606 802.006 432.16 802.006 432.16L783.108 434.281C783.108 434.281 778.333 446.049 767.496 444.92C756.66 443.79 733.746 433.625 712.263 438.281Z" stroke="#800180" stroke-width="1.5" stroke-linecap="round" stroke-linejoin="round"/>
<path d="M780.238 508.439C780.238 508.439 791.192 502.034 799.991 485.383L735.893 487.132L736.528 510.312L776.69 508.534" stroke="#800180" stroke-width="1.5" stroke-linecap="round" stroke-linejoin="round"/>
<path d="M725.006 506.422L725.101 509.81L699.295 510.51L699.178 506.312" stroke="#800180" stroke-width="1.5" stroke-linecap="round" stroke-linejoin="round"/>
<path d="M695.323 504.52L727.101 503.652" stroke="#800180" stroke-width="1.5" stroke-linecap="round" stroke-linejoin="round"/>
<path d="M698.367 501.589L698.243 496.977" stroke="#800180" stroke-width="1.5" stroke-linecap="round" stroke-linejoin="round"/>
<path d="M724.867 501.537L724.728 496.254" stroke="#800180" stroke-width="1.5" stroke-linecap="round" stroke-linejoin="round"/>
<path d="M695.045 494.215L726.816 493.348" stroke="#800180" stroke-width="1.5" stroke-linecap="round" stroke-linejoin="round"/>
<path d="M697.426 491.845L697.28 486.693L724.443 485.957L724.582 491.102" stroke="#800180" stroke-width="1.5" stroke-linecap="round" stroke-linejoin="round"/>
<path d="M271.612 352.266L270.436 413.098L293.277 500.615L385.378 501.774" stroke="#800180" stroke-width="1.5" stroke-linecap="round" stroke-linejoin="round"/>
<path d="M392.972 346.906L397.237 502.353L533.048 499.613" stroke="#800180" stroke-width="1.5" stroke-linecap="round" stroke-linejoin="round"/>
<path d="M294.876 427.373L317.688 426.746" stroke="#800180" stroke-width="1.5" stroke-linecap="round" stroke-linejoin="round"/>
<path d="M159.335 435.824L410.483 439.628" stroke="#800180" stroke-width="1.5" stroke-linecap="round" stroke-linejoin="round"/>
<path d="M146.892 442.789L174.801 442.023C174.801 442.023 169.039 455.14 161.233 456.598C156.356 457.456 151.379 457.594 146.461 457.006" stroke="#800180" stroke-width="1.5" stroke-linecap="round" stroke-linejoin="round"/>
<path d="M640.133 515.785C642.4 508.811 643.075 501.418 642.109 494.15C641.143 486.881 638.561 479.92 634.551 473.776C630.54 467.632 625.204 462.461 618.932 458.641C612.661 454.821 605.612 452.45 598.304 451.699C590.995 450.949 583.61 451.84 576.691 454.306C569.771 456.772 563.492 460.751 558.313 465.952C553.133 471.153 549.185 477.443 546.757 484.364C544.329 491.284 543.482 498.659 544.279 505.948M271.51 525.674C273.776 518.699 274.452 511.307 273.486 504.038C272.52 496.77 269.937 489.808 265.927 483.665C261.917 477.521 256.58 472.349 250.309 468.53C244.037 464.71 236.989 462.338 229.68 461.588C222.371 460.838 214.986 461.728 208.067 464.194C201.147 466.66 194.868 470.639 189.689 475.84C184.509 481.041 180.561 487.332 178.133 494.252C175.705 501.173 174.858 508.547 175.655 515.836C176.071 519.765 176.971 523.627 178.335 527.335L271.51 525.674Z" stroke="#800180" stroke-width="1.5" stroke-linecap="round" stroke-linejoin="round"/>
<path d="M544.286 505.947C544.01 503.847 543.883 501.731 543.906 499.614C545.279 471.719 568.456 450.186 595.685 451.52C619.534 452.686 638.578 471.012 642.017 494.295C642.127 495.082 642.433 503.658 642.433 503.658L544.286 505.947Z" fill="#800180"/>
<path d="M597.562 487.782L589.53 488.306L588.624 453.897C591.184 453.553 593.768 453.414 596.35 453.481L597.562 487.782Z" fill="white" stroke="#3A3A3A" stroke-width="1.5" stroke-linecap="round" stroke-linejoin="round"/>
<path d="M594.495 517.27C603.263 517.27 610.37 510.177 610.37 501.428C610.37 492.679 603.263 485.586 594.495 485.586C585.728 485.586 578.621 492.679 578.621 501.428C578.621 510.177 585.728 517.27 594.495 517.27Z" fill="white" stroke="#3A3A3A" stroke-width="1.5" stroke-linecap="round" stroke-linejoin="round"/>
<path d="M594.495 505.946C596.996 505.946 599.022 503.923 599.022 501.428C599.022 498.933 596.996 496.91 594.495 496.91C591.995 496.91 589.968 498.933 589.968 501.428C589.968 503.923 591.995 505.946 594.495 505.946Z" stroke="#800180" stroke-width="1.5" stroke-linecap="round" stroke-linejoin="round"/>
<path opacity="0.1" d="M175.151 509.297C175.151 509.297 170.587 460.227 209.398 450.032C250.925 439.101 272.444 473.584 274.277 501.362L175.151 509.297Z" fill="#10E8E8"/>
<path d="M175.531 515.637C175.259 513.535 175.132 511.417 175.151 509.298C176.524 481.403 199.701 459.87 226.93 461.203C250.779 462.369 269.823 480.696 273.262 503.978C273.379 504.765 273.678 513.342 273.678 513.342L175.531 515.637Z" fill="#800180"/>
<path d="M228.807 497.471L220.775 497.996L219.855 463.572C222.414 463.227 224.998 463.09 227.58 463.164L228.807 497.471Z" fill="white" stroke="#3A3A3A" stroke-width="1.5" stroke-linecap="round" stroke-linejoin="round"/>
<path d="M225.74 526.961C234.507 526.961 241.615 519.869 241.615 511.119C241.615 502.37 234.507 495.277 225.74 495.277C216.973 495.277 209.865 502.37 209.865 511.119C209.865 519.869 216.973 526.961 225.74 526.961Z" fill="white" stroke="#3A3A3A" stroke-width="1.5" stroke-linecap="round" stroke-linejoin="round"/>
<path d="M225.74 515.641C228.24 515.641 230.267 513.619 230.267 511.123C230.267 508.628 228.24 506.605 225.74 506.605C223.24 506.605 221.213 508.628 221.213 511.123C221.213 513.619 223.24 515.641 225.74 515.641Z" stroke="#800180" stroke-width="1.5" stroke-linecap="round" stroke-linejoin="round"/>
<path d="M543.527 509.039L544.169 518.614L499.546 520.509L404.7 523.693L274.379 527.257" stroke="#800180" stroke-width="1.5" stroke-linecap="round" stroke-linejoin="round"/>
<path d="M544.286 505.945L500.218 506.922L405.386 509.589L296.395 512.569" stroke="#800180" stroke-width="1.5" stroke-linecap="round" stroke-linejoin="round"/>
<path d="M511.288 412.121C511.288 412.121 522.592 422.272 531.179 446.851" stroke="#800180" stroke-width="1.5" stroke-linecap="round" stroke-linejoin="round"/>
<path d="M43.042 469.752C43.042 469.752 47.3064 467.689 50.6946 468.294C54.0827 468.899 58.3398 470.277 60.253 469.752C62.1661 469.227 63.1738 466.793 66.5693 469.023" stroke="#800180" stroke-width="1.5" stroke-linecap="round" stroke-linejoin="round"/>
<path d="M68.5847 471.997C68.5847 471.997 71.4252 471.414 72.8929 471.997" stroke="#800180" stroke-width="1.5" stroke-linecap="round" stroke-linejoin="round"/>
<path d="M927.791 469.896C927.791 469.896 940.723 466.413 948.486 468.096C956.248 469.779 959.607 467.367 969.172 467.841C978.738 468.315 983.66 470.027 983.66 470.027" stroke="#800180" stroke-width="1.5" stroke-linecap="round" stroke-linejoin="round"/>
<path d="M958.833 474.503C958.833 474.503 962.192 472.317 969.691 474.503" stroke="#800180" stroke-width="1.5" stroke-linecap="round" stroke-linejoin="round"/>
<path d="M806.044 427.48C806.044 427.48 808.476 435.248 811.637 460.498" stroke="#800180" stroke-width="1.5" stroke-linecap="round" stroke-linejoin="round"/>
<path d="M178.547 359.288V51.1992H329.802V108.14L374.286 142.302V242.214V294.076V320.878" stroke="#800180" stroke-width="1.5" stroke-linecap="round" stroke-linejoin="round"/>
<path d="M307.451 62.5898V104.884L359.04 145.56V249.255V284.546V332.006" stroke="#800180" stroke-width="1.5" stroke-linecap="round" stroke-linejoin="round"/>
<path d="M383.253 163.078H460.67V310.429" stroke="#10E8E8" stroke-width="1.5" stroke-linecap="round" stroke-linejoin="round"/>
<path d="M136.859 393.828V236.953H175.166" stroke="#10E8E8" stroke-width="1.5" stroke-linecap="round" stroke-linejoin="round"/>
<path d="M493.602 310.43V71.5391H566.711" stroke="#10E8E8" stroke-width="1.5" stroke-linecap="round" stroke-linejoin="round"/>
<path d="M502.942 62.5889V51.1992H563.381" stroke="#10E8E8" stroke-width="1.5" stroke-linecap="round" stroke-linejoin="round"/>
<path d="M521.854 83.7383V310.431" stroke="#10E8E8" stroke-width="1.5" stroke-linecap="round" stroke-linejoin="round"/>
<path d="M501.686 89.1562H540.058" stroke="#10E8E8" stroke-width="1.5" stroke-linecap="round" stroke-linejoin="round"/>
<path d="M501.686 99.4609H540.058" stroke="#10E8E8" stroke-width="1.5" stroke-linecap="round" stroke-linejoin="round"/>
<path d="M501.686 109.766H540.058" stroke="#10E8E8" stroke-width="1.5" stroke-linecap="round" stroke-linejoin="round"/>
<path d="M501.686 120.07H540.058" stroke="#10E8E8" stroke-width="1.5" stroke-linecap="round" stroke-linejoin="round"/>
<path d="M501.686 130.234H540.058" stroke="#10E8E8" stroke-width="1.5" stroke-linecap="round" stroke-linejoin="round"/>
<path d="M501.686 140.539H540.058" stroke="#10E8E8" stroke-width="1.5" stroke-linecap="round" stroke-linejoin="round"/>
<path d="M501.686 150.777H540.058" stroke="#10E8E8" stroke-width="1.5" stroke-linecap="round" stroke-linejoin="round"/>
<path d="M501.686 161.082H540.058" stroke="#10E8E8" stroke-width="1.5" stroke-linecap="round" stroke-linejoin="round"/>
<path d="M501.686 171.387H540.058" stroke="#10E8E8" stroke-width="1.5" stroke-linecap="round" stroke-linejoin="round"/>
<path d="M501.686 181.688H540.058" stroke="#10E8E8" stroke-width="1.5" stroke-linecap="round" stroke-linejoin="round"/>
<path d="M501.686 191.855H540.058" stroke="#10E8E8" stroke-width="1.5" stroke-linecap="round" stroke-linejoin="round"/>
<path d="M501.686 202.027H540.058" stroke="#10E8E8" stroke-width="1.5" stroke-linecap="round" stroke-linejoin="round"/>
<path d="M501.686 212.332H540.058" stroke="#10E8E8" stroke-width="1.5" stroke-linecap="round" stroke-linejoin="round"/>
<path d="M501.686 222.496H540.058" stroke="#10E8E8" stroke-width="1.5" stroke-linecap="round" stroke-linejoin="round"/>
<path d="M193.976 77.8438V345.249" stroke="#800180" stroke-width="1.5" stroke-linecap="round" stroke-linejoin="round"/>
<path d="M207.426 77.8438V345.249" stroke="#800180" stroke-width="1.5" stroke-linecap="round" stroke-linejoin="round"/>
<path d="M221.49 77.8438V345.249" stroke="#800180" stroke-width="1.5" stroke-linecap="round" stroke-linejoin="round"/>
<path d="M234.327 77.8438V334.69" stroke="#800180" stroke-width="1.5" stroke-linecap="round" stroke-linejoin="round"/>
<path d="M247.778 77.8438V334.69" stroke="#800180" stroke-width="1.5" stroke-linecap="round" stroke-linejoin="round"/>
<path d="M261.834 77.8438V334.69" stroke="#800180" stroke-width="1.5" stroke-linecap="round" stroke-linejoin="round"/>
<path d="M276.417 77.8438V334.69" stroke="#800180" stroke-width="1.5" stroke-linecap="round" stroke-linejoin="round"/>
<path d="M289.867 126.641V334.686" stroke="#800180" stroke-width="1.5" stroke-linecap="round" stroke-linejoin="round"/>
<path d="M303.924 150.777V334.688" stroke="#800180" stroke-width="1.5" stroke-linecap="round" stroke-linejoin="round"/>
<path d="M571.917 311.281V1.58203H682.434V311.281" stroke="#800180" stroke-width="1.5" stroke-linecap="round" stroke-linejoin="round"/>
<path d="M630.904 11.3398V310.429" stroke="#800180" stroke-width="1.5" stroke-linecap="round" stroke-linejoin="round"/>
<path d="M598.687 21.1055H673.263" stroke="#800180" stroke-width="1.5" stroke-linecap="round" stroke-linejoin="round"/>
<path d="M598.687 33.9141H673.263" stroke="#800180" stroke-width="1.5" stroke-linecap="round" stroke-linejoin="round"/>
<path d="M598.687 44.793H673.263" stroke="#800180" stroke-width="1.5" stroke-linecap="round" stroke-linejoin="round"/>
<path d="M598.687 57.6055H673.263" stroke="#800180" stroke-width="1.5" stroke-linecap="round" stroke-linejoin="round"/>
<path d="M598.687 70.4141H673.263" stroke="#800180" stroke-width="1.5" stroke-linecap="round" stroke-linejoin="round"/>
<path d="M598.687 83.2266H673.263" stroke="#800180" stroke-width="1.5" stroke-linecap="round" stroke-linejoin="round"/>
<path d="M598.687 94.1055H673.263" stroke="#800180" stroke-width="1.5" stroke-linecap="round" stroke-linejoin="round"/>
<path d="M598.687 106.914H673.263" stroke="#800180" stroke-width="1.5" stroke-linecap="round" stroke-linejoin="round"/>
<path d="M598.687 120.289H673.263" stroke="#800180" stroke-width="1.5" stroke-linecap="round" stroke-linejoin="round"/>
<path d="M598.687 133.105H673.263" stroke="#800180" stroke-width="1.5" stroke-linecap="round" stroke-linejoin="round"/>
<path d="M598.687 143.984H673.263" stroke="#800180" stroke-width="1.5" stroke-linecap="round" stroke-linejoin="round"/>
<path d="M598.687 156.797H673.263" stroke="#800180" stroke-width="1.5" stroke-linecap="round" stroke-linejoin="round"/>
<path d="M598.687 169.883H673.263" stroke="#800180" stroke-width="1.5" stroke-linecap="round" stroke-linejoin="round"/>
<path d="M598.687 182.695H673.263" stroke="#800180" stroke-width="1.5" stroke-linecap="round" stroke-linejoin="round"/>
<path d="M598.687 193.574H673.263" stroke="#800180" stroke-width="1.5" stroke-linecap="round" stroke-linejoin="round"/>
<path d="M598.687 206.383H673.263" stroke="#800180" stroke-width="1.5" stroke-linecap="round" stroke-linejoin="round"/>
<path d="M598.687 219.223H673.263" stroke="#800180" stroke-width="1.5" stroke-linecap="round" stroke-linejoin="round"/>
<path d="M598.687 232.035H673.263" stroke="#800180" stroke-width="1.5" stroke-linecap="round" stroke-linejoin="round"/>
<path d="M598.687 244.262H673.263" stroke="#800180" stroke-width="1.5" stroke-linecap="round" stroke-linejoin="round"/>
<path d="M598.687 257.355H673.263" stroke="#800180" stroke-width="1.5" stroke-linecap="round" stroke-linejoin="round"/>
<path d="M598.687 270.168H673.263" stroke="#800180" stroke-width="1.5" stroke-linecap="round" stroke-linejoin="round"/>
<path d="M598.687 281.047H673.263" stroke="#800180" stroke-width="1.5" stroke-linecap="round" stroke-linejoin="round"/>
<path d="M598.687 293.859H673.263" stroke="#800180" stroke-width="1.5" stroke-linecap="round" stroke-linejoin="round"/>
<path d="M698.725 298.44H728.554V218.392L751.11 206.383L773.929 218.392" stroke="#10E8E8" stroke-width="1.5" stroke-linecap="round" stroke-linejoin="round"/>
<path d="M778.822 301.642V21.1055H944.294V236.991" stroke="#800180" stroke-width="1.5" stroke-linecap="round" stroke-linejoin="round"/>
<path d="M843.299 311.28L843.219 70.4141H916.985" stroke="#800180" stroke-width="1.5" stroke-linecap="round" stroke-linejoin="round"/>
<path d="M134.559 446.293C134.559 446.293 103.423 448.807 97.5083 445.987C93.8572 444.245 85.7446 447.393 75.602 445.258C64.8168 443.021 53.0458 447.255 48.7522 445.987C40.8003 443.56 9.21873 453.566 0.865143 449.055" stroke="#800180" stroke-width="1.5" stroke-linecap="round" stroke-linejoin="round"/>
<path d="M95.836 454.101C95.836 454.101 103.584 452.862 107.249 454.101C110.915 455.34 113.77 454.75 116.625 453.824C119.48 452.899 125.994 454.83 125.994 454.83" stroke="#800180" stroke-width="1.5" stroke-linecap="round" stroke-linejoin="round"/>
<path d="M926.441 448.036C945.682 449.392 965.397 447.206 984.587 448.182" stroke="#800180" stroke-width="1.5" stroke-linecap="round" stroke-linejoin="round"/>
<path d="M822.109 446.814C831.039 445.779 839.071 447.965 847.834 446.508C848.564 446.508 849.294 447.237 850.193 447.083" stroke="#800180" stroke-width="1.5" stroke-linecap="round" stroke-linejoin="round"/>
<path d="M981.535 240.633H921.132L921.213 311.281" stroke="#800180" stroke-width="1.5" stroke-linecap="round" stroke-linejoin="round"/>
<path d="M916.985 263.645H855.662" stroke="#800180" stroke-width="1.5" stroke-linecap="round" stroke-linejoin="round"/>
<path d="M916.985 273.285H855.662" stroke="#800180" stroke-width="1.5" stroke-linecap="round" stroke-linejoin="round"/>
<path d="M916.985 244.363H855.662" stroke="#800180" stroke-width="1.5" stroke-linecap="round" stroke-linejoin="round"/>
<path d="M916.985 254.004H855.662" stroke="#800180" stroke-width="1.5" stroke-linecap="round" stroke-linejoin="round"/>
<path d="M916.985 301.641H855.662" stroke="#800180" stroke-width="1.5" stroke-linecap="round" stroke-linejoin="round"/>
<path d="M916.985 311.281H855.662" stroke="#800180" stroke-width="1.5" stroke-linecap="round" stroke-linejoin="round"/>
<path d="M916.985 282.367H855.662" stroke="#800180" stroke-width="1.5" stroke-linecap="round" stroke-linejoin="round"/>
<path d="M916.985 292H855.662" stroke="#800180" stroke-width="1.5" stroke-linecap="round" stroke-linejoin="round"/>
<path d="M916.985 139.082H855.662" stroke="#800180" stroke-width="1.5" stroke-linecap="round" stroke-linejoin="round"/>
<path d="M916.985 148.719H855.662" stroke="#800180" stroke-width="1.5" stroke-linecap="round" stroke-linejoin="round"/>
<path d="M916.985 119.801H855.662" stroke="#800180" stroke-width="1.5" stroke-linecap="round" stroke-linejoin="round"/>
<path d="M916.985 129.441H855.662" stroke="#800180" stroke-width="1.5" stroke-linecap="round" stroke-linejoin="round"/>
<path d="M916.985 177.078H855.662" stroke="#800180" stroke-width="1.5" stroke-linecap="round" stroke-linejoin="round"/>
<path d="M916.985 186.719H855.662" stroke="#800180" stroke-width="1.5" stroke-linecap="round" stroke-linejoin="round"/>
<path d="M916.985 157.801H855.662" stroke="#800180" stroke-width="1.5" stroke-linecap="round" stroke-linejoin="round"/>
<path d="M916.985 167.434H855.662" stroke="#800180" stroke-width="1.5" stroke-linecap="round" stroke-linejoin="round"/>
<path d="M916.985 214.508H855.662" stroke="#800180" stroke-width="1.5" stroke-linecap="round" stroke-linejoin="round"/>
<path d="M916.985 224.141H855.662" stroke="#800180" stroke-width="1.5" stroke-linecap="round" stroke-linejoin="round"/>
<path d="M916.985 234.723H855.662" stroke="#800180" stroke-width="1.5" stroke-linecap="round" stroke-linejoin="round"/>
<path d="M916.985 195.23H855.662" stroke="#800180" stroke-width="1.5" stroke-linecap="round" stroke-linejoin="round"/>
<path d="M916.985 204.867H855.662" stroke="#800180" stroke-width="1.5" stroke-linecap="round" stroke-linejoin="round"/>
<path d="M916.985 88.4453H855.662" stroke="#800180" stroke-width="1.5" stroke-linecap="round" stroke-linejoin="round"/>
<path d="M916.985 98.0859H855.662" stroke="#800180" stroke-width="1.5" stroke-linecap="round" stroke-linejoin="round"/>
<path d="M916.985 108.664H855.662" stroke="#800180" stroke-width="1.5" stroke-linecap="round" stroke-linejoin="round"/>
<path d="M205.44 527.91L247.413 527.641V540.247H205.44V530.621" stroke="#800180" stroke-width="1.5" stroke-linecap="round" stroke-linejoin="round"/>
<path d="M200.957 540.516L242.937 540.246V552.853H200.957V543.234" stroke="#800180" stroke-width="1.5" stroke-linecap="round" stroke-linejoin="round"/>
<path d="M575.751 517.738L617.731 517.469V530.075H575.751V520.449" stroke="#800180" stroke-width="1.5" stroke-linecap="round" stroke-linejoin="round"/>
<path d="M580.118 530.344L622.097 530.074V542.681H580.118V533.055" stroke="#800180" stroke-width="1.5" stroke-linecap="round" stroke-linejoin="round"/>
<path d="M907.777 485.252H859.597L856.589 411.879" stroke="#800180" stroke-width="1.5" stroke-linecap="round" stroke-linejoin="round"/>
<path d="M856.589 407.375H920.884L918.109 475.246" stroke="#800180" stroke-width="1.5" stroke-linecap="round" stroke-linejoin="round"/>
<path d="M912.917 480.822L915.48 417.425C915.48 416.747 915.21 416.096 914.73 415.616C914.249 415.137 913.597 414.867 912.917 414.867C912.58 414.866 912.246 414.932 911.934 415.06C911.622 415.188 911.339 415.376 911.1 415.614C910.861 415.851 910.672 416.134 910.543 416.444C910.414 416.755 910.347 417.088 910.347 417.425L907.777 480.822" stroke="#800180" stroke-width="1.5" stroke-linecap="round" stroke-linejoin="round"/>
<path d="M869.309 480.822L866.739 417.425C866.739 416.747 866.469 416.096 865.988 415.616C865.508 415.137 864.856 414.867 864.176 414.867V414.867C863.839 414.866 863.505 414.932 863.193 415.06C862.881 415.188 862.598 415.376 862.359 415.614C862.12 415.851 861.931 416.134 861.801 416.444C861.672 416.755 861.606 417.088 861.606 417.425L864.176 480.822" stroke="#800180" stroke-width="1.5" stroke-linecap="round" stroke-linejoin="round"/>
<path d="M880.408 480.822L879.437 417.425C879.437 417.088 879.37 416.755 879.241 416.444C879.112 416.134 878.922 415.851 878.684 415.614C878.445 415.376 878.162 415.188 877.85 415.06C877.538 414.932 877.204 414.866 876.867 414.867V414.867C876.187 414.867 875.535 415.137 875.054 415.616C874.574 416.096 874.304 416.747 874.304 417.425L875.275 480.822" stroke="#800180" stroke-width="1.5" stroke-linecap="round" stroke-linejoin="round"/>
<path d="M901.935 480.822L903.308 417.425C903.306 416.746 903.034 416.095 902.552 415.616C902.07 415.136 901.418 414.867 900.737 414.867C900.057 414.867 899.404 415.136 898.923 415.616C898.441 416.095 898.169 416.746 898.167 417.425L896.794 480.822" stroke="#800180" stroke-width="1.5" stroke-linecap="round" stroke-linejoin="round"/>
<path d="M891.325 480.822V417.425C891.325 416.747 891.055 416.096 890.574 415.616C890.094 415.137 889.442 414.867 888.762 414.867V414.867C888.425 414.866 888.091 414.932 887.779 415.06C887.467 415.188 887.184 415.376 886.945 415.614C886.706 415.851 886.517 416.134 886.388 416.444C886.258 416.755 886.192 417.088 886.192 417.425V480.822" stroke="#800180" stroke-width="1.5" stroke-linecap="round" stroke-linejoin="round"/>
<path d="M892.194 405.908L902.278 397.295C902.278 397.295 904.14 399.415 908.66 397.295C913.18 395.174 916.093 390.401 920.482 397.295C924.871 404.188 926.324 409.493 925.265 409.755C924.206 410.018 925.791 408.56 920.884 406.046C915.977 403.532 907.74 405.114 907.74 405.114" stroke="#800180" stroke-width="1.5" stroke-linecap="round" stroke-linejoin="round"/>
<path d="M915.48 400.082C915.48 400.082 907.864 400.213 905.608 405.78" stroke="#800180" stroke-width="1.5" stroke-linecap="round" stroke-linejoin="round"/>
<path d="M892.858 402.931L865.461 390.004L856.589 405.78" stroke="#800180" stroke-width="1.5" stroke-linecap="round" stroke-linejoin="round"/>
<path d="M861.606 405.78L871.996 400.082L882.628 405.78" stroke="#800180" stroke-width="1.5" stroke-linecap="round" stroke-linejoin="round"/>
<path d="M877.356 393.707C877.356 393.707 881.562 387.091 888.74 387.878C895.918 388.665 894.45 393.051 896.042 395.434C897.634 397.817 901.884 392.92 904.41 395.434" stroke="#800180" stroke-width="1.5" stroke-linecap="round" stroke-linejoin="round"/>
<path d="M895.378 389.245C895.378 389.245 905.214 382.621 909.858 394.681" stroke="#800180" stroke-width="1.5" stroke-linecap="round" stroke-linejoin="round"/>
<path d="M857.517 400.082C857.517 400.082 847.155 400.344 846.761 408.302C846.366 416.259 849.148 432.83 855.392 423.153" stroke="#800180" stroke-width="1.5" stroke-linecap="round" stroke-linejoin="round"/>
<path d="M851.674 405.781C851.674 405.781 849.783 417.382 853.266 416.588" stroke="#800180" stroke-width="1.5" stroke-linecap="round" stroke-linejoin="round"/>
<path d="M832.412 489.077C832.412 489.077 842.24 481.79 850.076 483.641C857.911 485.492 852.602 487.35 850.076 487.481C847.549 487.612 841.444 486.206 841.444 486.206" stroke="#10E8E8" stroke-width="1.5" stroke-linecap="round" stroke-linejoin="round"/>
<path d="M838.918 489.077C838.918 489.077 855.523 489.339 860.043 489.077C864.563 488.815 855.662 486.949 855.662 486.949" stroke="#10E8E8" stroke-width="1.5" stroke-linecap="round" stroke-linejoin="round"/>
<path d="M909.325 489.157L916.634 476.711L927.792 485.251V489.04H915.488" stroke="#10E8E8" stroke-width="1.5" stroke-linecap="round" stroke-linejoin="round"/>
<path d="M913.582 489.043L921.95 484L924.469 486.172" stroke="#10E8E8" stroke-width="1.5" stroke-linecap="round" stroke-linejoin="round"/>
<path d="M420.341 329.129V316.129H996.526" stroke="#800180" stroke-width="1.5" stroke-linecap="round" stroke-linejoin="round"/>
<path d="M659.718 322.625V387.815" stroke="#800180" stroke-width="1.5" stroke-linecap="round" stroke-linejoin="round"/>
<path d="M665.997 322.625V387.815" stroke="#800180" stroke-width="1.5" stroke-linecap="round" stroke-linejoin="round"/>
<path d="M922.461 322.625V387.815" stroke="#800180" stroke-width="1.5" stroke-linecap="round" stroke-linejoin="round"/>
<path d="M928.741 322.625V439.626" stroke="#800180" stroke-width="1.5" stroke-linecap="round" stroke-linejoin="round"/>
<path d="M718.163 397.896C718.163 397.896 726.926 379.161 742.618 367.363" stroke="#10E8E8" stroke-width="1.5" stroke-linecap="round" stroke-linejoin="round"/>
<path d="M694.629 398.883C694.629 398.883 709.605 380.782 727.13 367.36C744.655 353.937 744.655 351.088 744.655 351.088C744.655 351.088 714.089 347.022 705.954 353.733" stroke="#10E8E8" stroke-width="1.5" stroke-linecap="round" stroke-linejoin="round"/>
<path d="M686.575 359.833C686.575 359.833 697.783 341.943 717.148 344.581C736.514 347.219 744.451 350.484 747.306 346.818C750.161 343.153 749.957 335.633 749.957 335.633L761.567 338.278L764.422 347.751" stroke="#10E8E8" stroke-width="1.5" stroke-linecap="round" stroke-linejoin="round"/>
<path d="M758.982 342.551C758.515 343.163 750.563 372.654 750.563 372.654C750.563 372.654 761.158 358.007 761.158 353.707" stroke="#10E8E8" stroke-width="1.5" stroke-linecap="round" stroke-linejoin="round"/>
<path d="M767.482 344.793L778.822 343.226L776.244 354.353H797.026L783.371 340.508H801.714C801.714 340.508 824.131 352.896 817.611 357.574C811.09 362.252 792.783 370.793 799.268 383.807" stroke="#10E8E8" stroke-width="1.5" stroke-linecap="round" stroke-linejoin="round"/>
<path d="M801.509 363.5L803.342 357.598C803.342 357.598 771.213 361.241 773.937 369.599C776.66 377.958 781.129 379.561 781.129 379.561C781.129 379.561 763.115 374.074 758.982 377.426" stroke="#10E8E8" stroke-width="1.5" stroke-linecap="round" stroke-linejoin="round"/>
<path d="M754.236 371.633C754.236 373.258 737.375 390.579 734.265 398.886" stroke="#10E8E8" stroke-width="1.5" stroke-linecap="round" stroke-linejoin="round"/>
<path d="M741.391 371.633C740.99 373.258 736.331 383.226 736.331 383.226L741.391 382.629" stroke="#10E8E8" stroke-width="1.5" stroke-linecap="round" stroke-linejoin="round"/>
<path d="M715.922 369.599L698.725 361.059L667.012 374.7L698.725 371.632L703.698 377.425" stroke="#10E8E8" stroke-width="1.5" stroke-linecap="round" stroke-linejoin="round"/>
<path d="M698.725 369.244V363.91" stroke="#10E8E8" stroke-width="1.5" stroke-linecap="round" stroke-linejoin="round"/>
<path d="M669.663 375.984C670.481 376.516 677.615 379.562 677.615 379.562L699.821 377.777" stroke="#10E8E8" stroke-width="1.5" stroke-linecap="round" stroke-linejoin="round"/>
<path d="M777.873 409.787C778.282 408.235 780.925 405.779 780.925 405.779L777.873 400.081L794.784 394.645L835.136 426.095L839.006 423.909L837.173 413.103L844.314 417.788" stroke="#10E8E8" stroke-width="1.5" stroke-linecap="round" stroke-linejoin="round"/>
<path d="M825.146 411.203C826.607 412.304 831.061 416.625 831.061 416.625V402.932L808.03 393.707" stroke="#10E8E8" stroke-width="1.5" stroke-linecap="round" stroke-linejoin="round"/>
<path d="M806.044 389.972C808.848 390.919 822.109 396.086 822.109 396.086C822.109 396.086 812.309 373.635 812.514 374.349C812.718 375.063 800.29 389.972 800.29 389.972" stroke="#10E8E8" stroke-width="1.5" stroke-linecap="round" stroke-linejoin="round"/>
<path d="M773.937 393.704C775.017 393.391 788.541 387.372 788.541 387.372C788.541 387.372 771.542 380.77 772.352 390.542" stroke="#10E8E8" stroke-width="1.5" stroke-linecap="round" stroke-linejoin="round"/>
<path d="M825.964 374.379L818.801 359.805L825.964 374.379Z" stroke="#10E8E8" stroke-width="1.5" stroke-linecap="round" stroke-linejoin="round"/>
<path d="M825.964 377.776L829.834 383.227C829.834 383.227 832.689 373.666 829.834 365.126C826.979 356.585 827.183 346.012 827.183 346.012L850.192 356.214L859.385 353.772L857.516 364.652L847.563 369.279L849.192 359.872" stroke="#10E8E8" stroke-width="1.5" stroke-linecap="round" stroke-linejoin="round"/>
<path d="M832.689 359.835L842.671 358.414C842.671 358.414 847.381 373.717 844.314 381.128" stroke="#10E8E8" stroke-width="1.5" stroke-linecap="round" stroke-linejoin="round"/>
<path d="M843.219 381.125L853.267 377.773C853.267 377.773 852.595 382.612 857.516 386.27L862.438 389.914" stroke="#10E8E8" stroke-width="1.5" stroke-linecap="round" stroke-linejoin="round"/>
<path d="M857.517 374.378C857.517 374.378 859.181 370.006 863.46 372.651C867.739 375.296 874.72 377.424 874.72 377.424C874.72 377.424 865.498 381.796 864.497 383.254" stroke="#10E8E8" stroke-width="1.5" stroke-linecap="round" stroke-linejoin="round"/>
<path d="M857.517 367.387C857.517 367.387 872.632 373.894 875.889 374.404C879.145 374.914 880.409 374.404 880.409 374.404L911.632 386.318" stroke="#10E8E8" stroke-width="1.5" stroke-linecap="round" stroke-linejoin="round"/>
<path d="M868.345 368.579C868.345 368.579 870.536 363.704 874.72 363.296L872.829 361.059C872.829 361.059 859.816 363.5 859.385 365.737" stroke="#10E8E8" stroke-width="1.5" stroke-linecap="round" stroke-linejoin="round"/>
<path d="M819.546 349.895C819.546 349.895 818.655 338.914 822.109 335.656L808.811 342.55" stroke="#10E8E8" stroke-width="1.5" stroke-linecap="round" stroke-linejoin="round"/>
<path d="M811.199 337.673C811.199 337.673 814.551 327.908 819.546 330.146" stroke="#10E8E8" stroke-width="1.5" stroke-linecap="round" stroke-linejoin="round"/>
<path d="M757.901 397.895L763.4 405.167L773.929 408.643" stroke="#10E8E8" stroke-width="1.5" stroke-linecap="round" stroke-linejoin="round"/>
<path d="M739.763 403.273L750.563 401.75L757.901 389.449L764.422 400.081L772.337 402.93" stroke="#10E8E8" stroke-width="1.5" stroke-linecap="round" stroke-linejoin="round"/>
<path d="M765.919 374.357C765.919 374.357 771.907 364.104 772.338 354.551" stroke="#10E8E8" stroke-width="1.5" stroke-linecap="round" stroke-linejoin="round"/>
<path d="M831.054 389.939L848.579 386.273L844.314 400.082" stroke="#10E8E8" stroke-width="1.5" stroke-linecap="round" stroke-linejoin="round"/>
<path d="M836.15 391.016L845.351 404.169" stroke="#10E8E8" stroke-width="1.5" stroke-linecap="round" stroke-linejoin="round"/>
<path d="M726.722 389.449L731.921 392.364C731.921 392.364 718.237 398.128 716.535 401.305" stroke="#10E8E8" stroke-width="1.5" stroke-linecap="round" stroke-linejoin="round"/>
<path d="M731.921 381.125L739.763 386.27" stroke="#10E8E8" stroke-width="1.5" stroke-linecap="round" stroke-linejoin="round"/>
<path d="M685.355 391.017L708.992 378.957" stroke="#10E8E8" stroke-width="1.5" stroke-linecap="round" stroke-linejoin="round"/>
<path d="M850.119 349.893C850.119 349.893 855.508 342.322 864.205 340.551L869.317 348.807L867.06 354.571" stroke="#10E8E8" stroke-width="1.5" stroke-linecap="round" stroke-linejoin="round"/>
<path d="M907.776 378.958C907.776 378.958 917.43 344.453 896.823 344.708C876.217 344.963 875.647 349.86 875.647 349.86" stroke="#10E8E8" stroke-width="1.5" stroke-linecap="round" stroke-linejoin="round"/>
<path d="M884.578 355.223L894.092 371.633" stroke="#10E8E8" stroke-width="1.5" stroke-linecap="round" stroke-linejoin="round"/>
<path d="M894.092 366.573C894.092 366.573 900.526 358.557 892.829 353.121" stroke="#10E8E8" stroke-width="1.5" stroke-linecap="round" stroke-linejoin="round"/>
<path d="M944.294 423.894C944.294 423.894 940.088 375.902 983.66 357.582" stroke="#10E8E8" stroke-width="1.5" stroke-linecap="round" stroke-linejoin="round"/>
<path d="M973.159 393.18C973.159 393.18 960.936 403.017 975.35 421.723L979.731 407.375" stroke="#10E8E8" stroke-width="1.5" stroke-linecap="round" stroke-linejoin="round"/>
<path d="M955.729 374.358C955.729 374.358 951.239 370.212 951.348 357.598C951.458 344.984 955.532 340.532 955.532 340.532H945.185L948.99 329.812" stroke="#10E8E8" stroke-width="1.5" stroke-linecap="round" stroke-linejoin="round"/>
<path d="M965.551 343.223C965.551 343.223 961.834 351.238 968.318 356.653" stroke="#10E8E8" stroke-width="1.5" stroke-linecap="round" stroke-linejoin="round"/>
<path d="M593.086 338.686L607.69 333.629C607.69 333.629 608.304 358.616 628.684 363.907L624.609 346.906C624.609 346.906 648.45 363.12 652.73 382.612" stroke="#10E8E8" stroke-width="1.5" stroke-linecap="round" stroke-linejoin="round"/>
<path d="M637.059 351.703C637.059 351.703 643.58 343.162 648.268 349.874C649.611 351.645 650.337 353.806 650.337 356.027C650.337 358.249 649.611 360.41 648.268 362.181" stroke="#10E8E8" stroke-width="1.5" stroke-linecap="round" stroke-linejoin="round"/>
<path d="M274.007 356.008L300.141 391.627V383.764L308.838 393.827V385.936L338.725 401.391L341.851 387.969L344.954 400.189L377.85 393.827L390.891 403.512" stroke="#800180" stroke-width="1.5" stroke-linecap="round" stroke-linejoin="round"/>
<path d="M294.876 377.424L344.706 372.643C344.706 372.643 352.044 372.257 356.119 374.698C360.193 377.14 364.268 391.014 364.268 391.014" stroke="#800180" stroke-width="1.5" stroke-linecap="round" stroke-linejoin="round"/>
<path d="M343.209 367.361L338.316 354.551" stroke="#800180" stroke-width="1.5" stroke-linecap="round" stroke-linejoin="round"/>
<path d="M361.552 354.742L372.147 387.374" stroke="#800180" stroke-width="1.5" stroke-linecap="round" stroke-linejoin="round"/>
<path d="M397.412 348.793L400.683 406.171" stroke="#800180" stroke-width="1.5" stroke-linecap="round" stroke-linejoin="round"/>
<path d="M268.421 352.266L265.368 407.428" stroke="#800180" stroke-width="1.5" stroke-linecap="round" stroke-linejoin="round"/>
</svg>
