<svg width="732" height="716" viewBox="0 0 732 716" fill="none" xmlns="http://www.w3.org/2000/svg">
<path fill-rule="evenodd" clip-rule="evenodd" d="M110.452 238.913C133.294 180.494 138.356 97.8741 197.634 77.3638C259.57 55.934 311.648 136.707 376.389 146.898C429.643 155.281 488.22 100.595 533.274 130.199C577.799 159.455 561.711 228.843 578.2 279.502C595.986 334.143 640.13 381.212 633.559 438.298C626.166 502.521 593.339 565.418 540.93 603.267C487.408 641.92 416.851 652.086 351.62 641.909C290.341 632.349 244.44 587.433 195.473 549.371C145.477 510.508 80.9626 479.597 64.2366 418.522C47.4983 357.402 87.3743 297.932 110.452 238.913Z" fill="#FAF7FB"/>
</svg>
