<svg width="135" height="193" viewBox="0 0 135 193" fill="none" xmlns="http://www.w3.org/2000/svg">
<path opacity="0.08" fill-rule="evenodd" clip-rule="evenodd" d="M-76.4778 147.757C-47.5071 157.877 -15.2107 182.309 11.2845 166.826C38.9676 150.648 25.5546 105.583 42.3874 78.2937C56.2336 55.8461 95.1981 51.5068 98.5517 25.3464C101.866 -0.506336 70.9726 -16.6291 57.4094 -38.8865C42.7805 -62.8928 39.3579 -94.2777 16.0643 -110.017C-10.1419 -127.724 -43.9554 -135.563 -74.7026 -128.152C-106.103 -120.584 -132.348 -97.618 -149.342 -70.1509C-165.307 -44.3478 -163.244 -12.9969 -164.702 17.3106C-166.191 48.255 -175.256 82.0592 -157.9 107.721C-140.532 133.402 -105.746 137.532 -76.4778 147.757Z" fill="#800180"/>
</svg>
