<svg width="528" height="1088" viewBox="0 0 528 1088" fill="none" xmlns="http://www.w3.org/2000/svg">
<path fill-rule="evenodd" clip-rule="evenodd" d="M841.37 343.344C794.076 262.419 827.259 124.328 741.454 86.6004C658.075 49.9391 560.781 128.083 494.942 191.024C441.799 241.828 480.884 352.333 420.149 393.764C331.114 454.499 178.884 371.972 109.179 454.174C50.4081 523.483 79.6171 655.224 144.414 718.934C213.065 786.432 341.276 714.058 423.848 763.563C494.771 806.085 474.819 964.274 557.48 966.585C641.186 968.926 658.454 839.336 707.547 771.497C735.52 732.841 748.863 686.279 783.826 653.808C846.264 595.82 973.444 593.914 988.974 510.129C1002.78 435.623 879.604 408.766 841.37 343.344Z" fill="#FAF7FB"/>
</svg>
