<svg width="1188" height="366" viewBox="0 0 1188 366" fill="none" xmlns="http://www.w3.org/2000/svg">
<path opacity="0.2" d="M1104.97 327.288H1122.85V277.283C1122.85 277.283 1126 313.681 1136.6 326.065C1139.85 329.877 1142.78 334.339 1146.01 336.823C1153.31 342.417 1159.99 343.445 1159.99 343.445L1123.01 343.77C1123.02 343.77 1108.14 337.63 1104.97 327.288Z" fill="#800180"/>
<path opacity="0.2" d="M1176.82 339.634C1176.82 339.634 1182.46 344.421 1187.61 344.421C1192.76 344.421 1226.12 345.215 1232.08 344.421C1235.59 343.953 1244.48 336.018 1249.72 328.564C1253.41 323.322 1254.36 317.715 1254.36 317.715H1194.75C1194.75 317.715 1186.13 336.668 1176.82 339.634Z" fill="#800180"/>
<path opacity="0.2" d="M888.442 326.651C888.442 326.651 892.439 324.479 893.624 323.113C894.808 321.747 895.615 320.576 895.615 320.576H972.55H974.372C974.372 320.576 971.144 334.547 958.23 341.182C945.317 347.803 910.794 344.616 904.897 343.393C899 342.17 891.84 336.225 888.833 332.622C885.826 329.019 886.282 327.38 886.282 327.38L888.442 326.651Z" fill="#800180"/>
<path opacity="0.1" d="M1018.72 172.721L1034.21 160.74H1009.51C1009.51 160.74 1007.15 161.013 1006.97 163.459C1006.79 165.905 1006.97 171.446 1006.97 171.446C1006.97 171.446 1006.7 172.721 1009.14 172.721C1011.59 172.721 1018.72 172.721 1018.72 172.721Z" fill="#10E8E8"/>
<path opacity="0.2" d="M1043.12 170.548C1042.16 171.264 1042.58 172.786 1043.78 172.877C1045.8 173.033 1049.02 173.189 1054.11 173.241C1065.98 173.358 1205.05 172.76 1205.05 172.76C1205.05 172.76 1229.81 173.202 1231.02 171.667C1232.23 170.132 1246.99 142.19 1248.76 131.497C1250.53 120.804 1239.78 119.867 1237 119.815C1234.34 119.763 1120.26 119.646 1112.45 119.633C1112.18 119.633 1111.9 119.724 1111.68 119.893L1043.12 170.548Z" fill="#800180"/>
<path d="M858.293 322.566V313.122L872.105 313.603C872.105 313.603 865.557 271.495 864.594 263.026C863.618 254.558 867.861 237.256 867.861 237.256L874.097 237.985H914.413C914.413 237.985 910.403 230.193 901.877 219.5C893.35 208.807 887.349 205.502 887.349 205.502C906.055 193.535 926.402 187.16 963.099 182.49C999.796 177.82 1015.23 180.864 1015.23 180.864L1020.95 182.516C1026.64 184.142 1043.47 185.365 1043.47 185.365C1043.47 185.365 1201.13 185.86 1209.48 185.365C1217.84 184.871 1235.52 181.007 1238.77 179.733C1242.03 178.458 1244.61 174.1 1244.61 174.1C1244.61 174.1 1257.68 144.714 1261.65 128.544C1262.77 123.965 1262.3 121.103 1261.65 119.464C1257.79 109.695 1246.42 108.589 1246.42 108.589L1130.77 108.524C1130.77 108.524 1183.45 101.746 1216.75 100.706C1250.05 99.665 1292.07 103.372 1292.07 103.372L1337.5 110.5L1335.68 115.418L1291.7 111.23C1291.7 111.23 1290.25 110.475 1282.5 112.96C1274.76 115.457 1267.84 126.931 1267.84 126.931L1250.28 181.957L1266.38 168.324V162.873C1266.38 160.441 1268.92 159.777 1268.92 159.777H1293.75C1296.66 159.777 1296.83 161.208 1296.83 161.208V170.002C1296.83 172.669 1294.72 173.345 1294.72 173.345H1267.11L1256.82 182.646H1265.75H1300.87L1366 185.5C1379.51 185.5 1379.51 175.518 1379.51 175.518C1379.51 175.518 1384.83 174.23 1391.61 170.965C1398.4 167.687 1400.47 160.428 1383.02 143.92C1365.58 127.412 1338.5 115.5 1338.5 115.5L1340 112C1340 112 1352.38 116.888 1384.53 135.556C1418.21 155.094 1436.67 171.68 1436.67 171.68H1468.52C1468.52 171.68 1477 172.162 1482.57 181.359C1488.14 190.556 1487.62 200.715 1487.62 200.715V257.953H1483.62C1483.62 257.953 1483.26 252.411 1476.91 238.804C1470.55 225.197 1456.83 209.496 1440.91 211.044C1424.99 212.605 1413.07 220.566 1403.98 239.286C1394.9 258.005 1394.53 280.106 1395.44 287.183C1396.35 294.26 1395.26 298.071 1391.63 298.552C1388 299.034 1220.28 298.37 1214.7 298.5C1209.13 298.63 1208.89 293.765 1208.89 287.17C1208.89 280.575 1208.03 263.664 1205.01 250.863C1201.36 235.448 1186.73 203.915 1153.55 212.501C1120.37 221.1 1116.24 273.082 1116.24 273.082V322.709C1116.24 322.709 1042.95 322.748 1036.31 322.709C1029.67 322.67 1029.12 320.576 1026.68 317.922C1024.23 315.268 1018.5 314.943 1018.5 314.943C1018.5 314.943 896.201 315.242 893.597 315.424C890.994 315.607 889.106 318.442 886.75 320.927C884.381 323.412 880.814 322.566 880.814 322.566H858.293Z" fill="#E7FDFD"/>
<path d="M901.89 300.607C901.89 300.607 903.074 305.785 919.242 305.785C935.41 305.785 1041.76 305.785 1041.76 305.785C1041.76 305.785 1047.6 306.995 1052.49 301.167C1052.49 301.167 1052.48 303.248 1034.5 303.248C1016.52 303.248 907.891 303.248 907.891 303.248L901.89 300.607Z" fill="white"/>
<path d="M890.265 252.504C890.265 252.504 891.528 250.864 901.89 250.864C912.252 250.864 1063.01 250.864 1063.01 250.864C1063.01 250.864 1067.01 251.593 1067.92 254.325C1068.83 257.044 1067.92 260.231 1067.92 260.231C1067.92 260.231 1071.91 252.517 1071.91 249.069C1071.91 245.622 1067.01 244.529 1058.11 244.529C1049.22 244.529 897.177 244.529 897.177 244.529C897.177 244.529 892.803 244.698 890.265 252.504Z" fill="white"/>
<path d="M927.86 215.65C927.86 215.65 936.269 206.922 964.192 197.386C993.794 187.279 1016.33 185.523 1016.33 185.523C1016.33 185.523 1016.87 181.828 1010.24 182.635C1003.6 183.441 968.124 188.658 946.762 198.258C925.4 207.858 924.827 210.564 922.445 212.541C920.049 214.506 920.895 218.98 927.86 215.65Z" fill="white"/>
<path d="M950.289 273.146V286.988H1021.68C1021.68 286.988 1023.23 285.817 1022.86 281.823C1022.5 277.83 1022.86 269.66 1022.86 269.66H953.791C951.865 269.66 950.289 271.221 950.289 273.146Z" fill="white"/>
<path d="M1043.44 233.381C1043.44 233.381 1086.56 209.419 1103.51 205.907C1120.46 202.395 1126.03 210.382 1123.97 217.276C1121.91 224.171 1112.59 229.14 1099.33 232.158C1086.08 235.202 1043.44 233.381 1043.44 233.381Z" fill="white"/>
<path d="M1015.35 178.159C974.424 172.916 900.549 186.068 880.45 207.129C860.35 228.19 861.496 262.298 861.496 262.298L868.343 310.221H859.14C859.14 310.221 855.989 309.493 855.989 315.061C855.989 320.628 855.989 322.801 855.989 322.801C855.989 322.801 855.508 324.973 860.103 324.973C864.698 324.973 882.389 324.973 882.389 324.973C882.389 324.973 886.269 325.22 889.419 322.553C892.569 319.887 893.051 317.584 897.164 317.584C901.278 317.584 1018.75 317.584 1018.75 317.584C1018.75 317.584 1023.11 318.196 1025.05 320.134C1026.99 322.072 1028.93 324.986 1034.5 324.986C1040.07 324.986 1119.51 324.986 1119.51 324.986V281.082C1119.51 281.082 1119.48 243.214 1140.33 224.534C1165.28 202.212 1189.26 220.658 1198.71 243.045C1207.41 263.703 1205.97 292.66 1205.97 292.66C1205.97 292.66 1204.88 301.493 1213.42 301.493C1221.96 301.493 1393.91 301.493 1393.91 301.493C1393.91 301.493 1399.72 300.53 1399.48 293.753" stroke="#800180" stroke-width="1.5" stroke-miterlimit="10" stroke-linecap="round" stroke-linejoin="round"/>
<path d="M865.922 233.484C865.922 233.484 865.44 235.435 878.757 235.435C892.074 235.435 908.789 235.435 908.789 235.435C908.789 235.435 891.84 211.968 880.45 207.129" stroke="#800180" stroke-width="1.5" stroke-miterlimit="10" stroke-linecap="round" stroke-linejoin="round"/>
<path d="M917.745 219.461H1050.71L1031.57 233.484H917.745V224.313" stroke="#800180" stroke-width="1.5" stroke-miterlimit="10" stroke-linecap="round" stroke-linejoin="round"/>
<path d="M1085.17 233.484C1113.32 231.13 1120.4 225.64 1123.67 218.199C1126.94 210.758 1121.68 203.5 1104.42 206.01C1087.16 208.521 1041.75 233.484 1041.75 233.484H1071" stroke="#800180" stroke-width="1.5" stroke-miterlimit="10" stroke-linecap="round" stroke-linejoin="round"/>
<path d="M889.354 260.307L898.076 294.246C898.076 294.246 901.161 302.78 907.878 302.78C914.595 302.78 1043.38 302.78 1043.38 302.78C1043.38 302.78 1054.27 304.237 1057.36 295.339C1060.45 286.441 1068.8 257.042 1068.8 257.042C1068.8 257.042 1068.07 251.318 1062.98 251.006C1057.89 250.694 894.418 251.006 894.418 251.006C894.418 251.006 890.603 250.694 889.328 253.959" stroke="#800180" stroke-width="1.5" stroke-miterlimit="10" stroke-linecap="round" stroke-linejoin="round"/>
<path d="M948.389 267.02V284.269C948.389 285.869 949.691 287.17 951.292 287.17H1019.95C1021.55 287.17 1022.85 285.869 1022.85 284.269V267.02C1022.85 265.42 1021.55 264.119 1019.95 264.119H951.292C949.691 264.119 948.389 265.42 948.389 267.02Z" stroke="#800180" stroke-width="1.5" stroke-miterlimit="10" stroke-linecap="round" stroke-linejoin="round"/>
<path d="M885.904 249.055C885.904 249.055 877.364 249.601 878.458 256.496C879.551 263.39 879.551 263.39 879.551 263.39" stroke="#800180" stroke-width="1.5" stroke-miterlimit="10" stroke-linecap="round" stroke-linejoin="round"/>
<path d="M880.814 268.568C880.814 268.568 889.289 296.042 891.163 299.698C892.803 302.872 896.253 304.238 901.877 304.056" stroke="#800180" stroke-width="1.5" stroke-miterlimit="10" stroke-linecap="round" stroke-linejoin="round"/>
<path d="M1018.5 179.29C1018.5 179.29 1029.88 182.191 1046.11 182.438C1062.35 182.686 1207.17 181.957 1209.11 182.438C1211.05 182.92 1232.36 179.537 1238.41 175.661C1244.46 171.784 1258.76 132.343 1259.49 125.565C1260.21 118.788 1255.37 112.257 1242.04 112.01C1228.72 111.763 1127.73 111.932 1116.82 112.01C1109.2 112.062 1108.1 111.763 1093.58 120.96C1079.05 130.157 1020.92 174.451 1020.92 174.451" stroke="#800180" stroke-width="1.5" stroke-miterlimit="10" stroke-linecap="round" stroke-linejoin="round"/>
<path d="M1040.54 166.946C1040.54 166.946 1103.13 120.102 1109.51 116.538C1111.34 115.51 1133.62 116.239 1157.65 116.356C1191.98 116.538 1231.97 116.512 1238.66 117.084C1246.57 117.761 1249.92 120.883 1249.59 126.88C1249.54 127.868 1248.34 136.194 1243.25 148.305C1238.23 160.273 1231.55 171.473 1231.02 171.655C1224.96 173.827 1052.15 173.229 1052.15 173.229" stroke="#800180" stroke-width="1.5" stroke-miterlimit="10" stroke-linecap="round" stroke-linejoin="round"/>
<path d="M1171.81 166.946C1171.81 166.946 1200.15 158.959 1225.57 166.946" stroke="#800180" stroke-width="1.5" stroke-miterlimit="10" stroke-linecap="round" stroke-linejoin="round"/>
<path d="M1036.3 158.932C1036.3 158.932 1035.57 157.475 1026.76 157.475C1017.94 157.475 1008.6 157.475 1008.6 157.475C1008.6 157.475 1004.6 157.93 1004.6 164.005C1004.6 170.08 1004.6 171.537 1004.6 171.537C1004.6 171.537 1004.78 174.711 1007.87 174.711C1010.95 174.711 1017.41 174.711 1017.41 174.711" stroke="#800180" stroke-width="1.5" stroke-miterlimit="10" stroke-linecap="round" stroke-linejoin="round"/>
<path d="M1008.6 164.734H1028.85" stroke="#800180" stroke-width="1.5" stroke-miterlimit="10" stroke-linecap="round" stroke-linejoin="round"/>
<path d="M917.745 299.151L911.327 273.381C911.327 273.381 907.084 263.039 917.745 263.039C928.407 263.039 940.031 263.039 940.031 263.039" stroke="#800180" stroke-width="1.5" stroke-miterlimit="10" stroke-linecap="round" stroke-linejoin="round"/>
<path d="M1028.85 264.119H1061.37" stroke="#800180" stroke-width="1.5" stroke-miterlimit="10" stroke-linecap="round" stroke-linejoin="round"/>
<path d="M885.904 328.018C885.904 328.018 892.4 342.678 910.507 344.421H951.669C951.669 344.421 968.202 338.906 974.372 321.852" stroke="#800180" stroke-width="1.5" stroke-miterlimit="10" stroke-linecap="round" stroke-linejoin="round"/>
<path d="M979.084 324.023H1021.77" stroke="#800180" stroke-width="1.5" stroke-miterlimit="10" stroke-linecap="round" stroke-linejoin="round"/>
<path d="M1106.18 310.222V278.273C1106.18 278.273 1108.6 240.028 1130.88 218.005C1153.17 195.981 1184.65 199.611 1200.88 224.054C1217.57 249.199 1218.08 276.335 1218.32 284.556C1218.57 292.791 1221.96 293.025 1227.77 293.025C1233.59 293.025 1339.18 293.272 1352.5 292.544C1365.81 291.815 1378.17 286.976 1383.01 279.236" stroke="#800180" stroke-width="1.5" stroke-miterlimit="10" stroke-linecap="round" stroke-linejoin="round"/>
<path d="M1077.17 320.03V313.317C1077.17 313.317 1077.17 310.234 1080.62 310.234C1084.07 310.234 1089.53 310.234 1089.53 310.234C1089.53 310.234 1087.53 262.675 1100.6 237.998" stroke="#800180" stroke-width="1.5" stroke-miterlimit="10" stroke-linecap="round" stroke-linejoin="round"/>
<path d="M1126.39 202.224C1126.39 202.224 1159.63 189.515 1202.86 187.707C1246.09 185.898 1259.54 186.978 1259.54 186.978" stroke="#800180" stroke-width="1.5" stroke-miterlimit="10" stroke-linecap="round" stroke-linejoin="round"/>
<path d="M921.325 214.023C921.325 214.023 924.593 208.442 934.955 203.434C945.317 198.426 973.461 186.354 1011.6 182.49" stroke="#800180" stroke-width="1.5" stroke-miterlimit="10" stroke-linecap="round" stroke-linejoin="round"/>
<path d="M1050.71 165.176C1050.71 165.176 1095.7 133.435 1178.89 122.365" stroke="#800180" stroke-width="1.5" stroke-miterlimit="10" stroke-linecap="round" stroke-linejoin="round"/>
<path d="M1122.58 148.318C1122.58 148.318 1155.64 132.161 1205.96 126.893" stroke="#800180" stroke-width="1.5" stroke-miterlimit="10" stroke-linecap="round" stroke-linejoin="round"/>
<path d="M1113.67 152.129C1113.67 152.129 1106.59 155.004 1099.33 160.194" stroke="#800180" stroke-width="1.5" stroke-miterlimit="10" stroke-linecap="round" stroke-linejoin="round"/>
<path d="M1120.95 107.419C1120.95 107.419 1205 96.0008 1279.83 100.382L1338 108.001" stroke="#800180" stroke-width="1.5" stroke-miterlimit="10" stroke-linecap="round" stroke-linejoin="round"/>
<path d="M1254.67 318.301C1245.91 341.989 1229.75 344.422 1229.75 344.422C1229.75 344.422 1191.43 344.422 1187.61 344.422C1183.8 344.422 1179.44 341.638 1179.44 341.638" stroke="#800180" stroke-width="1.5" stroke-miterlimit="10" stroke-linecap="round" stroke-linejoin="round"/>
<path d="M1163.45 343.446C1184.92 343.446 1202.32 315.368 1202.32 280.732C1202.32 246.096 1184.92 218.018 1163.45 218.018C1141.99 218.018 1124.58 246.096 1124.58 280.732C1124.58 315.368 1141.99 343.446 1163.45 343.446Z" stroke="#800180" stroke-width="1.5" stroke-miterlimit="10" stroke-linecap="round" stroke-linejoin="round"/>
<path d="M1167.91 328.563C1183.91 328.563 1196.88 306.985 1196.88 280.367C1196.88 253.748 1183.91 232.17 1167.91 232.17C1151.9 232.17 1138.93 253.748 1138.93 280.367C1138.93 306.985 1151.9 328.563 1167.91 328.563Z" stroke="#800180" stroke-width="1.5" stroke-miterlimit="10" stroke-linecap="round" stroke-linejoin="round"/>
<path d="M1154.26 315.542C1149.07 309.259 1145.37 299.399 1144.32 287.951" stroke="#800180" stroke-width="1.5" stroke-miterlimit="10" stroke-linecap="round" stroke-linejoin="round"/>
<path d="M1183.8 311.105C1179.58 318.312 1173.83 322.748 1167.49 322.748C1166.84 322.748 1166.19 322.696 1165.55 322.605" stroke="#800180" stroke-width="1.5" stroke-miterlimit="10" stroke-linecap="round" stroke-linejoin="round"/>
<path d="M1188.8 263.834C1190.19 269.128 1190.97 275.047 1190.97 281.265C1190.97 287.614 1190.17 293.637 1188.72 299.022" stroke="#800180" stroke-width="1.5" stroke-miterlimit="10" stroke-linecap="round" stroke-linejoin="round"/>
<path d="M1164.03 240.249C1165.16 239.95 1166.32 239.807 1167.49 239.807C1173.23 239.807 1178.49 243.449 1182.56 249.485" stroke="#800180" stroke-width="1.5" stroke-miterlimit="10" stroke-linecap="round" stroke-linejoin="round"/>
<path d="M1144.34 274.28C1145.46 262.572 1149.37 252.529 1154.81 246.363" stroke="#800180" stroke-width="1.5" stroke-miterlimit="10" stroke-linecap="round" stroke-linejoin="round"/>
<path d="M1182.56 307.139L1169.17 293.519C1169.17 293.519 1166.81 292.244 1166.72 295.6C1166.63 298.956 1165.55 318.287 1165.55 318.287" stroke="#800180" stroke-width="1.5" stroke-miterlimit="10" stroke-linecap="round" stroke-linejoin="round"/>
<path d="M1185.34 297.421L1173.3 282.903C1173.3 282.903 1172.12 280.731 1174.05 278.545C1175.98 276.373 1185.87 264.574 1185.87 264.574" stroke="#800180" stroke-width="1.5" stroke-miterlimit="10" stroke-linecap="round" stroke-linejoin="round"/>
<path d="M1146.56 285.896L1154.26 286.625C1154.26 286.625 1157.56 287.718 1157.47 290.892C1157.37 294.066 1156.01 311.094 1156.01 311.094" stroke="#800180" stroke-width="1.5" stroke-miterlimit="10" stroke-linecap="round" stroke-linejoin="round"/>
<path d="M1146.92 275.463L1154.82 274.279C1154.82 274.279 1157.28 273.29 1157.47 271.469C1157.65 269.648 1156.55 249.875 1156.55 249.875" stroke="#800180" stroke-width="1.5" stroke-miterlimit="10" stroke-linecap="round" stroke-linejoin="round"/>
<path d="M1164.03 243.605L1166.63 264.575C1166.63 264.575 1166.9 268.114 1169.17 266.305C1171.43 264.484 1182.16 252.868 1182.16 252.868" stroke="#800180" stroke-width="1.5" stroke-miterlimit="10" stroke-linecap="round" stroke-linejoin="round"/>
<path d="M1154.26 290.02L1152.79 307.074" stroke="#800180" stroke-width="1.5" stroke-miterlimit="10" stroke-linecap="round" stroke-linejoin="round"/>
<path d="M1169.62 299.424L1178.07 308.413" stroke="#800180" stroke-width="1.5" stroke-miterlimit="10" stroke-linecap="round" stroke-linejoin="round"/>
<path d="M1152.79 254.324L1153.52 269.323" stroke="#800180" stroke-width="1.5" stroke-miterlimit="10" stroke-linecap="round" stroke-linejoin="round"/>
<path d="M1166.81 243.605C1166.81 243.605 1171.99 247.053 1175.08 254.311" stroke="#800180" stroke-width="1.5" stroke-miterlimit="10" stroke-linecap="round" stroke-linejoin="round"/>
<path d="M1180.16 274.916C1180.16 274.916 1180.61 280.093 1180.16 286.259" stroke="#800180" stroke-width="1.5" stroke-miterlimit="10" stroke-linecap="round" stroke-linejoin="round"/>
<path d="M1173.86 309.26C1173.86 309.26 1172.66 311.9 1169.14 315.543" stroke="#800180" stroke-width="1.5" stroke-miterlimit="10" stroke-linecap="round" stroke-linejoin="round"/>
<path d="M1164.9 290.019C1168.24 290.019 1170.95 285.575 1170.95 280.093C1170.95 274.612 1168.24 270.168 1164.9 270.168C1161.56 270.168 1158.85 274.612 1158.85 280.093C1158.85 285.575 1161.56 290.019 1164.9 290.019Z" stroke="#800180" stroke-width="1.5" stroke-miterlimit="10" stroke-linecap="round" stroke-linejoin="round"/>
<path d="M1164.48 273.68C1164.48 273.68 1160.73 278.584 1164.04 285.543" stroke="#800180" stroke-width="1.5" stroke-miterlimit="10" stroke-linecap="round" stroke-linejoin="round"/>
<path d="M1104.97 327.77C1104.97 327.77 1113.21 342.3 1125.68 344.42H1152.01" stroke="#800180" stroke-width="1.5" stroke-miterlimit="10" stroke-linecap="round" stroke-linejoin="round"/>
<path d="M1191.43 151.699C1191.43 151.699 1185.79 153.117 1190.6 160.922" stroke="#800180" stroke-width="1.5" stroke-miterlimit="10" stroke-linecap="round" stroke-linejoin="round"/>
<path d="M927.678 214.024H1054.65L1051.2 217.458H919.867L924.228 213.113L927.678 214.024Z" fill="white"/>
<path opacity="0.2" d="M1144.34 274.643L1154.55 274.265L1152.01 250.629C1152.01 250.642 1144.15 267.943 1144.34 274.643Z" fill="#800180"/>
<path opacity="0.2" d="M1152.01 312.395L1154.82 287.262L1146.8 286.495C1145.52 286.378 1144.45 287.471 1144.63 288.745C1145.35 294.183 1147.48 307.022 1152.01 312.395Z" fill="#800180"/>
<path opacity="0.2" d="M1166.64 297.422L1175.2 305.786C1175.2 305.786 1173.99 311.003 1170.54 314.58C1167.09 318.144 1165.55 317.715 1165.55 317.715L1166.64 297.422Z" fill="#800180"/>
<path opacity="0.2" d="M1179.19 290.019C1179.19 290.019 1180.42 283.67 1180.26 278.103C1180.1 272.535 1179.74 271.885 1179.74 271.885C1179.74 271.885 1172.32 279.248 1173.31 282.279C1174.28 285.297 1179.19 290.019 1179.19 290.019Z" fill="#800180"/>
<path opacity="0.2" d="M1164.03 243.241C1164.03 243.241 1166.5 242.383 1170.41 247.534C1174.31 252.685 1176.73 258.656 1176.73 258.656L1168.88 266.487C1168.88 266.487 1166.5 268.061 1166.11 262.637C1165.72 257.225 1164.03 243.241 1164.03 243.241Z" fill="#800180"/>
<path opacity="0.1" d="M265.79 52.056C265.79 52.056 269.86 38.206 263.45 37.446C257.04 36.686 242.72 46.006 243.45 52.896C244.18 59.786 254.13 59.496 254.13 59.496L254.58 61.366C254.58 61.366 249.74 74.586 250.21 79.796C250.68 85.006 256.84 81.046 256.84 81.046C256.84 81.046 254.67 74.476 257.74 73.416C259.626 72.7899 261.664 72.7899 263.55 73.416C268.007 72.6338 272.326 71.2055 276.37 69.176C281.93 66.116 282.18 62.006 282.18 62.006C279.007 58.2486 274.56 55.7921 269.69 55.106C266.25 54.576 264.91 54.216 264.91 54.216L265.79 52.056Z" fill="#800180"/>
<path opacity="0.1" d="M363.53 45.026C363.53 45.026 363.72 39.286 361.53 37.096C359.34 34.906 357.48 36.726 357.13 39.656C356.78 42.586 363.53 45.026 363.53 45.026Z" fill="#800180"/>
<path opacity="0.1" d="M356.91 37.0952C356.91 37.0952 358.65 32.6852 355.91 30.0952C353.17 27.5052 351.6 27.3052 351.6 27.3052C351.6 27.3052 346.18 22.7052 339.51 24.0252C332.84 25.3452 329.91 29.6152 329.91 31.5652C329.91 33.5152 324.46 34.4952 327.61 38.0552C330.76 41.6152 333.18 41.1852 337.31 39.6452C341.44 38.1052 343.75 36.8952 347.91 37.8452C350.845 38.6037 353.682 39.7046 356.36 41.1252C356.36 41.1252 355.95 38.4952 356.91 37.0952Z" fill="#800180"/>
<path opacity="0.1" d="M333 60.8945C333 60.8945 331.56 74.7045 338.61 81.1445C345.66 87.5845 348.93 85.5645 351.16 84.6545C353.39 83.7445 358.35 76.7845 359.02 70.5645C359.85 62.7645 359.02 61.8345 359.02 61.8345C359.02 61.8345 355.94 64.2245 353.23 63.2345C350.52 62.2445 349.04 61.8845 349.04 61.8845C348.969 62.1005 348.855 62.2994 348.703 62.4688C348.552 62.6381 348.367 62.774 348.16 62.868C347.953 62.9621 347.729 63.0121 347.502 63.0149C347.274 63.0178 347.049 62.9734 346.84 62.8845L345.2 62.2745C345.2 62.2745 344.51 65.6245 339.13 64.7145C333.75 63.8045 333 60.8945 333 60.8945Z" fill="#800180"/>
<path opacity="0.1" d="M460.16 31.6542C460.16 31.6542 463.24 19.4042 454.49 15.2142C445.74 11.0242 435.87 13.8242 430.58 10.9342C425.29 8.04422 428.91 4.57422 428.91 4.57422C428.91 4.57422 419.59 10.4542 421.97 16.5742C424.35 22.6942 430.49 23.8642 436.97 23.6442C443.45 23.4242 451.75 25.8442 451.75 25.8442C451.75 25.8442 451.85 39.4042 453.67 37.4942C454.789 36.1373 455.335 34.3972 455.19 32.6442C455.19 32.6442 458.67 30.0842 460.16 31.6542Z" fill="#800180"/>
<path opacity="0.1" d="M568.92 98.496C568.92 98.496 567.14 62.126 559 51.156C550.86 40.186 546.09 42.776 546.09 42.776C546.09 42.776 540.59 37.236 531.88 41.556C523.17 45.876 517.39 55.846 515.88 66.266C514.37 76.686 513.66 86.186 511.24 91.066C508.82 95.946 504.63 104.296 503.74 108.266C502.85 112.236 502.19 119.016 502.19 119.016L517.11 103.296C516.95 108.097 517.144 112.903 517.69 117.676C518.56 123.676 523.27 128.916 523.27 128.916C520.968 123.263 520.179 117.107 520.98 111.056C521.657 105.552 523.281 100.206 525.78 95.256C527.071 90.2906 527.792 85.1945 527.93 80.066C528.168 73.7637 528.766 67.4802 529.72 61.246C529.72 61.246 533.24 61.846 537.98 56.106C542.72 50.366 539.93 53.496 539.93 53.496C541.291 55.6864 543.437 57.2746 545.93 57.936C550.07 59.016 554.15 66.536 554.34 68.776C554.53 71.016 553.34 76.696 552.4 80.066C551.46 83.436 546.09 86.286 546.09 86.286C546.09 86.286 547.62 95.286 548.54 95.156C549.46 95.026 554.95 92.906 559.7 94.446C562.881 95.5352 565.966 96.89 568.92 98.496Z" fill="#800180"/>
<path d="M546.46 85.9551C546.46 85.9551 546.09 90.7251 547.07 92.9551C548.05 95.1851 548.54 95.1151 548.54 95.1151C548.54 95.1151 553.63 91.8351 561.72 95.1151C569.81 98.3951 609.28 118.495 613.93 130.195C618.58 141.895 569.67 164.275 569.67 164.275" stroke="#800180" stroke-width="1.5" stroke-linecap="round" stroke-linejoin="round"/>
<path d="M555.51 119.965C555.51 119.965 589.19 139.305 597.19 135.215C605.19 131.125 591.37 127.355 566.88 155.615" stroke="#800180" stroke-width="1.5" stroke-linecap="round" stroke-linejoin="round"/>
<path d="M581.19 136.894C581.19 136.894 597.67 127.404 599.49 113.494" stroke="#800180" stroke-width="1.5" stroke-linecap="round" stroke-linejoin="round"/>
<path d="M595.88 127.966C595.88 127.966 601.47 122.376 603.14 115.686" stroke="#800180" stroke-width="1.5" stroke-linecap="round" stroke-linejoin="round"/>
<path d="M559.67 125.166C556.494 133.565 555.078 142.527 555.51 151.496" stroke="#800180" stroke-width="1.5" stroke-linecap="round" stroke-linejoin="round"/>
<path d="M514.67 110.055C514.67 110.055 505.18 124.705 511.74 136.895C518.3 149.085 515.84 164.795 515.84 164.795" stroke="#800180" stroke-width="1.5" stroke-linecap="round" stroke-linejoin="round"/>
<path d="M513.93 162.495C513.93 162.495 528.86 169.335 548.54 159.285" stroke="#800180" stroke-width="1.5" stroke-linecap="round" stroke-linejoin="round"/>
<path d="M527.33 160.425C533.81 161.238 540.381 159.966 546.09 156.795" stroke="#800180" stroke-width="1.5" stroke-linecap="round" stroke-linejoin="round"/>
<path d="M562.54 156.335C562.54 156.335 561.09 150.755 559.37 150.895C557.65 151.035 548.67 160.895 549.7 161.825C550.73 162.755 556.77 159.635 559.42 156.145" stroke="#800180" stroke-width="1.5" stroke-linecap="round" stroke-linejoin="round"/>
<path d="M564.81 157.544C564.81 157.544 552.26 165.684 552.44 168.474C552.62 171.264 568.07 162.474 568.07 160.674C568.07 158.874 566.91 156.614 564.81 157.544Z" stroke="#800180" stroke-width="1.5" stroke-linecap="round" stroke-linejoin="round"/>
<path d="M559.67 169.355C559.67 169.355 567.39 170.005 567.67 166.705C567.88 164.475 566.28 164.795 566.28 164.795" stroke="#800180" stroke-width="1.5" stroke-linecap="round" stroke-linejoin="round"/>
<path d="M569.34 167.295C569.628 167.426 569.887 167.615 570.1 167.849C570.313 168.083 570.475 168.359 570.578 168.658C570.681 168.958 570.722 169.275 570.698 169.591C570.675 169.907 570.587 170.214 570.44 170.495C569.56 172.235 563.93 171.405 563.93 171.405" stroke="#800180" stroke-width="1.5" stroke-linecap="round" stroke-linejoin="round"/>
<path d="M546.09 96.3359C546.09 96.3359 539.14 106.006 531.23 108.986C523.32 111.966 524.07 104.896 528.54 100.796" stroke="#800180" stroke-width="1.5" stroke-linecap="round" stroke-linejoin="round"/>
<path d="M529.21 103.016C529.21 103.016 528.09 105.866 531.58 104.756C535.07 103.646 544.58 93.7559 544.58 93.7559" stroke="#800180" stroke-width="1.5" stroke-linecap="round" stroke-linejoin="round"/>
<path d="M530.95 99.0248V82.6348" stroke="#800180" stroke-width="1.5" stroke-linecap="round" stroke-linejoin="round"/>
<path d="M529.74 76.7856C529.74 76.7856 532.6 86.7056 542.4 86.7856C550.35 86.7856 554.33 78.4356 554.33 72.1456C554.33 68.5156 554.49 52.2656 554.49 52.2656" stroke="#800180" stroke-width="1.5" stroke-linecap="round" stroke-linejoin="round"/>
<path d="M550.67 60.965C548.67 60.585 544.93 60.155 543.38 61.425C540.66 63.655 545.98 71.935 543.38 72.695C542.234 72.9555 541.036 72.8685 539.94 72.445" stroke="#800180" stroke-width="1.5" stroke-linecap="round" stroke-linejoin="round"/>
<path d="M547.77 64.7051V67.5651" stroke="#800180" stroke-width="1.5" stroke-linecap="round" stroke-linejoin="round"/>
<path d="M535.28 64.7051V67.5651" stroke="#800180" stroke-width="1.5" stroke-linecap="round" stroke-linejoin="round"/>
<path d="M537.93 61.076C536.809 60.6053 535.595 60.3985 534.381 60.4713C533.167 60.5441 531.987 60.8947 530.93 61.496" stroke="#800180" stroke-width="1.5" stroke-linecap="round" stroke-linejoin="round"/>
<path d="M536.8 76.8452C536.8 76.8452 546.44 76.5652 546.65 77.1952C546.86 77.8252 541.33 83.4952 536.8 76.8452Z" stroke="#800180" stroke-width="1.5" stroke-linecap="round" stroke-linejoin="round"/>
<path d="M502.21 118.986C502.21 118.986 501.79 107.686 509.39 94.9855C516.99 82.2855 512.67 57.3055 524.54 44.1955C536.41 31.0855 545.33 40.2855 545.33 40.2855C545.33 40.2855 548.63 35.4055 555.42 42.2355C562.21 49.0655 570.3 72.0955 570.16 88.8455" stroke="#800180" stroke-width="1.5" stroke-linecap="round" stroke-linejoin="round"/>
<path d="M525.22 60.4941C525.22 60.4941 525.79 77.8041 518.67 90.8841C511.55 103.964 512.82 108.284 512.82 108.284" stroke="#800180" stroke-width="1.5" stroke-linecap="round" stroke-linejoin="round"/>
<path d="M529.74 63.4941C529.74 63.4941 529.04 86.8041 524.54 99.4941C519.54 113.494 519.79 120.744 523.77 129.254C523.77 129.254 513.65 124.844 518.4 96.4241" stroke="#800180" stroke-width="1.5" stroke-linecap="round" stroke-linejoin="round"/>
<path d="M559 60.4355C559 60.4355 559.79 74.8055 566.4 85.6355C571.75 94.4255 571.7 98.0555 571.7 98.0555" stroke="#800180" stroke-width="1.5" stroke-linecap="round" stroke-linejoin="round"/>
<path d="M556.08 63.4941C556.08 63.4941 555.23 79.2641 563.08 93.8441" stroke="#800180" stroke-width="1.5" stroke-linecap="round" stroke-linejoin="round"/>
<path d="M537.93 47.6855C537.93 47.6855 536.8 53.8255 546.09 57.5755C553.8 60.6855 553.98 70.2155 553.98 70.2155" stroke="#800180" stroke-width="1.5" stroke-linecap="round" stroke-linejoin="round"/>
<path d="M539.55 52.9551C539.55 52.9551 537.72 60.4451 527.95 61.4951" stroke="#800180" stroke-width="1.5" stroke-linecap="round" stroke-linejoin="round"/>
<path d="M515.23 105.545C515.23 105.545 491.61 130.705 489.67 132.095" stroke="#800180" stroke-width="1.5" stroke-linecap="round" stroke-linejoin="round"/>
<path d="M491.03 130.836L481.84 126.936" stroke="#800180" stroke-width="1.5" stroke-linecap="round" stroke-linejoin="round"/>
<path d="M481.84 142.005C481.84 142.005 489.51 149.825 494.26 149.005C499.01 148.185 510.16 137.805 510.16 137.805" stroke="#800180" stroke-width="1.5" stroke-linecap="round" stroke-linejoin="round"/>
<path d="M491.61 125.965C491.61 125.965 494.4 136.595 506.67 143.415" stroke="#800180" stroke-width="1.5" stroke-linecap="round" stroke-linejoin="round"/>
<path d="M496 130.836C496 130.836 499.84 136.836 504.58 139.916" stroke="#800180" stroke-width="1.5" stroke-linecap="round" stroke-linejoin="round"/>
<path d="M511.8 143.415C511.8 143.415 527.33 137.785 542.12 138.335" stroke="#800180" stroke-width="1.5" stroke-linecap="round" stroke-linejoin="round"/>
<path d="M544.56 103.016C544.56 103.016 543.09 108.616 548.56 115.686" stroke="#800180" stroke-width="1.5" stroke-linecap="round" stroke-linejoin="round"/>
<path d="M567.74 174.096C567.74 174.096 569.36 206.476 567.74 223.776C566.12 241.076 568.11 268.426 570.74 281.266C573.37 294.106 567.74 339.266 567.74 339.266C567.74 339.266 560.91 339.456 558.95 340.386C556.99 341.316 552.44 340.386 552.44 340.386C552.44 340.386 549.79 289.876 546.09 273.386C542.39 256.896 538.09 201.106 537.61 197.196" stroke="#800180" stroke-width="1.5" stroke-linecap="round" stroke-linejoin="round"/>
<path d="M524.12 185.965C528.757 190.99 534.292 195.104 540.44 198.095" stroke="#800180" stroke-width="1.5" stroke-linecap="round" stroke-linejoin="round"/>
<path d="M512.82 167.965L483.7 198.095" stroke="#800180" stroke-width="1.5" stroke-linecap="round" stroke-linejoin="round"/>
<path d="M532.28 196.055C532.28 196.055 497.09 226.935 491.61 222.655C486.13 218.375 493.19 214.475 499.14 230.845C505.09 247.215 519.51 290.495 519.51 290.495C517.14 290.577 514.789 290.95 512.51 291.605C509.71 292.605 505.95 291.605 505.95 291.605C505.95 291.605 487.53 258.675 481.81 251.145" stroke="#800180" stroke-width="1.5" stroke-linecap="round" stroke-linejoin="round"/>
<path d="M549.74 274.754C549.74 274.754 555.33 280.144 560.16 273.074" stroke="#800180" stroke-width="1.5" stroke-linecap="round" stroke-linejoin="round"/>
<path d="M548.54 169.016C548.54 169.016 550.21 175.016 562.54 178.566" stroke="#800180" stroke-width="1.5" stroke-linecap="round" stroke-linejoin="round"/>
<path d="M567.27 341.926C567.27 341.926 570.39 353.976 568.59 364.796H524.26C524.26 364.796 522.26 362.496 525.06 361.426C532.92 358.356 545.32 352.486 549.62 349.786C552.96 347.686 553.23 342.786 553.23 342.786" stroke="#800180" stroke-width="1.5" stroke-linecap="round" stroke-linejoin="round"/>
<path d="M541.41 354.155C541.41 354.155 539.58 358.945 568.94 352.525" stroke="#800180" stroke-width="1.5" stroke-linecap="round" stroke-linejoin="round"/>
<path d="M520.16 292.855C520.16 292.855 523.29 304.855 521.49 315.725H477.15C477.15 315.725 475.15 313.425 477.95 312.345C485.82 309.285 498.21 303.415 502.52 300.705C505.86 298.615 506.12 293.705 506.12 293.705" stroke="#800180" stroke-width="1.5" stroke-linecap="round" stroke-linejoin="round"/>
<path d="M494.3 305.075C494.3 305.075 492.48 309.875 521.84 303.445" stroke="#800180" stroke-width="1.5" stroke-linecap="round" stroke-linejoin="round"/>
<path d="M530.67 79.8457C530.67 79.8457 530.67 86.1257 537.79 89.4357C543.44 92.0757 546.62 90.6557 546.62 90.6557V85.8657C546.62 85.8657 539.62 88.5257 535.26 84.5457C530.9 80.5657 530.67 79.8457 530.67 79.8457Z" fill="#800180"/>
<path d="M424.96 23.1348L424.05 46.3848C424.05 46.3848 423.05 55.5948 431.64 57.5148C440.23 59.4348 446.5 53.6648 446.5 53.6648" stroke="#800180" stroke-width="1.5" stroke-linecap="round" stroke-linejoin="round"/>
<path d="M430.83 46.9941C433.216 47.624 435.724 47.624 438.11 46.9941" stroke="#800180" stroke-width="1.5" stroke-linecap="round" stroke-linejoin="round"/>
<path d="M427.19 28.0859C427.19 28.0859 432.75 28.7959 433.05 31.4259C433.35 34.0559 430.63 39.7159 430.83 40.2159C431.03 40.7159 433.96 42.7459 433.96 42.7459" stroke="#800180" stroke-width="1.5" stroke-linecap="round" stroke-linejoin="round"/>
<path d="M440.74 34.9648V37.9948" stroke="#800180" stroke-width="1.5" stroke-linecap="round" stroke-linejoin="round"/>
<path d="M428.91 34.0547V37.0847" stroke="#800180" stroke-width="1.5" stroke-linecap="round" stroke-linejoin="round"/>
<path d="M438.11 29.3941C438.11 29.3941 442.26 28.6941 445.11 31.3941" stroke="#800180" stroke-width="1.5" stroke-linecap="round" stroke-linejoin="round"/>
<path d="M455.2 32.6051C455.2 32.6051 459.55 29.7051 462.28 34.0551C465.01 38.4051 461.17 42.6451 456.72 43.2551" stroke="#800180" stroke-width="1.5" stroke-linecap="round" stroke-linejoin="round"/>
<path d="M460.16 35.5645C460.16 35.5645 457.53 36.7845 457.22 37.9945" stroke="#800180" stroke-width="1.5" stroke-linecap="round" stroke-linejoin="round"/>
<path d="M456.72 43.2559C456.72 43.2559 454.49 63.4059 455.33 68.8959" stroke="#800180" stroke-width="1.5" stroke-linecap="round" stroke-linejoin="round"/>
<path d="M429.19 58.2656C429.19 58.2656 429.56 67.4056 428.91 69.6356" stroke="#800180" stroke-width="1.5" stroke-linecap="round" stroke-linejoin="round"/>
<path d="M451.96 26.4941C451.96 26.4941 451.05 37.9241 453.08 38.0241C455.11 38.1241 454.59 34.0841 454.59 34.0841" stroke="#800180" stroke-width="1.5" stroke-linecap="round" stroke-linejoin="round"/>
<path d="M455.2 29.3145C455.2 29.3145 454.44 26.0645 455.63 25.3145" stroke="#800180" stroke-width="1.5" stroke-linecap="round" stroke-linejoin="round"/>
<path d="M461.87 31.4255C461.87 31.4255 464.11 17.7655 454.65 12.3055C445.19 6.84547 437.2 11.0955 431.94 7.85547" stroke="#800180" stroke-width="1.5" stroke-linecap="round" stroke-linejoin="round"/>
<path d="M430.83 5.83491C430.892 4.96368 431.098 4.10878 431.44 3.30491C431.84 2.80491 416.27 10.3049 423.24 18.5749C430.21 26.8449 441.14 21.4049 450.24 25.3549" stroke="#800180" stroke-width="1.5" stroke-linecap="round" stroke-linejoin="round"/>
<path d="M435.84 11.2949C435.84 11.2949 436.49 17.4649 445.09 19.6349L453.67 21.8149" stroke="#800180" stroke-width="1.5" stroke-linecap="round" stroke-linejoin="round"/>
<path d="M430.83 10.4941C430.83 10.4941 432.04 15.9541 440.74 19.6441" stroke="#800180" stroke-width="1.5" stroke-linecap="round" stroke-linejoin="round"/>
<path d="M427.61 12.1055C428.737 13.8667 430.21 15.3806 431.94 16.5555" stroke="#800180" stroke-width="1.5" stroke-linecap="round" stroke-linejoin="round"/>
<path d="M445.07 78.6244C445.07 78.6244 459.61 68.8944 463.56 61.4944C465.69 57.4944 457.28 59.2444 457.28 59.2444" stroke="#800180" stroke-width="1.5" stroke-linecap="round" stroke-linejoin="round"/>
<path d="M442.77 78.0657C440.251 75.1928 436.956 73.1092 433.28 72.0657C426.86 70.1157 412.63 65.7157 411.93 60.9357C411.23 56.1557 427.35 65.5157 427.35 65.5157" stroke="#800180" stroke-width="1.5" stroke-linecap="round" stroke-linejoin="round"/>
<path d="M411.91 64.7051C412.091 65.6999 412.022 66.7241 411.71 67.6857C411.397 68.6474 410.851 69.5165 410.12 70.2151C407.61 72.5151 409.12 75.7251 409.12 75.7251C409.12 75.7251 415.19 74.2551 425.97 78.4051C436.75 82.5551 438.97 80.7551 438.97 80.7551" stroke="#800180" stroke-width="1.5" stroke-linecap="round" stroke-linejoin="round"/>
<path d="M465.23 61.4941C465.23 61.4941 470.23 63.1641 459.93 70.9841" stroke="#800180" stroke-width="1.5" stroke-linecap="round" stroke-linejoin="round"/>
<path d="M467.88 66.7246C467.88 66.7246 469.56 68.8946 469.28 70.9846C469 73.0746 456.35 72.1646 450.12 78.6246" stroke="#800180" stroke-width="1.5" stroke-linecap="round" stroke-linejoin="round"/>
<path d="M407.61 76.7852C407.61 76.7852 399.61 77.4052 395.33 82.6352C391.05 87.8652 387.33 92.4752 387.33 92.4752" stroke="#800180" stroke-width="1.5" stroke-linecap="round" stroke-linejoin="round"/>
<path d="M471.98 70.2148C471.98 70.2148 494.86 72.3348 498.21 74.7548" stroke="#800180" stroke-width="1.5" stroke-linecap="round" stroke-linejoin="round"/>
<path d="M503.23 64.7051C503.23 64.7051 492.67 68.2951 506.67 79.2451" stroke="#800180" stroke-width="1.5" stroke-linecap="round" stroke-linejoin="round"/>
<path d="M500.29 76.7852C500.29 76.7852 500.89 82.5452 510.16 85.9552" stroke="#800180" stroke-width="1.5" stroke-linecap="round" stroke-linejoin="round"/>
<path d="M413.19 169.495C419.403 173.932 426.836 176.339 434.47 176.385C446.67 176.195 456.16 172.665 465.47 175.635C474.78 178.605 492.47 170.425 489.65 165.635C486.83 160.845 482.4 158.875 481.84 149.135C481.28 139.395 482.77 108.665 482.58 103.135" stroke="#800180" stroke-width="1.5" stroke-linecap="round" stroke-linejoin="round"/>
<path d="M485.09 112.494C485.09 112.494 490.21 105.804 485.09 89.2441" stroke="#800180" stroke-width="1.5" stroke-linecap="round" stroke-linejoin="round"/>
<path d="M489.67 103.015C489.67 103.015 500.36 102.475 505.25 100.895" stroke="#800180" stroke-width="1.5" stroke-linecap="round" stroke-linejoin="round"/>
<path d="M498.21 80.0352C500.508 85.4116 503.707 90.3561 507.67 94.6552" stroke="#800180" stroke-width="1.5" stroke-linecap="round" stroke-linejoin="round"/>
<path d="M512.82 74.0559C512.82 74.0559 505.13 73.8759 504.16 67.5659C502.16 54.7359 505.23 35.4159 505.23 35.4159C503.459 33.7879 502.108 31.7547 501.295 29.4906C500.482 27.2265 500.229 24.7989 500.56 22.4159C501.74 14.2359 505.37 8.83586 506.12 9.11586C506.87 9.39586 508.12 14.3259 505.93 20.4659C505.93 20.4659 506.93 20.3759 507.42 23.3459" stroke="#800180" stroke-width="1.5" stroke-linecap="round" stroke-linejoin="round"/>
<path d="M519.79 47.026C519.79 46.756 518.12 38.566 518.49 33.916" stroke="#800180" stroke-width="1.5" stroke-linecap="round" stroke-linejoin="round"/>
<path d="M515.23 20.8945C512.656 22.6538 510.883 25.3614 510.3 28.4245" stroke="#800180" stroke-width="1.5" stroke-linecap="round" stroke-linejoin="round"/>
<path d="M512.26 15.2148C512.26 15.2148 518.67 16.3348 520.35 18.0948" stroke="#800180" stroke-width="1.5" stroke-linecap="round" stroke-linejoin="round"/>
<path d="M516.3 34.8446C518.419 32.429 519.807 29.4599 520.3 26.2846C521.14 20.9846 526.72 11.9646 524.21 9.72461" stroke="#800180" stroke-width="1.5" stroke-linecap="round" stroke-linejoin="round"/>
<path d="M508.72 14.7559C508.72 14.7559 515.72 -1.36411 518.08 1.63589C519.79 3.77589 514.58 13.6359 514.58 13.6359" stroke="#800180" stroke-width="1.5" stroke-linecap="round" stroke-linejoin="round"/>
<path d="M520.35 1.26507C520.527 1.14884 520.724 1.06854 520.932 1.02876C521.14 0.988973 521.353 0.990482 521.56 1.0332C521.767 1.07591 521.964 1.159 522.139 1.27771C522.314 1.39642 522.464 1.54843 522.58 1.72507C523.58 3.02507 522.58 4.98507 522.58 4.98507C522.58 4.98507 524.63 4.42507 524.35 7.98507" stroke="#800180" stroke-width="1.5" stroke-linecap="round" stroke-linejoin="round"/>
<path d="M518.43 14.3745L521.28 6.56445" stroke="#800180" stroke-width="1.5" stroke-linecap="round" stroke-linejoin="round"/>
<path d="M520.6 15.6855L523.05 10.9355" stroke="#800180" stroke-width="1.5" stroke-linecap="round" stroke-linejoin="round"/>
<path d="M430.3 139.675C430.3 139.675 418.77 164.545 424.16 167.095C429.55 169.645 456.35 163.865 466.58 164.795C476.81 165.725 479.98 167.305 477.58 158.335C475.18 149.365 470.14 133.725 470.14 133.725C470.14 133.725 462.14 136.835 448 135.375C433.86 133.915 428.83 134.695 428.83 134.695" stroke="#800180" stroke-width="1.5" stroke-linecap="round" stroke-linejoin="round"/>
<path d="M429 130.835C429 130.835 416.54 107.025 414.12 98.0547" stroke="#800180" stroke-width="1.5" stroke-linecap="round" stroke-linejoin="round"/>
<path d="M426.05 113.574C426.05 113.574 429.29 123.774 437.66 127.994" stroke="#800180" stroke-width="1.5" stroke-linecap="round" stroke-linejoin="round"/>
<path d="M424.55 109.306L422.73 103.016" stroke="#800180" stroke-width="1.5" stroke-linecap="round" stroke-linejoin="round"/>
<path d="M496 80.0352C496 80.0352 497.42 88.7952 499.4 92.4752" stroke="#800180" stroke-width="1.5" stroke-linecap="round" stroke-linejoin="round"/>
<path d="M500.29 96.3047L502.21 99.4047" stroke="#800180" stroke-width="1.5" stroke-linecap="round" stroke-linejoin="round"/>
<path d="M401.09 82.6348C401.09 82.6348 404.81 88.7048 406.3 99.0248" stroke="#800180" stroke-width="1.5" stroke-linecap="round" stroke-linejoin="round"/>
<path d="M402.77 101.955C402.77 101.955 409.7 138.755 411.91 145.825C414.12 152.895 404.35 161.265 408.68 167.965C413.01 174.665 412.81 177.445 428.91 178.565C445.01 179.685 453.45 174.475 457.22 176.335C460.99 178.195 471.66 177.395 478.33 178.725" stroke="#800180" stroke-width="1.5" stroke-linecap="round" stroke-linejoin="round"/>
<path d="M404.81 119.965L402.77 123.305" stroke="#800180" stroke-width="1.5" stroke-linecap="round" stroke-linejoin="round"/>
<path d="M411.67 177.166C411.67 177.166 405.67 189.026 407.21 189.726C408.75 190.426 421.54 197.966 422.75 196.566C423.96 195.166 420.32 186.566 426.46 188.756C432.6 190.946 431.92 197.966 433.17 198.096C434.42 198.226 446.56 199.216 456.88 195.166C467.2 191.116 482.69 183.866 488.83 185.966C488.83 185.966 482.97 179.406 482.83 178.566" stroke="#800180" stroke-width="1.5" stroke-linecap="round" stroke-linejoin="round"/>
<path d="M423.33 188.955L425.84 181.635" stroke="#800180" stroke-width="1.5" stroke-linecap="round" stroke-linejoin="round"/>
<path d="M433.84 193.075L434.67 181.635" stroke="#800180" stroke-width="1.5" stroke-linecap="round" stroke-linejoin="round"/>
<path d="M458.81 180.795L463.14 187.735" stroke="#800180" stroke-width="1.5" stroke-linecap="round" stroke-linejoin="round"/>
<path d="M439.98 188.955L440.55 194.335" stroke="#800180" stroke-width="1.5" stroke-linecap="round" stroke-linejoin="round"/>
<path d="M460.73 109.665C461.679 108.114 462.232 106.353 462.34 104.537C462.448 102.722 462.108 100.908 461.35 99.2551C460.2 96.7432 458.121 94.7753 455.55 93.7651C454.06 93.1859 452.46 92.9447 450.866 93.0588C449.271 93.173 447.722 93.6396 446.33 94.4251C445.822 94.2839 445.304 94.1836 444.78 94.1251C442.122 93.8466 439.455 94.5588 437.29 96.1251C432.53 99.4851 430.75 106.125 433.64 111.125C433.977 111.707 434.372 112.253 434.82 112.755L432.52 117.215C432.307 117.573 432.238 117.998 432.327 118.405C432.416 118.812 432.657 119.169 433 119.405C433.228 119.534 433.49 119.586 433.75 119.555C434.028 119.506 434.289 119.389 434.511 119.215C434.732 119.04 434.907 118.814 435.02 118.555L437.02 114.555C438.945 115.711 441.2 116.193 443.43 115.925C445.026 115.734 446.562 115.199 447.93 114.355C449.435 114.876 451.037 115.054 452.62 114.875C453.605 114.755 454.57 114.506 455.49 114.135C456.723 113.633 457.855 112.911 458.83 112.005L461.66 115.735C461.823 115.963 462.043 116.144 462.297 116.261C462.551 116.379 462.831 116.428 463.11 116.405C463.385 116.376 463.644 116.261 463.85 116.075C464.164 115.78 464.352 115.376 464.376 114.946C464.4 114.516 464.258 114.093 463.98 113.765L460.73 109.665ZM454.52 96.0751C456.444 96.8494 457.986 98.3514 458.81 100.255C459.247 101.243 459.483 102.308 459.504 103.388C459.525 104.468 459.329 105.541 458.93 106.545C458.86 106.725 458.78 106.905 458.7 107.075L451.41 97.7951C450.815 97.0258 450.107 96.3514 449.31 95.7951C451.029 95.2981 452.865 95.3967 454.52 96.0751ZM450.72 105.315C450.415 107.477 449.317 109.448 447.64 110.845C445.775 109.846 444.375 108.156 443.74 106.138C443.104 104.119 443.284 101.933 444.24 100.045C444.789 98.9438 445.578 97.9801 446.55 97.2251C447.618 97.7239 448.548 98.4756 449.26 99.4151C449.882 100.253 450.332 101.206 450.583 102.218C450.833 103.231 450.88 104.284 450.72 105.315ZM436.04 109.315C435.012 107.458 434.707 105.286 435.185 103.218C435.664 101.15 436.891 99.332 438.63 98.1151C439.742 97.3073 441.038 96.7884 442.4 96.6051C442.82 96.5365 443.244 96.4997 443.67 96.4951C442.982 97.2345 442.4 98.0658 441.94 98.9651L436.39 109.735C436.24 109.625 436.14 109.495 436.04 109.305V109.315ZM443.25 112.775C441.576 112.996 439.878 112.643 438.43 111.775L440.96 106.685C441.495 108.981 442.767 111.039 444.58 112.545C444.144 112.657 443.699 112.731 443.25 112.765V112.775ZM454.36 111.185C453.266 111.627 452.088 111.825 450.91 111.765C452.337 110.033 453.242 107.932 453.52 105.705C453.52 105.505 453.52 105.305 453.52 105.115L456.88 109.535C456.149 110.233 455.295 110.79 454.36 111.175V111.185Z" fill="#E4255C"/>
<path d="M449.28 81.3652C449.28 81.3652 449.78 88.9652 455.28 101.955C460.78 114.945 457.2 125.165 457.2 125.165" stroke="#800180" stroke-width="1.5" stroke-linecap="round" stroke-linejoin="round"/>
<path d="M441.6 81.3652C439.705 88.0978 439.705 95.2227 441.6 101.955C444.81 112.705 442.77 118.955 442.77 118.955" stroke="#800180" stroke-width="1.5" stroke-linecap="round" stroke-linejoin="round"/>
<path d="M481.84 188.955C481.84 188.955 481.28 219.585 481.84 227.125C482.4 234.665 480.72 248.895 480.16 254.755C479.6 260.615 478.09 295.495 476.48 305.125" stroke="#800180" stroke-width="1.5" stroke-linecap="round" stroke-linejoin="round"/>
<path d="M450.4 199.404C450.4 199.404 452.18 229.404 451.57 242.404C450.96 255.404 452.92 276.644 451.57 284.824C450.22 293.004 451.23 296.364 451.23 296.364" stroke="#800180" stroke-width="1.5" stroke-linecap="round" stroke-linejoin="round"/>
<path d="M477.37 308.055C477.37 308.055 471.61 309.055 462.3 305.125C452.99 301.195 448.14 294.125 447.87 296.335C447.6 298.545 445.17 310.335 447.87 312.515C450.57 314.695 465.65 322.755 472.87 322.935" stroke="#800180" stroke-width="1.5" stroke-linecap="round" stroke-linejoin="round"/>
<path d="M474.4 321.265C473.744 319.015 473.744 316.625 474.4 314.375C475.51 310.845 476.48 310.845 476.48 310.845C476.48 310.845 470.12 312.985 458.02 306.795" stroke="#800180" stroke-width="1.5" stroke-linecap="round" stroke-linejoin="round"/>
<path d="M459.37 249.025C459.37 249.025 469.98 252.375 475.84 249.025" stroke="#800180" stroke-width="1.5" stroke-linecap="round" stroke-linejoin="round"/>
<path d="M458.02 270.375C458.02 270.375 461.02 287.965 458.02 296.375" stroke="#800180" stroke-width="1.5" stroke-linecap="round" stroke-linejoin="round"/>
<path d="M458.02 226.285L456.44 212.895" stroke="#800180" stroke-width="1.5" stroke-linecap="round" stroke-linejoin="round"/>
<path d="M465.09 257.495C465.09 257.495 469.19 257.665 473.47 253.385" stroke="#800180" stroke-width="1.5" stroke-linecap="round" stroke-linejoin="round"/>
<path d="M440.26 200.895C440.26 200.895 430.02 226.565 429 234.655C427.98 242.745 407.33 284.355 405.09 292.855C402.85 301.355 400.16 310.855 400.16 310.855" stroke="#800180" stroke-width="1.5" stroke-linecap="round" stroke-linejoin="round"/>
<path d="M407.98 192.025C407.98 192.025 393.47 237.885 392.72 244.025C391.97 250.165 393.47 249.815 391.79 254.275C390.11 258.735 381.16 289.145 381.16 289.145" stroke="#800180" stroke-width="1.5" stroke-linecap="round" stroke-linejoin="round"/>
<path d="M381.74 304.285C384.716 307.58 388.412 310.143 392.54 311.775C399.05 314.195 401.09 312.935 401.09 314.035C401.09 315.135 397.93 319.585 397.74 321.265C397.55 322.945 395.88 325.725 393.84 324.985C391.8 324.245 381.74 319.585 381.74 319.585" stroke="#800180" stroke-width="1.5" stroke-linecap="round" stroke-linejoin="round"/>
<path d="M381.74 312.494C384.345 315.47 387.682 317.714 391.42 319.004" stroke="#800180" stroke-width="1.5" stroke-linecap="round" stroke-linejoin="round"/>
<path d="M391.42 315.725C393.05 316.374 394.72 316.918 396.42 317.355" stroke="#800180" stroke-width="1.5" stroke-linecap="round" stroke-linejoin="round"/>
<path d="M395.67 250.494C395.67 250.494 396.97 252.404 404.04 252.404" stroke="#800180" stroke-width="1.5" stroke-linecap="round" stroke-linejoin="round"/>
<path d="M395.67 241.635C395.67 241.635 397.16 242.635 402.74 243.065" stroke="#800180" stroke-width="1.5" stroke-linecap="round" stroke-linejoin="round"/>
<path d="M432.54 209.266C432.54 209.266 426.87 228.056 424.54 236.056C422.21 244.056 410.69 269.546 406.9 277.546" stroke="#800180" stroke-width="1.5" stroke-linecap="round" stroke-linejoin="round"/>
<path d="M404.81 280.895C404.81 280.895 397.74 302.195 398.12 306.795" stroke="#800180" stroke-width="1.5" stroke-linecap="round" stroke-linejoin="round"/>
<path d="M384.35 286.096C384.35 286.096 383.23 297.636 385.09 301.916" stroke="#800180" stroke-width="1.5" stroke-linecap="round" stroke-linejoin="round"/>
<path d="M455.61 321.266C455.61 321.266 456.44 359.406 456.86 360.516C457.28 361.626 486.16 360.096 487.14 360.516C488.12 360.936 490.35 343.636 474.3 342.936C458.25 342.236 458.67 352.496 458.67 352.496" stroke="#800180" stroke-width="1.5" stroke-linecap="round" stroke-linejoin="round"/>
<path d="M472.35 325.105C472.35 325.105 469.35 337.215 472.35 341.105" stroke="#800180" stroke-width="1.5" stroke-linecap="round" stroke-linejoin="round"/>
<path d="M457.49 340.775C457.49 340.775 462.23 342.775 472.35 341.095" stroke="#800180" stroke-width="1.5" stroke-linecap="round" stroke-linejoin="round"/>
<path d="M458.02 355.424C458.02 355.424 458.12 357.654 464.02 356.894C469.92 356.134 476.09 351.164 484.53 355.894" stroke="#800180" stroke-width="1.5" stroke-linecap="round" stroke-linejoin="round"/>
<path d="M467.25 345.374C470.256 344.561 473.393 344.35 476.48 344.754" stroke="#800180" stroke-width="1.5" stroke-linecap="round" stroke-linejoin="round"/>
<path d="M468.79 347.494C471.572 346.642 474.528 346.521 477.37 347.144" stroke="#800180" stroke-width="1.5" stroke-linecap="round" stroke-linejoin="round"/>
<path d="M389.74 325.105C389.74 325.105 382.99 333.815 384.56 341.105" stroke="#800180" stroke-width="1.5" stroke-linecap="round" stroke-linejoin="round"/>
<path d="M446.5 53.666C446.5 53.666 443.07 61.496 437.11 63.306C431.15 65.116 429.29 63.306 429.29 63.306L429.14 56.076C429.14 56.076 434.02 60.186 446.5 53.666Z" fill="#800180"/>
<path d="M336.81 59.4941C341.228 59.4941 344.81 55.9124 344.81 51.4941C344.81 47.0759 341.228 43.4941 336.81 43.4941C332.392 43.4941 328.81 47.0759 328.81 51.4941C328.81 55.9124 332.392 59.4941 336.81 59.4941Z" stroke="#800180" stroke-width="1.5" stroke-linecap="round" stroke-linejoin="round"/>
<path d="M355.88 59.4941C360.298 59.4941 363.88 55.9124 363.88 51.4941C363.88 47.0759 360.298 43.4941 355.88 43.4941C351.462 43.4941 347.88 47.0759 347.88 51.4941C347.88 55.9124 351.462 59.4941 355.88 59.4941Z" stroke="#800180" stroke-width="1.5" stroke-linecap="round" stroke-linejoin="round"/>
<path d="M337.28 51.2148V52.8948" stroke="#800180" stroke-width="1.5" stroke-linecap="round" stroke-linejoin="round"/>
<path d="M355.14 51.2148V52.8948" stroke="#800180" stroke-width="1.5" stroke-linecap="round" stroke-linejoin="round"/>
<path d="M346.8 54.1953C346.8 54.1953 347.05 58.9853 348.35 60.9753C349.89 63.3353 345.79 62.9753 345.09 62.6153" stroke="#800180" stroke-width="1.5" stroke-linecap="round" stroke-linejoin="round"/>
<path d="M342.02 66.8644C344.808 67.1101 347.612 67.1101 350.4 66.8644C354.67 66.4944 346.34 74.2944 342.02 66.8644Z" stroke="#800180" stroke-width="1.5" stroke-linecap="round" stroke-linejoin="round"/>
<path d="M357.09 42.3755C357.09 42.3755 356.26 41.4755 357.09 38.6855" stroke="#800180" stroke-width="1.5" stroke-linecap="round" stroke-linejoin="round"/>
<path d="M358.35 35.5449C358.35 35.5449 364.03 37.5449 363.88 43.7749" stroke="#800180" stroke-width="1.5" stroke-linecap="round" stroke-linejoin="round"/>
<path d="M357.72 34.2145C357.72 34.2145 357.09 32.4745 359.33 31.5645" stroke="#800180" stroke-width="1.5" stroke-linecap="round" stroke-linejoin="round"/>
<path d="M356.33 31.5659C356.26 31.1459 356.26 26.4059 349.7 25.0059" stroke="#800180" stroke-width="1.5" stroke-linecap="round" stroke-linejoin="round"/>
<path d="M353.81 30.8651C353.61 30.7251 349.98 24.0951 343.7 22.1451C337.42 20.1951 327.58 24.0951 329.81 32.3351" stroke="#800180" stroke-width="1.5" stroke-linecap="round" stroke-linejoin="round"/>
<path d="M327.93 32.3359C327.93 32.3359 322.93 36.4359 328.81 39.2359C338.33 43.7759 337.91 34.1459 353.01 39.0959" stroke="#800180" stroke-width="1.5" stroke-linecap="round" stroke-linejoin="round"/>
<path d="M331.98 36.0959C332.4 36.5159 334.7 38.0959 340.14 36.0959C345.58 34.0959 351.57 36.0959 351.57 36.0959" stroke="#800180" stroke-width="1.5" stroke-linecap="round" stroke-linejoin="round"/>
<path d="M338.95 30.4941C338.95 30.4941 340.77 32.3841 351.95 33.4941" stroke="#800180" stroke-width="1.5" stroke-linecap="round" stroke-linejoin="round"/>
<path d="M328.81 41.4043C328.38 42.951 328.489 44.598 329.12 46.0743" stroke="#800180" stroke-width="1.5" stroke-linecap="round" stroke-linejoin="round"/>
<path d="M349.09 61.3555C349.09 61.3555 352.54 64.3555 356.72 62.8755C360.9 61.3955 360.72 59.6055 360.72 59.6055C360.72 59.6055 363.05 74.6055 356.72 80.7055C354.78 82.5655 348.72 85.2655 348.72 85.2655C348.72 85.2655 336.1 82.6355 333.77 74.1955C332.533 69.873 332.281 65.3285 333.03 60.8955C334.174 62.1779 335.658 63.1105 337.31 63.5855C342.95 65.4955 345.12 62.5855 345.12 62.5855" stroke="#800180" stroke-width="1.5" stroke-linecap="round" stroke-linejoin="round"/>
<path d="M327.88 56.3359C327.88 56.3359 326.21 59.8459 330.67 62.8759" stroke="#800180" stroke-width="1.5" stroke-linecap="round" stroke-linejoin="round"/>
<path d="M364.35 56.3359C364.35 56.3359 364.81 60.9859 362.67 62.3359" stroke="#800180" stroke-width="1.5" stroke-linecap="round" stroke-linejoin="round"/>
<path d="M336.81 82.0059C336.81 82.0059 337.47 82.9359 336.81 85.8259" stroke="#800180" stroke-width="1.5" stroke-linecap="round" stroke-linejoin="round"/>
<path d="M356.72 82.6348C356.466 83.7086 356.597 84.8376 357.09 85.8248" stroke="#800180" stroke-width="1.5" stroke-linecap="round" stroke-linejoin="round"/>
<path d="M334.49 85.2656C334.49 85.2656 306.3 86.7456 301.28 105.096C296.26 123.446 309.93 159.586 324.72 160.846C339.51 162.106 366.72 134.616 371.47 129.306" stroke="#800180" stroke-width="1.5" stroke-linecap="round" stroke-linejoin="round"/>
<path d="M358.21 148.146C358.21 148.146 385 163.076 393.93 156.376C402.86 149.676 402.58 116.476 388.21 95.6855" stroke="#800180" stroke-width="1.5" stroke-linecap="round" stroke-linejoin="round"/>
<path d="M375.09 129.866C375.09 129.866 394.81 128.676 404.81 143.126C411.91 153.366 398.54 152.336 398.54 152.336" stroke="#800180" stroke-width="1.5" stroke-linecap="round" stroke-linejoin="round"/>
<path d="M406.94 143.826C406.94 143.826 405.37 122.766 394.49 103.016" stroke="#800180" stroke-width="1.5" stroke-linecap="round" stroke-linejoin="round"/>
<path d="M381.67 125.166C381.67 125.166 397.26 123.776 406.91 133.726" stroke="#800180" stroke-width="1.5" stroke-linecap="round" stroke-linejoin="round"/>
<path d="M364.43 115.165C363.688 113.562 362.371 112.295 360.74 111.615C359.754 111.212 358.686 111.048 357.624 111.137C356.562 111.225 355.536 111.564 354.63 112.125C354.263 112.026 353.888 111.955 353.51 111.915C351.968 111.77 350.417 112.079 349.049 112.804C347.681 113.53 346.555 114.64 345.811 115.999C345.066 117.357 344.736 118.903 344.86 120.447C344.984 121.99 345.558 123.464 346.51 124.685C346.837 125.053 347.198 125.388 347.59 125.685L346.59 128.175C347.47 127.795 348.38 127.405 349.31 127.025L349.43 126.715L349.78 126.835C352.66 125.655 355.78 124.465 358.85 123.355C359.559 122.216 359.965 120.915 360.03 119.575C360.04 119.442 360.04 119.309 360.03 119.175L362.25 121.795C362.052 122.024 361.838 122.237 361.61 122.435C362.61 122.115 363.52 121.815 364.48 121.515C364.651 121.162 364.788 120.794 364.89 120.415C365.373 118.667 365.21 116.803 364.43 115.165ZM348.49 123.495L348.22 123.205C347.591 122.395 347.183 121.435 347.038 120.419C346.892 119.403 347.013 118.367 347.39 117.413C347.766 116.458 348.385 115.618 349.184 114.975C349.984 114.332 350.937 113.908 351.95 113.745C352.25 113.745 352.55 113.685 352.85 113.675C352.4 114.233 352.033 114.853 351.76 115.515L348.49 123.495ZM353.72 124.935C352.552 125.229 351.32 125.134 350.21 124.665L351.67 120.965C352.198 122.491 353.236 123.788 354.61 124.635C354.323 124.766 354.025 124.869 353.72 124.945V124.935ZM358.23 119.495C358.14 120.931 357.536 122.287 356.53 123.315C355.194 122.759 354.13 121.7 353.569 120.365C353.007 119.031 352.993 117.53 353.53 116.185C353.841 115.397 354.331 114.692 354.96 114.125C355.733 114.447 356.418 114.948 356.96 115.585C357.864 116.685 358.321 118.084 358.24 119.505L358.23 119.495ZM363.28 119.855C363.28 119.965 363.21 120.085 363.17 120.195L358.28 114.425C357.841 113.912 357.332 113.461 356.77 113.085C357.887 112.719 359.098 112.758 360.19 113.195C361.43 113.701 362.431 114.659 362.99 115.875C363.575 117.124 363.678 118.545 363.28 119.865V119.855Z" fill="#E4255C"/>
<path d="M331.23 135.125C331.23 135.125 336.65 132.375 344.03 129.195C344.92 128.805 345.84 128.415 346.78 128.025L347.26 127.825C350.18 126.615 353.26 125.395 356.47 124.265C357.4 123.935 358.34 123.615 359.27 123.265C360.2 122.915 361.22 122.625 362.19 122.325C369.04 120.245 375.51 119.015 379.7 119.905" stroke="#800180" stroke-width="1.5" stroke-linecap="round" stroke-linejoin="round"/>
<path d="M380.81 123.076C380.81 123.076 382.95 109.336 384.91 101.956C386.87 94.5757 386.67 110.566 384.91 116.146" stroke="#800180" stroke-width="1.5" stroke-linecap="round" stroke-linejoin="round"/>
<path d="M387.79 113.635C387.79 113.635 390.12 110.235 388.72 114.445C387.859 117.019 386.604 119.445 385 121.635" stroke="#800180" stroke-width="1.5" stroke-linecap="round" stroke-linejoin="round"/>
<path d="M339.88 129.416C339.88 129.416 337.46 127.196 334.24 124.696C330.14 121.506 324.75 117.876 321.47 117.826C315.61 117.726 312.81 118.166 315.98 119.666C318.025 120.583 320.249 121.034 322.49 120.986" stroke="#800180" stroke-width="1.5" stroke-linecap="round" stroke-linejoin="round"/>
<path d="M318.49 122.285C318.49 122.285 315.14 123.125 317.74 124.425C320.34 125.725 326.2 125.105 326.2 125.105" stroke="#800180" stroke-width="1.5" stroke-linecap="round" stroke-linejoin="round"/>
<path d="M321.48 127.395C321.48 127.395 319.02 128.925 323.42 129.395C325.456 129.65 327.509 129.75 329.56 129.695" stroke="#800180" stroke-width="1.5" stroke-linecap="round" stroke-linejoin="round"/>
<path d="M326.95 131.686C326.95 131.686 323.56 134.876 331.23 133.166" stroke="#800180" stroke-width="1.5" stroke-linecap="round" stroke-linejoin="round"/>
<path d="M325.18 134.494C325.18 134.494 308.44 138.954 305.65 147.604C302.86 156.254 310.86 153.844 310.86 153.844" stroke="#800180" stroke-width="1.5" stroke-linecap="round" stroke-linejoin="round"/>
<path d="M342.35 128.154C342.35 128.154 348.49 131.884 351.93 142.364" stroke="#800180" stroke-width="1.5" stroke-linecap="round" stroke-linejoin="round"/>
<path d="M343.49 133.676C345.916 137.198 347.672 141.137 348.67 145.296" stroke="#800180" stroke-width="1.5" stroke-linecap="round" stroke-linejoin="round"/>
<path d="M365.84 137.266C364.56 142.669 364.718 148.313 366.3 153.636" stroke="#800180" stroke-width="1.5" stroke-linecap="round" stroke-linejoin="round"/>
<path d="M369.37 137.266C368.739 140.897 368.585 144.595 368.91 148.266" stroke="#800180" stroke-width="1.5" stroke-linecap="round" stroke-linejoin="round"/>
<path d="M320.79 131.305C320.79 131.405 309.09 132.475 301.56 141.105" stroke="#800180" stroke-width="1.5" stroke-linecap="round" stroke-linejoin="round"/>
<path d="M299.14 122.285C299.14 122.285 301.28 137.545 303.51 148.285" stroke="#800180" stroke-width="1.5" stroke-linecap="round" stroke-linejoin="round"/>
<path d="M326.86 118.195C326.86 118.195 324.04 114.475 316.75 108.705" stroke="#800180" stroke-width="1.5" stroke-linecap="round" stroke-linejoin="round"/>
<path d="M331.88 87.3052C331.88 87.3052 339.94 102.045 351.57 104.305C358.21 105.605 362.4 86.5352 362.4 86.5352" stroke="#800180" stroke-width="1.5" stroke-linecap="round" stroke-linejoin="round"/>
<path d="M366.3 91.2156C366.12 91.4956 361.65 108.426 353.56 108.706C345.47 108.986 331.33 98.0056 326.86 88.5156" stroke="#800180" stroke-width="1.5" stroke-linecap="round" stroke-linejoin="round"/>
<path d="M335.84 90.3747C335.84 90.3747 343.42 97.8847 351.98 95.4847C360.54 93.0847 361.14 87.3047 361.14 87.3047" stroke="#800180" stroke-width="1.5" stroke-linecap="round" stroke-linejoin="round"/>
<path d="M320.79 163.075C320.79 163.075 320.6 193.215 321.48 193.075C322.36 192.935 374.54 202.985 382.21 183.025C382.21 183.025 382.35 179.025 385 177.165C387.65 175.305 385 160.885 385 160.885" stroke="#800180" stroke-width="1.5" stroke-linecap="round" stroke-linejoin="round"/>
<path d="M323.19 187.356C323.19 187.356 365.51 196.526 383.56 184.266" stroke="#800180" stroke-width="1.5" stroke-linecap="round" stroke-linejoin="round"/>
<path d="M380.81 164.336C380.81 164.336 376.49 181.736 351.81 184.266" stroke="#800180" stroke-width="1.5" stroke-linecap="round" stroke-linejoin="round"/>
<path d="M317.75 160.885L316.75 190.655L317.75 192.025" stroke="#800180" stroke-width="1.5" stroke-linecap="round" stroke-linejoin="round"/>
<path d="M381.74 190.654C381.74 190.654 384.07 220.464 383.56 242.344C383.05 264.224 380.26 276.424 379.7 286.094C379.14 295.764 380.81 322.934 380.81 322.934" stroke="#800180" stroke-width="1.5" stroke-linecap="round" stroke-linejoin="round"/>
<path d="M360.35 210.375C359.42 210.935 348.07 221.725 348.07 221.725" stroke="#800180" stroke-width="1.5" stroke-linecap="round" stroke-linejoin="round"/>
<path d="M354.21 218.756C354.21 218.756 358.12 259.306 357.37 263.586C356.62 267.866 354.77 266.756 356.81 270.376C358.85 273.996 357 278.036 356.63 292.026C356.26 306.016 359.23 324.236 359.23 324.236" stroke="#800180" stroke-width="1.5" stroke-linecap="round" stroke-linejoin="round"/>
<path d="M357.93 220.795C357.93 220.795 360.72 254.655 361.84 261.725" stroke="#800180" stroke-width="1.5" stroke-linecap="round" stroke-linejoin="round"/>
<path d="M367.05 263.404C367.05 263.404 358.3 267.494 359.23 268.794C360.16 270.094 366.3 276.614 366.3 276.614" stroke="#800180" stroke-width="1.5" stroke-linecap="round" stroke-linejoin="round"/>
<path d="M361.84 269.355C363.637 270.444 365.376 271.625 367.05 272.895" stroke="#800180" stroke-width="1.5" stroke-linecap="round" stroke-linejoin="round"/>
<path d="M361.84 275.494C361.84 275.494 359.05 285.494 360.35 292.854C361.65 300.214 361.84 322.934 361.84 322.934" stroke="#800180" stroke-width="1.5" stroke-linecap="round" stroke-linejoin="round"/>
<path d="M379.58 271.125L370.02 290.935" stroke="#800180" stroke-width="1.5" stroke-linecap="round" stroke-linejoin="round"/>
<path d="M379.58 194.336L369.09 203.126" stroke="#800180" stroke-width="1.5" stroke-linecap="round" stroke-linejoin="round"/>
<path d="M325 198.305L335.42 203.125" stroke="#800180" stroke-width="1.5" stroke-linecap="round" stroke-linejoin="round"/>
<path d="M319.23 185.295C319.23 185.295 319.61 198.655 319.23 204.055C318.85 209.455 317.5 232.705 317.23 238.055C316.96 243.405 318.65 253.525 317.72 255.375C316.79 257.225 316.72 262.615 316.72 262.615" stroke="#800180" stroke-width="1.5" stroke-linecap="round" stroke-linejoin="round"/>
<path d="M323.19 201.824C323.19 201.824 320.09 216.144 320.78 229.164C321.47 242.184 321.57 253.164 320.78 254.654C319.99 256.144 318.08 267.304 318.08 267.304" stroke="#800180" stroke-width="1.5" stroke-linecap="round" stroke-linejoin="round"/>
<path d="M349.93 221.725C349.93 221.725 338.77 259.865 340.26 263.405C341.75 266.945 327.05 273.825 327.05 273.825" stroke="#800180" stroke-width="1.5" stroke-linecap="round" stroke-linejoin="round"/>
<path d="M336.72 271.125L328.16 306.005" stroke="#800180" stroke-width="1.5" stroke-linecap="round" stroke-linejoin="round"/>
<path d="M355.47 196.055V203.125" stroke="#800180" stroke-width="1.5" stroke-linecap="round" stroke-linejoin="round"/>
<path d="M357.93 325.105C357.93 325.105 360.93 331.495 381.74 326.475V338.375C381.74 338.375 368.21 343.585 360 338.375" stroke="#800180" stroke-width="1.5" stroke-linecap="round" stroke-linejoin="round"/>
<path d="M357.93 327.586V334.286C357.93 334.286 360.26 338.956 372.44 337.446" stroke="#800180" stroke-width="1.5" stroke-linecap="round" stroke-linejoin="round"/>
<path d="M316.75 329.824C316.75 329.824 305.65 325.544 305.28 327.584C304.91 329.624 306.52 331.734 311.02 333.104" stroke="#800180" stroke-width="1.5" stroke-linecap="round" stroke-linejoin="round"/>
<path d="M306.21 333.916C306.21 333.916 301.56 341.206 313.84 341.916" stroke="#800180" stroke-width="1.5" stroke-linecap="round" stroke-linejoin="round"/>
<path opacity="0.1" d="M381.31 341.975H362.72V362.155H410.44C410.44 362.155 410.76 356.095 407.04 354.455C403.32 352.815 383.21 348.235 381.83 346.125C381.425 345.522 381.167 344.832 381.077 344.111C380.987 343.391 381.067 342.659 381.31 341.975Z" fill="#10E8E8"/>
<path d="M380.79 338.895C380.79 338.895 380.44 343.415 381.31 345.605C382.18 347.795 405.63 353.675 408.22 354.885C410.81 356.095 410.41 361.685 410.41 361.685L362.72 362.155V341.975" stroke="#800180" stroke-width="1.5" stroke-linecap="round" stroke-linejoin="round"/>
<path d="M381.31 345.605H363.1" stroke="#800180" stroke-width="1.5" stroke-linecap="round" stroke-linejoin="round"/>
<path d="M402.46 353.395C402.46 353.395 395.95 355.065 394.46 354.545C392.97 354.025 380.28 348.955 380.4 348.375C380.52 347.795 382.22 346.375 382.22 346.375" stroke="#800180" stroke-width="1.5" stroke-linecap="round" stroke-linejoin="round"/>
<path d="M388.38 348.816C388.23 348.766 385.23 350.506 385.23 350.506" stroke="#800180" stroke-width="1.5" stroke-linecap="round" stroke-linejoin="round"/>
<path d="M394 350.586L389.74 352.686" stroke="#800180" stroke-width="1.5" stroke-linecap="round" stroke-linejoin="round"/>
<path d="M410.01 358.984H363.44" stroke="#800180" stroke-width="1.5" stroke-linecap="round" stroke-linejoin="round"/>
<path d="M359.61 83.4941C359.61 83.4941 372.86 84.0541 376.61 85.2641C380.36 86.4741 387.91 94.1941 386.89 94.5141C385.87 94.8341 377.96 89.6341 377.96 89.6341" stroke="#800180" stroke-width="1.5" stroke-linecap="round" stroke-linejoin="round"/>
<path d="M364.49 86.9352C367.329 89.5188 370.468 91.7515 373.84 93.5852C378.12 95.6852 380.26 99.9152 381.98 98.5852C383.7 97.2552 374.16 86.5352 374.16 86.5352" stroke="#800180" stroke-width="1.5" stroke-linecap="round" stroke-linejoin="round"/>
<path d="M332.59 82.0059C332.59 82.0059 317.74 85.3559 306.44 90.2359C298.764 93.738 291.469 98.0205 284.67 103.016" stroke="#800180" stroke-width="1.5" stroke-linecap="round" stroke-linejoin="round"/>
<path d="M539.33 352.495C539.33 352.495 528.2 317.355 502.67 316.495C477.14 315.635 473.08 334.495 473.08 334.495" stroke="#800180" stroke-width="1.5" stroke-linecap="round" stroke-linejoin="round"/>
<path d="M519.61 362.154H247.61" stroke="#800180" stroke-width="1.5" stroke-linecap="round" stroke-linejoin="round"/>
<path d="M573.74 360.936H836.54" stroke="#800180" stroke-width="1.5" stroke-linecap="round" stroke-linejoin="round"/>
<path d="M849 360.936H1111.8" stroke="#800180" stroke-width="1.5" stroke-linecap="round" stroke-linejoin="round"/>
<path d="M240.72 362.154H1" stroke="#800180" stroke-width="1.5" stroke-linecap="round" stroke-linejoin="round"/>
<path d="M258.95 106.756C258.95 106.756 240.54 125.166 244.44 134.496C248.34 143.826 251.53 142.306 251.44 154.956" stroke="#800180" stroke-width="1.5" stroke-linecap="round" stroke-linejoin="round"/>
<path d="M284.67 101.165H281.67C281.67 101.165 272.37 114.005 264.18 113.445C255.99 112.885 262.51 104.445 262.51 104.445L262.44 86.6152" stroke="#800180" stroke-width="1.5" stroke-linecap="round" stroke-linejoin="round"/>
<path d="M284.67 104.395C284.67 104.395 289.47 129.245 297.28 125.255C294.745 134.55 293.002 144.044 292.07 153.635" stroke="#800180" stroke-width="1.5" stroke-linecap="round" stroke-linejoin="round"/>
<path d="M253.19 138.496C253.19 138.496 265.09 131.496 280.35 138.496" stroke="#800180" stroke-width="1.5" stroke-linecap="round" stroke-linejoin="round"/>
<path d="M258.95 104.395C258.95 104.395 245.37 100.625 240.16 125.255C234.95 149.885 231.61 156.795 234.16 166.655C236.375 174.301 239.047 181.808 242.16 189.135" stroke="#800180" stroke-width="1.5" stroke-linecap="round" stroke-linejoin="round"/>
<path d="M249.23 149.545C249.23 149.545 246.17 158.475 246.98 164.335C247.723 168.708 248.868 173.002 250.4 177.165" stroke="#800180" stroke-width="1.5" stroke-linecap="round" stroke-linejoin="round"/>
<path d="M276.79 92.8945L280.35 100.015" stroke="#800180" stroke-width="1.5" stroke-linecap="round" stroke-linejoin="round"/>
<path d="M335.84 78.5547C336.9 81.784 338.968 84.5881 341.74 86.5547C346.49 90.0147 348.33 90.6847 348.97 90.7547C349.61 90.8247 353.15 88.9247 355.14 85.2547C357.13 81.5847 357.09 80.3147 357.09 80.3147L348.69 85.2547C348.69 85.2547 338.31 81.9047 335.84 78.5547Z" fill="#800180"/>
<path d="M266.35 86.0942C267.746 88.2814 269.694 90.0618 271.997 91.2558C274.301 92.4497 276.878 93.0148 279.47 92.8942C284.35 92.7142 286.69 87.5942 287.31 80.8942C287.41 79.8242 289.07 80.4942 289.84 78.8142C290.1 78.2442 289.4 77.8942 288.84 77.2142C286.75 74.5642 287.16 71.4342 287.06 70.5842C286.727 67.798 286.203 65.0382 285.49 62.3242" stroke="#800180" stroke-width="1.5" stroke-linecap="round" stroke-linejoin="round"/>
<path d="M252.44 176.494C252.44 176.494 242.44 188.654 237.74 201.864" stroke="#800180" stroke-width="1.5" stroke-linecap="round" stroke-linejoin="round"/>
<path d="M248.67 156.235C248.67 156.235 258.07 155.365 262.4 158.105" stroke="#800180" stroke-width="1.5" stroke-linecap="round" stroke-linejoin="round"/>
<path d="M264.16 162.795V156.105C264.16 156.105 275.74 152.425 280.35 153.635" stroke="#800180" stroke-width="1.5" stroke-linecap="round" stroke-linejoin="round"/>
<path d="M278.57 160.005C279.23 159.445 282.72 154.135 282.72 154.135C282.72 154.135 293.19 155.005 293.19 156.135C292.837 158.387 292.369 160.62 291.79 162.825" stroke="#800180" stroke-width="1.5" stroke-linecap="round" stroke-linejoin="round"/>
<path d="M289.14 163.355H277.56" stroke="#800180" stroke-width="1.5" stroke-linecap="round" stroke-linejoin="round"/>
<path d="M249.51 158.096L250.4 163.356H258.95" stroke="#800180" stroke-width="1.5" stroke-linecap="round" stroke-linejoin="round"/>
<path d="M249.51 168.515L250.4 165.445" stroke="#800180" stroke-width="1.5" stroke-linecap="round" stroke-linejoin="round"/>
<path d="M265.56 165.494C265.56 165.494 264.21 180.844 266.77 188.384" stroke="#800180" stroke-width="1.5" stroke-linecap="round" stroke-linejoin="round"/>
<path d="M282.9 72.7949V75.3049" stroke="#800180" stroke-width="1.5" stroke-linecap="round" stroke-linejoin="round"/>
<path d="M280.07 69.9346C281.352 69.2146 282.854 68.9904 284.29 69.3046" stroke="#800180" stroke-width="1.5" stroke-linecap="round" stroke-linejoin="round"/>
<path d="M286.77 84.4942C286.77 84.4942 282.9 83.6242 282.9 84.4242C282.9 84.7742 283.25 86.6042 285.9 87.2942" stroke="#800180" stroke-width="1.5" stroke-linecap="round" stroke-linejoin="round"/>
<path d="M265.35 74.055C265.35 74.055 256.63 69.935 256.14 77.195C255.65 84.455 263.88 85.715 263.88 85.715" stroke="#800180" stroke-width="1.5" stroke-linecap="round" stroke-linejoin="round"/>
<path d="M258.95 76.2145C258.95 76.2145 259.95 73.3545 264.44 76.2145" stroke="#800180" stroke-width="1.5" stroke-linecap="round" stroke-linejoin="round"/>
<path d="M260.73 78.0547C260.374 78.9196 260.374 79.8898 260.73 80.7547C261.27 81.9447 262.94 83.2347 264.21 82.8947" stroke="#800180" stroke-width="1.5" stroke-linecap="round" stroke-linejoin="round"/>
<path d="M267.16 72.7944C267.58 72.6544 278.85 71.0544 282.16 61.9844C282.16 61.9844 286.33 62.6144 288.77 67.9144C291.21 73.2144 287.43 74.3844 287.43 74.3844" stroke="#800180" stroke-width="1.5" stroke-linecap="round" stroke-linejoin="round"/>
<path d="M289.39 69.5453C289.39 69.5453 287.39 51.7753 266.39 52.3353C266.39 52.3353 274.5 35.2153 262.39 35.6853C250.28 36.1553 240.17 49.2953 244.44 56.3353C247.23 60.9353 254.13 59.4753 254.13 59.4753C254.13 59.4753 256.13 53.4753 263.79 50.5653" stroke="#800180" stroke-width="1.5" stroke-linecap="round" stroke-linejoin="round"/>
<path d="M254.77 60.9355C254.77 60.9355 242.12 88.0255 258.95 85.7155" stroke="#800180" stroke-width="1.5" stroke-linecap="round" stroke-linejoin="round"/>
<path d="M257.09 58.4941C256.13 61.652 255.54 64.9104 255.33 68.2041" stroke="#800180" stroke-width="1.5" stroke-linecap="round" stroke-linejoin="round"/>
<path d="M262.33 55.3055C265.202 54.6742 268.178 54.6742 271.05 55.3055" stroke="#800180" stroke-width="1.5" stroke-linecap="round" stroke-linejoin="round"/>
<path d="M282.18 61.9849C280.768 60.0915 278.919 58.5681 276.79 57.5449" stroke="#800180" stroke-width="1.5" stroke-linecap="round" stroke-linejoin="round"/>
<path d="M254.58 55.306C254.58 55.306 255.07 51.616 261.7 49.166" stroke="#800180" stroke-width="1.5" stroke-linecap="round" stroke-linejoin="round"/>
<path d="M237.74 192.025C237.74 192.025 242.36 226.195 246.84 243.405C251.32 260.615 251 262.935 254.23 271.125C257.46 279.315 259.14 281.015 262.35 292.025C265.56 303.035 272.26 322.935 272.26 322.935" stroke="#800180" stroke-width="1.5" stroke-linecap="round" stroke-linejoin="round"/>
<path d="M288.16 322.496C288.16 322.496 277.27 326.086 272.63 325.126C268.44 324.256 270.21 321.936 270.21 321.936" stroke="#800180" stroke-width="1.5" stroke-linecap="round" stroke-linejoin="round"/>
<path d="M269.36 325.824C270.085 326.769 270.684 327.804 271.14 328.904C271.55 330.014 271.04 331.104 272.26 331.584C275.14 332.734 283.05 331.304 288.16 328.234V324.234" stroke="#800180" stroke-width="1.5" stroke-linecap="round" stroke-linejoin="round"/>
<path d="M287.61 320.146C287.61 320.146 287.33 297.446 282.02 283.356C276.71 269.266 275.02 273.446 274.77 261.726C274.52 250.006 272.26 207.586 272.26 207.586" stroke="#800180" stroke-width="1.5" stroke-linecap="round" stroke-linejoin="round"/>
<path d="M262.35 195.494C262.77 196.434 274.49 210.944 280.35 214.294" stroke="#800180" stroke-width="1.5" stroke-linecap="round" stroke-linejoin="round"/>
<path d="M277.56 216.055C277.56 216.055 296.91 257.265 297.28 265.915C297.65 274.565 302.28 300.135 310.99 314.695" stroke="#800180" stroke-width="1.5" stroke-linecap="round" stroke-linejoin="round"/>
<path d="M287.61 174.295C287.61 174.295 299.26 188.575 308.26 193.075" stroke="#800180" stroke-width="1.5" stroke-linecap="round" stroke-linejoin="round"/>
<path d="M293.19 165.494C293.19 165.494 303.19 181.024 308.26 204.934C313.33 228.844 313.84 264.754 319.4 279.074C323.797 290.849 326.377 303.224 327.05 315.774" stroke="#800180" stroke-width="1.5" stroke-linecap="round" stroke-linejoin="round"/>
<path d="M315.13 262.654C313.375 273.044 313.928 283.693 316.75 293.844" stroke="#800180" stroke-width="1.5" stroke-linecap="round" stroke-linejoin="round"/>
<path d="M255.86 275.045C255.86 275.045 261.56 278.125 266.77 275.045" stroke="#800180" stroke-width="1.5" stroke-linecap="round" stroke-linejoin="round"/>
<path d="M274.77 261.725C274.082 268.913 273.832 276.136 274.02 283.355" stroke="#800180" stroke-width="1.5" stroke-linecap="round" stroke-linejoin="round"/>
<path d="M289.14 181.635L300.22 194.335" stroke="#800180" stroke-width="1.5" stroke-linecap="round" stroke-linejoin="round"/>
<path d="M247.79 188.336L242.02 203.126" stroke="#800180" stroke-width="1.5" stroke-linecap="round" stroke-linejoin="round"/>
<path d="M310.99 317.355C310.91 317.265 307.99 318.565 314.13 319.025C320.27 319.485 328.63 316.745 329.05 317.355C329.47 317.965 329.61 320.845 326.12 321.915" stroke="#800180" stroke-width="1.5" stroke-linecap="round" stroke-linejoin="round"/>
<path d="M312.16 321.916C312.16 321.916 309.1 326.066 315.44 327.036C321.78 328.006 331.7 326.936 329.26 322.936" stroke="#800180" stroke-width="1.5" stroke-linecap="round" stroke-linejoin="round"/>
<path d="M266.77 216.055V240.595" stroke="#800180" stroke-width="1.5" stroke-linecap="round" stroke-linejoin="round"/>
<path d="M277.56 284.895C277.56 284.895 283 289.355 283.35 312.515" stroke="#800180" stroke-width="1.5" stroke-linecap="round" stroke-linejoin="round"/>
<path d="M268.91 162.345C270.009 162.345 270.9 161.454 270.9 160.355C270.9 159.256 270.009 158.365 268.91 158.365C267.811 158.365 266.92 159.256 266.92 160.355C266.92 161.454 267.811 162.345 268.91 162.345Z" stroke="#800180" stroke-width="1.5" stroke-linecap="round" stroke-linejoin="round"/>
<path d="M269.43 170.505C270.529 170.505 271.42 169.614 271.42 168.515C271.42 167.416 270.529 166.525 269.43 166.525C268.331 166.525 267.44 167.416 267.44 168.515C267.44 169.614 268.331 170.505 269.43 170.505Z" stroke="#800180" stroke-width="1.5" stroke-linecap="round" stroke-linejoin="round"/>
<path d="M269.43 178.445C270.529 178.445 271.42 177.554 271.42 176.455C271.42 175.356 270.529 174.465 269.43 174.465C268.331 174.465 267.44 175.356 267.44 176.455C267.44 177.554 268.331 178.445 269.43 178.445Z" stroke="#800180" stroke-width="1.5" stroke-linecap="round" stroke-linejoin="round"/>
<path d="M270.02 186.255C271.119 186.255 272.01 185.364 272.01 184.265C272.01 183.166 271.119 182.275 270.02 182.275C268.921 182.275 268.03 183.166 268.03 184.265C268.03 185.364 268.921 186.255 270.02 186.255Z" stroke="#800180" stroke-width="1.5" stroke-linecap="round" stroke-linejoin="round"/>
<path d="M287.61 331.705C287.61 331.705 292.19 349.355 292.17 356.265C292.17 361.265 291.72 362.155 291.72 362.155" stroke="#800180" stroke-width="1.5" stroke-linecap="round" stroke-linejoin="round"/>
<path d="M278.4 333.105L279 338.475" stroke="#800180" stroke-width="1.5" stroke-linecap="round" stroke-linejoin="round"/>
<path d="M248.54 361.706C247.61 355.496 250.77 354.866 260.05 353.126C265.41 352.202 270.408 349.81 274.49 346.216C274.49 346.216 282.4 353.396 290.79 345.766" stroke="#800180" stroke-width="1.5" stroke-linecap="round" stroke-linejoin="round"/>
<path d="M248.99 357.676H291.79" stroke="#800180" stroke-width="1.5" stroke-linecap="round" stroke-linejoin="round"/>
<path d="M266.36 351.615L268.63 354.375" stroke="#800180" stroke-width="1.5" stroke-linecap="round" stroke-linejoin="round"/>
<path d="M269.84 349.916L272.26 352.996" stroke="#800180" stroke-width="1.5" stroke-linecap="round" stroke-linejoin="round"/>
<path d="M272.26 348.305L275.67 351.095" stroke="#800180" stroke-width="1.5" stroke-linecap="round" stroke-linejoin="round"/>
<path d="M280.91 348.305C280.91 348.305 279.91 338.475 275.67 337.745C270.38 336.845 274.49 341.055 274.49 346.215" stroke="#800180" stroke-width="1.5" stroke-linecap="round" stroke-linejoin="round"/>
<path d="M318.4 329.166L321.09 339.496C321.09 339.496 316.72 350.796 318.95 361.706" stroke="#800180" stroke-width="1.5" stroke-linecap="round" stroke-linejoin="round"/>
<path d="M328.16 328.115L330.4 341.095" stroke="#800180" stroke-width="1.5" stroke-linecap="round" stroke-linejoin="round"/>
<path d="M325.47 350.494C325.47 350.494 321.09 342.774 324.35 341.964C327.61 341.154 332.44 341.964 332.91 344.884" stroke="#800180" stroke-width="1.5" stroke-linecap="round" stroke-linejoin="round"/>
<path d="M332.91 345.436L338.67 353.736C338.67 353.736 348.84 354.816 350.58 357.676C352.32 360.536 351.42 362.156 351.42 362.156" stroke="#800180" stroke-width="1.5" stroke-linecap="round" stroke-linejoin="round"/>
<path d="M318.32 357.676H350.02" stroke="#800180" stroke-width="1.5" stroke-linecap="round" stroke-linejoin="round"/>
<path d="M335.84 349.666L331.23 351.456" stroke="#800180" stroke-width="1.5" stroke-linecap="round" stroke-linejoin="round"/>
<path d="M337.52 352.064L333.54 354.374" stroke="#800180" stroke-width="1.5" stroke-linecap="round" stroke-linejoin="round"/>
<path d="M333.54 347.494L328.91 348.814" stroke="#800180" stroke-width="1.5" stroke-linecap="round" stroke-linejoin="round"/>
<path d="M318.77 346.375C318.77 346.375 319.33 348.605 323.14 346.375" stroke="#800180" stroke-width="1.5" stroke-linecap="round" stroke-linejoin="round"/>
<path d="M359.16 340.695L339.23 349.915" stroke="#800180" stroke-width="1.5" stroke-linecap="round" stroke-linejoin="round"/>
<path d="M352.21 356.055H360" stroke="#800180" stroke-width="1.5" stroke-linecap="round" stroke-linejoin="round"/>
<path d="M347.49 346.096L350.67 350.586" stroke="#800180" stroke-width="1.5" stroke-linecap="round" stroke-linejoin="round"/>
<path d="M350.67 344.545L354.21 348.815" stroke="#800180" stroke-width="1.5" stroke-linecap="round" stroke-linejoin="round"/>
<path d="M354.21 342.984L357.93 347.494" stroke="#800180" stroke-width="1.5" stroke-linecap="round" stroke-linejoin="round"/>
<path d="M299.19 361.705V355.495C299.19 355.495 300.68 347.355 311.42 347.135" stroke="#800180" stroke-width="1.5" stroke-linecap="round" stroke-linejoin="round"/>
<path d="M299.74 356.055H315.44" stroke="#800180" stroke-width="1.5" stroke-linecap="round" stroke-linejoin="round"/>
<path opacity="0.1" d="M318.32 349.665L324.32 348.155C324.32 348.155 321.75 345.505 325.1 344.545C328.45 343.585 332.45 345.245 332.45 345.245L338.87 353.245C338.87 353.245 348.71 356.065 350.03 357.695C351.35 359.325 318.33 357.695 318.33 357.695C318.33 357.695 317.6 352.015 318.32 349.665Z" fill="#10E8E8"/>
<path opacity="0.1" d="M248.38 357.676H292.17C292.401 355.472 292.246 353.246 291.71 351.096C290.81 347.896 291.51 348.156 291.51 348.156C291.51 348.156 289.98 351.336 283.7 351.326C279.751 351.238 275.919 349.966 272.7 347.676C272.7 347.676 269.7 350.676 260.43 352.676C251.16 354.676 248.38 355.666 248.38 357.676Z" fill="#10E8E8"/>
<path opacity="0.1" d="M274.67 346.686C274.67 346.686 271.35 338.486 272.97 338.896C274.59 339.306 278.97 341.226 280.23 344.546C281.49 347.866 281.23 349.206 281.23 349.206L274.67 346.686Z" fill="#10E8E8"/>
<path opacity="0.1" d="M542.55 249.025C542.55 249.025 545.41 267.585 546.74 276.725C548.07 285.865 549.91 303.975 549.91 303.975C549.91 303.975 549.65 283.865 555.33 279.975C561.01 276.085 564.91 266.975 563.61 261.735C562.31 256.495 544.57 256.335 542.55 249.025Z" fill="#10E8E8"/>
<path opacity="0.1" d="M555.51 93.6851C555.1 93.6051 543.44 94.3451 549.62 100.175C555.8 106.005 595.24 113.085 589.45 109.695C583.66 106.305 569.91 96.7551 555.51 93.6851Z" fill="#10E8E8"/>
<path opacity="0.1" d="M611.51 125.166C611.51 125.166 597.99 146.616 604.05 144.596C610.11 142.576 614.93 134.286 614.24 130.936C613.777 128.831 612.843 126.859 611.51 125.166Z" fill="#10E8E8"/>
<path opacity="0.1" d="M235.51 145.655C235.51 145.655 231.84 158.255 233.92 165.445C236 172.635 240.26 139.075 235.51 145.655Z" fill="#10E8E8"/>
<path opacity="0.1" d="M249.51 255.414C249.51 255.414 253.34 273.544 257.51 275.724C261.68 277.904 267.41 276.424 268.01 272.894C268.61 269.364 248.3 250.394 249.51 255.414Z" fill="#10E8E8"/>
<path opacity="0.1" d="M312.84 238.045C312.84 238.045 308.26 280.145 311.42 284.895C314.58 289.645 313.15 271.255 314.48 267.305C315.81 263.355 315.48 261.655 314.99 257.475C314.5 253.295 312.84 238.045 312.84 238.045Z" fill="#10E8E8"/>
<path opacity="0.1" d="M277.56 284.895C277.56 284.895 278.87 321.025 281.29 317.265C283.71 313.505 284.12 288.795 277.56 284.895Z" fill="#10E8E8"/>
<path opacity="0.1" d="M349.28 223.975C349.28 223.975 322.99 275.905 327.05 273.825C331.11 271.745 338.97 268.455 339.7 263.825C340.43 259.195 349.28 223.975 349.28 223.975Z" fill="#10E8E8"/>
<path opacity="0.1" d="M383.58 241.265C383.58 241.265 381.74 234.095 377.28 249.775C372.82 265.455 363.51 298.645 368.16 295.905C372.81 293.165 379.08 279.175 380.38 273.825C381.68 268.475 383.58 241.265 383.58 241.265Z" fill="#10E8E8"/>
<path opacity="0.1" d="M311.18 91.6349C308.015 93.9535 305.399 96.9398 303.517 100.382C301.635 103.825 300.533 107.639 300.29 111.555C299.52 124.875 326.74 87.1049 322.8 87.3449C318.86 87.5849 311.18 91.6349 311.18 91.6349Z" fill="#10E8E8"/>
<path opacity="0.1" d="M262.49 103.545C262.49 103.545 243.56 124.125 243.9 129.015C244.24 133.905 266.05 115.375 263.19 113.465C262.29 112.875 261.28 112.185 260.3 111.515C258.15 110.055 262.49 103.545 262.49 103.545Z" fill="#10E8E8"/>
<path opacity="0.1" d="M313.67 153.635C313.67 153.635 320.54 162.055 326.22 160.885C331.9 159.715 340.45 156.885 350.78 148.235C361.11 139.585 327.27 158.235 321.78 156.105C316.29 153.975 312.22 150.755 313.67 153.635Z" fill="#10E8E8"/>
<path opacity="0.1" d="M369.37 153.634C369.37 153.634 384.12 158.734 389.17 158.464C394.22 158.194 397.73 151.854 398.51 148.234C399.29 144.614 366.72 151.584 369.37 153.634Z" fill="#10E8E8"/>
<path opacity="0.1" d="M383.56 163.356C383.56 163.356 383.98 158.546 376.16 164.276C368.34 170.006 342.3 185.726 349.93 187.356C357.56 188.986 380.21 178.576 383.56 163.356Z" fill="#10E8E8"/>
<path opacity="0.1" d="M428.49 143.824C428.49 143.824 420.21 164.684 424.16 167.094C428.11 169.504 453.37 165.144 458.81 164.914C464.25 164.684 474.17 167.204 473.61 165.484C473.05 163.764 458.35 159.184 440.55 160.994C422.75 162.804 430.26 143.964 428.49 143.824Z" fill="#10E8E8"/>
<path opacity="0.1" d="M392.72 244.034L392.67 250.494C392.67 250.494 390.95 256.904 395.74 254.554C400.53 252.204 410.9 260.034 414.16 245.244C417.42 230.454 400.81 220.755 397.53 226.165C394.25 231.575 392.72 244.034 392.72 244.034Z" fill="#10E8E8"/>
<path opacity="0.1" d="M455.61 238.044C455.61 238.044 457.84 264.334 466.21 263.404C474.58 262.474 483.14 247.054 481.84 235.044C480.54 223.034 455.23 224.784 455.61 238.044Z" fill="#10E8E8"/>
<path opacity="0.1" d="M469.28 343.115C469.28 343.115 462.06 344.005 460.46 347.495C459.337 350.251 458.519 353.122 458.02 356.055C458.02 356.055 460.02 357.875 464.02 356.895C468.02 355.915 477.18 353.235 480.1 354.195C482.738 355.191 485.31 356.353 487.8 357.675C487.8 357.675 488.81 340.925 469.28 343.115Z" fill="#10E8E8"/>
<path opacity="0.1" d="M458.37 74.7557C458.37 74.7557 507.88 78.9357 495.05 74.0557C486.801 71.1038 477.992 70.0543 469.28 70.9857C469.28 70.9857 469.16 71.7057 465.45 72.4857C463.025 73.0238 460.655 73.7836 458.37 74.7557Z" fill="#10E8E8"/>
<path opacity="0.1" d="M391.48 87.3445C391.48 87.3445 383.98 97.3444 395.33 94.5344C406.68 91.7244 414.27 76.7845 406.94 76.4245C399.61 76.0645 391.48 87.3445 391.48 87.3445Z" fill="#10E8E8"/>
<path d="M21.31 356.144C21.31 356.144 17.69 338.194 39.55 329.944C61.41 321.694 73.14 339.494 73.86 343.044C74.58 346.594 67.06 346.304 72.56 335.584C78.06 324.864 94.71 329.214 95.56 339.784" stroke="#800180" stroke-width="1.5" stroke-linecap="round" stroke-linejoin="round"/>
<path d="M96.88 350.215C96.88 350.215 91.82 341.375 99.2 335.295C106.58 329.215 115.27 334.865 113.39 336.455C111.51 338.045 101.95 322.705 115.56 311.845C130.61 299.845 144.37 314.595 145.38 320.095C145.499 317.735 146.405 315.483 147.955 313.699C149.506 311.915 151.609 310.702 153.93 310.255C165.51 307.505 168.26 317.635 167.54 321.255C166.82 324.875 163.75 324.345 164.93 319.665C166.11 314.985 174.05 310.975 180.57 316.045C187.78 321.655 184.76 331.245 182.88 329.655C181 328.065 185.2 323.885 191.13 327.785C197.06 331.685 193.45 340.365 193.45 340.365C194.197 338.875 195.277 337.577 196.608 336.573C197.938 335.569 199.482 334.885 201.12 334.575C208.36 332.985 210.53 336.895 208.94 339.065C207.35 341.235 205.18 337.475 205.32 331.245C205.46 325.015 209.37 314.145 224.32 310.685C241.81 306.635 255.67 315.495 255.67 330.085" stroke="#800180" stroke-width="1.5" stroke-linecap="round" stroke-linejoin="round"/>
<path d="M28.01 350.214C29.095 346.444 31.091 342.999 33.8221 340.183C36.5531 337.366 39.9351 335.265 43.67 334.064" stroke="#800180" stroke-width="1.5" stroke-linecap="round" stroke-linejoin="round"/>
<path d="M42.23 338.495C42.23 338.495 47.94 333.065 58.33 335.125" stroke="#800180" stroke-width="1.5" stroke-linecap="round" stroke-linejoin="round"/>
<path d="M78.93 332.766C78.93 332.766 86.21 330.916 90.44 336.136" stroke="#800180" stroke-width="1.5" stroke-linecap="round" stroke-linejoin="round"/>
<path d="M102.49 337.655C102.49 337.655 103.58 335.655 108.25 336.135" stroke="#800180" stroke-width="1.5" stroke-linecap="round" stroke-linejoin="round"/>
<path d="M116.28 316.045C116.28 316.045 123.02 307.045 133.77 311.595" stroke="#800180" stroke-width="1.5" stroke-linecap="round" stroke-linejoin="round"/>
<path d="M123.23 315.175C124.232 314.35 125.443 313.82 126.728 313.643C128.014 313.467 129.323 313.651 130.51 314.175" stroke="#800180" stroke-width="1.5" stroke-linecap="round" stroke-linejoin="round"/>
<path d="M150.49 317.786C151.567 315.92 153.226 314.46 155.213 313.627C157.2 312.794 159.405 312.636 161.49 313.176" stroke="#800180" stroke-width="1.5" stroke-linecap="round" stroke-linejoin="round"/>
<path d="M171.16 318.366C172.319 317.711 173.653 317.436 174.977 317.577C176.3 317.719 177.546 318.271 178.54 319.156" stroke="#800180" stroke-width="1.5" stroke-linecap="round" stroke-linejoin="round"/>
<path d="M188.75 330.086C188.75 330.086 190.99 331.026 191.13 335.006" stroke="#800180" stroke-width="1.5" stroke-linecap="round" stroke-linejoin="round"/>
<path d="M213.5 322.055C213.5 322.055 218.79 313.055 233.92 313.945C249.05 314.835 252.3 330.735 252.3 330.735" stroke="#800180" stroke-width="1.5" stroke-linecap="round" stroke-linejoin="round"/>
<path d="M810.67 356.144C810.67 356.144 814.29 338.194 792.42 329.944C770.55 321.694 758.84 339.494 758.11 343.044C757.38 346.594 764.92 346.304 759.41 335.584C753.9 324.864 737.26 329.214 736.41 339.784" stroke="#800180" stroke-width="1.5" stroke-linecap="round" stroke-linejoin="round"/>
<path d="M735.09 350.215C735.09 350.215 740.16 341.375 732.78 335.295C725.4 329.215 716.7 334.865 718.59 336.455C720.48 338.045 730.02 322.705 716.42 311.845C701.36 299.845 687.6 314.595 686.59 320.095C686.472 317.736 685.567 315.485 684.018 313.701C682.47 311.918 680.369 310.704 678.05 310.255C666.47 307.505 663.72 317.635 664.44 321.255C665.16 324.875 668.23 324.345 667.05 319.665C665.87 314.985 657.92 310.975 651.41 316.045C644.2 321.655 647.21 331.245 649.09 329.655C650.97 328.065 646.78 323.885 640.84 327.785C634.9 331.685 638.52 340.365 638.52 340.365C637.775 338.874 636.695 337.575 635.365 336.57C634.034 335.566 632.489 334.883 630.85 334.575C623.61 332.985 621.44 336.895 623.03 339.065C624.62 341.235 626.8 337.475 626.65 331.245C626.5 325.015 622.65 314.145 607.65 310.685C590.13 306.635 576.23 315.465 576.23 330.085" stroke="#800180" stroke-width="1.5" stroke-linecap="round" stroke-linejoin="round"/>
<path d="M803.97 350.214C802.887 346.447 800.894 343.003 798.167 340.187C795.439 337.37 792.061 335.268 788.33 334.064" stroke="#800180" stroke-width="1.5" stroke-linecap="round" stroke-linejoin="round"/>
<path d="M789.75 338.495C789.75 338.495 784.03 333.065 773.64 335.125" stroke="#800180" stroke-width="1.5" stroke-linecap="round" stroke-linejoin="round"/>
<path d="M753.04 332.766C753.04 332.766 745.77 330.916 741.53 336.136" stroke="#800180" stroke-width="1.5" stroke-linecap="round" stroke-linejoin="round"/>
<path d="M729.48 337.655C729.48 337.655 728.4 335.655 723.73 336.135" stroke="#800180" stroke-width="1.5" stroke-linecap="round" stroke-linejoin="round"/>
<path d="M715.67 316.045C715.67 316.045 708.94 307.045 698.19 311.595" stroke="#800180" stroke-width="1.5" stroke-linecap="round" stroke-linejoin="round"/>
<path d="M708.74 315.174C707.739 314.351 706.53 313.822 705.247 313.645C703.963 313.469 702.656 313.652 701.47 314.174" stroke="#800180" stroke-width="1.5" stroke-linecap="round" stroke-linejoin="round"/>
<path d="M681.49 317.786C680.413 315.92 678.754 314.46 676.767 313.627C674.78 312.794 672.575 312.636 670.49 313.176" stroke="#800180" stroke-width="1.5" stroke-linecap="round" stroke-linejoin="round"/>
<path d="M660.82 318.366C659.661 317.711 658.327 317.436 657.003 317.577C655.68 317.719 654.434 318.271 653.44 319.156" stroke="#800180" stroke-width="1.5" stroke-linecap="round" stroke-linejoin="round"/>
<path d="M643.23 330.086C643.23 330.086 640.99 331.026 640.84 335.006" stroke="#800180" stroke-width="1.5" stroke-linecap="round" stroke-linejoin="round"/>
<path d="M618.47 322.055C618.47 322.055 613.19 313.055 598.06 313.945C582.93 314.835 579.67 330.735 579.67 330.735" stroke="#800180" stroke-width="1.5" stroke-linecap="round" stroke-linejoin="round"/>
<path d="M452.05 342.965C452.05 342.965 432.05 332.785 419.74 337.625C407.43 342.465 406.94 349.625 406.94 349.625" stroke="#800180" stroke-width="1.5" stroke-linecap="round" stroke-linejoin="round"/>
<path d="M265.79 86.1953C266.298 88.1645 267.209 90.0069 268.466 91.606C269.722 93.2051 271.297 94.526 273.09 95.4853C274.773 96.504 276.746 96.9365 278.7 96.7153L276.26 92.0253C276.26 92.0253 270.67 91.9253 265.79 86.1953Z" fill="#800180"/>
</svg>
