<svg width="578" height="579" viewBox="0 0 578 579" fill="none" xmlns="http://www.w3.org/2000/svg">
<path fill-rule="evenodd" clip-rule="evenodd" d="M15.9481 305.473C10.2915 234.235 -14.428 134.234 42.7662 97.207C110.785 53.172 195.625 159.555 272.766 139.209C328.792 124.432 330.711 10.1179 388.268 6.07912C441.15 2.36832 465.582 79.2047 498.794 123.348C526.828 160.609 554.917 197.477 566.956 243.582C579.019 289.781 571.051 336.845 567.026 384.658C561.901 445.544 584.46 523.43 540.147 562.048C495.639 600.836 429.128 555.309 371.806 554.789C324.278 554.359 278.703 569.459 232.156 559.258C175.101 546.755 113.144 535.554 73.9165 489.509C32.3457 440.713 21.1786 371.345 15.9481 305.473Z" fill="#FAF7FB"/>
</svg>
