<svg width="1600" height="368" viewBox="0 0 1600 368" fill="none" xmlns="http://www.w3.org/2000/svg">
<path d="M83.0064 287.009C83.0064 287.009 72.3645 260.498 46.4386 251.871C38.6026 249.241 29.3702 248.274 18.599 250.156C-8.51651 254.902 -18.861 275.984 -19.9472 288.905C-14.3611 293.341 -12.1629 298.176 -15.3827 299.066C-18.6412 299.968 -20.4903 295.494 -19.9472 288.905C-26.4771 283.708 -37.675 279.079 -50.2695 282.032C-56.1012 283.412 -60.4588 285.436 -63.6914 287.615C-70.9843 292.554 -72.6136 298.305 -72.8463 299.285" stroke="#800180" stroke-width="1.5" stroke-miterlimit="10" stroke-linecap="round" stroke-linejoin="round"/>
<path d="M-0.228088 267.395C-0.228088 267.395 8.66817 255.88 25.7495 255.158" stroke="#800180" stroke-width="1.5" stroke-miterlimit="10" stroke-linecap="round" stroke-linejoin="round"/>
<path d="M34.1802 255.171C34.1802 255.171 42.1196 254.217 50.059 258.769" stroke="#800180" stroke-width="1.5" stroke-miterlimit="10" stroke-linecap="round" stroke-linejoin="round"/>
<path d="M59.9122 179.957C59.9122 179.957 80.1228 165.205 108.984 186.43C137.845 207.654 134.522 246.725 134.599 249.175C134.78 254.268 128.47 255.88 129.182 247.963C129.919 239.865 134.78 216.474 169.241 217.016C203.701 217.557 210.192 247.241 210.192 247.241C210.192 247.241 211.64 240.768 218.855 241.657C226.032 242.547 226.976 249.162 226.976 249.162C226.976 249.162 242.673 210.71 279.655 216.474C316.637 222.238 321.861 271.276 318.085 282.147C313.21 296.176 306.46 281.283 322.119 273.868C336.317 267.15 350.14 270.748 356.515 281.541C363.264 292.978 357.355 304.209 357.355 304.209C357.355 304.209 367.26 297.827 380.566 299.529C389.229 300.638 401.423 304.532 406.104 318.007C418.375 353.274 367.092 361.913 367.092 361.913" stroke="#800180" stroke-width="1.5" stroke-miterlimit="10" stroke-linecap="round" stroke-linejoin="round"/>
<path d="M388.828 311.303C388.828 311.303 401.642 316.164 399.651 333.43" stroke="#800180" stroke-width="1.5" stroke-miterlimit="10" stroke-linecap="round" stroke-linejoin="round"/>
<path d="M388.828 320.664C388.828 320.664 391.893 322.108 393.341 327.382" stroke="#800180" stroke-width="1.5" stroke-miterlimit="10" stroke-linecap="round" stroke-linejoin="round"/>
<path d="M340.183 276.512C340.183 276.512 353.179 281.064 353.411 291.869C353.657 302.662 348.123 308.658 348.123 308.658" stroke="#800180" stroke-width="1.5" stroke-miterlimit="10" stroke-linecap="round" stroke-linejoin="round"/>
<path d="M146.521 233.392C146.521 233.392 155.004 223.85 170.521 224.211" stroke="#800180" stroke-width="1.5" stroke-miterlimit="10" stroke-linecap="round" stroke-linejoin="round"/>
<path d="M176.973 224.443C176.973 224.443 184.408 225.643 187.654 228.802" stroke="#800180" stroke-width="1.5" stroke-miterlimit="10" stroke-linecap="round" stroke-linejoin="round"/>
<path d="M247.742 235.198C247.742 235.198 260.375 222.045 276.254 224.212" stroke="#800180" stroke-width="1.5" stroke-miterlimit="10" stroke-linecap="round" stroke-linejoin="round"/>
<path d="M285.564 226.623C285.564 226.623 293.982 227.822 300.241 236.449" stroke="#800180" stroke-width="1.5" stroke-miterlimit="10" stroke-linecap="round" stroke-linejoin="round"/>
<path d="M70.2568 184.393C70.2568 184.393 86.3812 179.596 100.088 191.111" stroke="#800180" stroke-width="1.5" stroke-miterlimit="10" stroke-linecap="round" stroke-linejoin="round"/>
<path d="M353.912 361.911C318.65 362.801 283.88 363.626 248.644 362.917C227.296 362.479 204.667 362.762 183.564 359.062C174.422 357.463 167.621 356.56 158.634 358.726C151.134 360.532 142.548 361.576 134.855 360.841C117.877 359.216 100.886 359.242 83.7528 358.533C75.335 358.185 66.9171 357.643 58.5769 357.102C49.991 356.547 41.6895 358.481 33.0001 357.605" stroke="#800180" stroke-width="1.5" stroke-miterlimit="10" stroke-linecap="round" stroke-linejoin="round"/>
<path opacity="0.2" d="M1516.97 327.288H1534.85V277.283C1534.85 277.283 1538 313.681 1548.6 326.065C1551.85 329.877 1554.78 334.339 1558.01 336.823C1565.31 342.417 1571.99 343.445 1571.99 343.445L1535.01 343.77C1535.02 343.77 1520.14 337.63 1516.97 327.288Z" fill="#800180"/>
<path opacity="0.2" d="M1588.82 339.634C1588.82 339.634 1594.46 344.421 1599.61 344.421C1604.76 344.421 1638.12 345.215 1644.08 344.421C1647.59 343.953 1656.48 336.018 1661.72 328.564C1665.41 323.322 1666.36 317.715 1666.36 317.715H1606.75C1606.75 317.715 1598.13 336.668 1588.82 339.634Z" fill="#800180"/>
<path opacity="0.2" d="M1300.44 326.651C1300.44 326.651 1304.44 324.479 1305.62 323.113C1306.81 321.747 1307.62 320.576 1307.62 320.576H1384.55H1386.37C1386.37 320.576 1383.14 334.547 1370.23 341.182C1357.32 347.803 1322.79 344.616 1316.9 343.393C1311 342.17 1303.84 336.225 1300.83 332.622C1297.83 329.019 1298.28 327.38 1298.28 327.38L1300.44 326.651Z" fill="#800180"/>
<path opacity="0.1" d="M1430.72 172.721L1446.21 160.74H1421.51C1421.51 160.74 1419.15 161.013 1418.97 163.459C1418.79 165.905 1418.97 171.446 1418.97 171.446C1418.97 171.446 1418.7 172.721 1421.14 172.721C1423.59 172.721 1430.72 172.721 1430.72 172.721Z" fill="#10E8E8"/>
<path opacity="0.2" d="M1455.12 170.548C1454.16 171.264 1454.58 172.786 1455.78 172.877C1457.8 173.033 1461.02 173.189 1466.11 173.241C1477.98 173.358 1617.05 172.76 1617.05 172.76C1617.05 172.76 1641.81 173.202 1643.02 171.667C1644.23 170.132 1658.99 142.19 1660.76 131.497C1662.53 120.804 1651.78 119.867 1649 119.815C1646.34 119.763 1532.26 119.646 1524.45 119.633C1524.18 119.633 1523.9 119.724 1523.68 119.893L1455.12 170.548Z" fill="#800180"/>
<path d="M1270.29 322.566V313.122L1284.11 313.603C1284.11 313.603 1277.56 271.495 1276.59 263.026C1275.62 254.558 1279.86 237.256 1279.86 237.256L1286.1 237.985H1326.41C1326.41 237.985 1322.4 230.193 1313.88 219.5C1305.35 208.807 1299.35 205.502 1299.35 205.502C1318.06 193.535 1338.4 187.16 1375.1 182.49C1411.8 177.82 1427.23 180.864 1427.23 180.864L1432.95 182.516C1438.64 184.142 1455.47 185.365 1455.47 185.365C1455.47 185.365 1613.13 185.86 1621.48 185.365C1629.84 184.871 1647.52 181.007 1650.77 179.733C1654.03 178.458 1656.61 174.1 1656.61 174.1C1656.61 174.1 1669.68 144.714 1673.65 128.544C1674.77 123.965 1674.3 121.103 1673.65 119.464C1669.79 109.695 1658.42 108.589 1658.42 108.589L1542.77 108.524C1542.77 108.524 1595.45 101.746 1628.75 100.706C1662.05 99.665 1704.07 103.372 1704.07 103.372L1749.5 110.5L1747.68 115.418L1703.7 111.23C1703.7 111.23 1702.25 110.475 1694.5 112.96C1686.76 115.457 1679.84 126.931 1679.84 126.931L1662.28 181.957L1678.38 168.324V162.873C1678.38 160.441 1680.92 159.777 1680.92 159.777H1705.75C1708.66 159.777 1708.83 161.208 1708.83 161.208V170.002C1708.83 172.669 1706.72 173.345 1706.72 173.345H1679.11L1668.82 182.646H1677.75H1712.87L1778 185.5C1791.51 185.5 1791.51 175.518 1791.51 175.518C1791.51 175.518 1796.83 174.23 1803.61 170.965C1810.4 167.687 1812.47 160.428 1795.02 143.92C1777.58 127.412 1750.5 115.5 1750.5 115.5L1752 112C1752 112 1764.38 116.888 1796.53 135.556C1830.21 155.094 1848.67 171.68 1848.67 171.68H1880.52C1880.52 171.68 1889 172.162 1894.57 181.359C1900.14 190.556 1899.62 200.715 1899.62 200.715V257.953H1895.62C1895.62 257.953 1895.26 252.411 1888.91 238.804C1882.55 225.197 1868.83 209.496 1852.91 211.044C1836.99 212.605 1825.07 220.566 1815.98 239.286C1806.9 258.005 1806.53 280.106 1807.44 287.183C1808.35 294.26 1807.26 298.071 1803.63 298.552C1800 299.034 1632.28 298.37 1626.7 298.5C1621.13 298.63 1620.89 293.765 1620.89 287.17C1620.89 280.575 1620.03 263.664 1617.01 250.863C1613.36 235.448 1598.73 203.915 1565.55 212.501C1532.37 221.1 1528.24 273.082 1528.24 273.082V322.709C1528.24 322.709 1454.95 322.748 1448.31 322.709C1441.67 322.67 1441.12 320.576 1438.68 317.922C1436.23 315.268 1430.5 314.943 1430.5 314.943C1430.5 314.943 1308.2 315.242 1305.6 315.424C1302.99 315.607 1301.11 318.442 1298.75 320.927C1296.38 323.412 1292.81 322.566 1292.81 322.566H1270.29Z" fill="#E7FDFD"/>
<path d="M1313.89 300.607C1313.89 300.607 1315.07 305.785 1331.24 305.785C1347.41 305.785 1453.76 305.785 1453.76 305.785C1453.76 305.785 1459.6 306.995 1464.49 301.167C1464.49 301.167 1464.48 303.248 1446.5 303.248C1428.52 303.248 1319.89 303.248 1319.89 303.248L1313.89 300.607Z" fill="white"/>
<path d="M1302.26 252.504C1302.26 252.504 1303.53 250.864 1313.89 250.864C1324.25 250.864 1475.01 250.864 1475.01 250.864C1475.01 250.864 1479.01 251.593 1479.92 254.325C1480.83 257.044 1479.92 260.231 1479.92 260.231C1479.92 260.231 1483.91 252.517 1483.91 249.069C1483.91 245.622 1479.01 244.529 1470.11 244.529C1461.22 244.529 1309.18 244.529 1309.18 244.529C1309.18 244.529 1304.8 244.698 1302.26 252.504Z" fill="white"/>
<path d="M1339.86 215.65C1339.86 215.65 1348.27 206.922 1376.19 197.386C1405.79 187.279 1428.33 185.523 1428.33 185.523C1428.33 185.523 1428.87 181.828 1422.24 182.635C1415.6 183.441 1380.12 188.658 1358.76 198.258C1337.4 207.858 1336.83 210.564 1334.44 212.541C1332.05 214.506 1332.9 218.98 1339.86 215.65Z" fill="white"/>
<path d="M1362.29 273.146V286.988H1433.68C1433.68 286.988 1435.23 285.817 1434.86 281.823C1434.5 277.83 1434.86 269.66 1434.86 269.66H1365.79C1363.86 269.66 1362.29 271.221 1362.29 273.146Z" fill="white"/>
<path d="M1455.44 233.381C1455.44 233.381 1498.56 209.419 1515.51 205.907C1532.46 202.395 1538.03 210.382 1535.97 217.276C1533.91 224.171 1524.59 229.14 1511.33 232.158C1498.08 235.202 1455.44 233.381 1455.44 233.381Z" fill="white"/>
<path d="M1427.35 178.159C1386.42 172.916 1312.55 186.068 1292.45 207.129C1272.35 228.19 1273.5 262.298 1273.5 262.298L1280.34 310.221H1271.14C1271.14 310.221 1267.99 309.493 1267.99 315.061C1267.99 320.628 1267.99 322.801 1267.99 322.801C1267.99 322.801 1267.51 324.973 1272.1 324.973C1276.7 324.973 1294.39 324.973 1294.39 324.973C1294.39 324.973 1298.27 325.22 1301.42 322.553C1304.57 319.887 1305.05 317.584 1309.16 317.584C1313.28 317.584 1430.75 317.584 1430.75 317.584C1430.75 317.584 1435.11 318.196 1437.05 320.134C1438.99 322.072 1440.93 324.986 1446.5 324.986C1452.07 324.986 1531.51 324.986 1531.51 324.986V281.082C1531.51 281.082 1531.48 243.214 1552.33 224.534C1577.28 202.212 1601.26 220.658 1610.71 243.045C1619.41 263.703 1617.97 292.66 1617.97 292.66C1617.97 292.66 1616.88 301.493 1625.42 301.493C1633.96 301.493 1805.91 301.493 1805.91 301.493C1805.91 301.493 1811.72 300.53 1811.48 293.753" stroke="#800180" stroke-width="1.5" stroke-miterlimit="10" stroke-linecap="round" stroke-linejoin="round"/>
<path d="M1277.92 233.484C1277.92 233.484 1277.44 235.435 1290.76 235.435C1304.07 235.435 1320.79 235.435 1320.79 235.435C1320.79 235.435 1303.84 211.968 1292.45 207.129" stroke="#800180" stroke-width="1.5" stroke-miterlimit="10" stroke-linecap="round" stroke-linejoin="round"/>
<path d="M1329.75 219.461H1462.71L1443.57 233.484H1329.75V224.313" stroke="#800180" stroke-width="1.5" stroke-miterlimit="10" stroke-linecap="round" stroke-linejoin="round"/>
<path d="M1497.17 233.484C1525.32 231.13 1532.4 225.64 1535.67 218.199C1538.94 210.758 1533.68 203.5 1516.42 206.01C1499.16 208.521 1453.75 233.484 1453.75 233.484H1483" stroke="#800180" stroke-width="1.5" stroke-miterlimit="10" stroke-linecap="round" stroke-linejoin="round"/>
<path d="M1301.35 260.307L1310.08 294.246C1310.08 294.246 1313.16 302.78 1319.88 302.78C1326.59 302.78 1455.38 302.78 1455.38 302.78C1455.38 302.78 1466.27 304.237 1469.36 295.339C1472.45 286.441 1480.8 257.042 1480.8 257.042C1480.8 257.042 1480.07 251.318 1474.98 251.006C1469.89 250.694 1306.42 251.006 1306.42 251.006C1306.42 251.006 1302.6 250.694 1301.33 253.959" stroke="#800180" stroke-width="1.5" stroke-miterlimit="10" stroke-linecap="round" stroke-linejoin="round"/>
<path d="M1360.39 267.02V284.269C1360.39 285.869 1361.69 287.17 1363.29 287.17H1431.95C1433.55 287.17 1434.85 285.869 1434.85 284.269V267.02C1434.85 265.42 1433.55 264.119 1431.95 264.119H1363.29C1361.69 264.119 1360.39 265.42 1360.39 267.02Z" stroke="#800180" stroke-width="1.5" stroke-miterlimit="10" stroke-linecap="round" stroke-linejoin="round"/>
<path d="M1297.9 249.055C1297.9 249.055 1289.36 249.601 1290.46 256.496C1291.55 263.39 1291.55 263.39 1291.55 263.39" stroke="#800180" stroke-width="1.5" stroke-miterlimit="10" stroke-linecap="round" stroke-linejoin="round"/>
<path d="M1292.81 268.568C1292.81 268.568 1301.29 296.042 1303.16 299.698C1304.8 302.872 1308.25 304.238 1313.88 304.056" stroke="#800180" stroke-width="1.5" stroke-miterlimit="10" stroke-linecap="round" stroke-linejoin="round"/>
<path d="M1430.5 179.29C1430.5 179.29 1441.88 182.191 1458.11 182.438C1474.35 182.686 1619.17 181.957 1621.11 182.438C1623.05 182.92 1644.36 179.537 1650.41 175.661C1656.46 171.784 1670.76 132.343 1671.49 125.565C1672.21 118.788 1667.37 112.257 1654.04 112.01C1640.72 111.763 1539.73 111.932 1528.82 112.01C1521.2 112.062 1520.1 111.763 1505.58 120.96C1491.05 130.157 1432.92 174.451 1432.92 174.451" stroke="#800180" stroke-width="1.5" stroke-miterlimit="10" stroke-linecap="round" stroke-linejoin="round"/>
<path d="M1452.54 166.946C1452.54 166.946 1515.13 120.102 1521.51 116.538C1523.34 115.51 1545.62 116.239 1569.65 116.356C1603.98 116.538 1643.97 116.512 1650.66 117.084C1658.57 117.761 1661.92 120.883 1661.59 126.88C1661.54 127.868 1660.34 136.194 1655.25 148.305C1650.23 160.273 1643.55 171.473 1643.02 171.655C1636.96 173.827 1464.15 173.229 1464.15 173.229" stroke="#800180" stroke-width="1.5" stroke-miterlimit="10" stroke-linecap="round" stroke-linejoin="round"/>
<path d="M1583.81 166.946C1583.81 166.946 1612.15 158.959 1637.57 166.946" stroke="#800180" stroke-width="1.5" stroke-miterlimit="10" stroke-linecap="round" stroke-linejoin="round"/>
<path d="M1448.3 158.932C1448.3 158.932 1447.57 157.475 1438.76 157.475C1429.94 157.475 1420.6 157.475 1420.6 157.475C1420.6 157.475 1416.6 157.93 1416.6 164.005C1416.6 170.08 1416.6 171.537 1416.6 171.537C1416.6 171.537 1416.78 174.711 1419.87 174.711C1422.95 174.711 1429.41 174.711 1429.41 174.711" stroke="#800180" stroke-width="1.5" stroke-miterlimit="10" stroke-linecap="round" stroke-linejoin="round"/>
<path d="M1420.6 164.734H1440.85" stroke="#800180" stroke-width="1.5" stroke-miterlimit="10" stroke-linecap="round" stroke-linejoin="round"/>
<path d="M1329.75 299.151L1323.33 273.381C1323.33 273.381 1319.08 263.039 1329.75 263.039C1340.41 263.039 1352.03 263.039 1352.03 263.039" stroke="#800180" stroke-width="1.5" stroke-miterlimit="10" stroke-linecap="round" stroke-linejoin="round"/>
<path d="M1440.85 264.119H1473.37" stroke="#800180" stroke-width="1.5" stroke-miterlimit="10" stroke-linecap="round" stroke-linejoin="round"/>
<path d="M1297.9 328.018C1297.9 328.018 1304.4 342.678 1322.51 344.421H1363.67C1363.67 344.421 1380.2 338.906 1386.37 321.852" stroke="#800180" stroke-width="1.5" stroke-miterlimit="10" stroke-linecap="round" stroke-linejoin="round"/>
<path d="M1391.08 324.023H1433.77" stroke="#800180" stroke-width="1.5" stroke-miterlimit="10" stroke-linecap="round" stroke-linejoin="round"/>
<path d="M1518.18 310.222V278.273C1518.18 278.273 1520.6 240.028 1542.88 218.005C1565.17 195.981 1596.65 199.611 1612.88 224.054C1629.57 249.199 1630.08 276.335 1630.32 284.556C1630.57 292.791 1633.96 293.025 1639.77 293.025C1645.59 293.025 1751.18 293.272 1764.5 292.544C1777.81 291.815 1790.17 286.976 1795.01 279.236" stroke="#800180" stroke-width="1.5" stroke-miterlimit="10" stroke-linecap="round" stroke-linejoin="round"/>
<path d="M1489.17 320.03V313.317C1489.17 313.317 1489.17 310.234 1492.62 310.234C1496.07 310.234 1501.53 310.234 1501.53 310.234C1501.53 310.234 1499.53 262.675 1512.6 237.998" stroke="#800180" stroke-width="1.5" stroke-miterlimit="10" stroke-linecap="round" stroke-linejoin="round"/>
<path d="M1538.39 202.224C1538.39 202.224 1571.63 189.515 1614.86 187.707C1658.09 185.898 1671.54 186.978 1671.54 186.978" stroke="#800180" stroke-width="1.5" stroke-miterlimit="10" stroke-linecap="round" stroke-linejoin="round"/>
<path d="M1333.33 214.023C1333.33 214.023 1336.59 208.442 1346.95 203.434C1357.32 198.426 1385.46 186.354 1423.6 182.49" stroke="#800180" stroke-width="1.5" stroke-miterlimit="10" stroke-linecap="round" stroke-linejoin="round"/>
<path d="M1462.71 165.176C1462.71 165.176 1507.7 133.435 1590.89 122.365" stroke="#800180" stroke-width="1.5" stroke-miterlimit="10" stroke-linecap="round" stroke-linejoin="round"/>
<path d="M1534.58 148.318C1534.58 148.318 1567.64 132.161 1617.96 126.893" stroke="#800180" stroke-width="1.5" stroke-miterlimit="10" stroke-linecap="round" stroke-linejoin="round"/>
<path d="M1525.67 152.129C1525.67 152.129 1518.59 155.004 1511.33 160.194" stroke="#800180" stroke-width="1.5" stroke-miterlimit="10" stroke-linecap="round" stroke-linejoin="round"/>
<path d="M1532.95 107.419C1532.95 107.419 1617 96.0008 1691.83 100.382L1750 108.001" stroke="#800180" stroke-width="1.5" stroke-miterlimit="10" stroke-linecap="round" stroke-linejoin="round"/>
<path d="M1666.67 318.301C1657.91 341.989 1641.75 344.422 1641.75 344.422C1641.75 344.422 1603.43 344.422 1599.61 344.422C1595.8 344.422 1591.44 341.638 1591.44 341.638" stroke="#800180" stroke-width="1.5" stroke-miterlimit="10" stroke-linecap="round" stroke-linejoin="round"/>
<path d="M1575.45 343.446C1596.92 343.446 1614.32 315.368 1614.32 280.732C1614.32 246.096 1596.92 218.018 1575.45 218.018C1553.99 218.018 1536.58 246.096 1536.58 280.732C1536.58 315.368 1553.99 343.446 1575.45 343.446Z" stroke="#800180" stroke-width="1.5" stroke-miterlimit="10" stroke-linecap="round" stroke-linejoin="round"/>
<path d="M1579.91 328.563C1595.91 328.563 1608.88 306.985 1608.88 280.367C1608.88 253.748 1595.91 232.17 1579.91 232.17C1563.9 232.17 1550.93 253.748 1550.93 280.367C1550.93 306.985 1563.9 328.563 1579.91 328.563Z" stroke="#800180" stroke-width="1.5" stroke-miterlimit="10" stroke-linecap="round" stroke-linejoin="round"/>
<path d="M1566.26 315.542C1561.07 309.259 1557.37 299.399 1556.32 287.951" stroke="#800180" stroke-width="1.5" stroke-miterlimit="10" stroke-linecap="round" stroke-linejoin="round"/>
<path d="M1595.8 311.105C1591.58 318.312 1585.83 322.748 1579.49 322.748C1578.84 322.748 1578.19 322.696 1577.55 322.605" stroke="#800180" stroke-width="1.5" stroke-miterlimit="10" stroke-linecap="round" stroke-linejoin="round"/>
<path d="M1600.8 263.834C1602.19 269.128 1602.97 275.047 1602.97 281.265C1602.97 287.614 1602.17 293.637 1600.72 299.022" stroke="#800180" stroke-width="1.5" stroke-miterlimit="10" stroke-linecap="round" stroke-linejoin="round"/>
<path d="M1576.03 240.249C1577.16 239.95 1578.32 239.807 1579.49 239.807C1585.23 239.807 1590.49 243.449 1594.56 249.485" stroke="#800180" stroke-width="1.5" stroke-miterlimit="10" stroke-linecap="round" stroke-linejoin="round"/>
<path d="M1556.34 274.28C1557.46 262.572 1561.37 252.529 1566.81 246.363" stroke="#800180" stroke-width="1.5" stroke-miterlimit="10" stroke-linecap="round" stroke-linejoin="round"/>
<path d="M1594.56 307.139L1581.17 293.519C1581.17 293.519 1578.81 292.244 1578.72 295.6C1578.63 298.956 1577.55 318.287 1577.55 318.287" stroke="#800180" stroke-width="1.5" stroke-miterlimit="10" stroke-linecap="round" stroke-linejoin="round"/>
<path d="M1597.34 297.421L1585.3 282.903C1585.3 282.903 1584.12 280.731 1586.05 278.545C1587.98 276.373 1597.87 264.574 1597.87 264.574" stroke="#800180" stroke-width="1.5" stroke-miterlimit="10" stroke-linecap="round" stroke-linejoin="round"/>
<path d="M1558.56 285.896L1566.26 286.625C1566.26 286.625 1569.56 287.718 1569.47 290.892C1569.37 294.066 1568.01 311.094 1568.01 311.094" stroke="#800180" stroke-width="1.5" stroke-miterlimit="10" stroke-linecap="round" stroke-linejoin="round"/>
<path d="M1558.92 275.463L1566.82 274.279C1566.82 274.279 1569.28 273.29 1569.47 271.469C1569.65 269.648 1568.55 249.875 1568.55 249.875" stroke="#800180" stroke-width="1.5" stroke-miterlimit="10" stroke-linecap="round" stroke-linejoin="round"/>
<path d="M1576.03 243.605L1578.63 264.575C1578.63 264.575 1578.9 268.114 1581.17 266.305C1583.43 264.484 1594.16 252.868 1594.16 252.868" stroke="#800180" stroke-width="1.5" stroke-miterlimit="10" stroke-linecap="round" stroke-linejoin="round"/>
<path d="M1566.26 290.02L1564.79 307.074" stroke="#800180" stroke-width="1.5" stroke-miterlimit="10" stroke-linecap="round" stroke-linejoin="round"/>
<path d="M1581.62 299.424L1590.07 308.413" stroke="#800180" stroke-width="1.5" stroke-miterlimit="10" stroke-linecap="round" stroke-linejoin="round"/>
<path d="M1564.79 254.324L1565.52 269.323" stroke="#800180" stroke-width="1.5" stroke-miterlimit="10" stroke-linecap="round" stroke-linejoin="round"/>
<path d="M1578.81 243.605C1578.81 243.605 1583.99 247.053 1587.08 254.311" stroke="#800180" stroke-width="1.5" stroke-miterlimit="10" stroke-linecap="round" stroke-linejoin="round"/>
<path d="M1592.16 274.916C1592.16 274.916 1592.61 280.093 1592.16 286.259" stroke="#800180" stroke-width="1.5" stroke-miterlimit="10" stroke-linecap="round" stroke-linejoin="round"/>
<path d="M1585.86 309.26C1585.86 309.26 1584.66 311.9 1581.14 315.543" stroke="#800180" stroke-width="1.5" stroke-miterlimit="10" stroke-linecap="round" stroke-linejoin="round"/>
<path d="M1576.9 290.019C1580.24 290.019 1582.95 285.575 1582.95 280.093C1582.95 274.612 1580.24 270.168 1576.9 270.168C1573.56 270.168 1570.85 274.612 1570.85 280.093C1570.85 285.575 1573.56 290.019 1576.9 290.019Z" stroke="#800180" stroke-width="1.5" stroke-miterlimit="10" stroke-linecap="round" stroke-linejoin="round"/>
<path d="M1576.48 273.68C1576.48 273.68 1572.73 278.584 1576.04 285.543" stroke="#800180" stroke-width="1.5" stroke-miterlimit="10" stroke-linecap="round" stroke-linejoin="round"/>
<path d="M1516.97 327.77C1516.97 327.77 1525.21 342.3 1537.68 344.42H1564.01" stroke="#800180" stroke-width="1.5" stroke-miterlimit="10" stroke-linecap="round" stroke-linejoin="round"/>
<path d="M1603.43 151.699C1603.43 151.699 1597.79 153.117 1602.6 160.922" stroke="#800180" stroke-width="1.5" stroke-miterlimit="10" stroke-linecap="round" stroke-linejoin="round"/>
<path d="M1339.68 214.024H1466.65L1463.2 217.458H1331.87L1336.23 213.113L1339.68 214.024Z" fill="white"/>
<path opacity="0.2" d="M1556.34 274.643L1566.55 274.265L1564.01 250.629C1564.01 250.642 1556.15 267.943 1556.34 274.643Z" fill="#800180"/>
<path opacity="0.2" d="M1564.01 312.395L1566.82 287.262L1558.8 286.495C1557.52 286.378 1556.45 287.471 1556.63 288.745C1557.35 294.183 1559.48 307.022 1564.01 312.395Z" fill="#800180"/>
<path opacity="0.2" d="M1578.64 297.422L1587.2 305.786C1587.2 305.786 1585.99 311.003 1582.54 314.58C1579.09 318.144 1577.55 317.715 1577.55 317.715L1578.64 297.422Z" fill="#800180"/>
<path opacity="0.2" d="M1591.19 290.019C1591.19 290.019 1592.42 283.67 1592.26 278.103C1592.1 272.535 1591.74 271.885 1591.74 271.885C1591.74 271.885 1584.32 279.248 1585.31 282.279C1586.28 285.297 1591.19 290.019 1591.19 290.019Z" fill="#800180"/>
<path opacity="0.2" d="M1576.03 243.241C1576.03 243.241 1578.5 242.383 1582.41 247.534C1586.31 252.685 1588.73 258.656 1588.73 258.656L1580.88 266.487C1580.88 266.487 1578.5 268.061 1578.11 262.637C1577.72 257.225 1576.03 243.241 1576.03 243.241Z" fill="#800180"/>
<path opacity="0.1" d="M677.79 52.056C677.79 52.056 681.86 38.206 675.45 37.446C669.04 36.686 654.72 46.006 655.45 52.896C656.18 59.786 666.13 59.496 666.13 59.496L666.58 61.366C666.58 61.366 661.74 74.586 662.21 79.796C662.68 85.006 668.84 81.046 668.84 81.046C668.84 81.046 666.67 74.476 669.74 73.416C671.626 72.7899 673.664 72.7899 675.55 73.416C680.007 72.6338 684.326 71.2055 688.37 69.176C693.93 66.116 694.18 62.006 694.18 62.006C691.007 58.2486 686.56 55.7921 681.69 55.106C678.25 54.576 676.91 54.216 676.91 54.216L677.79 52.056Z" fill="#800180"/>
<path opacity="0.1" d="M775.53 45.026C775.53 45.026 775.72 39.286 773.53 37.096C771.34 34.906 769.48 36.726 769.13 39.656C768.78 42.586 775.53 45.026 775.53 45.026Z" fill="#800180"/>
<path opacity="0.1" d="M768.91 37.0952C768.91 37.0952 770.65 32.6852 767.91 30.0952C765.17 27.5052 763.6 27.3052 763.6 27.3052C763.6 27.3052 758.18 22.7052 751.51 24.0252C744.84 25.3452 741.91 29.6152 741.91 31.5652C741.91 33.5152 736.46 34.4952 739.61 38.0552C742.76 41.6152 745.18 41.1852 749.31 39.6452C753.44 38.1052 755.75 36.8952 759.91 37.8452C762.845 38.6037 765.682 39.7046 768.36 41.1252C768.36 41.1252 767.95 38.4952 768.91 37.0952Z" fill="#800180"/>
<path opacity="0.1" d="M745 60.8945C745 60.8945 743.56 74.7045 750.61 81.1445C757.66 87.5845 760.93 85.5645 763.16 84.6545C765.39 83.7445 770.35 76.7845 771.02 70.5645C771.85 62.7645 771.02 61.8345 771.02 61.8345C771.02 61.8345 767.94 64.2245 765.23 63.2345C762.52 62.2445 761.04 61.8845 761.04 61.8845C760.969 62.1005 760.855 62.2994 760.703 62.4688C760.552 62.6381 760.367 62.774 760.16 62.868C759.953 62.9621 759.729 63.0121 759.502 63.0149C759.274 63.0178 759.049 62.9734 758.84 62.8845L757.2 62.2745C757.2 62.2745 756.51 65.6245 751.13 64.7145C745.75 63.8045 745 60.8945 745 60.8945Z" fill="#800180"/>
<path opacity="0.1" d="M872.16 31.6542C872.16 31.6542 875.24 19.4042 866.49 15.2142C857.74 11.0242 847.87 13.8242 842.58 10.9342C837.29 8.04422 840.91 4.57422 840.91 4.57422C840.91 4.57422 831.59 10.4542 833.97 16.5742C836.35 22.6942 842.49 23.8642 848.97 23.6442C855.45 23.4242 863.75 25.8442 863.75 25.8442C863.75 25.8442 863.85 39.4042 865.67 37.4942C866.789 36.1373 867.335 34.3972 867.19 32.6442C867.19 32.6442 870.67 30.0842 872.16 31.6542Z" fill="#800180"/>
<path opacity="0.1" d="M980.92 98.496C980.92 98.496 979.14 62.126 971 51.156C962.86 40.186 958.09 42.776 958.09 42.776C958.09 42.776 952.59 37.236 943.88 41.556C935.17 45.876 929.39 55.846 927.88 66.266C926.37 76.686 925.66 86.186 923.24 91.066C920.82 95.946 916.63 104.296 915.74 108.266C914.85 112.236 914.19 119.016 914.19 119.016L929.11 103.296C928.95 108.097 929.144 112.903 929.69 117.676C930.56 123.676 935.27 128.916 935.27 128.916C932.968 123.263 932.179 117.107 932.98 111.056C933.657 105.552 935.281 100.206 937.78 95.256C939.071 90.2906 939.792 85.1945 939.93 80.066C940.168 73.7637 940.766 67.4802 941.72 61.246C941.72 61.246 945.24 61.846 949.98 56.106C954.72 50.366 951.93 53.496 951.93 53.496C953.291 55.6864 955.437 57.2746 957.93 57.936C962.07 59.016 966.15 66.536 966.34 68.776C966.53 71.016 965.34 76.696 964.4 80.066C963.46 83.436 958.09 86.286 958.09 86.286C958.09 86.286 959.62 95.286 960.54 95.156C961.46 95.026 966.95 92.906 971.7 94.446C974.881 95.5352 977.966 96.89 980.92 98.496Z" fill="#800180"/>
<path d="M958.46 85.9551C958.46 85.9551 958.09 90.7251 959.07 92.9551C960.05 95.1851 960.54 95.1151 960.54 95.1151C960.54 95.1151 965.63 91.8351 973.72 95.1151C981.81 98.3951 1021.28 118.495 1025.93 130.195C1030.58 141.895 981.67 164.275 981.67 164.275" stroke="#800180" stroke-width="1.5" stroke-linecap="round" stroke-linejoin="round"/>
<path d="M967.51 119.965C967.51 119.965 1001.19 139.305 1009.19 135.215C1017.19 131.125 1003.37 127.355 978.88 155.615" stroke="#800180" stroke-width="1.5" stroke-linecap="round" stroke-linejoin="round"/>
<path d="M993.19 136.894C993.19 136.894 1009.67 127.404 1011.49 113.494" stroke="#800180" stroke-width="1.5" stroke-linecap="round" stroke-linejoin="round"/>
<path d="M1007.88 127.966C1007.88 127.966 1013.47 122.376 1015.14 115.686" stroke="#800180" stroke-width="1.5" stroke-linecap="round" stroke-linejoin="round"/>
<path d="M971.67 125.166C968.494 133.565 967.078 142.527 967.51 151.496" stroke="#800180" stroke-width="1.5" stroke-linecap="round" stroke-linejoin="round"/>
<path d="M926.67 110.055C926.67 110.055 917.18 124.705 923.74 136.895C930.3 149.085 927.84 164.795 927.84 164.795" stroke="#800180" stroke-width="1.5" stroke-linecap="round" stroke-linejoin="round"/>
<path d="M925.93 162.495C925.93 162.495 940.86 169.335 960.54 159.285" stroke="#800180" stroke-width="1.5" stroke-linecap="round" stroke-linejoin="round"/>
<path d="M939.33 160.425C945.81 161.238 952.381 159.966 958.09 156.795" stroke="#800180" stroke-width="1.5" stroke-linecap="round" stroke-linejoin="round"/>
<path d="M974.54 156.335C974.54 156.335 973.09 150.755 971.37 150.895C969.65 151.035 960.67 160.895 961.7 161.825C962.73 162.755 968.77 159.635 971.42 156.145" stroke="#800180" stroke-width="1.5" stroke-linecap="round" stroke-linejoin="round"/>
<path d="M976.81 157.544C976.81 157.544 964.26 165.684 964.44 168.474C964.62 171.264 980.07 162.474 980.07 160.674C980.07 158.874 978.91 156.614 976.81 157.544Z" stroke="#800180" stroke-width="1.5" stroke-linecap="round" stroke-linejoin="round"/>
<path d="M971.67 169.355C971.67 169.355 979.39 170.005 979.67 166.705C979.88 164.475 978.28 164.795 978.28 164.795" stroke="#800180" stroke-width="1.5" stroke-linecap="round" stroke-linejoin="round"/>
<path d="M981.34 167.295C981.628 167.426 981.887 167.615 982.1 167.849C982.313 168.083 982.475 168.359 982.578 168.658C982.681 168.958 982.722 169.275 982.698 169.591C982.675 169.907 982.587 170.214 982.44 170.495C981.56 172.235 975.93 171.405 975.93 171.405" stroke="#800180" stroke-width="1.5" stroke-linecap="round" stroke-linejoin="round"/>
<path d="M958.09 96.3359C958.09 96.3359 951.14 106.006 943.23 108.986C935.32 111.966 936.07 104.896 940.54 100.796" stroke="#800180" stroke-width="1.5" stroke-linecap="round" stroke-linejoin="round"/>
<path d="M941.21 103.016C941.21 103.016 940.09 105.866 943.58 104.756C947.07 103.646 956.58 93.7559 956.58 93.7559" stroke="#800180" stroke-width="1.5" stroke-linecap="round" stroke-linejoin="round"/>
<path d="M942.95 99.0248V82.6348" stroke="#800180" stroke-width="1.5" stroke-linecap="round" stroke-linejoin="round"/>
<path d="M941.74 76.7856C941.74 76.7856 944.6 86.7056 954.4 86.7856C962.35 86.7856 966.33 78.4356 966.33 72.1456C966.33 68.5156 966.49 52.2656 966.49 52.2656" stroke="#800180" stroke-width="1.5" stroke-linecap="round" stroke-linejoin="round"/>
<path d="M962.67 60.965C960.67 60.585 956.93 60.155 955.38 61.425C952.66 63.655 957.98 71.935 955.38 72.695C954.234 72.9555 953.036 72.8685 951.94 72.445" stroke="#800180" stroke-width="1.5" stroke-linecap="round" stroke-linejoin="round"/>
<path d="M959.77 64.7051V67.5651" stroke="#800180" stroke-width="1.5" stroke-linecap="round" stroke-linejoin="round"/>
<path d="M947.28 64.7051V67.5651" stroke="#800180" stroke-width="1.5" stroke-linecap="round" stroke-linejoin="round"/>
<path d="M949.93 61.076C948.809 60.6053 947.595 60.3985 946.381 60.4713C945.167 60.5441 943.987 60.8947 942.93 61.496" stroke="#800180" stroke-width="1.5" stroke-linecap="round" stroke-linejoin="round"/>
<path d="M948.8 76.8452C948.8 76.8452 958.44 76.5652 958.65 77.1952C958.86 77.8252 953.33 83.4952 948.8 76.8452Z" stroke="#800180" stroke-width="1.5" stroke-linecap="round" stroke-linejoin="round"/>
<path d="M914.21 118.986C914.21 118.986 913.79 107.686 921.39 94.9855C928.99 82.2855 924.67 57.3055 936.54 44.1955C948.41 31.0855 957.33 40.2855 957.33 40.2855C957.33 40.2855 960.63 35.4055 967.42 42.2355C974.21 49.0655 982.3 72.0955 982.16 88.8455" stroke="#800180" stroke-width="1.5" stroke-linecap="round" stroke-linejoin="round"/>
<path d="M937.22 60.4941C937.22 60.4941 937.79 77.8041 930.67 90.8841C923.55 103.964 924.82 108.284 924.82 108.284" stroke="#800180" stroke-width="1.5" stroke-linecap="round" stroke-linejoin="round"/>
<path d="M941.74 63.4941C941.74 63.4941 941.04 86.8041 936.54 99.4941C931.54 113.494 931.79 120.744 935.77 129.254C935.77 129.254 925.65 124.844 930.4 96.4241" stroke="#800180" stroke-width="1.5" stroke-linecap="round" stroke-linejoin="round"/>
<path d="M971 60.4355C971 60.4355 971.79 74.8055 978.4 85.6355C983.75 94.4255 983.7 98.0555 983.7 98.0555" stroke="#800180" stroke-width="1.5" stroke-linecap="round" stroke-linejoin="round"/>
<path d="M968.08 63.4941C968.08 63.4941 967.23 79.2641 975.08 93.8441" stroke="#800180" stroke-width="1.5" stroke-linecap="round" stroke-linejoin="round"/>
<path d="M949.93 47.6855C949.93 47.6855 948.8 53.8255 958.09 57.5755C965.8 60.6855 965.98 70.2155 965.98 70.2155" stroke="#800180" stroke-width="1.5" stroke-linecap="round" stroke-linejoin="round"/>
<path d="M951.55 52.9551C951.55 52.9551 949.72 60.4451 939.95 61.4951" stroke="#800180" stroke-width="1.5" stroke-linecap="round" stroke-linejoin="round"/>
<path d="M927.23 105.545C927.23 105.545 903.61 130.705 901.67 132.095" stroke="#800180" stroke-width="1.5" stroke-linecap="round" stroke-linejoin="round"/>
<path d="M903.03 130.836L893.84 126.936" stroke="#800180" stroke-width="1.5" stroke-linecap="round" stroke-linejoin="round"/>
<path d="M893.84 142.005C893.84 142.005 901.51 149.825 906.26 149.005C911.01 148.185 922.16 137.805 922.16 137.805" stroke="#800180" stroke-width="1.5" stroke-linecap="round" stroke-linejoin="round"/>
<path d="M903.61 125.965C903.61 125.965 906.4 136.595 918.67 143.415" stroke="#800180" stroke-width="1.5" stroke-linecap="round" stroke-linejoin="round"/>
<path d="M908 130.836C908 130.836 911.84 136.836 916.58 139.916" stroke="#800180" stroke-width="1.5" stroke-linecap="round" stroke-linejoin="round"/>
<path d="M923.8 143.415C923.8 143.415 939.33 137.785 954.12 138.335" stroke="#800180" stroke-width="1.5" stroke-linecap="round" stroke-linejoin="round"/>
<path d="M956.56 103.016C956.56 103.016 955.09 108.616 960.56 115.686" stroke="#800180" stroke-width="1.5" stroke-linecap="round" stroke-linejoin="round"/>
<path d="M979.74 174.096C979.74 174.096 981.36 206.476 979.74 223.776C978.12 241.076 980.11 268.426 982.74 281.266C985.37 294.106 979.74 339.266 979.74 339.266C979.74 339.266 972.91 339.456 970.95 340.386C968.99 341.316 964.44 340.386 964.44 340.386C964.44 340.386 961.79 289.876 958.09 273.386C954.39 256.896 950.09 201.106 949.61 197.196" stroke="#800180" stroke-width="1.5" stroke-linecap="round" stroke-linejoin="round"/>
<path d="M936.12 185.965C940.757 190.99 946.292 195.104 952.44 198.095" stroke="#800180" stroke-width="1.5" stroke-linecap="round" stroke-linejoin="round"/>
<path d="M924.82 167.965L895.7 198.095" stroke="#800180" stroke-width="1.5" stroke-linecap="round" stroke-linejoin="round"/>
<path d="M944.28 196.055C944.28 196.055 909.09 226.935 903.61 222.655C898.13 218.375 905.19 214.475 911.14 230.845C917.09 247.215 931.51 290.495 931.51 290.495C929.14 290.577 926.789 290.95 924.51 291.605C921.71 292.605 917.95 291.605 917.95 291.605C917.95 291.605 899.53 258.675 893.81 251.145" stroke="#800180" stroke-width="1.5" stroke-linecap="round" stroke-linejoin="round"/>
<path d="M961.74 274.754C961.74 274.754 967.33 280.144 972.16 273.074" stroke="#800180" stroke-width="1.5" stroke-linecap="round" stroke-linejoin="round"/>
<path d="M960.54 169.016C960.54 169.016 962.21 175.016 974.54 178.566" stroke="#800180" stroke-width="1.5" stroke-linecap="round" stroke-linejoin="round"/>
<path d="M979.27 341.926C979.27 341.926 982.39 353.976 980.59 364.796H936.26C936.26 364.796 934.26 362.496 937.06 361.426C944.92 358.356 957.32 352.486 961.62 349.786C964.96 347.686 965.23 342.786 965.23 342.786" stroke="#800180" stroke-width="1.5" stroke-linecap="round" stroke-linejoin="round"/>
<path d="M953.41 354.155C953.41 354.155 951.58 358.945 980.94 352.525" stroke="#800180" stroke-width="1.5" stroke-linecap="round" stroke-linejoin="round"/>
<path d="M932.16 292.855C932.16 292.855 935.29 304.855 933.49 315.725H889.15C889.15 315.725 887.15 313.425 889.95 312.345C897.82 309.285 910.21 303.415 914.52 300.705C917.86 298.615 918.12 293.705 918.12 293.705" stroke="#800180" stroke-width="1.5" stroke-linecap="round" stroke-linejoin="round"/>
<path d="M906.3 305.075C906.3 305.075 904.48 309.875 933.84 303.445" stroke="#800180" stroke-width="1.5" stroke-linecap="round" stroke-linejoin="round"/>
<path d="M942.67 79.8457C942.67 79.8457 942.67 86.1257 949.79 89.4357C955.44 92.0757 958.62 90.6557 958.62 90.6557V85.8657C958.62 85.8657 951.62 88.5257 947.26 84.5457C942.9 80.5657 942.67 79.8457 942.67 79.8457Z" fill="#800180"/>
<path d="M836.96 23.1348L836.05 46.3848C836.05 46.3848 835.05 55.5948 843.64 57.5148C852.23 59.4348 858.5 53.6648 858.5 53.6648" stroke="#800180" stroke-width="1.5" stroke-linecap="round" stroke-linejoin="round"/>
<path d="M842.83 46.9941C845.216 47.624 847.724 47.624 850.11 46.9941" stroke="#800180" stroke-width="1.5" stroke-linecap="round" stroke-linejoin="round"/>
<path d="M839.19 28.0859C839.19 28.0859 844.75 28.7959 845.05 31.4259C845.35 34.0559 842.63 39.7159 842.83 40.2159C843.03 40.7159 845.96 42.7459 845.96 42.7459" stroke="#800180" stroke-width="1.5" stroke-linecap="round" stroke-linejoin="round"/>
<path d="M852.74 34.9648V37.9948" stroke="#800180" stroke-width="1.5" stroke-linecap="round" stroke-linejoin="round"/>
<path d="M840.91 34.0547V37.0847" stroke="#800180" stroke-width="1.5" stroke-linecap="round" stroke-linejoin="round"/>
<path d="M850.11 29.3941C850.11 29.3941 854.26 28.6941 857.11 31.3941" stroke="#800180" stroke-width="1.5" stroke-linecap="round" stroke-linejoin="round"/>
<path d="M867.2 32.6051C867.2 32.6051 871.55 29.7051 874.28 34.0551C877.01 38.4051 873.17 42.6451 868.72 43.2551" stroke="#800180" stroke-width="1.5" stroke-linecap="round" stroke-linejoin="round"/>
<path d="M872.16 35.5645C872.16 35.5645 869.53 36.7845 869.22 37.9945" stroke="#800180" stroke-width="1.5" stroke-linecap="round" stroke-linejoin="round"/>
<path d="M868.72 43.2559C868.72 43.2559 866.49 63.4059 867.33 68.8959" stroke="#800180" stroke-width="1.5" stroke-linecap="round" stroke-linejoin="round"/>
<path d="M841.19 58.2656C841.19 58.2656 841.56 67.4056 840.91 69.6356" stroke="#800180" stroke-width="1.5" stroke-linecap="round" stroke-linejoin="round"/>
<path d="M863.96 26.4941C863.96 26.4941 863.05 37.9241 865.08 38.0241C867.11 38.1241 866.59 34.0841 866.59 34.0841" stroke="#800180" stroke-width="1.5" stroke-linecap="round" stroke-linejoin="round"/>
<path d="M867.2 29.3145C867.2 29.3145 866.44 26.0645 867.63 25.3145" stroke="#800180" stroke-width="1.5" stroke-linecap="round" stroke-linejoin="round"/>
<path d="M873.87 31.4255C873.87 31.4255 876.11 17.7655 866.65 12.3055C857.19 6.84547 849.2 11.0955 843.94 7.85547" stroke="#800180" stroke-width="1.5" stroke-linecap="round" stroke-linejoin="round"/>
<path d="M842.83 5.83491C842.892 4.96368 843.098 4.10878 843.44 3.30491C843.84 2.80491 828.27 10.3049 835.24 18.5749C842.21 26.8449 853.14 21.4049 862.24 25.3549" stroke="#800180" stroke-width="1.5" stroke-linecap="round" stroke-linejoin="round"/>
<path d="M847.84 11.2949C847.84 11.2949 848.49 17.4649 857.09 19.6349L865.67 21.8149" stroke="#800180" stroke-width="1.5" stroke-linecap="round" stroke-linejoin="round"/>
<path d="M842.83 10.4941C842.83 10.4941 844.04 15.9541 852.74 19.6441" stroke="#800180" stroke-width="1.5" stroke-linecap="round" stroke-linejoin="round"/>
<path d="M839.61 12.1055C840.737 13.8667 842.21 15.3806 843.94 16.5555" stroke="#800180" stroke-width="1.5" stroke-linecap="round" stroke-linejoin="round"/>
<path d="M857.07 78.6244C857.07 78.6244 871.61 68.8944 875.56 61.4944C877.69 57.4944 869.28 59.2444 869.28 59.2444" stroke="#800180" stroke-width="1.5" stroke-linecap="round" stroke-linejoin="round"/>
<path d="M854.77 78.0657C852.251 75.1928 848.956 73.1092 845.28 72.0657C838.86 70.1157 824.63 65.7157 823.93 60.9357C823.23 56.1557 839.35 65.5157 839.35 65.5157" stroke="#800180" stroke-width="1.5" stroke-linecap="round" stroke-linejoin="round"/>
<path d="M823.91 64.7051C824.091 65.6999 824.022 66.7241 823.71 67.6857C823.397 68.6474 822.851 69.5165 822.12 70.2151C819.61 72.5151 821.12 75.7251 821.12 75.7251C821.12 75.7251 827.19 74.2551 837.97 78.4051C848.75 82.5551 850.97 80.7551 850.97 80.7551" stroke="#800180" stroke-width="1.5" stroke-linecap="round" stroke-linejoin="round"/>
<path d="M877.23 61.4941C877.23 61.4941 882.23 63.1641 871.93 70.9841" stroke="#800180" stroke-width="1.5" stroke-linecap="round" stroke-linejoin="round"/>
<path d="M879.88 66.7246C879.88 66.7246 881.56 68.8946 881.28 70.9846C881 73.0746 868.35 72.1646 862.12 78.6246" stroke="#800180" stroke-width="1.5" stroke-linecap="round" stroke-linejoin="round"/>
<path d="M819.61 76.7852C819.61 76.7852 811.61 77.4052 807.33 82.6352C803.05 87.8652 799.33 92.4752 799.33 92.4752" stroke="#800180" stroke-width="1.5" stroke-linecap="round" stroke-linejoin="round"/>
<path d="M883.98 70.2148C883.98 70.2148 906.86 72.3348 910.21 74.7548" stroke="#800180" stroke-width="1.5" stroke-linecap="round" stroke-linejoin="round"/>
<path d="M915.23 64.7051C915.23 64.7051 904.67 68.2951 918.67 79.2451" stroke="#800180" stroke-width="1.5" stroke-linecap="round" stroke-linejoin="round"/>
<path d="M912.29 76.7852C912.29 76.7852 912.89 82.5452 922.16 85.9552" stroke="#800180" stroke-width="1.5" stroke-linecap="round" stroke-linejoin="round"/>
<path d="M825.19 169.495C831.403 173.932 838.836 176.339 846.47 176.385C858.67 176.195 868.16 172.665 877.47 175.635C886.78 178.605 904.47 170.425 901.65 165.635C898.83 160.845 894.4 158.875 893.84 149.135C893.28 139.395 894.77 108.665 894.58 103.135" stroke="#800180" stroke-width="1.5" stroke-linecap="round" stroke-linejoin="round"/>
<path d="M897.09 112.494C897.09 112.494 902.21 105.804 897.09 89.2441" stroke="#800180" stroke-width="1.5" stroke-linecap="round" stroke-linejoin="round"/>
<path d="M901.67 103.015C901.67 103.015 912.36 102.475 917.25 100.895" stroke="#800180" stroke-width="1.5" stroke-linecap="round" stroke-linejoin="round"/>
<path d="M910.21 80.0352C912.508 85.4116 915.707 90.3561 919.67 94.6552" stroke="#800180" stroke-width="1.5" stroke-linecap="round" stroke-linejoin="round"/>
<path d="M924.82 74.0559C924.82 74.0559 917.13 73.8759 916.16 67.5659C914.16 54.7359 917.23 35.4159 917.23 35.4159C915.459 33.7879 914.108 31.7547 913.295 29.4906C912.482 27.2265 912.229 24.7989 912.56 22.4159C913.74 14.2359 917.37 8.83586 918.12 9.11586C918.87 9.39586 920.12 14.3259 917.93 20.4659C917.93 20.4659 918.93 20.3759 919.42 23.3459" stroke="#800180" stroke-width="1.5" stroke-linecap="round" stroke-linejoin="round"/>
<path d="M931.79 47.026C931.79 46.756 930.12 38.566 930.49 33.916" stroke="#800180" stroke-width="1.5" stroke-linecap="round" stroke-linejoin="round"/>
<path d="M927.23 20.8945C924.656 22.6538 922.883 25.3614 922.3 28.4245" stroke="#800180" stroke-width="1.5" stroke-linecap="round" stroke-linejoin="round"/>
<path d="M924.26 15.2148C924.26 15.2148 930.67 16.3348 932.35 18.0948" stroke="#800180" stroke-width="1.5" stroke-linecap="round" stroke-linejoin="round"/>
<path d="M928.3 34.8446C930.419 32.429 931.807 29.4599 932.3 26.2846C933.14 20.9846 938.72 11.9646 936.21 9.72461" stroke="#800180" stroke-width="1.5" stroke-linecap="round" stroke-linejoin="round"/>
<path d="M920.72 14.7559C920.72 14.7559 927.72 -1.36411 930.08 1.63589C931.79 3.77589 926.58 13.6359 926.58 13.6359" stroke="#800180" stroke-width="1.5" stroke-linecap="round" stroke-linejoin="round"/>
<path d="M932.35 1.26507C932.527 1.14884 932.724 1.06854 932.932 1.02876C933.14 0.988973 933.353 0.990482 933.56 1.0332C933.767 1.07591 933.964 1.159 934.139 1.27771C934.314 1.39642 934.464 1.54843 934.58 1.72507C935.58 3.02507 934.58 4.98507 934.58 4.98507C934.58 4.98507 936.63 4.42507 936.35 7.98507" stroke="#800180" stroke-width="1.5" stroke-linecap="round" stroke-linejoin="round"/>
<path d="M930.43 14.3745L933.28 6.56445" stroke="#800180" stroke-width="1.5" stroke-linecap="round" stroke-linejoin="round"/>
<path d="M932.6 15.6855L935.05 10.9355" stroke="#800180" stroke-width="1.5" stroke-linecap="round" stroke-linejoin="round"/>
<path d="M842.3 139.675C842.3 139.675 830.77 164.545 836.16 167.095C841.55 169.645 868.35 163.865 878.58 164.795C888.81 165.725 891.98 167.305 889.58 158.335C887.18 149.365 882.14 133.725 882.14 133.725C882.14 133.725 874.14 136.835 860 135.375C845.86 133.915 840.83 134.695 840.83 134.695" stroke="#800180" stroke-width="1.5" stroke-linecap="round" stroke-linejoin="round"/>
<path d="M841 130.835C841 130.835 828.54 107.025 826.12 98.0547" stroke="#800180" stroke-width="1.5" stroke-linecap="round" stroke-linejoin="round"/>
<path d="M838.05 113.574C838.05 113.574 841.29 123.774 849.66 127.994" stroke="#800180" stroke-width="1.5" stroke-linecap="round" stroke-linejoin="round"/>
<path d="M836.55 109.306L834.73 103.016" stroke="#800180" stroke-width="1.5" stroke-linecap="round" stroke-linejoin="round"/>
<path d="M908 80.0352C908 80.0352 909.42 88.7952 911.4 92.4752" stroke="#800180" stroke-width="1.5" stroke-linecap="round" stroke-linejoin="round"/>
<path d="M912.29 96.3047L914.21 99.4047" stroke="#800180" stroke-width="1.5" stroke-linecap="round" stroke-linejoin="round"/>
<path d="M813.09 82.6348C813.09 82.6348 816.81 88.7048 818.3 99.0248" stroke="#800180" stroke-width="1.5" stroke-linecap="round" stroke-linejoin="round"/>
<path d="M814.77 101.955C814.77 101.955 821.7 138.755 823.91 145.825C826.12 152.895 816.35 161.265 820.68 167.965C825.01 174.665 824.81 177.445 840.91 178.565C857.01 179.685 865.45 174.475 869.22 176.335C872.99 178.195 883.66 177.395 890.33 178.725" stroke="#800180" stroke-width="1.5" stroke-linecap="round" stroke-linejoin="round"/>
<path d="M816.81 119.965L814.77 123.305" stroke="#800180" stroke-width="1.5" stroke-linecap="round" stroke-linejoin="round"/>
<path d="M823.67 177.166C823.67 177.166 817.67 189.026 819.21 189.726C820.75 190.426 833.54 197.966 834.75 196.566C835.96 195.166 832.32 186.566 838.46 188.756C844.6 190.946 843.92 197.966 845.17 198.096C846.42 198.226 858.56 199.216 868.88 195.166C879.2 191.116 894.69 183.866 900.83 185.966C900.83 185.966 894.97 179.406 894.83 178.566" stroke="#800180" stroke-width="1.5" stroke-linecap="round" stroke-linejoin="round"/>
<path d="M835.33 188.955L837.84 181.635" stroke="#800180" stroke-width="1.5" stroke-linecap="round" stroke-linejoin="round"/>
<path d="M845.84 193.075L846.67 181.635" stroke="#800180" stroke-width="1.5" stroke-linecap="round" stroke-linejoin="round"/>
<path d="M870.81 180.795L875.14 187.735" stroke="#800180" stroke-width="1.5" stroke-linecap="round" stroke-linejoin="round"/>
<path d="M851.98 188.955L852.55 194.335" stroke="#800180" stroke-width="1.5" stroke-linecap="round" stroke-linejoin="round"/>
<path d="M872.73 109.665C873.679 108.114 874.232 106.353 874.34 104.537C874.448 102.722 874.108 100.908 873.35 99.2551C872.2 96.7432 870.121 94.7753 867.55 93.7651C866.06 93.1859 864.46 92.9447 862.866 93.0588C861.271 93.173 859.722 93.6396 858.33 94.4251C857.822 94.2839 857.304 94.1836 856.78 94.1251C854.122 93.8466 851.455 94.5588 849.29 96.1251C844.53 99.4851 842.75 106.125 845.64 111.125C845.977 111.707 846.372 112.253 846.82 112.755L844.52 117.215C844.307 117.573 844.238 117.998 844.327 118.405C844.416 118.812 844.657 119.169 845 119.405C845.228 119.534 845.49 119.586 845.75 119.555C846.028 119.506 846.289 119.389 846.511 119.215C846.732 119.04 846.907 118.814 847.02 118.555L849.02 114.555C850.945 115.711 853.2 116.193 855.43 115.925C857.026 115.734 858.562 115.199 859.93 114.355C861.435 114.876 863.037 115.054 864.62 114.875C865.605 114.755 866.57 114.506 867.49 114.135C868.723 113.633 869.855 112.911 870.83 112.005L873.66 115.735C873.823 115.963 874.043 116.144 874.297 116.261C874.551 116.379 874.831 116.428 875.11 116.405C875.385 116.376 875.644 116.261 875.85 116.075C876.164 115.78 876.352 115.376 876.376 114.946C876.4 114.516 876.258 114.093 875.98 113.765L872.73 109.665ZM866.52 96.0751C868.444 96.8494 869.986 98.3514 870.81 100.255C871.247 101.243 871.483 102.308 871.504 103.388C871.525 104.468 871.329 105.541 870.93 106.545C870.86 106.725 870.78 106.905 870.7 107.075L863.41 97.7951C862.815 97.0258 862.107 96.3514 861.31 95.7951C863.029 95.2981 864.865 95.3967 866.52 96.0751ZM862.72 105.315C862.415 107.477 861.317 109.448 859.64 110.845C857.775 109.846 856.375 108.156 855.74 106.138C855.104 104.119 855.284 101.933 856.24 100.045C856.789 98.9438 857.578 97.9801 858.55 97.2251C859.618 97.7239 860.548 98.4756 861.26 99.4151C861.882 100.253 862.332 101.206 862.583 102.218C862.833 103.231 862.88 104.284 862.72 105.315ZM848.04 109.315C847.012 107.458 846.707 105.286 847.185 103.218C847.664 101.15 848.891 99.332 850.63 98.1151C851.742 97.3073 853.038 96.7884 854.4 96.6051C854.82 96.5365 855.244 96.4997 855.67 96.4951C854.982 97.2345 854.4 98.0658 853.94 98.9651L848.39 109.735C848.24 109.625 848.14 109.495 848.04 109.305V109.315ZM855.25 112.775C853.576 112.996 851.878 112.643 850.43 111.775L852.96 106.685C853.495 108.981 854.767 111.039 856.58 112.545C856.144 112.657 855.699 112.731 855.25 112.765V112.775ZM866.36 111.185C865.266 111.627 864.088 111.825 862.91 111.765C864.337 110.033 865.242 107.932 865.52 105.705C865.52 105.505 865.52 105.305 865.52 105.115L868.88 109.535C868.149 110.233 867.295 110.79 866.36 111.175V111.185Z" fill="#E4255C"/>
<path d="M861.28 81.3652C861.28 81.3652 861.78 88.9652 867.28 101.955C872.78 114.945 869.2 125.165 869.2 125.165" stroke="#800180" stroke-width="1.5" stroke-linecap="round" stroke-linejoin="round"/>
<path d="M853.6 81.3652C851.705 88.0978 851.705 95.2227 853.6 101.955C856.81 112.705 854.77 118.955 854.77 118.955" stroke="#800180" stroke-width="1.5" stroke-linecap="round" stroke-linejoin="round"/>
<path d="M893.84 188.955C893.84 188.955 893.28 219.585 893.84 227.125C894.4 234.665 892.72 248.895 892.16 254.755C891.6 260.615 890.09 295.495 888.48 305.125" stroke="#800180" stroke-width="1.5" stroke-linecap="round" stroke-linejoin="round"/>
<path d="M862.4 199.404C862.4 199.404 864.18 229.404 863.57 242.404C862.96 255.404 864.92 276.644 863.57 284.824C862.22 293.004 863.23 296.364 863.23 296.364" stroke="#800180" stroke-width="1.5" stroke-linecap="round" stroke-linejoin="round"/>
<path d="M889.37 308.055C889.37 308.055 883.61 309.055 874.3 305.125C864.99 301.195 860.14 294.125 859.87 296.335C859.6 298.545 857.17 310.335 859.87 312.515C862.57 314.695 877.65 322.755 884.87 322.935" stroke="#800180" stroke-width="1.5" stroke-linecap="round" stroke-linejoin="round"/>
<path d="M886.4 321.265C885.744 319.015 885.744 316.625 886.4 314.375C887.51 310.845 888.48 310.845 888.48 310.845C888.48 310.845 882.12 312.985 870.02 306.795" stroke="#800180" stroke-width="1.5" stroke-linecap="round" stroke-linejoin="round"/>
<path d="M871.37 249.025C871.37 249.025 881.98 252.375 887.84 249.025" stroke="#800180" stroke-width="1.5" stroke-linecap="round" stroke-linejoin="round"/>
<path d="M870.02 270.375C870.02 270.375 873.02 287.965 870.02 296.375" stroke="#800180" stroke-width="1.5" stroke-linecap="round" stroke-linejoin="round"/>
<path d="M870.02 226.285L868.44 212.895" stroke="#800180" stroke-width="1.5" stroke-linecap="round" stroke-linejoin="round"/>
<path d="M877.09 257.495C877.09 257.495 881.19 257.665 885.47 253.385" stroke="#800180" stroke-width="1.5" stroke-linecap="round" stroke-linejoin="round"/>
<path d="M852.26 200.895C852.26 200.895 842.02 226.565 841 234.655C839.98 242.745 819.33 284.355 817.09 292.855C814.85 301.355 812.16 310.855 812.16 310.855" stroke="#800180" stroke-width="1.5" stroke-linecap="round" stroke-linejoin="round"/>
<path d="M819.98 192.025C819.98 192.025 805.47 237.885 804.72 244.025C803.97 250.165 805.47 249.815 803.79 254.275C802.11 258.735 793.16 289.145 793.16 289.145" stroke="#800180" stroke-width="1.5" stroke-linecap="round" stroke-linejoin="round"/>
<path d="M793.74 304.285C796.716 307.58 800.412 310.143 804.54 311.775C811.05 314.195 813.09 312.935 813.09 314.035C813.09 315.135 809.93 319.585 809.74 321.265C809.55 322.945 807.88 325.725 805.84 324.985C803.8 324.245 793.74 319.585 793.74 319.585" stroke="#800180" stroke-width="1.5" stroke-linecap="round" stroke-linejoin="round"/>
<path d="M793.74 312.494C796.345 315.47 799.682 317.714 803.42 319.004" stroke="#800180" stroke-width="1.5" stroke-linecap="round" stroke-linejoin="round"/>
<path d="M803.42 315.725C805.05 316.374 806.72 316.918 808.42 317.355" stroke="#800180" stroke-width="1.5" stroke-linecap="round" stroke-linejoin="round"/>
<path d="M807.67 250.494C807.67 250.494 808.97 252.404 816.04 252.404" stroke="#800180" stroke-width="1.5" stroke-linecap="round" stroke-linejoin="round"/>
<path d="M807.67 241.635C807.67 241.635 809.16 242.635 814.74 243.065" stroke="#800180" stroke-width="1.5" stroke-linecap="round" stroke-linejoin="round"/>
<path d="M844.54 209.266C844.54 209.266 838.87 228.056 836.54 236.056C834.21 244.056 822.69 269.546 818.9 277.546" stroke="#800180" stroke-width="1.5" stroke-linecap="round" stroke-linejoin="round"/>
<path d="M816.81 280.895C816.81 280.895 809.74 302.195 810.12 306.795" stroke="#800180" stroke-width="1.5" stroke-linecap="round" stroke-linejoin="round"/>
<path d="M796.35 286.096C796.35 286.096 795.23 297.636 797.09 301.916" stroke="#800180" stroke-width="1.5" stroke-linecap="round" stroke-linejoin="round"/>
<path d="M867.61 321.266C867.61 321.266 868.44 359.406 868.86 360.516C869.28 361.626 898.16 360.096 899.14 360.516C900.12 360.936 902.35 343.636 886.3 342.936C870.25 342.236 870.67 352.496 870.67 352.496" stroke="#800180" stroke-width="1.5" stroke-linecap="round" stroke-linejoin="round"/>
<path d="M884.35 325.105C884.35 325.105 881.35 337.215 884.35 341.105" stroke="#800180" stroke-width="1.5" stroke-linecap="round" stroke-linejoin="round"/>
<path d="M869.49 340.775C869.49 340.775 874.23 342.775 884.35 341.095" stroke="#800180" stroke-width="1.5" stroke-linecap="round" stroke-linejoin="round"/>
<path d="M870.02 355.424C870.02 355.424 870.12 357.654 876.02 356.894C881.92 356.134 888.09 351.164 896.53 355.894" stroke="#800180" stroke-width="1.5" stroke-linecap="round" stroke-linejoin="round"/>
<path d="M879.25 345.374C882.256 344.561 885.393 344.35 888.48 344.754" stroke="#800180" stroke-width="1.5" stroke-linecap="round" stroke-linejoin="round"/>
<path d="M880.79 347.494C883.572 346.642 886.528 346.521 889.37 347.144" stroke="#800180" stroke-width="1.5" stroke-linecap="round" stroke-linejoin="round"/>
<path d="M801.74 325.105C801.74 325.105 794.99 333.815 796.56 341.105" stroke="#800180" stroke-width="1.5" stroke-linecap="round" stroke-linejoin="round"/>
<path d="M858.5 53.666C858.5 53.666 855.07 61.496 849.11 63.306C843.15 65.116 841.29 63.306 841.29 63.306L841.14 56.076C841.14 56.076 846.02 60.186 858.5 53.666Z" fill="#800180"/>
<path d="M748.81 59.4941C753.228 59.4941 756.81 55.9124 756.81 51.4941C756.81 47.0759 753.228 43.4941 748.81 43.4941C744.392 43.4941 740.81 47.0759 740.81 51.4941C740.81 55.9124 744.392 59.4941 748.81 59.4941Z" stroke="#800180" stroke-width="1.5" stroke-linecap="round" stroke-linejoin="round"/>
<path d="M767.88 59.4941C772.298 59.4941 775.88 55.9124 775.88 51.4941C775.88 47.0759 772.298 43.4941 767.88 43.4941C763.462 43.4941 759.88 47.0759 759.88 51.4941C759.88 55.9124 763.462 59.4941 767.88 59.4941Z" stroke="#800180" stroke-width="1.5" stroke-linecap="round" stroke-linejoin="round"/>
<path d="M749.28 51.2148V52.8948" stroke="#800180" stroke-width="1.5" stroke-linecap="round" stroke-linejoin="round"/>
<path d="M767.14 51.2148V52.8948" stroke="#800180" stroke-width="1.5" stroke-linecap="round" stroke-linejoin="round"/>
<path d="M758.8 54.1953C758.8 54.1953 759.05 58.9853 760.35 60.9753C761.89 63.3353 757.79 62.9753 757.09 62.6153" stroke="#800180" stroke-width="1.5" stroke-linecap="round" stroke-linejoin="round"/>
<path d="M754.02 66.8644C756.808 67.1101 759.612 67.1101 762.4 66.8644C766.67 66.4944 758.34 74.2944 754.02 66.8644Z" stroke="#800180" stroke-width="1.5" stroke-linecap="round" stroke-linejoin="round"/>
<path d="M769.09 42.3755C769.09 42.3755 768.26 41.4755 769.09 38.6855" stroke="#800180" stroke-width="1.5" stroke-linecap="round" stroke-linejoin="round"/>
<path d="M770.35 35.5449C770.35 35.5449 776.03 37.5449 775.88 43.7749" stroke="#800180" stroke-width="1.5" stroke-linecap="round" stroke-linejoin="round"/>
<path d="M769.72 34.2145C769.72 34.2145 769.09 32.4745 771.33 31.5645" stroke="#800180" stroke-width="1.5" stroke-linecap="round" stroke-linejoin="round"/>
<path d="M768.33 31.5659C768.26 31.1459 768.26 26.4059 761.7 25.0059" stroke="#800180" stroke-width="1.5" stroke-linecap="round" stroke-linejoin="round"/>
<path d="M765.81 30.8651C765.61 30.7251 761.98 24.0951 755.7 22.1451C749.42 20.1951 739.58 24.0951 741.81 32.3351" stroke="#800180" stroke-width="1.5" stroke-linecap="round" stroke-linejoin="round"/>
<path d="M739.93 32.3359C739.93 32.3359 734.93 36.4359 740.81 39.2359C750.33 43.7759 749.91 34.1459 765.01 39.0959" stroke="#800180" stroke-width="1.5" stroke-linecap="round" stroke-linejoin="round"/>
<path d="M743.98 36.0959C744.4 36.5159 746.7 38.0959 752.14 36.0959C757.58 34.0959 763.57 36.0959 763.57 36.0959" stroke="#800180" stroke-width="1.5" stroke-linecap="round" stroke-linejoin="round"/>
<path d="M750.95 30.4941C750.95 30.4941 752.77 32.3841 763.95 33.4941" stroke="#800180" stroke-width="1.5" stroke-linecap="round" stroke-linejoin="round"/>
<path d="M740.81 41.4043C740.38 42.951 740.489 44.598 741.12 46.0743" stroke="#800180" stroke-width="1.5" stroke-linecap="round" stroke-linejoin="round"/>
<path d="M761.09 61.3555C761.09 61.3555 764.54 64.3555 768.72 62.8755C772.9 61.3955 772.72 59.6055 772.72 59.6055C772.72 59.6055 775.05 74.6055 768.72 80.7055C766.78 82.5655 760.72 85.2655 760.72 85.2655C760.72 85.2655 748.1 82.6355 745.77 74.1955C744.533 69.873 744.281 65.3285 745.03 60.8955C746.174 62.1779 747.658 63.1105 749.31 63.5855C754.95 65.4955 757.12 62.5855 757.12 62.5855" stroke="#800180" stroke-width="1.5" stroke-linecap="round" stroke-linejoin="round"/>
<path d="M739.88 56.3359C739.88 56.3359 738.21 59.8459 742.67 62.8759" stroke="#800180" stroke-width="1.5" stroke-linecap="round" stroke-linejoin="round"/>
<path d="M776.35 56.3359C776.35 56.3359 776.81 60.9859 774.67 62.3359" stroke="#800180" stroke-width="1.5" stroke-linecap="round" stroke-linejoin="round"/>
<path d="M748.81 82.0059C748.81 82.0059 749.47 82.9359 748.81 85.8259" stroke="#800180" stroke-width="1.5" stroke-linecap="round" stroke-linejoin="round"/>
<path d="M768.72 82.6348C768.466 83.7086 768.597 84.8376 769.09 85.8248" stroke="#800180" stroke-width="1.5" stroke-linecap="round" stroke-linejoin="round"/>
<path d="M746.49 85.2656C746.49 85.2656 718.3 86.7456 713.28 105.096C708.26 123.446 721.93 159.586 736.72 160.846C751.51 162.106 778.72 134.616 783.47 129.306" stroke="#800180" stroke-width="1.5" stroke-linecap="round" stroke-linejoin="round"/>
<path d="M770.21 148.146C770.21 148.146 797 163.076 805.93 156.376C814.86 149.676 814.58 116.476 800.21 95.6855" stroke="#800180" stroke-width="1.5" stroke-linecap="round" stroke-linejoin="round"/>
<path d="M787.09 129.866C787.09 129.866 806.81 128.676 816.81 143.126C823.91 153.366 810.54 152.336 810.54 152.336" stroke="#800180" stroke-width="1.5" stroke-linecap="round" stroke-linejoin="round"/>
<path d="M818.94 143.826C818.94 143.826 817.37 122.766 806.49 103.016" stroke="#800180" stroke-width="1.5" stroke-linecap="round" stroke-linejoin="round"/>
<path d="M793.67 125.166C793.67 125.166 809.26 123.776 818.91 133.726" stroke="#800180" stroke-width="1.5" stroke-linecap="round" stroke-linejoin="round"/>
<path d="M776.43 115.165C775.688 113.562 774.371 112.295 772.74 111.615C771.754 111.212 770.686 111.048 769.624 111.137C768.562 111.225 767.536 111.564 766.63 112.125C766.263 112.026 765.888 111.955 765.51 111.915C763.968 111.77 762.417 112.079 761.049 112.804C759.681 113.53 758.555 114.64 757.811 115.999C757.066 117.357 756.736 118.903 756.86 120.447C756.984 121.99 757.558 123.464 758.51 124.685C758.837 125.053 759.198 125.388 759.59 125.685L758.59 128.175C759.47 127.795 760.38 127.405 761.31 127.025L761.43 126.715L761.78 126.835C764.66 125.655 767.78 124.465 770.85 123.355C771.559 122.216 771.965 120.915 772.03 119.575C772.04 119.442 772.04 119.309 772.03 119.175L774.25 121.795C774.052 122.024 773.838 122.237 773.61 122.435C774.61 122.115 775.52 121.815 776.48 121.515C776.651 121.162 776.788 120.794 776.89 120.415C777.373 118.667 777.21 116.803 776.43 115.165ZM760.49 123.495L760.22 123.205C759.591 122.395 759.183 121.435 759.038 120.419C758.892 119.403 759.013 118.367 759.39 117.413C759.766 116.458 760.385 115.618 761.184 114.975C761.984 114.332 762.937 113.908 763.95 113.745C764.25 113.745 764.55 113.685 764.85 113.675C764.4 114.233 764.033 114.853 763.76 115.515L760.49 123.495ZM765.72 124.935C764.552 125.229 763.32 125.134 762.21 124.665L763.67 120.965C764.198 122.491 765.236 123.788 766.61 124.635C766.323 124.766 766.025 124.869 765.72 124.945V124.935ZM770.23 119.495C770.14 120.931 769.536 122.287 768.53 123.315C767.194 122.759 766.13 121.7 765.569 120.365C765.007 119.031 764.993 117.53 765.53 116.185C765.841 115.397 766.331 114.692 766.96 114.125C767.733 114.447 768.418 114.948 768.96 115.585C769.864 116.685 770.321 118.084 770.24 119.505L770.23 119.495ZM775.28 119.855C775.28 119.965 775.21 120.085 775.17 120.195L770.28 114.425C769.841 113.912 769.332 113.461 768.77 113.085C769.887 112.719 771.098 112.758 772.19 113.195C773.43 113.701 774.431 114.659 774.99 115.875C775.575 117.124 775.678 118.545 775.28 119.865V119.855Z" fill="#E4255C"/>
<path d="M743.23 135.125C743.23 135.125 748.65 132.375 756.03 129.195C756.92 128.805 757.84 128.415 758.78 128.025L759.26 127.825C762.18 126.615 765.26 125.395 768.47 124.265C769.4 123.935 770.34 123.615 771.27 123.265C772.2 122.915 773.22 122.625 774.19 122.325C781.04 120.245 787.51 119.015 791.7 119.905" stroke="#800180" stroke-width="1.5" stroke-linecap="round" stroke-linejoin="round"/>
<path d="M792.81 123.076C792.81 123.076 794.95 109.336 796.91 101.956C798.87 94.5757 798.67 110.566 796.91 116.146" stroke="#800180" stroke-width="1.5" stroke-linecap="round" stroke-linejoin="round"/>
<path d="M799.79 113.635C799.79 113.635 802.12 110.235 800.72 114.445C799.859 117.019 798.604 119.445 797 121.635" stroke="#800180" stroke-width="1.5" stroke-linecap="round" stroke-linejoin="round"/>
<path d="M751.88 129.416C751.88 129.416 749.46 127.196 746.24 124.696C742.14 121.506 736.75 117.876 733.47 117.826C727.61 117.726 724.81 118.166 727.98 119.666C730.025 120.583 732.249 121.034 734.49 120.986" stroke="#800180" stroke-width="1.5" stroke-linecap="round" stroke-linejoin="round"/>
<path d="M730.49 122.285C730.49 122.285 727.14 123.125 729.74 124.425C732.34 125.725 738.2 125.105 738.2 125.105" stroke="#800180" stroke-width="1.5" stroke-linecap="round" stroke-linejoin="round"/>
<path d="M733.48 127.395C733.48 127.395 731.02 128.925 735.42 129.395C737.456 129.65 739.509 129.75 741.56 129.695" stroke="#800180" stroke-width="1.5" stroke-linecap="round" stroke-linejoin="round"/>
<path d="M738.95 131.686C738.95 131.686 735.56 134.876 743.23 133.166" stroke="#800180" stroke-width="1.5" stroke-linecap="round" stroke-linejoin="round"/>
<path d="M737.18 134.494C737.18 134.494 720.44 138.954 717.65 147.604C714.86 156.254 722.86 153.844 722.86 153.844" stroke="#800180" stroke-width="1.5" stroke-linecap="round" stroke-linejoin="round"/>
<path d="M754.35 128.154C754.35 128.154 760.49 131.884 763.93 142.364" stroke="#800180" stroke-width="1.5" stroke-linecap="round" stroke-linejoin="round"/>
<path d="M755.49 133.676C757.916 137.198 759.672 141.137 760.67 145.296" stroke="#800180" stroke-width="1.5" stroke-linecap="round" stroke-linejoin="round"/>
<path d="M777.84 137.266C776.56 142.669 776.718 148.313 778.3 153.636" stroke="#800180" stroke-width="1.5" stroke-linecap="round" stroke-linejoin="round"/>
<path d="M781.37 137.266C780.739 140.897 780.585 144.595 780.91 148.266" stroke="#800180" stroke-width="1.5" stroke-linecap="round" stroke-linejoin="round"/>
<path d="M732.79 131.305C732.79 131.405 721.09 132.475 713.56 141.105" stroke="#800180" stroke-width="1.5" stroke-linecap="round" stroke-linejoin="round"/>
<path d="M711.14 122.285C711.14 122.285 713.28 137.545 715.51 148.285" stroke="#800180" stroke-width="1.5" stroke-linecap="round" stroke-linejoin="round"/>
<path d="M738.86 118.195C738.86 118.195 736.04 114.475 728.75 108.705" stroke="#800180" stroke-width="1.5" stroke-linecap="round" stroke-linejoin="round"/>
<path d="M743.88 87.3052C743.88 87.3052 751.94 102.045 763.57 104.305C770.21 105.605 774.4 86.5352 774.4 86.5352" stroke="#800180" stroke-width="1.5" stroke-linecap="round" stroke-linejoin="round"/>
<path d="M778.3 91.2156C778.12 91.4956 773.65 108.426 765.56 108.706C757.47 108.986 743.33 98.0056 738.86 88.5156" stroke="#800180" stroke-width="1.5" stroke-linecap="round" stroke-linejoin="round"/>
<path d="M747.84 90.3747C747.84 90.3747 755.42 97.8847 763.98 95.4847C772.54 93.0847 773.14 87.3047 773.14 87.3047" stroke="#800180" stroke-width="1.5" stroke-linecap="round" stroke-linejoin="round"/>
<path d="M732.79 163.075C732.79 163.075 732.6 193.215 733.48 193.075C734.36 192.935 786.54 202.985 794.21 183.025C794.21 183.025 794.35 179.025 797 177.165C799.65 175.305 797 160.885 797 160.885" stroke="#800180" stroke-width="1.5" stroke-linecap="round" stroke-linejoin="round"/>
<path d="M735.19 187.356C735.19 187.356 777.51 196.526 795.56 184.266" stroke="#800180" stroke-width="1.5" stroke-linecap="round" stroke-linejoin="round"/>
<path d="M792.81 164.336C792.81 164.336 788.49 181.736 763.81 184.266" stroke="#800180" stroke-width="1.5" stroke-linecap="round" stroke-linejoin="round"/>
<path d="M729.75 160.885L728.75 190.655L729.75 192.025" stroke="#800180" stroke-width="1.5" stroke-linecap="round" stroke-linejoin="round"/>
<path d="M793.74 190.654C793.74 190.654 796.07 220.464 795.56 242.344C795.05 264.224 792.26 276.424 791.7 286.094C791.14 295.764 792.81 322.934 792.81 322.934" stroke="#800180" stroke-width="1.5" stroke-linecap="round" stroke-linejoin="round"/>
<path d="M772.35 210.375C771.42 210.935 760.07 221.725 760.07 221.725" stroke="#800180" stroke-width="1.5" stroke-linecap="round" stroke-linejoin="round"/>
<path d="M766.21 218.756C766.21 218.756 770.12 259.306 769.37 263.586C768.62 267.866 766.77 266.756 768.81 270.376C770.85 273.996 769 278.036 768.63 292.026C768.26 306.016 771.23 324.236 771.23 324.236" stroke="#800180" stroke-width="1.5" stroke-linecap="round" stroke-linejoin="round"/>
<path d="M769.93 220.795C769.93 220.795 772.72 254.655 773.84 261.725" stroke="#800180" stroke-width="1.5" stroke-linecap="round" stroke-linejoin="round"/>
<path d="M779.05 263.404C779.05 263.404 770.3 267.494 771.23 268.794C772.16 270.094 778.3 276.614 778.3 276.614" stroke="#800180" stroke-width="1.5" stroke-linecap="round" stroke-linejoin="round"/>
<path d="M773.84 269.355C775.637 270.444 777.376 271.625 779.05 272.895" stroke="#800180" stroke-width="1.5" stroke-linecap="round" stroke-linejoin="round"/>
<path d="M773.84 275.494C773.84 275.494 771.05 285.494 772.35 292.854C773.65 300.214 773.84 322.934 773.84 322.934" stroke="#800180" stroke-width="1.5" stroke-linecap="round" stroke-linejoin="round"/>
<path d="M791.58 271.125L782.02 290.935" stroke="#800180" stroke-width="1.5" stroke-linecap="round" stroke-linejoin="round"/>
<path d="M791.58 194.336L781.09 203.126" stroke="#800180" stroke-width="1.5" stroke-linecap="round" stroke-linejoin="round"/>
<path d="M737 198.305L747.42 203.125" stroke="#800180" stroke-width="1.5" stroke-linecap="round" stroke-linejoin="round"/>
<path d="M731.23 185.295C731.23 185.295 731.61 198.655 731.23 204.055C730.85 209.455 729.5 232.705 729.23 238.055C728.96 243.405 730.65 253.525 729.72 255.375C728.79 257.225 728.72 262.615 728.72 262.615" stroke="#800180" stroke-width="1.5" stroke-linecap="round" stroke-linejoin="round"/>
<path d="M735.19 201.824C735.19 201.824 732.09 216.144 732.78 229.164C733.47 242.184 733.57 253.164 732.78 254.654C731.99 256.144 730.08 267.304 730.08 267.304" stroke="#800180" stroke-width="1.5" stroke-linecap="round" stroke-linejoin="round"/>
<path d="M761.93 221.725C761.93 221.725 750.77 259.865 752.26 263.405C753.75 266.945 739.05 273.825 739.05 273.825" stroke="#800180" stroke-width="1.5" stroke-linecap="round" stroke-linejoin="round"/>
<path d="M748.72 271.125L740.16 306.005" stroke="#800180" stroke-width="1.5" stroke-linecap="round" stroke-linejoin="round"/>
<path d="M767.47 196.055V203.125" stroke="#800180" stroke-width="1.5" stroke-linecap="round" stroke-linejoin="round"/>
<path d="M769.93 325.105C769.93 325.105 772.93 331.495 793.74 326.475V338.375C793.74 338.375 780.21 343.585 772 338.375" stroke="#800180" stroke-width="1.5" stroke-linecap="round" stroke-linejoin="round"/>
<path d="M769.93 327.586V334.286C769.93 334.286 772.26 338.956 784.44 337.446" stroke="#800180" stroke-width="1.5" stroke-linecap="round" stroke-linejoin="round"/>
<path d="M728.75 329.824C728.75 329.824 717.65 325.544 717.28 327.584C716.91 329.624 718.52 331.734 723.02 333.104" stroke="#800180" stroke-width="1.5" stroke-linecap="round" stroke-linejoin="round"/>
<path d="M718.21 333.916C718.21 333.916 713.56 341.206 725.84 341.916" stroke="#800180" stroke-width="1.5" stroke-linecap="round" stroke-linejoin="round"/>
<path opacity="0.1" d="M793.31 341.975H774.72V362.155H822.44C822.44 362.155 822.76 356.095 819.04 354.455C815.32 352.815 795.21 348.235 793.83 346.125C793.425 345.522 793.167 344.832 793.077 344.111C792.987 343.391 793.067 342.659 793.31 341.975Z" fill="#10E8E8"/>
<path d="M792.79 338.895C792.79 338.895 792.44 343.415 793.31 345.605C794.18 347.795 817.63 353.675 820.22 354.885C822.81 356.095 822.41 361.685 822.41 361.685L774.72 362.155V341.975" stroke="#800180" stroke-width="1.5" stroke-linecap="round" stroke-linejoin="round"/>
<path d="M793.31 345.605H775.1" stroke="#800180" stroke-width="1.5" stroke-linecap="round" stroke-linejoin="round"/>
<path d="M814.46 353.395C814.46 353.395 807.95 355.065 806.46 354.545C804.97 354.025 792.28 348.955 792.4 348.375C792.52 347.795 794.22 346.375 794.22 346.375" stroke="#800180" stroke-width="1.5" stroke-linecap="round" stroke-linejoin="round"/>
<path d="M800.38 348.816C800.23 348.766 797.23 350.506 797.23 350.506" stroke="#800180" stroke-width="1.5" stroke-linecap="round" stroke-linejoin="round"/>
<path d="M806 350.586L801.74 352.686" stroke="#800180" stroke-width="1.5" stroke-linecap="round" stroke-linejoin="round"/>
<path d="M822.01 358.984H775.44" stroke="#800180" stroke-width="1.5" stroke-linecap="round" stroke-linejoin="round"/>
<path d="M771.61 83.4941C771.61 83.4941 784.86 84.0541 788.61 85.2641C792.36 86.4741 799.91 94.1941 798.89 94.5141C797.87 94.8341 789.96 89.6341 789.96 89.6341" stroke="#800180" stroke-width="1.5" stroke-linecap="round" stroke-linejoin="round"/>
<path d="M776.49 86.9352C779.329 89.5188 782.468 91.7515 785.84 93.5852C790.12 95.6852 792.26 99.9152 793.98 98.5852C795.7 97.2552 786.16 86.5352 786.16 86.5352" stroke="#800180" stroke-width="1.5" stroke-linecap="round" stroke-linejoin="round"/>
<path d="M744.59 82.0059C744.59 82.0059 729.74 85.3559 718.44 90.2359C710.764 93.738 703.469 98.0205 696.67 103.016" stroke="#800180" stroke-width="1.5" stroke-linecap="round" stroke-linejoin="round"/>
<path d="M951.33 352.495C951.33 352.495 940.2 317.355 914.67 316.495C889.14 315.635 885.08 334.495 885.08 334.495" stroke="#800180" stroke-width="1.5" stroke-linecap="round" stroke-linejoin="round"/>
<path d="M931.61 362.154H659.61" stroke="#800180" stroke-width="1.5" stroke-linecap="round" stroke-linejoin="round"/>
<path d="M985.74 360.936H1248.54" stroke="#800180" stroke-width="1.5" stroke-linecap="round" stroke-linejoin="round"/>
<path d="M1261 360.936H1523.8" stroke="#800180" stroke-width="1.5" stroke-linecap="round" stroke-linejoin="round"/>
<path d="M652.72 362.154H413" stroke="#800180" stroke-width="1.5" stroke-linecap="round" stroke-linejoin="round"/>
<path d="M670.95 106.756C670.95 106.756 652.54 125.166 656.44 134.496C660.34 143.826 663.53 142.306 663.44 154.956" stroke="#800180" stroke-width="1.5" stroke-linecap="round" stroke-linejoin="round"/>
<path d="M696.67 101.165H693.67C693.67 101.165 684.37 114.005 676.18 113.445C667.99 112.885 674.51 104.445 674.51 104.445L674.44 86.6152" stroke="#800180" stroke-width="1.5" stroke-linecap="round" stroke-linejoin="round"/>
<path d="M696.67 104.395C696.67 104.395 701.47 129.245 709.28 125.255C706.745 134.55 705.002 144.044 704.07 153.635" stroke="#800180" stroke-width="1.5" stroke-linecap="round" stroke-linejoin="round"/>
<path d="M665.19 138.496C665.19 138.496 677.09 131.496 692.35 138.496" stroke="#800180" stroke-width="1.5" stroke-linecap="round" stroke-linejoin="round"/>
<path d="M670.95 104.395C670.95 104.395 657.37 100.625 652.16 125.255C646.95 149.885 643.61 156.795 646.16 166.655C648.375 174.301 651.047 181.808 654.16 189.135" stroke="#800180" stroke-width="1.5" stroke-linecap="round" stroke-linejoin="round"/>
<path d="M661.23 149.545C661.23 149.545 658.17 158.475 658.98 164.335C659.723 168.708 660.868 173.002 662.4 177.165" stroke="#800180" stroke-width="1.5" stroke-linecap="round" stroke-linejoin="round"/>
<path d="M688.79 92.8945L692.35 100.015" stroke="#800180" stroke-width="1.5" stroke-linecap="round" stroke-linejoin="round"/>
<path d="M747.84 78.5547C748.9 81.784 750.968 84.5881 753.74 86.5547C758.49 90.0147 760.33 90.6847 760.97 90.7547C761.61 90.8247 765.15 88.9247 767.14 85.2547C769.13 81.5847 769.09 80.3147 769.09 80.3147L760.69 85.2547C760.69 85.2547 750.31 81.9047 747.84 78.5547Z" fill="#800180"/>
<path d="M678.35 86.0942C679.746 88.2814 681.694 90.0618 683.997 91.2558C686.301 92.4497 688.878 93.0148 691.47 92.8942C696.35 92.7142 698.69 87.5942 699.31 80.8942C699.41 79.8242 701.07 80.4942 701.84 78.8142C702.1 78.2442 701.4 77.8942 700.84 77.2142C698.75 74.5642 699.16 71.4342 699.06 70.5842C698.727 67.798 698.203 65.0382 697.49 62.3242" stroke="#800180" stroke-width="1.5" stroke-linecap="round" stroke-linejoin="round"/>
<path d="M664.44 176.494C664.44 176.494 654.44 188.654 649.74 201.864" stroke="#800180" stroke-width="1.5" stroke-linecap="round" stroke-linejoin="round"/>
<path d="M660.67 156.235C660.67 156.235 670.07 155.365 674.4 158.105" stroke="#800180" stroke-width="1.5" stroke-linecap="round" stroke-linejoin="round"/>
<path d="M676.16 162.795V156.105C676.16 156.105 687.74 152.425 692.35 153.635" stroke="#800180" stroke-width="1.5" stroke-linecap="round" stroke-linejoin="round"/>
<path d="M690.57 160.005C691.23 159.445 694.72 154.135 694.72 154.135C694.72 154.135 705.19 155.005 705.19 156.135C704.837 158.387 704.369 160.62 703.79 162.825" stroke="#800180" stroke-width="1.5" stroke-linecap="round" stroke-linejoin="round"/>
<path d="M701.14 163.355H689.56" stroke="#800180" stroke-width="1.5" stroke-linecap="round" stroke-linejoin="round"/>
<path d="M661.51 158.096L662.4 163.356H670.95" stroke="#800180" stroke-width="1.5" stroke-linecap="round" stroke-linejoin="round"/>
<path d="M661.51 168.515L662.4 165.445" stroke="#800180" stroke-width="1.5" stroke-linecap="round" stroke-linejoin="round"/>
<path d="M677.56 165.494C677.56 165.494 676.21 180.844 678.77 188.384" stroke="#800180" stroke-width="1.5" stroke-linecap="round" stroke-linejoin="round"/>
<path d="M694.9 72.7949V75.3049" stroke="#800180" stroke-width="1.5" stroke-linecap="round" stroke-linejoin="round"/>
<path d="M692.07 69.9346C693.352 69.2146 694.854 68.9904 696.29 69.3046" stroke="#800180" stroke-width="1.5" stroke-linecap="round" stroke-linejoin="round"/>
<path d="M698.77 84.4942C698.77 84.4942 694.9 83.6242 694.9 84.4242C694.9 84.7742 695.25 86.6042 697.9 87.2942" stroke="#800180" stroke-width="1.5" stroke-linecap="round" stroke-linejoin="round"/>
<path d="M677.35 74.055C677.35 74.055 668.63 69.935 668.14 77.195C667.65 84.455 675.88 85.715 675.88 85.715" stroke="#800180" stroke-width="1.5" stroke-linecap="round" stroke-linejoin="round"/>
<path d="M670.95 76.2145C670.95 76.2145 671.95 73.3545 676.44 76.2145" stroke="#800180" stroke-width="1.5" stroke-linecap="round" stroke-linejoin="round"/>
<path d="M672.73 78.0547C672.374 78.9196 672.374 79.8898 672.73 80.7547C673.27 81.9447 674.94 83.2347 676.21 82.8947" stroke="#800180" stroke-width="1.5" stroke-linecap="round" stroke-linejoin="round"/>
<path d="M679.16 72.7944C679.58 72.6544 690.85 71.0544 694.16 61.9844C694.16 61.9844 698.33 62.6144 700.77 67.9144C703.21 73.2144 699.43 74.3844 699.43 74.3844" stroke="#800180" stroke-width="1.5" stroke-linecap="round" stroke-linejoin="round"/>
<path d="M701.39 69.5453C701.39 69.5453 699.39 51.7753 678.39 52.3353C678.39 52.3353 686.5 35.2153 674.39 35.6853C662.28 36.1553 652.17 49.2953 656.44 56.3353C659.23 60.9353 666.13 59.4753 666.13 59.4753C666.13 59.4753 668.13 53.4753 675.79 50.5653" stroke="#800180" stroke-width="1.5" stroke-linecap="round" stroke-linejoin="round"/>
<path d="M666.77 60.9355C666.77 60.9355 654.12 88.0255 670.95 85.7155" stroke="#800180" stroke-width="1.5" stroke-linecap="round" stroke-linejoin="round"/>
<path d="M669.09 58.4941C668.13 61.652 667.54 64.9104 667.33 68.2041" stroke="#800180" stroke-width="1.5" stroke-linecap="round" stroke-linejoin="round"/>
<path d="M674.33 55.3055C677.202 54.6742 680.178 54.6742 683.05 55.3055" stroke="#800180" stroke-width="1.5" stroke-linecap="round" stroke-linejoin="round"/>
<path d="M694.18 61.9849C692.768 60.0915 690.919 58.5681 688.79 57.5449" stroke="#800180" stroke-width="1.5" stroke-linecap="round" stroke-linejoin="round"/>
<path d="M666.58 55.306C666.58 55.306 667.07 51.616 673.7 49.166" stroke="#800180" stroke-width="1.5" stroke-linecap="round" stroke-linejoin="round"/>
<path d="M649.74 192.025C649.74 192.025 654.36 226.195 658.84 243.405C663.32 260.615 663 262.935 666.23 271.125C669.46 279.315 671.14 281.015 674.35 292.025C677.56 303.035 684.26 322.935 684.26 322.935" stroke="#800180" stroke-width="1.5" stroke-linecap="round" stroke-linejoin="round"/>
<path d="M700.16 322.496C700.16 322.496 689.27 326.086 684.63 325.126C680.44 324.256 682.21 321.936 682.21 321.936" stroke="#800180" stroke-width="1.5" stroke-linecap="round" stroke-linejoin="round"/>
<path d="M681.36 325.824C682.085 326.769 682.684 327.804 683.14 328.904C683.55 330.014 683.04 331.104 684.26 331.584C687.14 332.734 695.05 331.304 700.16 328.234V324.234" stroke="#800180" stroke-width="1.5" stroke-linecap="round" stroke-linejoin="round"/>
<path d="M699.61 320.146C699.61 320.146 699.33 297.446 694.02 283.356C688.71 269.266 687.02 273.446 686.77 261.726C686.52 250.006 684.26 207.586 684.26 207.586" stroke="#800180" stroke-width="1.5" stroke-linecap="round" stroke-linejoin="round"/>
<path d="M674.35 195.494C674.77 196.434 686.49 210.944 692.35 214.294" stroke="#800180" stroke-width="1.5" stroke-linecap="round" stroke-linejoin="round"/>
<path d="M689.56 216.055C689.56 216.055 708.91 257.265 709.28 265.915C709.65 274.565 714.28 300.135 722.99 314.695" stroke="#800180" stroke-width="1.5" stroke-linecap="round" stroke-linejoin="round"/>
<path d="M699.61 174.295C699.61 174.295 711.26 188.575 720.26 193.075" stroke="#800180" stroke-width="1.5" stroke-linecap="round" stroke-linejoin="round"/>
<path d="M705.19 165.494C705.19 165.494 715.19 181.024 720.26 204.934C725.33 228.844 725.84 264.754 731.4 279.074C735.797 290.849 738.377 303.224 739.05 315.774" stroke="#800180" stroke-width="1.5" stroke-linecap="round" stroke-linejoin="round"/>
<path d="M727.13 262.654C725.375 273.044 725.928 283.693 728.75 293.844" stroke="#800180" stroke-width="1.5" stroke-linecap="round" stroke-linejoin="round"/>
<path d="M667.86 275.045C667.86 275.045 673.56 278.125 678.77 275.045" stroke="#800180" stroke-width="1.5" stroke-linecap="round" stroke-linejoin="round"/>
<path d="M686.77 261.725C686.082 268.913 685.832 276.136 686.02 283.355" stroke="#800180" stroke-width="1.5" stroke-linecap="round" stroke-linejoin="round"/>
<path d="M701.14 181.635L712.22 194.335" stroke="#800180" stroke-width="1.5" stroke-linecap="round" stroke-linejoin="round"/>
<path d="M659.79 188.336L654.02 203.126" stroke="#800180" stroke-width="1.5" stroke-linecap="round" stroke-linejoin="round"/>
<path d="M722.99 317.355C722.91 317.265 719.99 318.565 726.13 319.025C732.27 319.485 740.63 316.745 741.05 317.355C741.47 317.965 741.61 320.845 738.12 321.915" stroke="#800180" stroke-width="1.5" stroke-linecap="round" stroke-linejoin="round"/>
<path d="M724.16 321.916C724.16 321.916 721.1 326.066 727.44 327.036C733.78 328.006 743.7 326.936 741.26 322.936" stroke="#800180" stroke-width="1.5" stroke-linecap="round" stroke-linejoin="round"/>
<path d="M678.77 216.055V240.595" stroke="#800180" stroke-width="1.5" stroke-linecap="round" stroke-linejoin="round"/>
<path d="M689.56 284.895C689.56 284.895 695 289.355 695.35 312.515" stroke="#800180" stroke-width="1.5" stroke-linecap="round" stroke-linejoin="round"/>
<path d="M680.91 162.345C682.009 162.345 682.9 161.454 682.9 160.355C682.9 159.256 682.009 158.365 680.91 158.365C679.811 158.365 678.92 159.256 678.92 160.355C678.92 161.454 679.811 162.345 680.91 162.345Z" stroke="#800180" stroke-width="1.5" stroke-linecap="round" stroke-linejoin="round"/>
<path d="M681.43 170.505C682.529 170.505 683.42 169.614 683.42 168.515C683.42 167.416 682.529 166.525 681.43 166.525C680.331 166.525 679.44 167.416 679.44 168.515C679.44 169.614 680.331 170.505 681.43 170.505Z" stroke="#800180" stroke-width="1.5" stroke-linecap="round" stroke-linejoin="round"/>
<path d="M681.43 178.445C682.529 178.445 683.42 177.554 683.42 176.455C683.42 175.356 682.529 174.465 681.43 174.465C680.331 174.465 679.44 175.356 679.44 176.455C679.44 177.554 680.331 178.445 681.43 178.445Z" stroke="#800180" stroke-width="1.5" stroke-linecap="round" stroke-linejoin="round"/>
<path d="M682.02 186.255C683.119 186.255 684.01 185.364 684.01 184.265C684.01 183.166 683.119 182.275 682.02 182.275C680.921 182.275 680.03 183.166 680.03 184.265C680.03 185.364 680.921 186.255 682.02 186.255Z" stroke="#800180" stroke-width="1.5" stroke-linecap="round" stroke-linejoin="round"/>
<path d="M699.61 331.705C699.61 331.705 704.19 349.355 704.17 356.265C704.17 361.265 703.72 362.155 703.72 362.155" stroke="#800180" stroke-width="1.5" stroke-linecap="round" stroke-linejoin="round"/>
<path d="M690.4 333.105L691 338.475" stroke="#800180" stroke-width="1.5" stroke-linecap="round" stroke-linejoin="round"/>
<path d="M660.54 361.706C659.61 355.496 662.77 354.866 672.05 353.126C677.41 352.202 682.408 349.81 686.49 346.216C686.49 346.216 694.4 353.396 702.79 345.766" stroke="#800180" stroke-width="1.5" stroke-linecap="round" stroke-linejoin="round"/>
<path d="M660.99 357.676H703.79" stroke="#800180" stroke-width="1.5" stroke-linecap="round" stroke-linejoin="round"/>
<path d="M678.36 351.615L680.63 354.375" stroke="#800180" stroke-width="1.5" stroke-linecap="round" stroke-linejoin="round"/>
<path d="M681.84 349.916L684.26 352.996" stroke="#800180" stroke-width="1.5" stroke-linecap="round" stroke-linejoin="round"/>
<path d="M684.26 348.305L687.67 351.095" stroke="#800180" stroke-width="1.5" stroke-linecap="round" stroke-linejoin="round"/>
<path d="M692.91 348.305C692.91 348.305 691.91 338.475 687.67 337.745C682.38 336.845 686.49 341.055 686.49 346.215" stroke="#800180" stroke-width="1.5" stroke-linecap="round" stroke-linejoin="round"/>
<path d="M730.4 329.166L733.09 339.496C733.09 339.496 728.72 350.796 730.95 361.706" stroke="#800180" stroke-width="1.5" stroke-linecap="round" stroke-linejoin="round"/>
<path d="M740.16 328.115L742.4 341.095" stroke="#800180" stroke-width="1.5" stroke-linecap="round" stroke-linejoin="round"/>
<path d="M737.47 350.494C737.47 350.494 733.09 342.774 736.35 341.964C739.61 341.154 744.44 341.964 744.91 344.884" stroke="#800180" stroke-width="1.5" stroke-linecap="round" stroke-linejoin="round"/>
<path d="M744.91 345.436L750.67 353.736C750.67 353.736 760.84 354.816 762.58 357.676C764.32 360.536 763.42 362.156 763.42 362.156" stroke="#800180" stroke-width="1.5" stroke-linecap="round" stroke-linejoin="round"/>
<path d="M730.32 357.676H762.02" stroke="#800180" stroke-width="1.5" stroke-linecap="round" stroke-linejoin="round"/>
<path d="M747.84 349.666L743.23 351.456" stroke="#800180" stroke-width="1.5" stroke-linecap="round" stroke-linejoin="round"/>
<path d="M749.52 352.064L745.54 354.374" stroke="#800180" stroke-width="1.5" stroke-linecap="round" stroke-linejoin="round"/>
<path d="M745.54 347.494L740.91 348.814" stroke="#800180" stroke-width="1.5" stroke-linecap="round" stroke-linejoin="round"/>
<path d="M730.77 346.375C730.77 346.375 731.33 348.605 735.14 346.375" stroke="#800180" stroke-width="1.5" stroke-linecap="round" stroke-linejoin="round"/>
<path d="M771.16 340.695L751.23 349.915" stroke="#800180" stroke-width="1.5" stroke-linecap="round" stroke-linejoin="round"/>
<path d="M764.21 356.055H772" stroke="#800180" stroke-width="1.5" stroke-linecap="round" stroke-linejoin="round"/>
<path d="M759.49 346.096L762.67 350.586" stroke="#800180" stroke-width="1.5" stroke-linecap="round" stroke-linejoin="round"/>
<path d="M762.67 344.545L766.21 348.815" stroke="#800180" stroke-width="1.5" stroke-linecap="round" stroke-linejoin="round"/>
<path d="M766.21 342.984L769.93 347.494" stroke="#800180" stroke-width="1.5" stroke-linecap="round" stroke-linejoin="round"/>
<path d="M711.19 361.705V355.495C711.19 355.495 712.68 347.355 723.42 347.135" stroke="#800180" stroke-width="1.5" stroke-linecap="round" stroke-linejoin="round"/>
<path d="M711.74 356.055H727.44" stroke="#800180" stroke-width="1.5" stroke-linecap="round" stroke-linejoin="round"/>
<path opacity="0.1" d="M730.32 349.665L736.32 348.155C736.32 348.155 733.75 345.505 737.1 344.545C740.45 343.585 744.45 345.245 744.45 345.245L750.87 353.245C750.87 353.245 760.71 356.065 762.03 357.695C763.35 359.325 730.33 357.695 730.33 357.695C730.33 357.695 729.6 352.015 730.32 349.665Z" fill="#10E8E8"/>
<path opacity="0.1" d="M660.38 357.676H704.17C704.401 355.472 704.246 353.246 703.71 351.096C702.81 347.896 703.51 348.156 703.51 348.156C703.51 348.156 701.98 351.336 695.7 351.326C691.751 351.238 687.919 349.966 684.7 347.676C684.7 347.676 681.7 350.676 672.43 352.676C663.16 354.676 660.38 355.666 660.38 357.676Z" fill="#10E8E8"/>
<path opacity="0.1" d="M686.67 346.686C686.67 346.686 683.35 338.486 684.97 338.896C686.59 339.306 690.97 341.226 692.23 344.546C693.49 347.866 693.23 349.206 693.23 349.206L686.67 346.686Z" fill="#10E8E8"/>
<path opacity="0.1" d="M954.55 249.025C954.55 249.025 957.41 267.585 958.74 276.725C960.07 285.865 961.91 303.975 961.91 303.975C961.91 303.975 961.65 283.865 967.33 279.975C973.01 276.085 976.91 266.975 975.61 261.735C974.31 256.495 956.57 256.335 954.55 249.025Z" fill="#10E8E8"/>
<path opacity="0.1" d="M967.51 93.6851C967.1 93.6051 955.44 94.3451 961.62 100.175C967.8 106.005 1007.24 113.085 1001.45 109.695C995.66 106.305 981.91 96.7551 967.51 93.6851Z" fill="#10E8E8"/>
<path opacity="0.1" d="M1023.51 125.166C1023.51 125.166 1009.99 146.616 1016.05 144.596C1022.11 142.576 1026.93 134.286 1026.24 130.936C1025.78 128.831 1024.84 126.859 1023.51 125.166Z" fill="#10E8E8"/>
<path opacity="0.1" d="M647.51 145.655C647.51 145.655 643.84 158.255 645.92 165.445C648 172.635 652.26 139.075 647.51 145.655Z" fill="#10E8E8"/>
<path opacity="0.1" d="M661.51 255.414C661.51 255.414 665.34 273.544 669.51 275.724C673.68 277.904 679.41 276.424 680.01 272.894C680.61 269.364 660.3 250.394 661.51 255.414Z" fill="#10E8E8"/>
<path opacity="0.1" d="M724.84 238.045C724.84 238.045 720.26 280.145 723.42 284.895C726.58 289.645 725.15 271.255 726.48 267.305C727.81 263.355 727.48 261.655 726.99 257.475C726.5 253.295 724.84 238.045 724.84 238.045Z" fill="#10E8E8"/>
<path opacity="0.1" d="M689.56 284.895C689.56 284.895 690.87 321.025 693.29 317.265C695.71 313.505 696.12 288.795 689.56 284.895Z" fill="#10E8E8"/>
<path opacity="0.1" d="M761.28 223.975C761.28 223.975 734.99 275.905 739.05 273.825C743.11 271.745 750.97 268.455 751.7 263.825C752.43 259.195 761.28 223.975 761.28 223.975Z" fill="#10E8E8"/>
<path opacity="0.1" d="M795.58 241.265C795.58 241.265 793.74 234.095 789.28 249.775C784.82 265.455 775.51 298.645 780.16 295.905C784.81 293.165 791.08 279.175 792.38 273.825C793.68 268.475 795.58 241.265 795.58 241.265Z" fill="#10E8E8"/>
<path opacity="0.1" d="M723.18 91.6349C720.015 93.9535 717.399 96.9398 715.517 100.382C713.635 103.825 712.533 107.639 712.29 111.555C711.52 124.875 738.74 87.1049 734.8 87.3449C730.86 87.5849 723.18 91.6349 723.18 91.6349Z" fill="#10E8E8"/>
<path opacity="0.1" d="M674.49 103.545C674.49 103.545 655.56 124.125 655.9 129.015C656.24 133.905 678.05 115.375 675.19 113.465C674.29 112.875 673.28 112.185 672.3 111.515C670.15 110.055 674.49 103.545 674.49 103.545Z" fill="#10E8E8"/>
<path opacity="0.1" d="M725.67 153.635C725.67 153.635 732.54 162.055 738.22 160.885C743.9 159.715 752.45 156.885 762.78 148.235C773.11 139.585 739.27 158.235 733.78 156.105C728.29 153.975 724.22 150.755 725.67 153.635Z" fill="#10E8E8"/>
<path opacity="0.1" d="M781.37 153.634C781.37 153.634 796.12 158.734 801.17 158.464C806.22 158.194 809.73 151.854 810.51 148.234C811.29 144.614 778.72 151.584 781.37 153.634Z" fill="#10E8E8"/>
<path opacity="0.1" d="M795.56 163.356C795.56 163.356 795.98 158.546 788.16 164.276C780.34 170.006 754.3 185.726 761.93 187.356C769.56 188.986 792.21 178.576 795.56 163.356Z" fill="#10E8E8"/>
<path opacity="0.1" d="M840.49 143.824C840.49 143.824 832.21 164.684 836.16 167.094C840.11 169.504 865.37 165.144 870.81 164.914C876.25 164.684 886.17 167.204 885.61 165.484C885.05 163.764 870.35 159.184 852.55 160.994C834.75 162.804 842.26 143.964 840.49 143.824Z" fill="#10E8E8"/>
<path opacity="0.1" d="M804.72 244.034L804.67 250.494C804.67 250.494 802.95 256.904 807.74 254.554C812.53 252.204 822.9 260.034 826.16 245.244C829.42 230.454 812.81 220.755 809.53 226.165C806.25 231.575 804.72 244.034 804.72 244.034Z" fill="#10E8E8"/>
<path opacity="0.1" d="M867.61 238.044C867.61 238.044 869.84 264.334 878.21 263.404C886.58 262.474 895.14 247.054 893.84 235.044C892.54 223.034 867.23 224.784 867.61 238.044Z" fill="#10E8E8"/>
<path opacity="0.1" d="M881.28 343.115C881.28 343.115 874.06 344.005 872.46 347.495C871.337 350.251 870.519 353.122 870.02 356.055C870.02 356.055 872.02 357.875 876.02 356.895C880.02 355.915 889.18 353.235 892.1 354.195C894.738 355.191 897.31 356.353 899.8 357.675C899.8 357.675 900.81 340.925 881.28 343.115Z" fill="#10E8E8"/>
<path opacity="0.1" d="M870.37 74.7557C870.37 74.7557 919.88 78.9357 907.05 74.0557C898.801 71.1038 889.992 70.0543 881.28 70.9857C881.28 70.9857 881.16 71.7057 877.45 72.4857C875.025 73.0238 872.655 73.7836 870.37 74.7557Z" fill="#10E8E8"/>
<path opacity="0.1" d="M803.48 87.3445C803.48 87.3445 795.98 97.3444 807.33 94.5344C818.68 91.7244 826.27 76.7845 818.94 76.4245C811.61 76.0645 803.48 87.3445 803.48 87.3445Z" fill="#10E8E8"/>
<path d="M433.31 356.144C433.31 356.144 429.69 338.194 451.55 329.944C473.41 321.694 485.14 339.494 485.86 343.044C486.58 346.594 479.06 346.304 484.56 335.584C490.06 324.864 506.71 329.214 507.56 339.784" stroke="#800180" stroke-width="1.5" stroke-linecap="round" stroke-linejoin="round"/>
<path d="M508.88 350.215C508.88 350.215 503.82 341.375 511.2 335.295C518.58 329.215 527.27 334.865 525.39 336.455C523.51 338.045 513.95 322.705 527.56 311.845C542.61 299.845 556.37 314.595 557.38 320.095C557.499 317.735 558.405 315.483 559.955 313.699C561.506 311.915 563.609 310.702 565.93 310.255C577.51 307.505 580.26 317.635 579.54 321.255C578.82 324.875 575.75 324.345 576.93 319.665C578.11 314.985 586.05 310.975 592.57 316.045C599.78 321.655 596.76 331.245 594.88 329.655C593 328.065 597.2 323.885 603.13 327.785C609.06 331.685 605.45 340.365 605.45 340.365C606.197 338.875 607.277 337.577 608.608 336.573C609.938 335.569 611.482 334.885 613.12 334.575C620.36 332.985 622.53 336.895 620.94 339.065C619.35 341.235 617.18 337.475 617.32 331.245C617.46 325.015 621.37 314.145 636.32 310.685C653.81 306.635 667.67 315.495 667.67 330.085" stroke="#800180" stroke-width="1.5" stroke-linecap="round" stroke-linejoin="round"/>
<path d="M440.01 350.214C441.095 346.444 443.091 342.999 445.822 340.183C448.553 337.366 451.935 335.265 455.67 334.064" stroke="#800180" stroke-width="1.5" stroke-linecap="round" stroke-linejoin="round"/>
<path d="M454.23 338.495C454.23 338.495 459.94 333.065 470.33 335.125" stroke="#800180" stroke-width="1.5" stroke-linecap="round" stroke-linejoin="round"/>
<path d="M490.93 332.766C490.93 332.766 498.21 330.916 502.44 336.136" stroke="#800180" stroke-width="1.5" stroke-linecap="round" stroke-linejoin="round"/>
<path d="M514.49 337.655C514.49 337.655 515.58 335.655 520.25 336.135" stroke="#800180" stroke-width="1.5" stroke-linecap="round" stroke-linejoin="round"/>
<path d="M528.28 316.045C528.28 316.045 535.02 307.045 545.77 311.595" stroke="#800180" stroke-width="1.5" stroke-linecap="round" stroke-linejoin="round"/>
<path d="M535.23 315.175C536.232 314.35 537.443 313.82 538.728 313.643C540.014 313.467 541.323 313.651 542.51 314.175" stroke="#800180" stroke-width="1.5" stroke-linecap="round" stroke-linejoin="round"/>
<path d="M562.49 317.786C563.567 315.92 565.226 314.46 567.213 313.627C569.2 312.794 571.405 312.636 573.49 313.176" stroke="#800180" stroke-width="1.5" stroke-linecap="round" stroke-linejoin="round"/>
<path d="M583.16 318.366C584.319 317.711 585.653 317.436 586.977 317.577C588.3 317.719 589.546 318.271 590.54 319.156" stroke="#800180" stroke-width="1.5" stroke-linecap="round" stroke-linejoin="round"/>
<path d="M600.75 330.086C600.75 330.086 602.99 331.026 603.13 335.006" stroke="#800180" stroke-width="1.5" stroke-linecap="round" stroke-linejoin="round"/>
<path d="M625.5 322.055C625.5 322.055 630.79 313.055 645.92 313.945C661.05 314.835 664.3 330.735 664.3 330.735" stroke="#800180" stroke-width="1.5" stroke-linecap="round" stroke-linejoin="round"/>
<path d="M1222.67 356.144C1222.67 356.144 1226.29 338.194 1204.42 329.944C1182.55 321.694 1170.84 339.494 1170.11 343.044C1169.38 346.594 1176.92 346.304 1171.41 335.584C1165.9 324.864 1149.26 329.214 1148.41 339.784" stroke="#800180" stroke-width="1.5" stroke-linecap="round" stroke-linejoin="round"/>
<path d="M1147.09 350.215C1147.09 350.215 1152.16 341.375 1144.78 335.295C1137.4 329.215 1128.7 334.865 1130.59 336.455C1132.48 338.045 1142.02 322.705 1128.42 311.845C1113.36 299.845 1099.6 314.595 1098.59 320.095C1098.47 317.736 1097.57 315.485 1096.02 313.701C1094.47 311.918 1092.37 310.704 1090.05 310.255C1078.47 307.505 1075.72 317.635 1076.44 321.255C1077.16 324.875 1080.23 324.345 1079.05 319.665C1077.87 314.985 1069.92 310.975 1063.41 316.045C1056.2 321.655 1059.21 331.245 1061.09 329.655C1062.97 328.065 1058.78 323.885 1052.84 327.785C1046.9 331.685 1050.52 340.365 1050.52 340.365C1049.78 338.874 1048.7 337.575 1047.36 336.57C1046.03 335.566 1044.49 334.883 1042.85 334.575C1035.61 332.985 1033.44 336.895 1035.03 339.065C1036.62 341.235 1038.8 337.475 1038.65 331.245C1038.5 325.015 1034.65 314.145 1019.65 310.685C1002.13 306.635 988.23 315.465 988.23 330.085" stroke="#800180" stroke-width="1.5" stroke-linecap="round" stroke-linejoin="round"/>
<path d="M1215.97 350.214C1214.89 346.447 1212.89 343.003 1210.17 340.187C1207.44 337.37 1204.06 335.268 1200.33 334.064" stroke="#800180" stroke-width="1.5" stroke-linecap="round" stroke-linejoin="round"/>
<path d="M1201.75 338.495C1201.75 338.495 1196.03 333.065 1185.64 335.125" stroke="#800180" stroke-width="1.5" stroke-linecap="round" stroke-linejoin="round"/>
<path d="M1165.04 332.766C1165.04 332.766 1157.77 330.916 1153.53 336.136" stroke="#800180" stroke-width="1.5" stroke-linecap="round" stroke-linejoin="round"/>
<path d="M1141.48 337.655C1141.48 337.655 1140.4 335.655 1135.73 336.135" stroke="#800180" stroke-width="1.5" stroke-linecap="round" stroke-linejoin="round"/>
<path d="M1127.67 316.045C1127.67 316.045 1120.94 307.045 1110.19 311.595" stroke="#800180" stroke-width="1.5" stroke-linecap="round" stroke-linejoin="round"/>
<path d="M1120.74 315.174C1119.74 314.351 1118.53 313.822 1117.25 313.645C1115.96 313.469 1114.66 313.652 1113.47 314.174" stroke="#800180" stroke-width="1.5" stroke-linecap="round" stroke-linejoin="round"/>
<path d="M1093.49 317.786C1092.41 315.92 1090.75 314.46 1088.77 313.627C1086.78 312.794 1084.58 312.636 1082.49 313.176" stroke="#800180" stroke-width="1.5" stroke-linecap="round" stroke-linejoin="round"/>
<path d="M1072.82 318.366C1071.66 317.711 1070.33 317.436 1069 317.577C1067.68 317.719 1066.43 318.271 1065.44 319.156" stroke="#800180" stroke-width="1.5" stroke-linecap="round" stroke-linejoin="round"/>
<path d="M1055.23 330.086C1055.23 330.086 1052.99 331.026 1052.84 335.006" stroke="#800180" stroke-width="1.5" stroke-linecap="round" stroke-linejoin="round"/>
<path d="M1030.47 322.055C1030.47 322.055 1025.19 313.055 1010.06 313.945C994.93 314.835 991.67 330.735 991.67 330.735" stroke="#800180" stroke-width="1.5" stroke-linecap="round" stroke-linejoin="round"/>
<path d="M864.05 342.965C864.05 342.965 844.05 332.785 831.74 337.625C819.43 342.465 818.94 349.625 818.94 349.625" stroke="#800180" stroke-width="1.5" stroke-linecap="round" stroke-linejoin="round"/>
<path d="M677.79 86.1953C678.298 88.1645 679.209 90.0069 680.466 91.606C681.722 93.2051 683.297 94.526 685.09 95.4853C686.773 96.504 688.746 96.9365 690.7 96.7153L688.26 92.0253C688.26 92.0253 682.67 91.9253 677.79 86.1953Z" fill="#800180"/>
</svg>
