<svg width="1479" height="296" viewBox="0 0 1479 296" fill="none" xmlns="http://www.w3.org/2000/svg">
<path opacity="0.5" d="M1400.15 262.799C1385.32 264.561 1373.45 268.187 1365.29 271.373C1361.2 272.97 1358.04 274.448 1355.89 275.541C1354.83 276.082 1354 276.532 1353.46 276.844C1353.18 277 1352.97 277.119 1352.83 277.202C1352.76 277.248 1352.71 277.276 1352.67 277.303C1352.65 277.312 1352.64 277.321 1352.62 277.331C1352.62 277.331 1352.62 277.34 1352.62 277.34C1352.62 277.34 1352.61 277.34 1353.13 278.111C1353.64 278.882 1353.64 278.882 1353.64 278.882C1353.64 278.882 1353.64 278.882 1353.64 278.873C1353.65 278.873 1353.66 278.864 1353.68 278.855C1353.71 278.836 1353.77 278.809 1353.82 278.772C1353.96 278.698 1354.16 278.579 1354.42 278.432C1354.95 278.129 1355.74 277.698 1356.79 277.165C1358.88 276.101 1361.99 274.641 1366 273.071C1374.05 269.932 1385.75 266.351 1400.4 264.616L1400.15 262.799ZM1440.22 280.81C1442.12 279.984 1442.93 277.872 1442.62 275.614C1442.3 273.319 1440.82 270.721 1437.92 268.417C1432.12 263.818 1420.54 260.375 1400.16 262.799L1400.39 264.616C1420.54 262.22 1431.51 265.7 1436.73 269.831C1439.34 271.896 1440.5 274.118 1440.75 275.853C1440.99 277.624 1440.31 278.744 1439.45 279.121L1440.22 280.81ZM1449.56 272.594C1442.7 273.631 1438.59 275.908 1436.92 277.799C1436.49 278.276 1436.17 278.781 1436.05 279.295C1435.92 279.828 1435.98 280.479 1436.51 280.938C1436.99 281.351 1437.63 281.425 1438.2 281.37C1438.78 281.315 1439.46 281.122 1440.21 280.801L1439.43 279.121C1438.8 279.396 1438.33 279.515 1438.03 279.543C1437.68 279.571 1437.68 279.488 1437.77 279.561C1437.92 279.69 1437.85 279.828 1437.88 279.717C1437.91 279.598 1438.03 279.341 1438.35 278.983C1439.61 277.551 1443.21 275.394 1449.85 274.393L1449.56 272.594ZM1475.95 289.017C1478.15 286.143 1478.54 283.389 1477.43 280.948C1476.34 278.597 1473.93 276.743 1470.99 275.375C1465.1 272.63 1456.49 271.547 1449.57 272.594L1449.86 274.411C1456.45 273.42 1464.66 274.466 1470.18 277.037C1472.95 278.322 1474.89 279.929 1475.71 281.7C1476.48 283.389 1476.34 285.446 1474.44 287.924L1475.95 289.017ZM1366.07 292.367C1366 293.285 1366 293.285 1366 293.285H1366.01C1366.02 293.285 1366.04 293.285 1366.07 293.285C1366.12 293.285 1366.19 293.295 1366.29 293.304C1366.48 293.313 1366.76 293.331 1367.14 293.359C1367.88 293.405 1368.97 293.478 1370.36 293.561C1373.14 293.726 1377.12 293.946 1381.92 294.185C1391.52 294.653 1404.4 295.177 1417.54 295.36C1430.67 295.544 1444.1 295.388 1454.76 294.516C1460.09 294.084 1464.76 293.46 1468.37 292.606C1470.17 292.175 1471.74 291.688 1473.01 291.11C1474.25 290.541 1475.29 289.861 1475.93 289.017L1474.41 287.924C1474.04 288.42 1473.33 288.934 1472.2 289.448C1471.09 289.953 1469.65 290.412 1467.91 290.825C1464.44 291.651 1459.88 292.257 1454.6 292.689C1444.03 293.552 1430.68 293.708 1417.57 293.524C1404.45 293.341 1391.59 292.826 1382.01 292.358C1377.22 292.12 1373.25 291.899 1370.47 291.734C1369.08 291.651 1368 291.587 1367.26 291.532C1366.89 291.505 1366.61 291.486 1366.42 291.477C1366.33 291.468 1366.25 291.468 1366.2 291.459C1366.17 291.459 1366.16 291.459 1366.15 291.459C1366.14 291.459 1366.14 291.459 1366.14 291.459C1366.14 291.459 1366.14 291.459 1366.07 292.367ZM1352.61 277.349C1352.16 277.624 1352.04 278.184 1352.31 278.616C1352.6 279.047 1353.17 279.167 1353.62 278.9L1352.61 277.349ZM1400.28 263.717L1400.39 264.626L1400.28 263.717ZM1366.14 291.459C1365.62 291.422 1365.16 291.808 1365.13 292.312C1365.09 292.817 1365.48 293.258 1366 293.295L1366.14 291.459Z" fill="#10E8E8"/>
<path opacity="0.1" d="M1454.78 293.598C1486.59 291.569 1470.34 278.478 1458.78 278.726C1447.24 278.965 1435.96 282.573 1435.96 282.573C1435.96 282.573 1438.25 269.473 1410.72 269.133C1385.23 268.812 1342.26 279.8 1352.1 288.393C1361.95 296.967 1422.96 295.617 1454.78 293.598Z" fill="#10E8E8"/>
<path opacity="0.5" d="M130.549 6.63346C157.952 8.64388 173.322 25.8839 176.498 45.5842L178.266 45.2813C174.946 24.7089 158.876 6.86296 130.675 4.79746L130.549 6.63346ZM113.743 23.2676C112.595 23.1299 111.338 22.0834 110.531 20.3117C109.741 18.5766 109.481 16.3459 110.181 14.1978C111.536 10.0301 116.785 5.62366 130.549 6.62428L130.675 4.79746C116.632 3.76929 110.235 8.23078 108.476 13.6194C107.615 16.2541 107.938 18.9714 108.898 21.092C109.849 23.1758 111.518 24.865 113.537 25.0945L113.743 23.2676ZM84.6355 2.00673C101.513 2.91555 110.019 8.79994 113.582 14.1243C115.376 16.8049 115.905 19.3202 115.69 21.0369C115.582 21.8906 115.304 22.4965 114.963 22.8454C114.649 23.1758 114.254 23.3411 113.743 23.2768L113.537 25.1036C114.604 25.2322 115.556 24.865 116.255 24.1214C116.937 23.4053 117.332 22.3955 117.467 21.2664C117.745 19.0081 117.036 16.043 115.062 13.087C111.087 7.13836 101.953 1.10709 84.7252 0.179912L84.6355 2.00673ZM43.2085 25.1587C43.8814 12.9952 57.4392 0.547112 84.6265 2.00673L84.7163 0.170732C57.1521 -1.30725 42.1676 11.3612 41.405 25.0577L43.2085 25.1587ZM52.6657 35.9544C52.89 36.5695 52.8452 36.8999 52.7913 37.0376C52.7465 37.1478 52.6478 37.2763 52.3427 37.3589C51.6698 37.5425 50.3867 37.3406 48.8972 36.496C45.999 34.8436 42.8855 31.0431 43.2175 25.1587L41.4229 25.0486C41.0461 31.7316 44.6082 36.1472 48.0268 38.0933C49.6958 39.0389 51.4813 39.4887 52.8093 39.1307C53.5092 38.9379 54.1462 38.4973 54.4513 37.7353C54.7474 37.0009 54.6666 36.1564 54.3526 35.3026L52.6657 35.9544ZM16.0032 33.1178C24.294 28.6104 33.0244 27.977 39.9424 29.1979C43.4059 29.8038 46.3848 30.8779 48.619 32.1263C50.8891 33.4024 52.235 34.7885 52.6657 35.9544L54.3436 35.3118C53.6886 33.5217 51.8761 31.8601 49.4804 30.5198C47.0488 29.152 43.8725 28.0229 40.2475 27.3895C32.9975 26.1134 23.8453 26.7744 15.1598 31.5021L16.0032 33.1178ZM13.4819 60.7955C9.06728 59.5287 6.07936 57.7018 4.27584 55.5996C2.49027 53.5249 1.83527 51.1473 2.16726 48.6412C2.83124 43.5371 7.62267 37.6894 16.0122 33.1178L15.1687 31.4929C6.58184 36.1655 1.17129 42.4079 0.390662 48.3933C-0.00413731 51.4319 0.803402 54.3328 2.92994 56.8114C5.03853 59.2624 8.38535 61.2361 13.0063 62.5672L13.4819 60.7955ZM168.172 61.6768C168.136 60.7588 168.136 60.7588 168.136 60.7588C168.136 60.7588 168.136 60.7588 168.127 60.7588C168.127 60.7588 168.118 60.7588 168.109 60.7588C168.091 60.7588 168.064 60.7588 168.037 60.7588C167.974 60.7588 167.875 60.768 167.741 60.768C167.481 60.7771 167.095 60.7955 166.592 60.8139C165.587 60.8506 164.107 60.9057 162.223 60.9699C158.445 61.0984 153.026 61.282 146.476 61.484C133.366 61.8879 115.699 62.3745 97.4665 62.6958C79.2339 63.0171 60.4451 63.1823 45.0838 62.9344C37.4031 62.8151 30.5928 62.5948 25.1374 62.2368C19.6551 61.8787 15.6353 61.4014 13.4819 60.7863L12.9973 62.5581C15.3572 63.2374 19.5654 63.7239 25.0297 64.0728C30.5211 64.4308 37.3672 64.6511 45.0569 64.7704C60.4451 65.0091 79.2519 64.8531 97.4934 64.5318C115.735 64.2105 133.411 63.7239 146.529 63.32C153.088 63.118 158.508 62.9344 162.285 62.8059C164.179 62.7417 165.65 62.6866 166.664 62.6499C167.167 62.6315 167.552 62.6131 167.813 62.604C167.938 62.5948 168.037 62.5948 168.109 62.5948C168.145 62.5948 168.163 62.5948 168.181 62.5948C168.189 62.5948 168.198 62.5948 168.198 62.5948C168.198 62.5948 168.198 62.5948 168.207 62.5948C168.198 62.5948 168.198 62.5948 168.172 61.6768ZM176.507 45.5842C176.588 46.0799 177.046 46.4196 177.539 46.337C178.033 46.2544 178.356 45.7862 178.275 45.2813L176.507 45.5842ZM84.6804 1.08873L84.7252 0.170732L84.6804 1.08873ZM42.3112 25.1036L43.2085 25.1587L42.3112 25.1036ZM168.198 62.5948C168.692 62.5764 169.078 62.1541 169.06 61.6401C169.042 61.1352 168.629 60.7404 168.127 60.7588L168.198 62.5948Z" fill="#10E8E8"/>
<path opacity="0.1" d="M166.379 61.7505C166.379 61.7505 30.6733 66.2578 19.05 62.6042C7.43572 58.9414 9.67095 42.2888 26.0419 36.3769C42.4127 30.465 56.6289 38.4149 56.9865 39.5165C56.9865 39.5165 43.584 21.5512 68.5025 11.802C93.4299 2.05286 113.663 19.3755 113.663 19.3755C113.663 19.3755 119.958 6.2573 147.854 18.6411C175.758 31.025 189.411 59.7859 166.379 61.7505Z" fill="#10E8E8"/>
</svg>
