<svg width="1248" height="939" viewBox="0 0 1248 939" fill="none" xmlns="http://www.w3.org/2000/svg">
<path fill-rule="evenodd" clip-rule="evenodd" d="M1086.98 -122.13C1010.28 -221.835 1031.03 -411.298 910.398 -446.961C793.179 -481.617 676.919 -361.079 599.953 -266.118C537.828 -189.467 608.612 -48.9926 534.789 16.4684C426.57 112.43 209.912 28.4001 131.068 149.659C64.5908 251.897 125.83 422.319 222.902 496.136C325.745 574.342 484.143 456.238 602.466 508.13C704.097 552.7 704.38 766.673 814.813 755.723C926.643 744.635 927.639 569.19 981.481 470.549C1012.16 414.343 1022.02 350.093 1063.06 300.934C1136.34 213.143 1305.32 189.024 1311.77 74.8512C1317.51 -26.6761 1148.98 -41.527 1086.98 -122.13Z" fill="#FAF7FB"/>
</svg>
