<svg width="866" height="1091" viewBox="0 0 866 1091" fill="none" xmlns="http://www.w3.org/2000/svg">
<path fill-rule="evenodd" clip-rule="evenodd" d="M919.109 829.021C994.016 791.7 983.335 678.732 1036.36 613.981C1122.38 508.934 1313.15 472.931 1321.67 337.421C1329.59 211.329 1190.25 106.974 1070.81 65.785C962.457 28.4191 854.75 111.445 743.245 137.947C675.549 154.037 615.493 181.521 546.481 190.407C405.955 208.502 226.505 110.428 132.649 216.57C48.7275 311.477 156.068 462.561 201.123 580.974C239.714 682.399 273.775 803.989 372.931 848.079C469.574 891.052 571.777 796.473 677.476 792.785C760.913 789.873 844.384 866.251 919.109 829.021Z" fill="#FAF7FB"/>
</svg>
