<svg width="1409" height="608" viewBox="0 0 1409 608" fill="none" xmlns="http://www.w3.org/2000/svg">
<path opacity="0.5" d="M1330.15 1.68785C1315.32 3.45041 1303.45 7.07652 1295.29 10.262C1291.2 11.8593 1288.04 13.3373 1285.89 14.4297C1284.83 14.9713 1284 15.4211 1283.46 15.7333C1283.18 15.8893 1282.97 16.0087 1282.83 16.0913C1282.76 16.1372 1282.71 16.1647 1282.67 16.1923C1282.65 16.2014 1282.64 16.2106 1282.62 16.2198C1282.62 16.2198 1282.62 16.229 1282.62 16.229C1282.62 16.229 1282.61 16.229 1283.13 17.0001C1283.64 17.7712 1283.64 17.7712 1283.64 17.7712C1283.64 17.7712 1283.64 17.7712 1283.64 17.762C1283.65 17.762 1283.66 17.7529 1283.68 17.7437C1283.71 17.7253 1283.77 17.6978 1283.82 17.6611C1283.96 17.5876 1284.16 17.4683 1284.42 17.3214C1284.95 17.0185 1285.74 16.587 1286.79 16.0546C1288.88 14.9897 1291.99 13.5301 1296 11.9603C1304.05 8.82072 1315.75 5.24052 1330.4 3.5055L1330.15 1.68785ZM1370.22 19.699C1372.12 18.8728 1372.93 16.7614 1372.62 14.5031C1372.3 12.2081 1370.82 9.6102 1367.92 7.30602C1362.12 2.70683 1350.54 -0.735667 1330.16 1.68785L1330.39 3.5055C1350.54 1.10951 1361.51 4.58873 1366.73 8.71974C1369.34 10.7852 1370.5 13.0068 1370.75 14.7418C1370.99 16.5136 1370.31 17.6335 1369.45 18.0099L1370.22 19.699ZM1379.56 11.4829C1372.7 12.5203 1368.59 14.7969 1366.92 16.688C1366.49 17.1653 1366.17 17.6702 1366.05 18.1843C1365.92 18.7168 1365.98 19.3685 1366.51 19.8275C1366.99 20.2406 1367.63 20.3141 1368.2 20.259C1368.78 20.2039 1369.46 20.0111 1370.21 19.6898L1369.43 18.0099C1368.8 18.2853 1368.33 18.4046 1368.03 18.4322C1367.68 18.4597 1367.68 18.3771 1367.77 18.4505C1367.92 18.5791 1367.85 18.7168 1367.88 18.6066C1367.91 18.4873 1368.03 18.2302 1368.35 17.8722C1369.61 16.4401 1373.21 14.2828 1379.85 13.2822L1379.56 11.4829ZM1405.95 27.9059C1408.15 25.0326 1408.54 22.2786 1407.43 19.8367C1406.34 17.4866 1403.93 15.6323 1400.99 14.2645C1395.1 11.5196 1386.49 10.4364 1379.57 11.4829L1379.86 13.3006C1386.45 12.3091 1394.66 13.3556 1400.18 15.926C1402.95 17.2112 1404.89 18.8177 1405.71 20.5895C1406.48 22.2786 1406.34 24.3349 1404.44 26.8135L1405.95 27.9059ZM1296.07 31.2566C1296 32.1746 1296 32.1746 1296 32.1746H1296.01C1296.02 32.1746 1296.04 32.1746 1296.07 32.1746C1296.12 32.1746 1296.19 32.1838 1296.29 32.193C1296.48 32.2022 1296.76 32.2205 1297.14 32.2481C1297.88 32.294 1298.97 32.3674 1300.36 32.4501C1303.14 32.6153 1307.12 32.8356 1311.92 33.0743C1321.52 33.5425 1334.4 34.0657 1347.54 34.2493C1360.67 34.4329 1374.1 34.2769 1384.76 33.4048C1390.09 32.9733 1394.76 32.3491 1398.37 31.4953C1400.17 31.0639 1401.74 30.5773 1403.01 29.999C1404.25 29.4298 1405.29 28.7505 1405.93 27.9059L1404.41 26.8135C1404.04 27.3092 1403.33 27.8233 1402.2 28.3374C1401.09 28.8423 1399.65 29.3013 1397.91 29.7144C1394.44 30.5406 1389.88 31.1465 1384.6 31.5779C1374.03 32.4409 1360.68 32.5969 1347.57 32.4133C1334.45 32.2297 1321.59 31.7156 1312.01 31.2475C1307.22 31.0088 1303.25 30.7885 1300.47 30.6232C1299.08 30.5406 1298 30.4763 1297.26 30.4213C1296.89 30.3937 1296.61 30.3754 1296.42 30.3662C1296.33 30.357 1296.25 30.357 1296.2 30.3478C1296.17 30.3478 1296.16 30.3478 1296.15 30.3478C1296.14 30.3478 1296.14 30.3478 1296.14 30.3478C1296.14 30.3478 1296.14 30.3478 1296.07 31.2566ZM1282.61 16.2382C1282.16 16.5136 1282.04 17.0735 1282.31 17.505C1282.6 17.9365 1283.17 18.0558 1283.62 17.7896L1282.61 16.2382ZM1330.28 2.60585L1330.39 3.51467L1330.28 2.60585ZM1296.14 30.3478C1295.62 30.3111 1295.16 30.6967 1295.13 31.2016C1295.09 31.7065 1295.48 32.1471 1296 32.1838L1296.14 30.3478Z" fill="#10E8E8"/>
<path opacity="0.1" d="M1384.78 32.4872C1416.59 30.4584 1400.34 17.3677 1388.78 17.6156C1377.24 17.8543 1365.96 21.462 1365.96 21.462C1365.96 21.462 1368.25 8.36217 1340.72 8.02251C1315.23 7.70121 1272.26 18.6897 1282.1 27.2821C1291.95 35.8563 1352.96 34.5068 1384.78 32.4872Z" fill="#10E8E8"/>
<path opacity="0.5" d="M130.549 169.633C157.952 171.644 173.322 188.884 176.498 208.584L178.266 208.281C174.946 187.709 158.876 169.863 130.675 167.797L130.549 169.633ZM113.743 186.267C112.595 186.13 111.338 185.083 110.531 183.311C109.741 181.576 109.481 179.346 110.181 177.198C111.536 173.03 116.785 168.623 130.549 169.624L130.675 167.797C116.632 166.769 110.235 171.231 108.476 176.619C107.615 179.254 107.938 181.971 108.898 184.092C109.849 186.176 111.518 187.865 113.537 188.094L113.743 186.267ZM84.6355 165.006C101.513 165.915 110.019 171.8 113.582 177.124C115.376 179.805 115.905 182.32 115.69 184.037C115.582 184.89 115.304 185.496 114.963 185.845C114.649 186.176 114.254 186.341 113.743 186.277L113.537 188.103C114.604 188.232 115.556 187.865 116.255 187.121C116.937 186.405 117.332 185.395 117.467 184.266C117.745 182.008 117.036 179.043 115.062 176.087C111.087 170.138 101.953 164.107 84.7252 163.18L84.6355 165.006ZM43.2085 188.158C43.8814 175.995 57.4392 163.547 84.6265 165.006L84.7163 163.17C57.1521 161.693 42.1676 174.361 41.405 188.057L43.2085 188.158ZM52.6657 198.954C52.89 199.569 52.8452 199.9 52.7913 200.037C52.7465 200.148 52.6478 200.276 52.3427 200.359C51.6698 200.542 50.3867 200.34 48.8972 199.496C45.999 197.843 42.8855 194.043 43.2175 188.158L41.4229 188.048C41.0461 194.731 44.6082 199.147 48.0268 201.093C49.6958 202.039 51.4813 202.488 52.8093 202.13C53.5092 201.938 54.1462 201.497 54.4513 200.735C54.7474 200.001 54.6666 199.156 54.3526 198.302L52.6657 198.954ZM16.0032 196.118C24.294 191.61 33.0244 190.977 39.9424 192.198C43.4059 192.804 46.3848 193.878 48.619 195.126C50.8891 196.402 52.235 197.788 52.6657 198.954L54.3436 198.312C53.6886 196.521 51.8761 194.86 49.4804 193.52C47.0488 192.152 43.8725 191.023 40.2475 190.389C32.9975 189.113 23.8453 189.774 15.1598 194.502L16.0032 196.118ZM13.4819 223.795C9.06728 222.528 6.07936 220.702 4.27584 218.599C2.49027 216.525 1.83527 214.147 2.16726 211.641C2.83124 206.537 7.62267 200.689 16.0122 196.118L15.1687 194.493C6.58184 199.165 1.17129 205.408 0.390662 211.393C-0.00413731 214.432 0.803402 217.333 2.92994 219.811C5.03853 222.262 8.38535 224.236 13.0063 225.567L13.4819 223.795ZM168.172 224.677C168.136 223.759 168.136 223.759 168.136 223.759C168.136 223.759 168.136 223.759 168.127 223.759C168.127 223.759 168.118 223.759 168.109 223.759C168.091 223.759 168.064 223.759 168.037 223.759C167.974 223.759 167.875 223.768 167.741 223.768C167.481 223.777 167.095 223.795 166.592 223.814C165.587 223.85 164.107 223.905 162.223 223.97C158.445 224.098 153.026 224.282 146.476 224.484C133.366 224.888 115.699 225.374 97.4665 225.696C79.2339 226.017 60.4451 226.182 45.0838 225.934C37.4031 225.815 30.5928 225.595 25.1374 225.237C19.6551 224.878 15.6353 224.401 13.4819 223.786L12.9973 225.558C15.3572 226.237 19.5654 226.724 25.0297 227.073C30.5211 227.431 37.3672 227.651 45.0569 227.77C60.4451 228.009 79.2519 227.853 97.4934 227.532C115.735 227.21 133.411 226.724 146.529 226.32C153.088 226.118 158.508 225.934 162.285 225.806C164.179 225.741 165.65 225.686 166.664 225.65C167.167 225.631 167.552 225.613 167.813 225.604C167.938 225.595 168.037 225.595 168.109 225.595C168.145 225.595 168.163 225.595 168.181 225.595C168.189 225.595 168.198 225.595 168.198 225.595C168.198 225.595 168.198 225.595 168.207 225.595C168.198 225.595 168.198 225.595 168.172 224.677ZM176.507 208.584C176.588 209.08 177.046 209.419 177.539 209.337C178.033 209.254 178.356 208.786 178.275 208.281L176.507 208.584ZM84.6804 164.088L84.7252 163.17L84.6804 164.088ZM42.3112 188.103L43.2085 188.158L42.3112 188.103ZM168.198 225.595C168.692 225.576 169.078 225.154 169.06 224.64C169.042 224.135 168.629 223.74 168.127 223.759L168.198 225.595Z" fill="#10E8E8"/>
<path opacity="0.1" d="M166.379 224.75C166.379 224.75 30.6733 229.257 19.05 225.604C7.43572 221.941 9.67095 205.288 26.0419 199.376C42.4127 193.464 56.6289 201.414 56.9865 202.516C56.9865 202.516 43.584 184.551 68.5025 174.802C93.4299 165.052 113.663 182.375 113.663 182.375C113.663 182.375 119.958 169.257 147.854 181.641C175.758 194.024 189.411 222.785 166.379 224.75Z" fill="#10E8E8"/>
<g clip-path="url(#clip0)">
<path opacity="0.1" d="M1254.74 589.356C1269.83 589.356 1282.06 577.11 1282.06 562.003C1282.06 546.896 1269.83 534.65 1254.74 534.65C1239.66 534.65 1227.43 546.896 1227.43 562.003C1227.43 577.11 1239.66 589.356 1254.74 589.356Z" fill="#800180"/>
<path opacity="0.1" d="M114.287 589.356C129.371 589.356 141.6 577.11 141.6 562.003C141.6 546.896 129.371 534.65 114.287 534.65C99.2019 534.65 86.9734 546.896 86.9734 562.003C86.9734 577.11 99.2019 589.356 114.287 589.356Z" fill="#800180"/>
<path opacity="0.1" d="M1199.87 586.474C1213.36 586.474 1224.3 575.518 1224.3 562.003C1224.3 548.488 1213.36 537.532 1199.87 537.532C1186.37 537.532 1175.43 548.488 1175.43 562.003C1175.43 575.518 1186.37 586.474 1199.87 586.474Z" fill="#800180"/>
<path opacity="0.1" d="M1147.4 586.474C1160.9 586.474 1171.84 575.518 1171.84 562.003C1171.84 548.488 1160.9 537.532 1147.4 537.532C1133.9 537.532 1122.96 548.488 1122.96 562.003C1122.96 575.518 1133.9 586.474 1147.4 586.474Z" fill="#800180"/>
<path opacity="0.1" d="M1094.7 586.474C1108.2 586.474 1119.14 575.518 1119.14 562.003C1119.14 548.488 1108.2 537.532 1094.7 537.532C1081.2 537.532 1070.26 548.488 1070.26 562.003C1070.26 575.518 1081.2 586.474 1094.7 586.474Z" fill="#800180"/>
<path opacity="0.1" d="M628.238 586.474C641.734 586.474 652.674 575.518 652.674 562.003C652.674 548.488 641.734 537.532 628.238 537.532C614.743 537.532 603.803 548.488 603.803 562.003C603.803 575.518 614.743 586.474 628.238 586.474Z" fill="#800180"/>
<path opacity="0.1" d="M575.772 586.474C589.268 586.474 600.208 575.518 600.208 562.003C600.208 548.488 589.268 537.532 575.772 537.532C562.277 537.532 551.337 548.488 551.337 562.003C551.337 575.518 562.277 586.474 575.772 586.474Z" fill="#800180"/>
<path opacity="0.1" d="M484.076 586.474C497.571 586.474 508.511 575.518 508.511 562.003C508.511 548.488 497.571 537.532 484.076 537.532C470.581 537.532 459.641 548.488 459.641 562.003C459.641 575.518 470.581 586.474 484.076 586.474Z" fill="#800180"/>
<path opacity="0.1" d="M431.485 586.474C444.98 586.474 455.92 575.518 455.92 562.003C455.92 548.488 444.98 537.532 431.485 537.532C417.99 537.532 407.05 548.488 407.05 562.003C407.05 575.518 417.99 586.474 431.485 586.474Z" fill="#800180"/>
<path opacity="0.1" d="M379.019 586.474C392.514 586.474 403.454 575.518 403.454 562.003C403.454 548.488 392.514 537.532 379.019 537.532C365.524 537.532 354.584 548.488 354.584 562.003C354.584 575.518 365.524 586.474 379.019 586.474Z" fill="#800180"/>
<path opacity="0.1" d="M326.319 586.474C339.814 586.474 350.754 575.518 350.754 562.003C350.754 548.488 339.814 537.532 326.319 537.532C312.824 537.532 301.884 548.488 301.884 562.003C301.884 575.518 312.824 586.474 326.319 586.474Z" fill="#800180"/>
<path opacity="0.1" d="M274.071 586.474C287.567 586.474 298.507 575.518 298.507 562.003C298.507 548.488 287.567 537.532 274.071 537.532C260.576 537.532 249.636 548.488 249.636 562.003C249.636 575.518 260.576 586.474 274.071 586.474Z" fill="#800180"/>
<path opacity="0.1" d="M221.605 586.474C235.1 586.474 246.041 575.518 246.041 562.003C246.041 548.488 235.1 537.532 221.605 537.532C208.11 537.532 197.17 548.488 197.17 562.003C197.17 575.518 208.11 586.474 221.605 586.474Z" fill="#800180"/>
<path opacity="0.1" d="M168.905 586.474C182.401 586.474 193.341 575.518 193.341 562.003C193.341 548.488 182.401 537.532 168.905 537.532C155.41 537.532 144.47 548.488 144.47 562.003C144.47 575.518 155.41 586.474 168.905 586.474Z" fill="#800180"/>
<path opacity="0.1" d="M1204.13 475.562C1204.13 475.562 1224.37 495.089 1235.2 503.719C1246.02 512.35 1258.33 518.685 1266.7 515.123C1275.08 511.561 1274.86 505.047 1275.63 502.431C1276.39 499.814 1275.92 490.426 1274.62 485.95C1273.33 481.475 1270.26 472.211 1267.82 466.619C1265.38 461.026 1253.17 434.86 1247.81 430.111C1242.45 425.363 1261.93 469.962 1266.28 480.74C1270.62 491.519 1273.41 511.679 1260.54 511.725C1247.68 511.772 1205.42 471.86 1204.13 471.93C1202.85 472 1200.76 472.149 1204.13 475.562Z" fill="#10E8E8"/>
<path opacity="0.1" d="M1187.2 371.297C1187.2 371.297 1195.89 360.627 1197.36 361.033C1198.84 361.447 1198.99 363.4 1199.38 362.267C1199.76 361.127 1201.63 355.722 1209.5 357.643C1217.37 359.565 1217.37 361.369 1217.37 361.369C1217.37 361.369 1209.83 354.722 1212.28 354.394C1214.74 354.066 1221.4 356.527 1225.41 365.15C1229.42 373.773 1228.52 356.964 1222.37 354.363C1219.97 353.355 1217.35 352.324 1215.23 352.207C1211.9 352.012 1209.47 353.269 1208.39 354.363C1206.63 356.152 1205.85 356.05 1205.85 356.05C1205.85 356.05 1198.07 355.066 1193.54 359.838C1192.55 360.877 1190.92 361.939 1190.08 362.986C1187.04 366.759 1185.8 370.391 1186.12 372.367C1186.51 374.889 1187.2 371.297 1187.2 371.297Z" fill="#10E8E8"/>
<path opacity="0.1" d="M1121.51 471.93C1121.51 471.93 1116.04 466.681 1119.2 466.548C1122.36 466.415 1173.56 515.459 1172.66 515.459C1171.77 515.459 1165.8 516.872 1162.03 513.943C1159.99 512.35 1147.78 500.853 1137.44 489.972C1128.77 480.857 1121.51 471.93 1121.51 471.93Z" fill="#10E8E8"/>
<path opacity="0.1" d="M600.761 471.93C600.761 471.93 595.317 489.02 597.751 499.861C600.176 510.702 603.351 514.537 608.982 515.654C614.605 516.779 606.915 454.176 600.761 471.93Z" fill="#10E8E8"/>
<path opacity="0.1" d="M792.89 473.679C792.89 473.679 778.453 475.437 785.449 468.196C792.445 460.956 820.531 444.663 823.104 447.99C825.678 451.317 824.36 459.729 820.312 465.048C816.28 470.36 808.2 472.398 792.89 473.679Z" fill="#10E8E8"/>
<path opacity="0.1" d="M666.034 367.173C666.034 367.173 668.772 376.788 669.746 376.397C670.714 376.007 671.86 375.921 671.86 375.921C671.86 375.921 668.046 363.221 672.913 356.254C677.788 349.286 693.183 347.623 689.362 347.365C685.54 347.107 674.98 345.818 670.261 351.825C665.543 357.831 665.87 361.635 666.034 367.173Z" fill="#10E8E8"/>
<path opacity="0.1" d="M194.932 340.851C194.932 340.851 202.076 338.671 205.585 340.64C207.387 341.647 194.986 345.92 188.232 352.395C181.821 358.542 181.096 367.016 180.456 364.15C179.154 358.268 179.668 345.662 194.932 340.851Z" fill="#10E8E8"/>
<path opacity="0.1" d="M198.207 364.15H224.897V374.53C224.897 374.53 221.933 377.748 218.977 377.514C216.021 377.28 212.496 372.601 211.513 372.687C210.53 372.773 209.711 378.615 204.548 378.615C197.817 378.623 198.207 364.15 198.207 364.15Z" fill="#10E8E8"/>
<path opacity="0.1" d="M110.465 493.542C110.465 493.542 109.724 512.178 116.673 515.467L138.543 515.631C138.55 515.631 112.235 479.334 110.465 493.542Z" fill="#10E8E8"/>
<path opacity="0.1" d="M134.44 424.98C134.44 424.98 128.575 433.9 121.673 451.036C114.77 468.173 166.168 408.538 157.44 411.264C148.713 413.99 141.647 415.779 134.44 424.98Z" fill="#10E8E8"/>
<path opacity="0.1" d="M235.699 447.537L255.291 489.285L237.188 489.371L235.699 447.537Z" fill="#10E8E8"/>
<path opacity="0.1" d="M185.44 501.056H300.308C300.308 501.056 299.762 505.937 296.214 506.765C292.673 507.593 276.263 506.765 276.263 506.765C276.263 506.765 245.534 504.586 223.727 505.391C201.92 506.195 182.086 506.695 182.086 506.695C182.086 506.695 185.198 504.375 185.44 501.056Z" fill="#10E8E8"/>
<path d="M1211.88 401.657C1211.88 401.657 1210.2 407.711 1204.21 410.374C1199.13 412.631 1195.41 410.538 1195.41 410.538L1195.12 405.227C1195.12 405.227 1197.88 407.953 1203.5 406.476C1209.12 405 1211.88 401.657 1211.88 401.657Z" fill="#800180"/>
<path d="M1228.61 461.135C1228.61 461.135 1240.42 487.903 1245.34 486.59C1250.26 485.278 1208.61 460.643 1202.87 454.41C1197.13 448.17 1197.78 445.709 1195.16 446.693C1192.54 447.677 1197.46 457.527 1197.46 457.527" stroke="#800180" stroke-width="1.5" stroke-miterlimit="10" stroke-linecap="round" stroke-linejoin="round"/>
<path d="M1200.26 459.323C1200.26 459.323 1193.86 456.449 1187.55 452.512C1181.24 448.576 1178.94 446.912 1178.29 448.193C1177.63 449.474 1185.66 458.097 1193.29 461.706" stroke="#800180" stroke-width="1.5" stroke-miterlimit="10" stroke-linecap="round" stroke-linejoin="round"/>
<path d="M1192.14 464.416C1192.14 464.416 1185.99 462.12 1183.53 458.339" stroke="#800180" stroke-width="1.5" stroke-miterlimit="10" stroke-linecap="round" stroke-linejoin="round"/>
<path d="M1183.53 460.558C1183.53 460.558 1185.82 464.666 1192.54 468.196" stroke="#800180" stroke-width="1.5" stroke-miterlimit="10" stroke-linecap="round" stroke-linejoin="round"/>
<path d="M1236.04 481.686C1236.04 481.686 1260.5 476.445 1275.97 466.65" stroke="#800180" stroke-width="1.5" stroke-miterlimit="10" stroke-linecap="round" stroke-linejoin="round"/>
<path d="M1264 468.298C1264 468.298 1250.19 475.062 1241.08 475.562" stroke="#800180" stroke-width="1.5" stroke-miterlimit="10" stroke-linecap="round" stroke-linejoin="round"/>
<path d="M1213.51 400.197C1213.51 400.197 1204.17 409.718 1196.14 405.781C1188.1 401.837 1186.63 391.824 1186.14 376.554C1185.65 361.284 1198.84 351.27 1213.03 358.159C1227.43 365.158 1226.31 376.554 1224.68 384.271C1223.04 391.988 1220.74 393.3 1223.53 397.9C1226.31 402.501 1220.09 397.244 1220.09 397.244C1220.09 397.244 1221.56 404.633 1218.45 400.361" stroke="#800180" stroke-width="1.5" stroke-miterlimit="10" stroke-linecap="round" stroke-linejoin="round"/>
<path d="M1200.97 356.597C1200.97 356.597 1199.25 364.642 1197.45 365.626C1195.65 366.61 1188.9 369.321 1186.12 375.726" stroke="#800180" stroke-width="1.5" stroke-miterlimit="10" stroke-linecap="round" stroke-linejoin="round"/>
<path d="M1199.49 365.134C1199.49 365.134 1207.45 375.804 1220.81 373.179" stroke="#800180" stroke-width="1.5" stroke-miterlimit="10" stroke-linecap="round" stroke-linejoin="round"/>
<path d="M1195.4 363.166C1195.4 363.166 1192.94 363.658 1190.89 366.165" stroke="#800180" stroke-width="1.5" stroke-miterlimit="10" stroke-linecap="round" stroke-linejoin="round"/>
<path d="M1195.97 359.799C1195.97 359.799 1194.4 361.033 1193.54 362.26" stroke="#800180" stroke-width="1.5" stroke-miterlimit="10" stroke-linecap="round" stroke-linejoin="round"/>
<path d="M1202.36 361.034C1202.36 361.034 1212.45 369.001 1219.74 369.368" stroke="#800180" stroke-width="1.5" stroke-miterlimit="10" stroke-linecap="round" stroke-linejoin="round"/>
<path d="M1208.76 361.69C1208.76 361.69 1210.97 363.58 1214.66 365.134" stroke="#800180" stroke-width="1.5" stroke-miterlimit="10" stroke-linecap="round" stroke-linejoin="round"/>
<path d="M1215.07 374.827C1215.07 374.827 1213.66 375.733 1213.84 380.084C1213.99 383.466 1215.07 383.45 1215.07 383.45C1215.07 383.45 1216.06 378.03 1220.82 380.576C1225.57 383.122 1221.47 389.933 1216.39 390.183" stroke="#800180" stroke-width="1.5" stroke-miterlimit="10" stroke-linecap="round" stroke-linejoin="round"/>
<path d="M1219.75 383.364C1219.75 383.364 1218.27 383.278 1217.37 385.169" stroke="#800180" stroke-width="1.5" stroke-miterlimit="10" stroke-linecap="round" stroke-linejoin="round"/>
<path d="M1189.17 377.209C1189.17 377.209 1195.07 375.077 1196.47 377.209C1197.86 379.342 1193.27 387.309 1194.09 388.707C1194.91 390.105 1196.73 390.839 1196.73 390.839" stroke="#800180" stroke-width="1.5" stroke-miterlimit="10" stroke-linecap="round" stroke-linejoin="round"/>
<path d="M1195.97 395.682C1195.97 395.682 1200.23 397.244 1204.58 394.12" stroke="#800180" stroke-width="1.5" stroke-miterlimit="10" stroke-linecap="round" stroke-linejoin="round"/>
<path d="M1204.09 380.904V384.27" stroke="#800180" stroke-width="1.5" stroke-miterlimit="10" stroke-linecap="round" stroke-linejoin="round"/>
<path d="M1191.38 381.333V384.598" stroke="#800180" stroke-width="1.5" stroke-miterlimit="10" stroke-linecap="round" stroke-linejoin="round"/>
<path d="M1200.27 376.718C1200.27 376.718 1203.68 374.671 1208.76 376.718" stroke="#800180" stroke-width="1.5" stroke-miterlimit="10" stroke-linecap="round" stroke-linejoin="round"/>
<path d="M1217.88 390.839C1217.88 390.839 1216.79 410.6 1219.74 416.951C1219.74 416.951 1243.78 422.207 1251.35 433.829C1257.41 443.148 1281.96 489.559 1274.53 506.414C1267.1 523.27 1249.39 514.295 1234.96 504.009C1220.53 493.722 1208.51 478.054 1198.67 474.554C1188.84 471.055 1184.68 466.017 1182.93 463.166" stroke="#800180" stroke-width="1.5" stroke-miterlimit="10" stroke-linecap="round" stroke-linejoin="round"/>
<path d="M1195.4 405.391C1195.4 405.391 1195.84 417.771 1194.76 418.919" stroke="#800180" stroke-width="1.5" stroke-miterlimit="10" stroke-linecap="round" stroke-linejoin="round"/>
<path d="M1203.34 416.615V418.911" stroke="#800180" stroke-width="1.5" stroke-miterlimit="10" stroke-linecap="round" stroke-linejoin="round"/>
<path d="M1249.91 431.892C1252.03 414.17 1242.7 415.302 1236.94 407.585C1231.17 399.868 1234.34 395.596 1236.47 387.879C1238.6 380.162 1232.87 376.218 1230.15 371.461C1227.44 366.696 1228.76 356.191 1219.74 353.067C1210.72 349.942 1206.63 356.144 1206.63 356.144" stroke="#800180" stroke-width="1.5" stroke-miterlimit="10" stroke-linecap="round" stroke-linejoin="round"/>
<path d="M1213.19 355.941C1213.19 355.941 1220.23 351.793 1225.6 362.268" stroke="#800180" stroke-width="1.5" stroke-miterlimit="10" stroke-linecap="round" stroke-linejoin="round"/>
<path d="M1217.37 358.698C1217.37 358.698 1219.75 357.995 1222.04 361.034" stroke="#800180" stroke-width="1.5" stroke-miterlimit="10" stroke-linecap="round" stroke-linejoin="round"/>
<path d="M1230.15 389.355C1230.15 389.355 1226.95 398.494 1230.15 406.734C1233.35 414.975 1235.81 413.006 1236.63 416.615C1237.45 420.223 1241.06 422.199 1243.36 422.199" stroke="#800180" stroke-width="1.5" stroke-miterlimit="10" stroke-linecap="round" stroke-linejoin="round"/>
<path d="M1225.6 404.133C1225.6 404.133 1224.28 410.538 1228.73 414.802" stroke="#800180" stroke-width="1.5" stroke-miterlimit="10" stroke-linecap="round" stroke-linejoin="round"/>
<path d="M1208.57 354.848C1208.57 354.848 1216.56 355.847 1216.95 360.424" stroke="#800180" stroke-width="1.5" stroke-miterlimit="10" stroke-linecap="round" stroke-linejoin="round"/>
<path d="M1195.4 414.81C1195.4 414.81 1193.84 419.247 1185.48 422.199C1177.12 425.151 1170.07 429.119 1166.62 440.109C1163.18 451.099 1157.27 487.551 1162.84 488.043C1168.42 488.535 1160.55 479.936 1152.03 472.086C1143.5 464.236 1128.91 454.738 1128.91 454.738" stroke="#800180" stroke-width="1.5" stroke-miterlimit="10" stroke-linecap="round" stroke-linejoin="round"/>
<path d="M1164.82 515.467C1154.98 512.186 1115.13 464.416 1115.13 464.416C1115.13 464.416 1100.27 459.198 1099.83 449.786C1099.4 440.375 1103.99 441.031 1106.17 443.874C1108.36 446.717 1109.01 450.169 1103.33 446.475" stroke="#800180" stroke-width="1.5" stroke-miterlimit="10" stroke-linecap="round" stroke-linejoin="round"/>
<path d="M1177.12 447.764C1177.12 447.764 1168.43 471.094 1175.31 486.63C1182.2 502.165 1181.87 513.819 1181.87 513.819" stroke="#800180" stroke-width="1.5" stroke-miterlimit="10" stroke-linecap="round" stroke-linejoin="round"/>
<path d="M1187.11 476.382C1187.11 476.382 1188.59 480.49 1200.97 484.099C1213.34 487.707 1217.12 493.62 1217.36 494.276" stroke="#800180" stroke-width="1.5" stroke-miterlimit="10" stroke-linecap="round" stroke-linejoin="round"/>
<path d="M1196.72 488.067C1196.72 488.067 1208.59 491.824 1211.54 496.916" stroke="#800180" stroke-width="1.5" stroke-miterlimit="10" stroke-linecap="round" stroke-linejoin="round"/>
<path d="M1206.64 495.432C1206.64 495.432 1208.59 496.744 1210.15 500.853" stroke="#800180" stroke-width="1.5" stroke-miterlimit="10" stroke-linecap="round" stroke-linejoin="round"/>
<path d="M1156.78 466.548C1156.78 466.548 1159.57 472.11 1170.39 473.102" stroke="#800180" stroke-width="1.5" stroke-miterlimit="10" stroke-linecap="round" stroke-linejoin="round"/>
<path d="M1158.42 461.706C1158.42 461.706 1160.39 466.236 1170.39 468.188" stroke="#800180" stroke-width="1.5" stroke-miterlimit="10" stroke-linecap="round" stroke-linejoin="round"/>
<path d="M1188.03 422.199C1188.03 422.199 1192.57 427.62 1196.72 441.25" stroke="#800180" stroke-width="1.5" stroke-miterlimit="10" stroke-linecap="round" stroke-linejoin="round"/>
<path d="M1186.12 423.839C1186.12 423.839 1191.74 435.415 1194.76 445.147" stroke="#800180" stroke-width="1.5" stroke-miterlimit="10" stroke-linecap="round" stroke-linejoin="round"/>
<path d="M1199.49 440.109C1199.49 440.109 1208.91 426.854 1222.91 422.199" stroke="#800180" stroke-width="1.5" stroke-miterlimit="10" stroke-linecap="round" stroke-linejoin="round"/>
<path d="M1199.49 445.147C1199.49 445.147 1211.85 432.877 1228.42 427.292" stroke="#800180" stroke-width="1.5" stroke-miterlimit="10" stroke-linecap="round" stroke-linejoin="round"/>
<path d="M1125.2 460.558L1137.43 473.102" stroke="#800180" stroke-width="1.5" stroke-miterlimit="10" stroke-linecap="round" stroke-linejoin="round"/>
<path d="M1123.92 434.493C1123.67 429.245 1123.79 423.91 1122.57 423.84C1120.6 423.73 1119.07 425.167 1117.97 431.892" stroke="#800180" stroke-width="1.5" stroke-miterlimit="10" stroke-linecap="round" stroke-linejoin="round"/>
<path d="M1128.91 453.067C1128.91 453.067 1128.05 450.114 1126.69 446.506" stroke="#800180" stroke-width="1.5" stroke-miterlimit="10" stroke-linecap="round" stroke-linejoin="round"/>
<path d="M1098.09 445.147C1098.09 445.147 1095.3 435.579 1100.3 435.415C1105.3 435.251 1106.86 438.695 1104.97 439.023C1103.08 439.351 1100.38 439.273 1100.38 439.273" stroke="#800180" stroke-width="1.5" stroke-miterlimit="10" stroke-linecap="round" stroke-linejoin="round"/>
<path d="M1095.38 439.523C1095.38 439.523 1093.09 426.222 1098.41 426.878C1103.74 427.534 1106.7 430.588 1103.33 431.15C1099.97 431.713 1098.09 431.721 1098.09 431.721" stroke="#800180" stroke-width="1.5" stroke-miterlimit="10" stroke-linecap="round" stroke-linejoin="round"/>
<path d="M1093.49 431.15C1093.49 431.15 1089.47 419.895 1091.11 418.911C1092.75 417.927 1094.89 424.41 1094.89 424.41" stroke="#800180" stroke-width="1.5" stroke-miterlimit="10" stroke-linecap="round" stroke-linejoin="round"/>
<path d="M1107.97 449.06C1108.68 449.263 1109.4 449.42 1110.12 449.529L1111.06 456.691C1111.23 457.972 1112.4 458.832 1113.67 458.621C1114.1 458.55 1114.48 458.363 1114.8 458.105C1115.42 457.59 1115.78 456.77 1115.67 455.926L1114.85 449.638C1118.44 449.24 1121.89 447.772 1124.71 445.436C1126.63 443.858 1128.25 441.882 1129.46 439.586C1131.89 438.875 1134.13 437.68 1136.08 436.071C1137.28 435.087 1138.36 433.947 1139.3 432.674C1140.58 430.955 1141.53 429.065 1142.16 427.089L1148.39 429.331C1149.19 429.62 1150.04 429.432 1150.67 428.909C1150.99 428.651 1151.24 428.3 1151.4 427.893C1151.87 426.667 1151.28 425.332 1150.08 424.902L1143.03 422.371C1143.09 421.254 1143.06 420.13 1142.91 419.005C1142.28 414.17 1139.81 409.944 1135.97 407.094C1132.12 404.243 1127.36 403.118 1122.54 403.915C1116.55 404.914 1111.62 408.765 1108.93 413.85C1108.01 414.123 1107.09 414.459 1106.2 414.881C1101.76 416.997 1098.33 420.708 1096.57 425.331L1107.97 449.06ZM1133.14 410.905C1136 413.022 1137.83 416.17 1138.3 419.77C1138.34 420.075 1138.35 420.387 1138.38 420.692L1120.09 414.115C1118.43 413.522 1116.72 413.186 1114.99 413.092C1117.05 410.757 1119.89 409.077 1123.15 408.538C1126.72 407.945 1130.27 408.781 1133.14 410.905ZM1125.86 425.511C1127.25 428.659 1127.36 432.189 1126.22 435.509C1119 436.47 1112.46 431.502 1111.51 424.238C1111.22 422.043 1111.48 419.887 1112.18 417.904C1114.27 417.622 1116.39 417.833 1118.4 418.552C1121.76 419.747 1124.41 422.223 1125.86 425.511ZM1101.52 425.488C1102.41 423.738 1103.64 422.207 1105.14 420.981C1105.71 420.504 1106.33 420.083 1106.98 419.7C1106.7 421.418 1106.66 423.199 1106.9 425.003C1106.9 425.003 1106.9 425.003 1106.9 425.011L1109.47 444.577C1109.18 444.491 1108.88 444.397 1108.58 444.296L1101.52 425.488ZM1121.83 441.836C1119.67 443.624 1117 444.733 1114.23 444.983L1113.09 436.298C1115.95 438.664 1119.54 440.109 1123.42 440.297C1122.93 440.859 1122.4 441.375 1121.83 441.836ZM1135.62 429.932C1134.46 431.494 1133.03 432.759 1131.41 433.712C1131.97 430.237 1131.54 426.706 1130.12 423.473C1129.98 423.168 1129.82 422.887 1129.67 422.59L1137.81 425.519C1137.35 427.089 1136.62 428.581 1135.62 429.932Z" stroke="#E4255C" stroke-width="1.5" stroke-miterlimit="10" stroke-linecap="round" stroke-linejoin="round"/>
<path d="M1219.78 520.419H109.935C87.3088 520.419 68.9726 538.79 68.9726 561.441C68.9726 584.1 87.3166 602.463 109.935 602.463H1219.78C1242.4 602.463 1260.74 584.092 1260.74 561.441C1260.75 538.782 1242.4 520.419 1219.78 520.419Z" stroke="#800180" stroke-width="1.5" stroke-miterlimit="10" stroke-linecap="round" stroke-linejoin="round"/>
<path d="M1220.26 515.467H108.492C83.1362 515.467 62.585 536.048 62.585 561.441C62.585 586.833 83.1362 607.414 108.492 607.414H1220.26C1245.62 607.414 1266.17 586.833 1266.17 561.441C1266.18 536.048 1245.62 515.467 1220.26 515.467Z" stroke="#800180" stroke-width="1.5" stroke-miterlimit="10" stroke-linecap="round" stroke-linejoin="round"/>
<path d="M114.287 569.158C118.542 569.158 121.992 565.703 121.992 561.441C121.992 557.179 118.542 553.724 114.287 553.724C110.031 553.724 106.581 557.179 106.581 561.441C106.581 565.703 110.031 569.158 114.287 569.158Z" stroke="#800180" stroke-width="1.5" stroke-miterlimit="10" stroke-linecap="round" stroke-linejoin="round"/>
<path d="M114.287 575C121.984 575 128.224 568.751 128.224 561.042C128.224 553.334 121.984 547.084 114.287 547.084C106.589 547.084 100.349 553.334 100.349 561.042C100.349 568.751 106.589 575 114.287 575Z" stroke="#800180" stroke-width="1.5" stroke-miterlimit="10" stroke-linecap="round" stroke-linejoin="round"/>
<path d="M114.287 591.067C130.315 591.067 143.308 578.054 143.308 562.003C143.308 545.952 130.315 532.939 114.287 532.939C98.2586 532.939 85.2654 545.952 85.2654 562.003C85.2654 578.054 98.2586 591.067 114.287 591.067Z" stroke="#800180" stroke-width="1.5" stroke-miterlimit="10" stroke-linecap="round" stroke-linejoin="round"/>
<path d="M1221.99 569.158C1226.24 569.158 1229.69 565.703 1229.69 561.441C1229.69 557.179 1226.24 553.724 1221.99 553.724C1217.73 553.724 1214.28 557.179 1214.28 561.441C1214.28 565.703 1217.73 569.158 1221.99 569.158Z" stroke="#800180" stroke-width="1.5" stroke-miterlimit="10" stroke-linecap="round" stroke-linejoin="round"/>
<path d="M1221.99 575C1229.68 575 1235.92 568.751 1235.92 561.042C1235.92 553.334 1229.68 547.084 1221.99 547.084C1214.29 547.084 1208.05 553.334 1208.05 561.042C1208.05 568.751 1214.29 575 1221.99 575Z" stroke="#800180" stroke-width="1.5" stroke-miterlimit="10" stroke-linecap="round" stroke-linejoin="round"/>
<path d="M1221.99 591.067C1238.01 591.067 1251.01 578.054 1251.01 562.003C1251.01 545.952 1238.01 532.939 1221.99 532.939C1205.96 532.939 1192.96 545.952 1192.96 562.003C1192.96 578.054 1205.96 591.067 1221.99 591.067Z" stroke="#800180" stroke-width="1.5" stroke-miterlimit="10" stroke-linecap="round" stroke-linejoin="round"/>
<path d="M169.381 568.041C172.711 568.041 175.41 565.338 175.41 562.003C175.41 558.668 172.711 555.965 169.381 555.965C166.051 555.965 163.352 558.668 163.352 562.003C163.352 565.338 166.051 568.041 169.381 568.041Z" stroke="#800180" stroke-width="1.5" stroke-miterlimit="10" stroke-linecap="round" stroke-linejoin="round"/>
<path d="M169.615 588.278C184.105 588.278 195.852 576.514 195.852 562.003C195.852 547.491 184.105 535.728 169.615 535.728C155.125 535.728 143.378 547.491 143.378 562.003C143.378 576.514 155.125 588.278 169.615 588.278Z" stroke="#800180" stroke-width="1.5" stroke-miterlimit="10" stroke-linecap="round" stroke-linejoin="round"/>
<path d="M221.847 568.041C225.177 568.041 227.876 565.338 227.876 562.003C227.876 558.668 225.177 555.965 221.847 555.965C218.517 555.965 215.818 558.668 215.818 562.003C215.818 565.338 218.517 568.041 221.847 568.041Z" stroke="#800180" stroke-width="1.5" stroke-miterlimit="10" stroke-linecap="round" stroke-linejoin="round"/>
<path d="M222.081 588.278C236.571 588.278 248.318 576.514 248.318 562.003C248.318 547.491 236.571 535.728 222.081 535.728C207.591 535.728 195.844 547.491 195.844 562.003C195.844 576.514 207.591 588.278 222.081 588.278Z" stroke="#800180" stroke-width="1.5" stroke-miterlimit="10" stroke-linecap="round" stroke-linejoin="round"/>
<path d="M274.321 568.041C277.651 568.041 280.35 565.338 280.35 562.003C280.35 558.668 277.651 555.965 274.321 555.965C270.991 555.965 268.292 558.668 268.292 562.003C268.292 565.338 270.991 568.041 274.321 568.041Z" stroke="#800180" stroke-width="1.5" stroke-miterlimit="10" stroke-linecap="round" stroke-linejoin="round"/>
<path d="M274.547 588.278C289.037 588.278 300.784 576.514 300.784 562.003C300.784 547.491 289.037 535.728 274.547 535.728C260.057 535.728 248.31 547.491 248.31 562.003C248.31 576.514 260.057 588.278 274.547 588.278Z" stroke="#800180" stroke-width="1.5" stroke-miterlimit="10" stroke-linecap="round" stroke-linejoin="round"/>
<path d="M326.787 568.041C330.117 568.041 332.816 565.338 332.816 562.003C332.816 558.668 330.117 555.965 326.787 555.965C323.457 555.965 320.758 558.668 320.758 562.003C320.758 565.338 323.457 568.041 326.787 568.041Z" stroke="#800180" stroke-width="1.5" stroke-miterlimit="10" stroke-linecap="round" stroke-linejoin="round"/>
<path d="M327.021 588.278C341.511 588.278 353.258 576.514 353.258 562.003C353.258 547.491 341.511 535.728 327.021 535.728C312.531 535.728 300.784 547.491 300.784 562.003C300.784 576.514 312.531 588.278 327.021 588.278Z" stroke="#800180" stroke-width="1.5" stroke-miterlimit="10" stroke-linecap="round" stroke-linejoin="round"/>
<path d="M379.253 568.041C382.583 568.041 385.282 565.338 385.282 562.003C385.282 558.668 382.583 555.965 379.253 555.965C375.923 555.965 373.224 558.668 373.224 562.003C373.224 565.338 375.923 568.041 379.253 568.041Z" stroke="#800180" stroke-width="1.5" stroke-miterlimit="10" stroke-linecap="round" stroke-linejoin="round"/>
<path d="M379.487 588.278C393.977 588.278 405.724 576.514 405.724 562.003C405.724 547.491 393.977 535.728 379.487 535.728C364.997 535.728 353.25 547.491 353.25 562.003C353.25 576.514 364.997 588.278 379.487 588.278Z" stroke="#800180" stroke-width="1.5" stroke-miterlimit="10" stroke-linecap="round" stroke-linejoin="round"/>
<path d="M431.719 568.041C435.049 568.041 437.748 565.338 437.748 562.003C437.748 558.668 435.049 555.965 431.719 555.965C428.389 555.965 425.69 558.668 425.69 562.003C425.69 565.338 428.389 568.041 431.719 568.041Z" stroke="#800180" stroke-width="1.5" stroke-miterlimit="10" stroke-linecap="round" stroke-linejoin="round"/>
<path d="M431.953 588.278C446.443 588.278 458.19 576.514 458.19 562.003C458.19 547.491 446.443 535.728 431.953 535.728C417.463 535.728 405.716 547.491 405.716 562.003C405.716 576.514 417.463 588.278 431.953 588.278Z" stroke="#800180" stroke-width="1.5" stroke-miterlimit="10" stroke-linecap="round" stroke-linejoin="round"/>
<path d="M484.193 568.041C487.522 568.041 490.222 565.338 490.222 562.003C490.222 558.668 487.522 555.965 484.193 555.965C480.863 555.965 478.164 558.668 478.164 562.003C478.164 565.338 480.863 568.041 484.193 568.041Z" stroke="#800180" stroke-width="1.5" stroke-miterlimit="10" stroke-linecap="round" stroke-linejoin="round"/>
<path d="M484.419 588.278C498.909 588.278 510.656 576.514 510.656 562.003C510.656 547.491 498.909 535.728 484.419 535.728C469.929 535.728 458.182 547.491 458.182 562.003C458.182 576.514 469.929 588.278 484.419 588.278Z" stroke="#800180" stroke-width="1.5" stroke-miterlimit="10" stroke-linecap="round" stroke-linejoin="round"/>
<path d="M536.659 568.041C539.989 568.041 542.688 565.338 542.688 562.003C542.688 558.668 539.989 555.965 536.659 555.965C533.329 555.965 530.63 558.668 530.63 562.003C530.63 565.338 533.329 568.041 536.659 568.041Z" stroke="#800180" stroke-width="1.5" stroke-miterlimit="10" stroke-linecap="round" stroke-linejoin="round"/>
<path d="M536.893 588.278C551.383 588.278 563.13 576.514 563.13 562.003C563.13 547.491 551.383 535.728 536.893 535.728C522.403 535.728 510.656 547.491 510.656 562.003C510.656 576.514 522.403 588.278 536.893 588.278Z" stroke="#800180" stroke-width="1.5" stroke-miterlimit="10" stroke-linecap="round" stroke-linejoin="round"/>
<path d="M589.016 568.041C592.345 568.041 595.045 565.338 595.045 562.003C595.045 558.668 592.345 555.965 589.016 555.965C585.686 555.965 582.987 558.668 582.987 562.003C582.987 565.338 585.686 568.041 589.016 568.041Z" stroke="#800180" stroke-width="1.5" stroke-miterlimit="10" stroke-linecap="round" stroke-linejoin="round"/>
<path d="M589.25 588.278C603.74 588.278 615.487 576.514 615.487 562.003C615.487 547.491 603.74 535.728 589.25 535.728C574.759 535.728 563.013 547.491 563.013 562.003C563.013 576.514 574.759 588.278 589.25 588.278Z" stroke="#800180" stroke-width="1.5" stroke-miterlimit="10" stroke-linecap="round" stroke-linejoin="round"/>
<path opacity="0.1" d="M799.254 586.474C812.749 586.474 823.689 575.518 823.689 562.003C823.689 548.488 812.749 537.532 799.254 537.532C785.759 537.532 774.819 548.488 774.819 562.003C774.819 575.518 785.759 586.474 799.254 586.474Z" fill="#800180"/>
<path opacity="0.1" d="M746.788 586.474C760.283 586.474 771.223 575.518 771.223 562.003C771.223 548.488 760.283 537.532 746.788 537.532C733.293 537.532 722.353 548.488 722.353 562.003C722.353 575.518 733.293 586.474 746.788 586.474Z" fill="#800180"/>
<path opacity="0.1" d="M694.088 586.474C707.583 586.474 718.523 575.518 718.523 562.003C718.523 548.488 707.583 537.532 694.088 537.532C680.593 537.532 669.653 548.488 669.653 562.003C669.653 575.518 680.593 586.474 694.088 586.474Z" fill="#800180"/>
<path opacity="0.1" d="M641.497 586.474C654.993 586.474 665.933 575.518 665.933 562.003C665.933 548.488 654.993 537.532 641.497 537.532C628.002 537.532 617.062 548.488 617.062 562.003C617.062 575.518 628.002 586.474 641.497 586.474Z" fill="#800180"/>
<path d="M641.731 568.041C645.061 568.041 647.76 565.338 647.76 562.003C647.76 558.668 645.061 555.965 641.731 555.965C638.402 555.965 635.702 558.668 635.702 562.003C635.702 565.338 638.402 568.041 641.731 568.041Z" stroke="#800180" stroke-width="1.5" stroke-miterlimit="10" stroke-linecap="round" stroke-linejoin="round"/>
<path d="M641.965 588.278C656.455 588.278 668.202 576.514 668.202 562.003C668.202 547.491 656.455 535.728 641.965 535.728C627.475 535.728 615.728 547.491 615.728 562.003C615.728 576.514 627.475 588.278 641.965 588.278Z" stroke="#800180" stroke-width="1.5" stroke-miterlimit="10" stroke-linecap="round" stroke-linejoin="round"/>
<path d="M694.205 568.041C697.535 568.041 700.234 565.338 700.234 562.003C700.234 558.668 697.535 555.965 694.205 555.965C690.876 555.965 688.176 558.668 688.176 562.003C688.176 565.338 690.876 568.041 694.205 568.041Z" stroke="#800180" stroke-width="1.5" stroke-miterlimit="10" stroke-linecap="round" stroke-linejoin="round"/>
<path d="M694.431 588.278C708.922 588.278 720.668 576.514 720.668 562.003C720.668 547.491 708.922 535.728 694.431 535.728C679.941 535.728 668.194 547.491 668.194 562.003C668.194 576.514 679.941 588.278 694.431 588.278Z" stroke="#800180" stroke-width="1.5" stroke-miterlimit="10" stroke-linecap="round" stroke-linejoin="round"/>
<path d="M746.671 568.041C750.001 568.041 752.7 565.338 752.7 562.003C752.7 558.668 750.001 555.965 746.671 555.965C743.341 555.965 740.642 558.668 740.642 562.003C740.642 565.338 743.341 568.041 746.671 568.041Z" stroke="#800180" stroke-width="1.5" stroke-miterlimit="10" stroke-linecap="round" stroke-linejoin="round"/>
<path d="M746.905 588.278C761.395 588.278 773.142 576.514 773.142 562.003C773.142 547.491 761.395 535.728 746.905 535.728C732.415 535.728 720.668 547.491 720.668 562.003C720.668 576.514 732.415 588.278 746.905 588.278Z" stroke="#800180" stroke-width="1.5" stroke-miterlimit="10" stroke-linecap="round" stroke-linejoin="round"/>
<path d="M799.036 568.041C802.365 568.041 805.065 565.338 805.065 562.003C805.065 558.668 802.365 555.965 799.036 555.965C795.706 555.965 793.007 558.668 793.007 562.003C793.007 565.338 795.706 568.041 799.036 568.041Z" stroke="#800180" stroke-width="1.5" stroke-miterlimit="10" stroke-linecap="round" stroke-linejoin="round"/>
<path d="M799.262 588.278C813.752 588.278 825.499 576.514 825.499 562.003C825.499 547.491 813.752 535.728 799.262 535.728C784.772 535.728 773.025 547.491 773.025 562.003C773.025 576.514 784.772 588.278 799.262 588.278Z" stroke="#800180" stroke-width="1.5" stroke-miterlimit="10" stroke-linecap="round" stroke-linejoin="round"/>
<path opacity="0.1" d="M851.72 586.474C865.215 586.474 876.155 575.518 876.155 562.003C876.155 548.488 865.215 537.532 851.72 537.532C838.225 537.532 827.285 548.488 827.285 562.003C827.285 575.518 838.225 586.474 851.72 586.474Z" fill="#800180"/>
<path d="M851.502 568.041C854.831 568.041 857.531 565.338 857.531 562.003C857.531 558.668 854.831 555.965 851.502 555.965C848.172 555.965 845.473 558.668 845.473 562.003C845.473 565.338 848.172 568.041 851.502 568.041Z" stroke="#800180" stroke-width="1.5" stroke-miterlimit="10" stroke-linecap="round" stroke-linejoin="round"/>
<path d="M851.736 588.278C866.226 588.278 877.973 576.514 877.973 562.003C877.973 547.491 866.226 535.728 851.736 535.728C837.246 535.728 825.499 547.491 825.499 562.003C825.499 576.514 837.246 588.278 851.736 588.278Z" stroke="#800180" stroke-width="1.5" stroke-miterlimit="10" stroke-linecap="round" stroke-linejoin="round"/>
<path opacity="0.1" d="M904.194 586.474C917.689 586.474 928.629 575.518 928.629 562.003C928.629 548.488 917.689 537.532 904.194 537.532C890.699 537.532 879.759 548.488 879.759 562.003C879.759 575.518 890.699 586.474 904.194 586.474Z" fill="#800180"/>
<path d="M903.968 568.041C907.298 568.041 909.997 565.338 909.997 562.003C909.997 558.668 907.298 555.965 903.968 555.965C900.638 555.965 897.939 558.668 897.939 562.003C897.939 565.338 900.638 568.041 903.968 568.041Z" stroke="#800180" stroke-width="1.5" stroke-miterlimit="10" stroke-linecap="round" stroke-linejoin="round"/>
<path d="M904.202 588.278C918.692 588.278 930.439 576.514 930.439 562.003C930.439 547.491 918.692 535.728 904.202 535.728C889.712 535.728 877.965 547.491 877.965 562.003C877.965 576.514 889.712 588.278 904.202 588.278Z" stroke="#800180" stroke-width="1.5" stroke-miterlimit="10" stroke-linecap="round" stroke-linejoin="round"/>
<path opacity="0.1" d="M957.229 586.474C970.725 586.474 981.665 575.518 981.665 562.003C981.665 548.488 970.725 537.532 957.229 537.532C943.734 537.532 932.794 548.488 932.794 562.003C932.794 575.518 943.734 586.474 957.229 586.474Z" fill="#800180"/>
<path d="M957.003 568.041C960.333 568.041 963.032 565.338 963.032 562.003C963.032 558.668 960.333 555.965 957.003 555.965C953.674 555.965 950.974 558.668 950.974 562.003C950.974 565.338 953.674 568.041 957.003 568.041Z" stroke="#800180" stroke-width="1.5" stroke-miterlimit="10" stroke-linecap="round" stroke-linejoin="round"/>
<path d="M957.237 588.278C971.727 588.278 983.474 576.514 983.474 562.003C983.474 547.491 971.727 535.728 957.237 535.728C942.747 535.728 931 547.491 931 562.003C931 576.514 942.747 588.278 957.237 588.278Z" stroke="#800180" stroke-width="1.5" stroke-miterlimit="10" stroke-linecap="round" stroke-linejoin="round"/>
<path opacity="0.1" d="M1009.7 586.474C1023.19 586.474 1034.13 575.518 1034.13 562.003C1034.13 548.488 1023.19 537.532 1009.7 537.532C996.2 537.532 985.26 548.488 985.26 562.003C985.26 575.518 996.2 586.474 1009.7 586.474Z" fill="#800180"/>
<path d="M1009.47 568.041C1012.8 568.041 1015.5 565.338 1015.5 562.003C1015.5 558.668 1012.8 555.965 1009.47 555.965C1006.14 555.965 1003.44 558.668 1003.44 562.003C1003.44 565.338 1006.14 568.041 1009.47 568.041Z" stroke="#800180" stroke-width="1.5" stroke-miterlimit="10" stroke-linecap="round" stroke-linejoin="round"/>
<path d="M1009.7 588.278C1024.19 588.278 1035.94 576.514 1035.94 562.003C1035.94 547.491 1024.19 535.728 1009.7 535.728C995.213 535.728 983.466 547.491 983.466 562.003C983.466 576.514 995.213 588.278 1009.7 588.278Z" stroke="#800180" stroke-width="1.5" stroke-miterlimit="10" stroke-linecap="round" stroke-linejoin="round"/>
<path d="M1061.94 568.041C1065.27 568.041 1067.97 565.338 1067.97 562.003C1067.97 558.668 1065.27 555.965 1061.94 555.965C1058.61 555.965 1055.91 558.668 1055.91 562.003C1055.91 565.338 1058.61 568.041 1061.94 568.041Z" stroke="#800180" stroke-width="1.5" stroke-miterlimit="10" stroke-linecap="round" stroke-linejoin="round"/>
<path d="M1062.17 588.278C1076.66 588.278 1088.41 576.514 1088.41 562.003C1088.41 547.491 1076.66 535.728 1062.17 535.728C1047.68 535.728 1035.93 547.491 1035.93 562.003C1035.93 576.514 1047.68 588.278 1062.17 588.278Z" stroke="#800180" stroke-width="1.5" stroke-miterlimit="10" stroke-linecap="round" stroke-linejoin="round"/>
<path d="M1114.41 568.041C1117.74 568.041 1120.44 565.338 1120.44 562.003C1120.44 558.668 1117.74 555.965 1114.41 555.965C1111.08 555.965 1108.38 558.668 1108.38 562.003C1108.38 565.338 1111.08 568.041 1114.41 568.041Z" stroke="#800180" stroke-width="1.5" stroke-miterlimit="10" stroke-linecap="round" stroke-linejoin="round"/>
<path d="M1114.64 588.278C1129.13 588.278 1140.88 576.514 1140.88 562.003C1140.88 547.491 1129.13 535.728 1114.64 535.728C1100.15 535.728 1088.41 547.491 1088.41 562.003C1088.41 576.514 1100.15 588.278 1114.64 588.278Z" stroke="#800180" stroke-width="1.5" stroke-miterlimit="10" stroke-linecap="round" stroke-linejoin="round"/>
<path d="M1166.88 568.041C1170.2 568.041 1172.9 565.338 1172.9 562.003C1172.9 558.668 1170.2 555.965 1166.88 555.965C1163.55 555.965 1160.85 558.668 1160.85 562.003C1160.85 565.338 1163.55 568.041 1166.88 568.041Z" stroke="#800180" stroke-width="1.5" stroke-miterlimit="10" stroke-linecap="round" stroke-linejoin="round"/>
<path d="M1167.11 588.278C1181.6 588.278 1193.35 576.514 1193.35 562.003C1193.35 547.491 1181.6 535.728 1167.11 535.728C1152.62 535.728 1140.87 547.491 1140.87 562.003C1140.87 576.514 1152.62 588.278 1167.11 588.278Z" stroke="#800180" stroke-width="1.5" stroke-miterlimit="10" stroke-linecap="round" stroke-linejoin="round"/>
<path d="M685.673 397.354C685.673 397.354 691.694 401.189 696.685 399.439C701.669 397.689 701.973 396.221 701.973 396.221C701.973 396.221 701.661 399.283 701.747 400.931C701.833 402.579 701.973 403.844 701.973 403.844C701.973 403.844 698.362 407.515 691.226 404.219C684.089 400.923 681.43 393.409 681.43 393.409L685.673 397.354Z" fill="#800180"/>
<path d="M678.482 445.218C683.419 443.116 692.887 438.243 696.88 434.595C697.988 433.58 699.789 431.775 701.256 433.462C702.675 435.103 700.39 438.305 699.509 439.703C698.253 441.711 696.818 443.616 695.297 445.428" stroke="#800180" stroke-width="1.5" stroke-miterlimit="10" stroke-linecap="round" stroke-linejoin="round"/>
<path d="M691.499 446.756C691.499 446.756 699.844 445.217 708.408 442.398C716.963 439.578 720.146 438.281 720.543 439.984C720.949 441.679 709.016 449.505 699.009 451.56" stroke="#800180" stroke-width="1.5" stroke-miterlimit="10" stroke-linecap="round" stroke-linejoin="round"/>
<path d="M699.587 455.082C699.587 455.082 707.48 454.153 711.457 450.412" stroke="#800180" stroke-width="1.5" stroke-miterlimit="10" stroke-linecap="round" stroke-linejoin="round"/>
<path d="M710.818 453.021C710.818 453.021 706.941 457.191 698.019 459.402" stroke="#800180" stroke-width="1.5" stroke-miterlimit="10" stroke-linecap="round" stroke-linejoin="round"/>
<path d="M676.688 473.836C679.636 472.508 682.771 467.329 685.829 466.384C695.383 464.205 703.666 463.612 710.786 456.254" stroke="#800180" stroke-width="1.5" stroke-miterlimit="10" stroke-linecap="round" stroke-linejoin="round"/>
<path d="M673.966 445.217C673.966 445.217 628.847 472.914 634.049 476.593C639.251 480.272 655.286 445.217 655.286 445.217" stroke="#800180" stroke-width="1.5" stroke-miterlimit="10" stroke-linecap="round" stroke-linejoin="round"/>
<path d="M649.741 452.505V445.217" stroke="#800180" stroke-width="1.5" stroke-miterlimit="10" stroke-linecap="round" stroke-linejoin="round"/>
<path d="M608.974 473.016C608.974 473.016 614.379 451.38 618.146 446.069" stroke="#800180" stroke-width="1.5" stroke-miterlimit="10" stroke-linecap="round" stroke-linejoin="round"/>
<path d="M615.604 458.628C615.604 458.628 613.365 463.526 613.568 468.118" stroke="#800180" stroke-width="1.5" stroke-miterlimit="10" stroke-linecap="round" stroke-linejoin="round"/>
<path d="M672.78 448.865C672.78 448.865 670.23 468.533 667.375 479.249" stroke="#800180" stroke-width="1.5" stroke-miterlimit="10" stroke-linecap="round" stroke-linejoin="round"/>
<path d="M676.649 436.68C676.649 436.68 677.195 469.446 673.966 482.912" stroke="#800180" stroke-width="1.5" stroke-miterlimit="10" stroke-linecap="round" stroke-linejoin="round"/>
<path d="M672.78 479.248C672.78 479.248 657.392 493.23 646.793 501.189C636.194 509.148 604.396 528.542 598.281 502.618C592.167 476.694 615.713 434.845 624.885 424.027C634.057 413.209 674.621 410.756 674.621 410.756C674.621 410.756 678.185 404.633 674.621 387.793" stroke="#800180" stroke-width="1.5" stroke-miterlimit="10" stroke-linecap="round" stroke-linejoin="round"/>
<path d="M743.013 420.989C751.663 423.996 760.866 428.104 769.64 433.728" stroke="#800180" stroke-width="1.5" stroke-miterlimit="10" stroke-linecap="round" stroke-linejoin="round"/>
<path d="M704.266 412.905C704.266 412.905 715.817 413.405 731.346 417.451" stroke="#800180" stroke-width="1.5" stroke-miterlimit="10" stroke-linecap="round" stroke-linejoin="round"/>
<path d="M730.971 513.944C730.971 513.944 733.709 456.473 728.514 454.942C723.32 453.411 719.834 465.861 760.632 471.375C800.245 476.726 825.148 473.828 823.923 452.7C822.699 431.572 779.592 379.834 779.592 379.834" stroke="#800180" stroke-width="1.5" stroke-miterlimit="10" stroke-linecap="round" stroke-linejoin="round"/>
<path d="M783.055 442.296C783.055 442.296 791.205 451.989 788.756 446.069C786.307 440.148 783.055 438.008 783.055 438.008" stroke="#800180" stroke-width="1.5" stroke-miterlimit="10" stroke-linecap="round" stroke-linejoin="round"/>
<path d="M779.28 452.505V442.296L777.65 438.008C777.65 438.008 760.016 406.773 757.879 389.933" stroke="#800180" stroke-width="1.5" stroke-miterlimit="10" stroke-linecap="round" stroke-linejoin="round"/>
<path d="M751.764 389.941C751.764 389.941 769.71 377.389 783.055 374.023" stroke="#800180" stroke-width="1.5" stroke-miterlimit="10" stroke-linecap="round" stroke-linejoin="round"/>
<path d="M761.849 387.793C761.849 387.793 762.129 385.341 777.432 381.974" stroke="#800180" stroke-width="1.5" stroke-miterlimit="10" stroke-linecap="round" stroke-linejoin="round"/>
<path d="M738.217 355.293C732.211 353.661 730.971 353.504 730.971 353.504C730.971 353.504 730.612 354.332 731.681 355.293" stroke="#800180" stroke-width="1.5" stroke-miterlimit="10" stroke-linecap="round" stroke-linejoin="round"/>
<path d="M771.808 374.015C771.808 374.015 766.068 363.494 751.39 359.214" stroke="#800180" stroke-width="1.5" stroke-miterlimit="10" stroke-linecap="round" stroke-linejoin="round"/>
<path d="M749.081 361.62C750.618 362.284 752.029 363.002 753.191 363.76" stroke="#800180" stroke-width="1.5" stroke-miterlimit="10" stroke-linecap="round" stroke-linejoin="round"/>
<path d="M736.992 357.659C733.514 356.761 730.971 356.253 730.971 356.253C730.971 356.253 729.965 358.042 735.463 359.979" stroke="#800180" stroke-width="1.5" stroke-miterlimit="10" stroke-linecap="round" stroke-linejoin="round"/>
<path d="M745.408 368.571C748.379 369.781 750.836 370.828 751.39 371.875C752.677 374.327 750.235 376.163 756.046 381.982" stroke="#800180" stroke-width="1.5" stroke-miterlimit="10" stroke-linecap="round" stroke-linejoin="round"/>
<path d="M735.464 361.214C733.771 360.909 733.014 361.143 734.138 362.377C734.395 362.666 734.691 362.94 735.003 363.213" stroke="#800180" stroke-width="1.5" stroke-miterlimit="10" stroke-linecap="round" stroke-linejoin="round"/>
<path d="M751.764 366.97C751.764 366.97 749.409 365.978 746.398 364.806" stroke="#800180" stroke-width="1.5" stroke-miterlimit="10" stroke-linecap="round" stroke-linejoin="round"/>
<path d="M756.046 369.727L757.879 371.539" stroke="#800180" stroke-width="1.5" stroke-miterlimit="10" stroke-linecap="round" stroke-linejoin="round"/>
<path d="M676.196 384.888C676.196 384.888 669.411 385.145 668.701 379.834C667.992 374.523 673.287 376.163 673.287 376.163" stroke="#800180" stroke-width="1.5" stroke-miterlimit="10" stroke-linecap="round" stroke-linejoin="round"/>
<path d="M671.86 378.811C671.86 378.811 672.819 379.342 673.966 380.404" stroke="#800180" stroke-width="1.5" stroke-miterlimit="10" stroke-linecap="round" stroke-linejoin="round"/>
<path d="M697.442 385.653C697.442 385.653 688.473 384.325 689.19 386.161C689.9 387.996 694.384 391.472 697.442 385.653Z" stroke="#800180" stroke-width="1.5" stroke-miterlimit="10" stroke-linecap="round" stroke-linejoin="round"/>
<path d="M695.508 381.974C695.508 381.974 698.565 379.623 697.442 377.483C696.319 375.343 692.856 371.765 694.08 368.907C695.305 366.048 701.318 367.579 701.318 367.579" stroke="#800180" stroke-width="1.5" stroke-miterlimit="10" stroke-linecap="round" stroke-linejoin="round"/>
<path d="M689.143 368.501C689.143 368.501 683.271 368.298 681.133 369.727" stroke="#800180" stroke-width="1.5" stroke-miterlimit="10" stroke-linecap="round" stroke-linejoin="round"/>
<path d="M686.024 372.586V375.14" stroke="#800180" stroke-width="1.5" stroke-miterlimit="10" stroke-linecap="round" stroke-linejoin="round"/>
<path d="M698.354 371.539V374.015" stroke="#800180" stroke-width="1.5" stroke-miterlimit="10" stroke-linecap="round" stroke-linejoin="round"/>
<path d="M703.151 364.322C703.151 364.322 705.499 381.998 704.882 388.879C704.602 392.019 703.455 394.846 701.544 396.666C699.267 398.838 696.95 399.9 692.396 399.869C685.54 399.822 679.808 391.371 679.808 391.371" stroke="#800180" stroke-width="1.5" stroke-miterlimit="10" stroke-linecap="round" stroke-linejoin="round"/>
<path d="M703.151 411.272C703.151 411.272 701.115 402.493 701.926 397.189" stroke="#800180" stroke-width="1.5" stroke-miterlimit="10" stroke-linecap="round" stroke-linejoin="round"/>
<path d="M676.688 414.232C676.688 414.232 691.452 421.481 701.731 414.232" stroke="#800180" stroke-width="1.5" stroke-miterlimit="10" stroke-linecap="round" stroke-linejoin="round"/>
<path d="M681.133 419.536C681.133 419.536 693.768 425.558 701.31 417.903" stroke="#800180" stroke-width="1.5" stroke-miterlimit="10" stroke-linecap="round" stroke-linejoin="round"/>
<path d="M702.441 349.622C702.441 349.622 710.373 358.503 704.984 362.892C699.587 367.282 697.138 361.463 685.618 362.892C674.098 364.322 674.917 367.22 675.838 371.539C676.758 375.858 677.32 380.857 675.354 377.897C673.389 374.937 671.86 372.593 671.86 372.593" stroke="#800180" stroke-width="1.5" stroke-miterlimit="10" stroke-linecap="round" stroke-linejoin="round"/>
<path d="M671.86 367.993V365.134" stroke="#800180" stroke-width="1.5" stroke-miterlimit="10" stroke-linecap="round" stroke-linejoin="round"/>
<path d="M676.688 361.096C676.688 361.096 677.772 356.667 686.031 357.48C694.283 358.3 702.972 360.846 701.739 354.215" stroke="#800180" stroke-width="1.5" stroke-miterlimit="10" stroke-linecap="round" stroke-linejoin="round"/>
<path d="M683.684 354.723C683.684 354.723 685.314 353.801 688.574 354.215" stroke="#800180" stroke-width="1.5" stroke-miterlimit="10" stroke-linecap="round" stroke-linejoin="round"/>
<path d="M668.631 375.14C668.631 375.14 661.261 359.011 671.345 350.849C681.438 342.686 699.478 350.95 700.289 347.178C701.108 343.405 697.559 346.467 697.559 346.467" stroke="#800180" stroke-width="1.5" stroke-miterlimit="10" stroke-linecap="round" stroke-linejoin="round"/>
<path d="M696.116 465.564C693.191 491.441 696.623 515.475 677.569 515.475C662.485 515.475 666.884 507.836 673.974 507.524C681.055 507.219 684.401 509.656 686.133 499.244C687.069 493.644 687.326 479.507 689.455 466.033" stroke="#E4255C" stroke-width="1.5" stroke-miterlimit="10" stroke-linecap="round" stroke-linejoin="round"/>
<path d="M703.151 436.681C714.6 428.69 727.204 434.947 732.398 423.309C737.593 411.671 733.007 384.708 735.05 369.727C737.094 354.746 742.795 353.192 747.685 353.497C752.575 353.801 755.18 355.707 751.39 359.206C751.39 359.206 744.019 354.926 742.077 374.57C740.143 394.222 746.312 433.244 726.689 436.681C720.559 437.751 714.866 438.555 710.779 440.109" stroke="#E4255C" stroke-width="1.5" stroke-miterlimit="10" stroke-linecap="round" stroke-linejoin="round"/>
<path d="M220.108 364.596C220.108 364.596 221.371 385.2 219.226 390.887C217.082 396.573 205.718 404.54 194.869 390.887" stroke="#800180" stroke-width="1.5" stroke-miterlimit="10" stroke-linecap="round" stroke-linejoin="round"/>
<path d="M213.79 397.713C213.79 398.72 213.79 412.631 213.79 412.631" stroke="#800180" stroke-width="1.5" stroke-miterlimit="10" stroke-linecap="round" stroke-linejoin="round"/>
<path d="M188.014 381.154C188.014 381.154 189.059 402.509 186.657 407.82C186.657 407.82 147.122 406.094 134.44 424.98C121.758 443.866 99.6239 504.298 116.673 515.467" stroke="#800180" stroke-width="1.5" stroke-miterlimit="10" stroke-linecap="round" stroke-linejoin="round"/>
<path d="M210.32 386.27C210.32 386.27 206.365 387.723 203.948 384.497" stroke="#800180" stroke-width="1.5" stroke-miterlimit="10" stroke-linecap="round" stroke-linejoin="round"/>
<path d="M201.99 370.094V373.632" stroke="#800180" stroke-width="1.5" stroke-miterlimit="10" stroke-linecap="round" stroke-linejoin="round"/>
<path d="M214.804 370.782V373.945" stroke="#800180" stroke-width="1.5" stroke-miterlimit="10" stroke-linecap="round" stroke-linejoin="round"/>
<path d="M205.149 365.986C205.149 365.986 202.123 363.963 198.207 365.986" stroke="#800180" stroke-width="1.5" stroke-miterlimit="10" stroke-linecap="round" stroke-linejoin="round"/>
<path d="M216.887 365.728C216.887 365.728 213.798 364.627 210.764 365.728C207.738 366.83 213.728 376.976 212.597 378.054C211.458 379.131 209.883 379.827 207.925 380.139" stroke="#800180" stroke-width="1.5" stroke-miterlimit="10" stroke-linecap="round" stroke-linejoin="round"/>
<path d="M220.045 353.028C220.045 353.028 222.065 358.839 218.595 362.697" stroke="#800180" stroke-width="1.5" stroke-miterlimit="10" stroke-linecap="round" stroke-linejoin="round"/>
<path d="M215.748 352.645C215.748 352.645 216.372 362.565 207.668 363.455" stroke="#800180" stroke-width="1.5" stroke-miterlimit="10" stroke-linecap="round" stroke-linejoin="round"/>
<path d="M205.149 356.941C205.149 357.191 204.579 360.987 198.901 361.112" stroke="#800180" stroke-width="1.5" stroke-miterlimit="10" stroke-linecap="round" stroke-linejoin="round"/>
<path d="M205.593 350.56C205.593 350.56 204.08 356.753 198.652 357.863" stroke="#800180" stroke-width="1.5" stroke-miterlimit="10" stroke-linecap="round" stroke-linejoin="round"/>
<path d="M196.312 355.113C196.312 355.113 196.164 358.074 193.551 360.229" stroke="#800180" stroke-width="1.5" stroke-miterlimit="10" stroke-linecap="round" stroke-linejoin="round"/>
<path d="M187.444 357.511C187.444 357.511 187.156 360.104 183.88 361.557" stroke="#800180" stroke-width="1.5" stroke-miterlimit="10" stroke-linecap="round" stroke-linejoin="round"/>
<path d="M181.688 369.407C181.688 369.407 175.644 352.708 187.444 344.624C199.72 336.219 207.668 341.593 207.668 341.593C207.668 341.593 227.174 341.085 223.196 363.463" stroke="#800180" stroke-width="1.5" stroke-miterlimit="10" stroke-linecap="round" stroke-linejoin="round"/>
<path d="M195.29 391.41C195.29 391.41 198.418 404.664 213.79 403.36L213.588 396.893C213.588 396.893 203.012 401.353 195.29 391.41Z" fill="#800180"/>
<path d="M181.688 371.375C181.688 371.375 183.131 380.264 189.885 380.733C195.953 381.154 198.293 375.64 195.704 367.681C193.247 360.112 184.551 358.98 182.094 365.978" stroke="#800180" stroke-width="1.5" stroke-miterlimit="10" stroke-linecap="round" stroke-linejoin="round"/>
<path d="M184.964 374.828C184.964 374.828 186.532 377.663 188.653 377.249C191.5 376.702 189.55 366.384 186.111 365.533C182.679 364.681 182.554 369.555 184.964 374.828Z" stroke="#800180" stroke-width="1.5" stroke-miterlimit="10" stroke-linecap="round" stroke-linejoin="round"/>
<path d="M197.427 375.562C197.427 375.562 200.344 379.397 205.586 378.499C210.834 377.593 209.688 373.398 211.708 372.976C213.081 372.687 214.352 376.468 217.511 377.288C222.674 378.639 224.889 373.945 224.889 373.945V364.15H196.749" stroke="#800180" stroke-width="1.5" stroke-miterlimit="10" stroke-linecap="round" stroke-linejoin="round"/>
<path d="M182.671 361.94C182.671 361.94 175.644 340.757 196.749 338.703" stroke="#800180" stroke-width="1.5" stroke-miterlimit="10" stroke-linecap="round" stroke-linejoin="round"/>
<path d="M215.764 410.374C215.764 410.374 228.835 409.515 238.421 414.756C246.758 419.31 251.172 428.925 258.395 442.007C258.395 442.007 280.381 483.146 269.329 484.693C263.753 485.474 268.019 477.695 300.971 482.787" stroke="#800180" stroke-width="1.5" stroke-miterlimit="10" stroke-linecap="round" stroke-linejoin="round"/>
<path d="M164.062 450.419C164.062 450.419 154.984 485.599 148.643 485.482C141.109 485.341 155.475 476.999 170.333 484.755" stroke="#800180" stroke-width="1.5" stroke-miterlimit="10" stroke-linecap="round" stroke-linejoin="round"/>
<path d="M182.32 406.219C182.32 406.219 186.501 417.607 201.678 419.575C216.856 421.543 222.323 412.631 222.323 412.631" stroke="#800180" stroke-width="1.5" stroke-miterlimit="10" stroke-linecap="round" stroke-linejoin="round"/>
<path d="M183.88 416.943C183.88 416.943 191.36 429.206 210.819 425.699" stroke="#800180" stroke-width="1.5" stroke-miterlimit="10" stroke-linecap="round" stroke-linejoin="round"/>
<path d="M168.001 513.944C168.001 513.944 160.186 508.727 181.283 506.758C202.38 504.79 276.762 504.532 287.26 508.477C297.758 512.421 298.85 515.467 285.404 515.467" stroke="#E4255C" stroke-width="1.5" stroke-miterlimit="10" stroke-linecap="round" stroke-linejoin="round"/>
<path d="M184.987 496.362C185.923 501.65 184.574 508.149 180.144 506.501" stroke="#800180" stroke-width="1.5" stroke-miterlimit="10" stroke-linecap="round" stroke-linejoin="round"/>
<path d="M178.163 490.504C178.163 490.504 179.489 488.333 181.681 489.989" stroke="#800180" stroke-width="1.5" stroke-miterlimit="10" stroke-linecap="round" stroke-linejoin="round"/>
<path d="M180.144 489.286H296.214C296.214 489.286 299.146 490.129 300.355 494.284C302.118 500.361 299.848 506.422 296.214 506.758H287.252" stroke="#800180" stroke-width="1.5" stroke-miterlimit="10" stroke-linecap="round" stroke-linejoin="round"/>
<path d="M235.699 446.514L237.188 485.474" stroke="#800180" stroke-width="1.5" stroke-miterlimit="10" stroke-linecap="round" stroke-linejoin="round"/>
<path d="M302.009 487.77C302.009 487.77 304.083 485.474 306.821 487.77C309.558 490.066 308.459 507.258 306.821 508.023C305.183 508.789 304.309 505.368 304.309 505.368" stroke="#800180" stroke-width="1.5" stroke-miterlimit="10" stroke-linecap="round" stroke-linejoin="round"/>
<path d="M308.482 487.333C308.482 487.333 309.878 485.396 312.389 486.747C314.901 488.098 312.28 507.477 310.97 507.695C309.66 507.914 309.004 505.368 309.004 505.368" stroke="#800180" stroke-width="1.5" stroke-miterlimit="10" stroke-linecap="round" stroke-linejoin="round"/>
<path d="M314.253 487.224C314.253 487.224 316.219 486.146 317.529 487.224C320.041 489.286 315.782 508.484 314.253 507.711C312.725 506.93 313.052 506.766 313.052 506.766" stroke="#800180" stroke-width="1.5" stroke-miterlimit="10" stroke-linecap="round" stroke-linejoin="round"/>
<path d="M319.276 488.536C319.276 488.536 321.46 487.224 322.334 489.739C323.207 492.254 319.167 508.453 316.866 506.758" stroke="#800180" stroke-width="1.5" stroke-miterlimit="10" stroke-linecap="round" stroke-linejoin="round"/>
<path d="M173.624 504.54C173.624 504.54 172.938 507.898 171.643 507.149C170.348 506.399 169.49 489.528 171.643 487.278C173.795 485.021 175.425 487.278 175.425 487.278C175.425 487.278 176.525 489.153 176.416 492.964" stroke="#800180" stroke-width="1.5" stroke-miterlimit="10" stroke-linecap="round" stroke-linejoin="round"/>
<path d="M170.333 487.333C170.333 487.333 168.936 485.396 166.425 486.747C163.914 488.098 166.534 507.477 167.845 507.695C169.155 507.914 169.81 505.368 169.81 505.368" stroke="#800180" stroke-width="1.5" stroke-miterlimit="10" stroke-linecap="round" stroke-linejoin="round"/>
<path d="M164.569 487.231C164.569 487.231 162.603 486.13 161.293 487.231C158.782 489.332 163.04 508.906 164.569 508.109C166.098 507.313 165.77 507.141 165.77 507.141" stroke="#800180" stroke-width="1.5" stroke-miterlimit="10" stroke-linecap="round" stroke-linejoin="round"/>
<path d="M159.538 488.559C159.538 488.559 157.355 487.161 156.481 489.84C155.607 492.527 159.648 509.805 161.948 508" stroke="#800180" stroke-width="1.5" stroke-miterlimit="10" stroke-linecap="round" stroke-linejoin="round"/>
<path d="M299.255 491.84H304.192C304.192 491.84 308.482 496.308 304.738 501.892H300.542" stroke="#800180" stroke-width="1.5" stroke-miterlimit="10" stroke-linecap="round" stroke-linejoin="round"/>
<path d="M322.466 491.051C322.466 491.051 328.994 490.106 331.092 491.051C334.259 492.472 335.249 500.025 329.236 500.791C323.223 501.556 320.649 500.369 320.649 500.369" stroke="#800180" stroke-width="1.5" stroke-miterlimit="10" stroke-linecap="round" stroke-linejoin="round"/>
<path d="M293.375 488.192C293.375 488.192 302.172 477.585 310.962 486.286" stroke="#800180" stroke-width="1.5" stroke-miterlimit="10" stroke-linecap="round" stroke-linejoin="round"/>
<path d="M310.97 507.695C310.97 507.695 309.769 515.467 306.275 515.467" stroke="#800180" stroke-width="1.5" stroke-miterlimit="10" stroke-linecap="round" stroke-linejoin="round"/>
<path d="M177.18 492.957C174.809 492.957 172.891 494.878 172.891 497.252V499.072C172.891 501.447 174.809 503.368 177.18 503.368C179.551 503.368 181.47 501.447 181.47 499.072V497.252C181.47 494.878 179.551 492.957 177.18 492.957Z" stroke="#800180" stroke-width="1.5" stroke-miterlimit="10" stroke-linecap="round" stroke-linejoin="round"/>
<path d="M178.163 491.652C178.163 491.652 182.398 490.043 185.268 493.527C186.391 494.894 181.813 495.315 181.813 495.315" stroke="#800180" stroke-width="1.5" stroke-miterlimit="10" stroke-linecap="round" stroke-linejoin="round"/>
<path d="M170.333 483.443C170.333 483.443 163.415 478.718 159.148 486.747" stroke="#800180" stroke-width="1.5" stroke-miterlimit="10" stroke-linecap="round" stroke-linejoin="round"/>
<path d="M156.356 503.368C156.356 503.368 156.302 512.429 160.513 513.944" stroke="#800180" stroke-width="1.5" stroke-miterlimit="10" stroke-linecap="round" stroke-linejoin="round"/>
<path d="M161.886 480.327C161.886 480.327 150.787 479.991 153.408 506.758" stroke="#800180" stroke-width="1.5" stroke-miterlimit="10" stroke-linecap="round" stroke-linejoin="round"/>
<path d="M299.255 480.327C299.255 480.327 294.412 478.163 289.163 488.192" stroke="#800180" stroke-width="1.5" stroke-miterlimit="10" stroke-linecap="round" stroke-linejoin="round"/>
<path d="M280.35 434.681H409.171C409.171 434.681 404.796 422.035 393.214 421.793" stroke="#10E8E8" stroke-width="2" stroke-miterlimit="10" stroke-linecap="round" stroke-linejoin="round"/>
<path d="M382.716 396.893C377.522 396.893 373.318 401.11 373.318 406.304V425.253C373.318 430.455 377.529 434.665 382.716 434.665C387.91 434.665 392.114 430.447 392.114 425.253V406.304C392.122 401.11 387.91 396.893 382.716 396.893Z" stroke="#10E8E8" stroke-width="2" stroke-miterlimit="10" stroke-linecap="round" stroke-linejoin="round"/>
<path d="M394.415 409.484L426.267 391.066C429.2 389.371 430.206 385.614 428.513 382.677C426.821 379.741 423.07 378.733 420.137 380.428L390.32 397.666" stroke="#10E8E8" stroke-width="2" stroke-miterlimit="10" stroke-linecap="round" stroke-linejoin="round"/>
<path d="M421.104 396.026L428.35 411.749C429.137 413.467 431.173 414.217 432.881 413.42C434.597 412.631 435.346 410.593 434.55 408.882L427.071 392.651" stroke="#10E8E8" stroke-width="2" stroke-miterlimit="10" stroke-linecap="round" stroke-linejoin="round"/>
<path d="M382.716 413.74C386.472 413.74 389.517 410.691 389.517 406.929C389.517 403.168 386.472 400.118 382.716 400.118C378.96 400.118 375.915 403.168 375.915 406.929C375.915 410.691 378.96 413.74 382.716 413.74Z" stroke="#10E8E8" stroke-width="2" stroke-miterlimit="10" stroke-linecap="round" stroke-linejoin="round"/>
<path d="M422.531 390.433C424.741 390.433 426.532 388.639 426.532 386.426C426.532 384.213 424.741 382.419 422.531 382.419C420.322 382.419 418.53 384.213 418.53 386.426C418.53 388.639 420.322 390.433 422.531 390.433Z" stroke="#10E8E8" stroke-width="2" stroke-miterlimit="10" stroke-linecap="round" stroke-linejoin="round"/>
<path d="M434.862 414.232L437.592 416.943L432.015 424.168V415.302" stroke="#10E8E8" stroke-width="2" stroke-miterlimit="10" stroke-linecap="round" stroke-linejoin="round"/>
<path d="M1009.82 407.085C1019.34 407.085 1027.06 414.818 1027.06 424.355V459.113C1027.06 468.649 1019.34 476.382 1009.82 476.382C1000.3 476.382 992.576 468.649 992.576 459.113V424.355C992.576 414.818 1000.3 407.085 1009.82 407.085Z" stroke="#10E8E8" stroke-width="2" stroke-miterlimit="10" stroke-linecap="round" stroke-linejoin="round"/>
<path d="M988.364 430.174L883.144 396.393C877.77 393.284 875.921 386.395 879.026 381.013C882.13 375.632 889.009 373.781 894.382 376.889L995.867 408.507" stroke="#10E8E8" stroke-width="2" stroke-miterlimit="10" stroke-linecap="round" stroke-linejoin="round"/>
<path d="M892.62 405.5L879.33 434.345C877.879 437.493 874.159 438.867 871.016 437.415C867.873 435.962 866.5 432.236 867.951 429.088L881.67 399.314" stroke="#10E8E8" stroke-width="2" stroke-miterlimit="10" stroke-linecap="round" stroke-linejoin="round"/>
<path d="M1009.82 437.984C1016.71 437.984 1022.3 432.389 1022.3 425.487C1022.3 418.585 1016.71 412.99 1009.82 412.99C1002.93 412.99 997.341 418.585 997.341 425.487C997.341 432.389 1002.93 437.984 1009.82 437.984Z" stroke="#10E8E8" stroke-width="2" stroke-miterlimit="10" stroke-linecap="round" stroke-linejoin="round"/>
<path d="M889.999 395.229C894.053 395.229 897.338 391.938 897.338 387.879C897.338 383.82 894.053 380.529 889.999 380.529C885.946 380.529 882.66 383.82 882.66 387.879C882.66 391.938 885.946 395.229 889.999 395.229Z" stroke="#10E8E8" stroke-width="2" stroke-miterlimit="10" stroke-linecap="round" stroke-linejoin="round"/>
<path d="M867.381 438.883L862.382 443.858L872.607 457.113V440.843" stroke="#10E8E8" stroke-width="2" stroke-miterlimit="10" stroke-linecap="round" stroke-linejoin="round"/>
<path d="M369.379 411.272H247.257" stroke="#10E8E8" stroke-width="2" stroke-miterlimit="10" stroke-linecap="round" stroke-linejoin="round"/>
<path d="M514.244 479.249H392.122" stroke="#10E8E8" stroke-width="2" stroke-miterlimit="10" stroke-linecap="round" stroke-linejoin="round"/>
<path d="M608.974 433.189H429.332" stroke="#10E8E8" stroke-width="2" stroke-miterlimit="10" stroke-linecap="round" stroke-linejoin="round"/>
<path d="M353.788 330.463C356.808 330.463 359.256 328.011 359.256 324.988C359.256 321.964 356.808 319.512 353.788 319.512C350.769 319.512 348.321 321.964 348.321 324.988C348.321 328.011 350.769 330.463 353.788 330.463Z" fill="#800180"/>
<path d="M353.788 346.193C365.483 346.193 374.963 336.699 374.963 324.987C374.963 313.276 365.483 303.781 353.788 303.781C342.093 303.781 332.613 313.276 332.613 324.987C332.613 336.699 342.093 346.193 353.788 346.193Z" stroke="#10E8E8" stroke-width="2" stroke-miterlimit="10" stroke-linecap="round" stroke-linejoin="round"/>
<path d="M293.258 316.013L229.982 381.505" stroke="#10E8E8" stroke-width="2" stroke-miterlimit="10" stroke-linecap="round" stroke-linejoin="round"/>
<path d="M332.972 331.994V381.974" stroke="#10E8E8" stroke-width="2" stroke-miterlimit="10" stroke-linecap="round" stroke-linejoin="round"/>
<path d="M332.972 354.113H373.318" stroke="#10E8E8" stroke-width="2" stroke-miterlimit="10" stroke-linecap="round" stroke-linejoin="round"/>
<path d="M373.318 400.071V337.25" stroke="#10E8E8" stroke-width="2" stroke-miterlimit="10" stroke-linecap="round" stroke-linejoin="round"/>
<path d="M353.141 348.763V382.419" stroke="#10E8E8" stroke-width="2" stroke-miterlimit="10" stroke-linecap="round" stroke-linejoin="round"/>
<path d="M370.697 382.419H248.131" stroke="#10E8E8" stroke-width="2" stroke-miterlimit="10" stroke-linecap="round" stroke-linejoin="round"/>
<path d="M330.414 366.564H254.635L258.364 362.697H331.396" stroke="#10E8E8" stroke-width="2" stroke-miterlimit="10" stroke-linecap="round" stroke-linejoin="round"/>
<path d="M329.267 360.229V352.645H331.396" stroke="#10E8E8" stroke-width="2" stroke-miterlimit="10" stroke-linecap="round" stroke-linejoin="round"/>
<path d="M326.257 328.034L296.143 358.191" stroke="#10E8E8" stroke-width="2" stroke-miterlimit="10" stroke-linecap="round" stroke-linejoin="round"/>
<path d="M258.363 368.665V380.404" stroke="#10E8E8" stroke-width="2" stroke-miterlimit="10" stroke-linecap="round" stroke-linejoin="round"/>
<path d="M338.119 396.893H363.038" stroke="#10E8E8" stroke-width="2" stroke-miterlimit="10" stroke-linecap="round" stroke-linejoin="round"/>
<path d="M356.19 407.859H344.842C342.175 407.859 340.015 405.695 340.015 403.024V398.002H361.01V403.024C361.018 405.695 358.858 407.859 356.19 407.859Z" stroke="#10E8E8" stroke-width="2" stroke-miterlimit="10" stroke-linecap="round" stroke-linejoin="round"/>
<path d="M344.257 410.741C344.951 410.741 345.513 410.178 345.513 409.484C345.513 408.789 344.951 408.226 344.257 408.226C343.564 408.226 343.002 408.789 343.002 409.484C343.002 410.178 343.564 410.741 344.257 410.741Z" stroke="#10E8E8" stroke-width="2" stroke-miterlimit="10" stroke-linecap="round" stroke-linejoin="round"/>
<path d="M346.769 410.741C347.462 410.741 348.024 410.178 348.024 409.484C348.024 408.789 347.462 408.226 346.769 408.226C346.075 408.226 345.513 408.789 345.513 409.484C345.513 410.178 346.075 410.741 346.769 410.741Z" stroke="#10E8E8" stroke-width="2" stroke-miterlimit="10" stroke-linecap="round" stroke-linejoin="round"/>
<path d="M349.28 410.741C349.974 410.741 350.536 410.178 350.536 409.484C350.536 408.789 349.974 408.226 349.28 408.226C348.587 408.226 348.024 408.789 348.024 409.484C348.024 410.178 348.587 410.741 349.28 410.741Z" stroke="#10E8E8" stroke-width="2" stroke-miterlimit="10" stroke-linecap="round" stroke-linejoin="round"/>
<path d="M351.799 410.741C352.493 410.741 353.055 410.178 353.055 409.484C353.055 408.789 352.493 408.226 351.799 408.226C351.106 408.226 350.544 408.789 350.544 409.484C350.544 410.178 351.106 410.741 351.799 410.741Z" stroke="#10E8E8" stroke-width="2" stroke-miterlimit="10" stroke-linecap="round" stroke-linejoin="round"/>
<path d="M354.311 410.741C355.004 410.741 355.566 410.178 355.566 409.484C355.566 408.789 355.004 408.226 354.311 408.226C353.617 408.226 353.055 408.789 353.055 409.484C353.055 410.178 353.617 410.741 354.311 410.741Z" stroke="#10E8E8" stroke-width="2" stroke-miterlimit="10" stroke-linecap="round" stroke-linejoin="round"/>
<path d="M356.822 410.741C357.516 410.741 358.078 410.178 358.078 409.484C358.078 408.789 357.516 408.226 356.822 408.226C356.129 408.226 355.566 408.789 355.566 409.484C355.566 410.178 356.129 410.741 356.822 410.741Z" stroke="#10E8E8" stroke-width="2" stroke-miterlimit="10" stroke-linecap="round" stroke-linejoin="round"/>
<path d="M301.33 396.893H326.257" stroke="#10E8E8" stroke-width="2" stroke-miterlimit="10" stroke-linecap="round" stroke-linejoin="round"/>
<path d="M319.401 407.859H308.053C305.386 407.859 303.225 405.695 303.225 403.024V398.002H324.221V403.024C324.229 405.695 322.068 407.859 319.401 407.859Z" stroke="#10E8E8" stroke-width="2" stroke-miterlimit="10" stroke-linecap="round" stroke-linejoin="round"/>
<path d="M307.468 410.741C308.162 410.741 308.724 410.178 308.724 409.484C308.724 408.789 308.162 408.226 307.468 408.226C306.775 408.226 306.212 408.789 306.212 409.484C306.212 410.178 306.775 410.741 307.468 410.741Z" stroke="#10E8E8" stroke-width="2" stroke-miterlimit="10" stroke-linecap="round" stroke-linejoin="round"/>
<path d="M309.979 410.741C310.673 410.741 311.235 410.178 311.235 409.484C311.235 408.789 310.673 408.226 309.979 408.226C309.286 408.226 308.724 408.789 308.724 409.484C308.724 410.178 309.286 410.741 309.979 410.741Z" stroke="#10E8E8" stroke-width="2" stroke-miterlimit="10" stroke-linecap="round" stroke-linejoin="round"/>
<path d="M312.491 410.741C313.184 410.741 313.747 410.178 313.747 409.484C313.747 408.789 313.184 408.226 312.491 408.226C311.797 408.226 311.235 408.789 311.235 409.484C311.235 410.178 311.797 410.741 312.491 410.741Z" stroke="#10E8E8" stroke-width="2" stroke-miterlimit="10" stroke-linecap="round" stroke-linejoin="round"/>
<path d="M315.01 410.741C315.703 410.741 316.266 410.178 316.266 409.484C316.266 408.789 315.703 408.226 315.01 408.226C314.316 408.226 313.754 408.789 313.754 409.484C313.754 410.178 314.316 410.741 315.01 410.741Z" stroke="#10E8E8" stroke-width="2" stroke-miterlimit="10" stroke-linecap="round" stroke-linejoin="round"/>
<path d="M317.521 410.741C318.215 410.741 318.777 410.178 318.777 409.484C318.777 408.789 318.215 408.226 317.521 408.226C316.828 408.226 316.266 408.789 316.266 409.484C316.266 410.178 316.828 410.741 317.521 410.741Z" stroke="#10E8E8" stroke-width="2" stroke-miterlimit="10" stroke-linecap="round" stroke-linejoin="round"/>
<path d="M320.033 410.741C320.726 410.741 321.288 410.178 321.288 409.484C321.288 408.789 320.726 408.226 320.033 408.226C319.339 408.226 318.777 408.789 318.777 409.484C318.777 410.178 319.339 410.741 320.033 410.741Z" stroke="#10E8E8" stroke-width="2" stroke-miterlimit="10" stroke-linecap="round" stroke-linejoin="round"/>
<path d="M342.994 395.377C342.994 395.377 344.32 392.37 349.28 392.37C354.241 392.37 355.223 395.869 355.223 395.869" stroke="#10E8E8" stroke-width="2" stroke-miterlimit="10" stroke-linecap="round" stroke-linejoin="round"/>
<path d="M355.223 393.518C355.223 393.518 358.226 392.698 359.489 395.869" stroke="#10E8E8" stroke-width="2" stroke-miterlimit="10" stroke-linecap="round" stroke-linejoin="round"/>
<path d="M315.517 478.733L334.071 460.159H571.233" stroke="#10E8E8" stroke-width="2" stroke-miterlimit="10" stroke-linecap="round" stroke-linejoin="round"/>
<path d="M333.604 438.008V486.271" stroke="#10E8E8" stroke-width="2" stroke-miterlimit="10" stroke-linecap="round" stroke-linejoin="round"/>
<path d="M805.899 510.413V480.795" stroke="#10E8E8" stroke-width="2" stroke-miterlimit="10" stroke-linecap="round" stroke-linejoin="round"/>
<path d="M1027.06 484.373H741.734" stroke="#10E8E8" stroke-width="2" stroke-miterlimit="10" stroke-linecap="round" stroke-linejoin="round"/>
<path d="M1044.08 484.373H1122.13" stroke="#10E8E8" stroke-width="2" stroke-miterlimit="10" stroke-linecap="round" stroke-linejoin="round"/>
<path d="M992.342 496.909H1137.43" stroke="#10E8E8" stroke-width="2" stroke-miterlimit="10" stroke-linecap="round" stroke-linejoin="round"/>
<path d="M1181.87 420.692H1148.15" stroke="#10E8E8" stroke-width="2" stroke-miterlimit="10" stroke-linecap="round" stroke-linejoin="round"/>
<path d="M1088.47 421.223H1072.07L1021.63 370.711H830.327" stroke="#10E8E8" stroke-width="2" stroke-miterlimit="10" stroke-linecap="round" stroke-linejoin="round"/>
<path d="M805.899 355.941V408.351" stroke="#10E8E8" stroke-width="2" stroke-miterlimit="10" stroke-linecap="round" stroke-linejoin="round"/>
<path d="M1113.09 380.404H1064.89L1027.06 342.522" stroke="#10E8E8" stroke-width="2" stroke-miterlimit="10" stroke-linecap="round" stroke-linejoin="round"/>
<path d="M1256.01 423.839L1268.34 411.499" stroke="#10E8E8" stroke-width="2" stroke-miterlimit="10" stroke-linecap="round" stroke-linejoin="round"/>
<path d="M1252.54 409.476L1281.15 380.818" stroke="#10E8E8" stroke-width="2" stroke-miterlimit="10" stroke-linecap="round" stroke-linejoin="round"/>
<path d="M1054.2 327.752C1055.72 327.752 1056.96 326.514 1056.96 324.987C1056.96 323.46 1055.72 322.222 1054.2 322.222C1052.67 322.222 1051.44 323.46 1051.44 324.987C1051.44 326.514 1052.67 327.752 1054.2 327.752Z" fill="#800180"/>
<path d="M1054.2 335.696C1060.1 335.696 1064.89 330.901 1064.89 324.987C1064.89 319.073 1060.1 314.279 1054.2 314.279C1048.29 314.279 1043.51 319.073 1043.51 324.987C1043.51 330.901 1048.29 335.696 1054.2 335.696Z" stroke="#10E8E8" stroke-width="2" stroke-miterlimit="10" stroke-linecap="round" stroke-linejoin="round"/>
<path d="M1080.77 327.752C1082.3 327.752 1083.53 326.514 1083.53 324.987C1083.53 323.46 1082.3 322.222 1080.77 322.222C1079.25 322.222 1078.01 323.46 1078.01 324.987C1078.01 326.514 1079.25 327.752 1080.77 327.752Z" fill="#800180"/>
<path d="M1080.77 335.696C1086.68 335.696 1091.46 330.901 1091.46 324.987C1091.46 319.073 1086.68 314.279 1080.77 314.279C1074.87 314.279 1070.08 319.073 1070.08 324.987C1070.08 330.901 1074.87 335.696 1080.77 335.696Z" stroke="#10E8E8" stroke-width="2" stroke-miterlimit="10" stroke-linecap="round" stroke-linejoin="round"/>
<path d="M1106.96 327.752C1108.49 327.752 1109.72 326.514 1109.72 324.987C1109.72 323.46 1108.49 322.222 1106.96 322.222C1105.44 322.222 1104.2 323.46 1104.2 324.987C1104.2 326.514 1105.44 327.752 1106.96 327.752Z" fill="#800180"/>
<path d="M1106.96 335.696C1112.87 335.696 1117.65 330.901 1117.65 324.987C1117.65 319.073 1112.87 314.279 1106.96 314.279C1101.06 314.279 1096.27 319.073 1096.27 324.987C1096.27 330.901 1101.06 335.696 1106.96 335.696Z" stroke="#10E8E8" stroke-width="2" stroke-miterlimit="10" stroke-linecap="round" stroke-linejoin="round"/>
<path d="M1132.72 327.752C1134.25 327.752 1135.48 326.514 1135.48 324.987C1135.48 323.46 1134.25 322.222 1132.72 322.222C1131.2 322.222 1129.96 323.46 1129.96 324.987C1129.96 326.514 1131.2 327.752 1132.72 327.752Z" fill="#800180"/>
<path d="M1132.72 335.696C1138.63 335.696 1143.41 330.901 1143.41 324.987C1143.41 319.073 1138.63 314.279 1132.72 314.279C1126.82 314.279 1122.03 319.073 1122.03 324.987C1122.03 330.901 1126.82 335.696 1132.72 335.696Z" stroke="#10E8E8" stroke-width="2" stroke-miterlimit="10" stroke-linecap="round" stroke-linejoin="round"/>
<path d="M1158.51 327.752C1160.04 327.752 1161.28 326.514 1161.28 324.987C1161.28 323.46 1160.04 322.222 1158.51 322.222C1156.99 322.222 1155.75 323.46 1155.75 324.987C1155.75 326.514 1156.99 327.752 1158.51 327.752Z" fill="#800180"/>
<path d="M1158.51 335.696C1164.42 335.696 1169.21 330.901 1169.21 324.987C1169.21 319.073 1164.42 314.279 1158.51 314.279C1152.61 314.279 1147.82 319.073 1147.82 324.987C1147.82 330.901 1152.61 335.696 1158.51 335.696Z" stroke="#10E8E8" stroke-width="2" stroke-miterlimit="10" stroke-linecap="round" stroke-linejoin="round"/>
<path d="M1183.34 327.752C1184.86 327.752 1186.1 326.514 1186.1 324.987C1186.1 323.46 1184.86 322.222 1183.34 322.222C1181.81 322.222 1180.58 323.46 1180.58 324.987C1180.58 326.514 1181.81 327.752 1183.34 327.752Z" fill="#800180"/>
<path d="M1183.34 335.696C1189.24 335.696 1194.03 330.901 1194.03 324.987C1194.03 319.073 1189.24 314.279 1183.34 314.279C1177.43 314.279 1172.65 319.073 1172.65 324.987C1172.65 330.901 1177.43 335.696 1183.34 335.696Z" stroke="#10E8E8" stroke-width="2" stroke-miterlimit="10" stroke-linecap="round" stroke-linejoin="round"/>
<path d="M1209.91 327.752C1211.44 327.752 1212.67 326.514 1212.67 324.987C1212.67 323.46 1211.44 322.222 1209.91 322.222C1208.39 322.222 1207.15 323.46 1207.15 324.987C1207.15 326.514 1208.39 327.752 1209.91 327.752Z" fill="#800180"/>
<path d="M1209.91 335.696C1215.82 335.696 1220.6 330.901 1220.6 324.987C1220.6 319.073 1215.82 314.279 1209.91 314.279C1204.01 314.279 1199.22 319.073 1199.22 324.987C1199.22 330.901 1204.01 335.696 1209.91 335.696Z" stroke="#10E8E8" stroke-width="2" stroke-miterlimit="10" stroke-linecap="round" stroke-linejoin="round"/>
<path d="M1236.1 327.752C1237.63 327.752 1238.86 326.514 1238.86 324.987C1238.86 323.46 1237.63 322.222 1236.1 322.222C1234.58 322.222 1233.34 323.46 1233.34 324.987C1233.34 326.514 1234.58 327.752 1236.1 327.752Z" fill="#800180"/>
<path d="M1236.1 335.696C1242.01 335.696 1246.79 330.901 1246.79 324.987C1246.79 319.073 1242.01 314.279 1236.1 314.279C1230.2 314.279 1225.41 319.073 1225.41 324.987C1225.41 330.901 1230.2 335.696 1236.1 335.696Z" stroke="#10E8E8" stroke-width="2" stroke-miterlimit="10" stroke-linecap="round" stroke-linejoin="round"/>
<path d="M1261.86 327.752C1263.39 327.752 1264.62 326.514 1264.62 324.987C1264.62 323.46 1263.39 322.222 1261.86 322.222C1260.34 322.222 1259.1 323.46 1259.1 324.987C1259.1 326.514 1260.34 327.752 1261.86 327.752Z" fill="#800180"/>
<path d="M1261.86 335.696C1267.77 335.696 1272.56 330.901 1272.56 324.987C1272.56 319.073 1267.77 314.279 1261.86 314.279C1255.96 314.279 1251.17 319.073 1251.17 324.987C1251.17 330.901 1255.96 335.696 1261.86 335.696Z" stroke="#10E8E8" stroke-width="2" stroke-miterlimit="10" stroke-linecap="round" stroke-linejoin="round"/>
<path d="M1287.66 327.752C1289.18 327.752 1290.42 326.514 1290.42 324.987C1290.42 323.46 1289.18 322.222 1287.66 322.222C1286.13 322.222 1284.89 323.46 1284.89 324.987C1284.89 326.514 1286.13 327.752 1287.66 327.752Z" fill="#800180"/>
<path d="M1287.66 335.696C1293.56 335.696 1298.35 330.901 1298.35 324.987C1298.35 319.073 1293.56 314.279 1287.66 314.279C1281.75 314.279 1276.96 319.073 1276.96 324.987C1276.96 330.901 1281.75 335.696 1287.66 335.696Z" stroke="#10E8E8" stroke-width="2" stroke-miterlimit="10" stroke-linecap="round" stroke-linejoin="round"/>
<path d="M1044.08 338.781H1300.42" stroke="#800180" stroke-width="1.5" stroke-miterlimit="10" stroke-linecap="round" stroke-linejoin="round"/>
<path d="M1080.77 342.522V372.586" stroke="#10E8E8" stroke-width="2" stroke-miterlimit="10" stroke-linecap="round" stroke-linejoin="round"/>
<path d="M1262.11 342.562V388.879" stroke="#10E8E8" stroke-width="2" stroke-miterlimit="10" stroke-linecap="round" stroke-linejoin="round"/>
</g>
<defs>
<clipPath id="clip0">
<rect width="1239" height="305" fill="white" transform="translate(62 303)"/>
</clipPath>
</defs>
</svg>
