<svg width="1600" height="1095" viewBox="0 0 1600 1095" fill="none" xmlns="http://www.w3.org/2000/svg">
<path d="M2781.95 722.559C2781.95 696.824 2690.85 675.799 2575.65 674.025C2575.65 673.342 2575.72 672.728 2575.72 671.977C2575.72 625.422 2540.96 587.741 2498.08 587.741C2480.73 587.741 2464.75 594.021 2451.85 604.397C2451.64 604.056 2451.44 603.714 2451.23 603.305C2433.89 510.058 2357.95 439.816 2266.93 439.816C2251.36 439.816 2236.4 442.068 2221.92 445.959C2203.69 402.613 2163.54 372.441 2116.76 372.441C2082.55 372.441 2051.96 388.619 2030.79 414.217C2007.09 377.629 1967.9 353.668 1923.58 353.668C1917.09 353.668 1910.81 354.351 1904.6 355.307C1908.97 338.036 1911.49 320.015 1911.49 301.243C1911.49 188.541 1827.3 97.2059 1723.43 97.2059C1669.07 97.2059 1620.32 122.327 1585.97 162.328C1561.11 99.7999 1503.82 56.0436 1437.04 56.0436C1379.95 56.0436 1329.89 88.127 1300.94 136.457C1281.41 102.803 1246.93 80.4133 1207.59 80.4133C1196.73 80.4133 1186.29 82.1881 1176.39 85.3282C1151.53 34.6091 1102.23 0 1045.48 0C990.44 0 942.571 32.5612 916.963 80.8229C914.983 80.6864 912.934 80.4816 910.954 80.4816C870.46 80.4816 835.156 104.237 815.899 139.46C781.824 104.169 735.799 82.3247 684.925 82.3247C628.998 82.3247 578.875 108.674 544.186 150.451C495.429 112.36 435.61 89.8335 370.942 89.8335C281.964 89.8335 202.205 132.361 147.781 199.668C126.339 189.292 102.643 183.422 77.65 183.422C-17.6102 183.422 -94.8425 267.18 -94.8425 370.598C-94.8425 374.488 -94.5011 378.311 -94.2963 382.134C-103.31 379.608 -112.665 378.038 -122.43 378.038C-164.973 378.038 -201.848 404.183 -220.285 442.478C-242.752 430.122 -268.018 422.955 -294.923 422.955C-366.146 422.955 -426.648 471.831 -450.071 540.23C-454.646 539.479 -459.289 539.001 -464.001 539.001C-513.919 539.001 -555.027 580.095 -560.081 632.794C-561.378 632.726 -562.744 632.589 -564.041 632.589C-594.566 632.589 -620.105 655.184 -627.411 685.834C-634.855 685.288 -642.435 684.947 -650.288 684.947C-712.497 684.947 -764.668 702.558 -780.101 726.519C-785.086 726.314 -790.071 726.177 -795.192 726.177C-869.488 726.177 -929.717 751.298 -929.717 782.289C-929.717 813.349 -869.488 838.469 -795.192 838.469C-785.564 838.469 -776.208 838.06 -767.195 837.241C-745.138 855.74 -699.591 868.437 -646.805 868.437C-641.615 868.437 -636.562 868.3 -631.509 868.027C-625.363 898.199 -600.575 920.862 -570.87 920.862C-564.11 920.862 -557.622 919.633 -551.477 917.449C-530.103 948.986 -495.823 969.533 -456.968 969.533C-437.506 969.533 -419.205 964.345 -403.089 955.267C-385.744 973.356 -362.185 984.551 -336.236 984.551C-309.946 984.551 -286.114 973.151 -268.701 954.652C-238.381 995.678 -191.81 1022.03 -139.57 1022.03C-96.5497 1022.03 -57.5579 1004.14 -28.1263 974.994C-14.4689 1007.15 15.4407 1029.54 50.1987 1029.54C81.2692 1029.54 108.447 1011.65 123.607 984.961C148.532 1001.28 177.69 1010.83 208.897 1010.83C247.343 1010.83 282.647 996.497 310.781 972.674C326.556 991.514 349.227 1003.39 374.561 1003.39C399.349 1003.39 421.679 991.924 437.453 973.697C461.422 1014.04 503.077 1040.73 550.536 1040.73C588.026 1040.73 621.896 1024.08 646.275 997.248C691.139 1035.41 756.831 1059.44 830.034 1059.44C920.173 1059.44 998.839 1022.98 1041.38 968.714C1067.4 1015.2 1114.38 1046.33 1168.19 1046.33C1186.08 1046.33 1203.15 1042.71 1219.06 1036.43C1238.73 1071.52 1274.17 1095 1314.87 1095C1355.16 1095 1390.4 1071.86 1410.2 1037.25C1454.65 1072.34 1509.28 1093.16 1568.49 1093.16C1660.95 1093.16 1742.55 1042.57 1791.03 965.438C1820.6 999.091 1862.19 1020.18 1908.42 1020.18C1956.63 1020.18 1999.79 997.248 2029.49 961.001C2040.15 965.301 2051.62 967.759 2063.7 967.759C2077.5 967.759 2090.61 964.618 2102.56 959.089C2134.72 969.329 2171.73 975.267 2211.2 975.267C2323.74 975.267 2416.41 927.825 2430.75 866.389C2432.59 866.525 2434.43 866.662 2436.35 866.662C2462.7 866.662 2485.92 852.395 2499.99 830.619C2510.85 836.899 2523.27 840.449 2536.45 840.449C2575.04 840.449 2606.99 809.799 2613 769.797C2709.77 764.609 2781.95 745.427 2781.95 722.559Z" fill="#FAF7FB"/>
</svg>
