<svg width="1392" height="1386" viewBox="0 0 1392 1386" fill="none" xmlns="http://www.w3.org/2000/svg">
<path fill-rule="evenodd" clip-rule="evenodd" d="M699.691 1049.74C795.628 1001.94 781.947 857.257 849.855 774.328C960.025 639.79 1204.36 593.678 1215.26 420.125C1225.41 258.633 1046.95 124.981 893.978 72.2279C755.208 24.3717 617.262 130.706 474.454 164.649C387.752 185.257 310.836 220.457 222.448 231.838C42.4698 255.012 -187.36 129.404 -307.565 265.345C-415.048 386.897 -277.572 580.397 -219.868 732.055C-170.442 861.955 -126.819 1017.68 0.175276 1074.15C123.95 1129.19 254.846 1008.05 390.22 1003.33C497.081 999.601 603.986 1097.42 699.691 1049.74Z" fill="#FAF7FB"/>
</svg>
