<svg width="1600" height="387" viewBox="0 0 1600 387" fill="none" xmlns="http://www.w3.org/2000/svg">
<path fill-rule="evenodd" clip-rule="evenodd" d="M1197.03 38.0065C1208.95 -46.3206 1305.02 -85.8115 1366.84 -144.356C1429.4 -203.602 1474.21 -305.665 1560.32 -306.046C1647.56 -306.432 1684.32 -190.604 1759.35 -146.092C1830.95 -103.611 1947.17 -128.341 1984.97 -54.1211C2022.55 19.6581 1949.66 101.621 1925.95 180.978C1905.16 250.537 1895.26 320.883 1854.87 381.203C1804.22 456.863 1755.45 586.123 1666.06 569.172C1564.61 549.936 1581.13 382.23 1503.16 314.51C1451.28 269.453 1360.72 305.742 1309.73 259.685C1246.69 202.746 1185.13 122.171 1197.03 38.0065Z" fill="#D31C51"/>
<path fill-rule="evenodd" clip-rule="evenodd" d="M-122.94 147.747C-58.4807 116.491 9.84417 51.1558 75.4455 79.9386C143.988 110.012 124.997 218.117 171.366 276.875C209.507 325.206 301.028 324.796 315.836 384.557C330.471 443.616 263.166 489.307 237.697 544.565C210.226 604.165 210.726 677.863 160.941 720.621C104.931 768.726 28.6282 795.993 -44.6631 787.073C-119.511 777.963 -186.544 731.761 -233.335 672.636C-277.29 617.092 -280.933 543.838 -292.46 473.951C-304.23 402.594 -334.338 326.642 -300.989 262.47C-267.616 198.25 -188.062 179.324 -122.94 147.747Z" fill="#D31C51"/>
</svg>
