<svg width="102" height="53" viewBox="0 0 102 53" fill="none" xmlns="http://www.w3.org/2000/svg">
<path d="M1.07822 10.2065C1.70496 12.1942 3.24496 13.197 5.30426 13.197C7.25612 13.197 8.7245 12.1942 9.42287 10.5826C9.45868 10.493 9.42287 10.4035 9.33333 10.3677L7.81124 9.63349C7.7038 9.57977 7.61426 9.63349 7.57845 9.72302C7.1845 10.5826 6.50403 11.2988 5.30426 11.2988C4.14031 11.2988 3.45985 10.6721 3.11961 9.68721C2.95845 9.18581 2.90473 8.70233 2.90473 6.91163C2.90473 5.12093 2.95845 4.63744 3.11961 4.13605C3.45985 3.15116 4.14031 2.52442 5.30426 2.52442C6.50403 2.52442 7.1845 3.2407 7.57845 4.10023C7.61426 4.18977 7.7038 4.24349 7.81124 4.18977L9.33333 3.45558C9.42287 3.41977 9.45868 3.33023 9.42287 3.2407C8.7245 1.62907 7.25612 0.626278 5.30426 0.626278C3.24496 0.626278 1.70496 1.62907 1.07822 3.61674C0.827519 4.36884 0.755891 4.97767 0.755891 6.91163C0.755891 8.84558 0.827519 9.45442 1.07822 10.2065ZM15.6759 13.197C17.7889 13.197 19.3647 12.1942 19.9915 10.2602C20.2422 9.50814 20.3138 8.82767 20.3138 6.91163C20.3138 4.99558 20.2422 4.31512 19.9915 3.56302C19.3647 1.62907 17.7889 0.626278 15.6759 0.626278C13.5808 0.626278 12.005 1.62907 11.3782 3.56302C11.1275 4.31512 11.0559 4.99558 11.0559 6.91163C11.0559 8.82767 11.1275 9.50814 11.3782 10.2602C12.005 12.1942 13.5808 13.197 15.6759 13.197ZM15.6759 11.2988C14.4761 11.2988 13.7599 10.69 13.4196 9.70512C13.2764 9.25744 13.2047 8.6307 13.2047 6.91163C13.2047 5.17465 13.2764 4.56581 13.4196 4.11814C13.7599 3.13326 14.4761 2.52442 15.6759 2.52442C16.8936 2.52442 17.6099 3.13326 17.9501 4.11814C18.0933 4.56581 18.165 5.17465 18.165 6.91163C18.165 8.6307 18.0933 9.25744 17.9501 9.70512C17.6099 10.69 16.8936 11.2988 15.6759 11.2988ZM22.6409 12.8209C22.6409 12.9284 22.7125 13 22.8199 13H24.3779C24.4853 13 24.5569 12.9284 24.5569 12.8209V5.37163H24.6285L27.2072 11.1019C27.2788 11.263 27.3862 11.3347 27.5474 11.3347H28.586C28.7472 11.3347 28.8546 11.263 28.9262 11.1019L31.5048 5.37163H31.5765V12.8209C31.5765 12.9284 31.6481 13 31.7555 13H33.3134C33.4209 13 33.4925 12.9284 33.4925 12.8209V1.00233C33.4925 0.894883 33.4209 0.823256 33.3134 0.823256H31.7376C31.5765 0.823256 31.4869 0.876976 31.4332 1.00233L28.1383 8.50535H28.0667L24.7181 1.00233C24.6644 0.876976 24.5748 0.823256 24.4137 0.823256H22.8199C22.7125 0.823256 22.6409 0.894883 22.6409 1.00233V12.8209ZM38.11 13C38.2174 13 38.2891 12.9284 38.2891 12.8209V8.50535C38.2891 8.43372 38.3249 8.39791 38.3965 8.39791H40.9214C43.2851 8.39791 44.9325 6.87581 44.9325 4.60163C44.9325 2.34535 43.2851 0.823256 40.9214 0.823256H36.3551C36.2477 0.823256 36.176 0.894883 36.176 1.00233V12.8209C36.176 12.9284 36.2477 13 36.3551 13H38.11ZM40.796 6.48186H38.3965C38.3249 6.48186 38.2891 6.44605 38.2891 6.37442V2.82884C38.2891 2.75721 38.3249 2.7214 38.3965 2.7214H40.796C42.0495 2.7214 42.8195 3.4914 42.8195 4.60163C42.8195 5.72977 42.0495 6.48186 40.796 6.48186ZM46.8782 12.8209C46.8782 12.9284 46.9499 13 47.0573 13H54.6857C54.7931 13 54.8648 12.9284 54.8648 12.8209V11.2809C54.8648 11.1735 54.7931 11.1019 54.6857 11.1019H49.0987C49.0271 11.1019 48.9913 11.066 48.9913 10.9944V7.91442C48.9913 7.84279 49.0271 7.80698 49.0987 7.80698H53.8082C53.9157 7.80698 53.9873 7.73535 53.9873 7.62791V6.08791C53.9873 5.98046 53.9157 5.90884 53.8082 5.90884H49.0987C49.0271 5.90884 48.9913 5.87302 48.9913 5.8014V2.82884C48.9913 2.75721 49.0271 2.7214 49.0987 2.7214H54.6857C54.7931 2.7214 54.8648 2.64977 54.8648 2.54232V1.00233C54.8648 0.894883 54.7931 0.823256 54.6857 0.823256H47.0573C46.9499 0.823256 46.8782 0.894883 46.8782 1.00233V12.8209ZM61.5497 13C61.6571 13 61.7287 12.9284 61.7287 12.8209V2.82884C61.7287 2.75721 61.7645 2.7214 61.8362 2.7214H65.0236C65.1311 2.7214 65.2027 2.64977 65.2027 2.54232V1.00233C65.2027 0.894883 65.1311 0.823256 65.0236 0.823256H56.3208C56.2134 0.823256 56.1418 0.894883 56.1418 1.00233V2.54232C56.1418 2.64977 56.2134 2.7214 56.3208 2.7214H59.5083C59.5799 2.7214 59.6157 2.75721 59.6157 2.82884V12.8209C59.6157 12.9284 59.6873 13 59.7948 13H61.5497ZM66.9362 12.8209C66.9362 12.9284 67.0078 13 67.1152 13H68.8701C68.9776 13 69.0492 12.9284 69.0492 12.8209V1.00233C69.0492 0.894883 68.9776 0.823256 68.8701 0.823256H67.1152C67.0078 0.823256 66.9362 0.894883 66.9362 1.00233V12.8209ZM76.1865 13C76.294 13 76.3656 12.9284 76.3656 12.8209V2.82884C76.3656 2.75721 76.4014 2.7214 76.473 2.7214H79.6605C79.7679 2.7214 79.8395 2.64977 79.8395 2.54232V1.00233C79.8395 0.894883 79.7679 0.823256 79.6605 0.823256H70.9577C70.8502 0.823256 70.7786 0.894883 70.7786 1.00233V2.54232C70.7786 2.64977 70.8502 2.7214 70.9577 2.7214H74.1451C74.2168 2.7214 74.2526 2.75721 74.2526 2.82884V12.8209C74.2526 12.9284 74.3242 13 74.4316 13H76.1865ZM85.5201 13.197C87.6331 13.197 89.2089 12.1942 89.8357 10.2602C90.0864 9.50814 90.158 8.82767 90.158 6.91163C90.158 4.99558 90.0864 4.31512 89.8357 3.56302C89.2089 1.62907 87.6331 0.626278 85.5201 0.626278C83.425 0.626278 81.8492 1.62907 81.2224 3.56302C80.9717 4.31512 80.9001 4.99558 80.9001 6.91163C80.9001 8.82767 80.9717 9.50814 81.2224 10.2602C81.8492 12.1942 83.425 13.197 85.5201 13.197ZM85.5201 11.2988C84.3203 11.2988 83.6041 10.69 83.2638 9.70512C83.1206 9.25744 83.0489 8.6307 83.0489 6.91163C83.0489 5.17465 83.1206 4.56581 83.2638 4.11814C83.6041 3.13326 84.3203 2.52442 85.5201 2.52442C86.7378 2.52442 87.4541 3.13326 87.7943 4.11814C87.9375 4.56581 88.0092 5.17465 88.0092 6.91163C88.0092 8.6307 87.9375 9.25744 87.7943 9.70512C87.4541 10.69 86.7378 11.2988 85.5201 11.2988ZM101.385 13C101.51 13 101.582 12.8926 101.51 12.7672L98.9495 7.80698C100.346 7.28767 101.26 6.05209 101.26 4.45837C101.26 2.30953 99.6121 0.823256 97.3737 0.823256H92.6642C92.5567 0.823256 92.4851 0.894883 92.4851 1.00233V12.8209C92.4851 12.9284 92.5567 13 92.6642 13H94.419C94.5265 13 94.5981 12.9284 94.5981 12.8209V8.18302C94.5981 8.1114 94.6339 8.07558 94.7055 8.07558H96.8007L99.1286 12.8209C99.1823 12.9463 99.2539 13 99.3972 13H101.385ZM97.3021 6.17744H94.7055C94.6339 6.17744 94.5981 6.14163 94.5981 6.07V2.82884C94.5981 2.75721 94.6339 2.7214 94.7055 2.7214H97.3021C98.4123 2.7214 99.1644 3.40186 99.1644 4.45837C99.1644 5.49698 98.4123 6.17744 97.3021 6.17744ZM1.32594 51.5587C1.32594 51.8235 1.50245 52 1.76722 52H20.5657C20.8305 52 21.007 51.8235 21.007 51.5587V47.7637C21.007 47.499 20.8305 47.3224 20.5657 47.3224H6.7978C6.62129 47.3224 6.53304 47.2342 6.53304 47.0577V22.4343C6.53304 22.1695 6.35652 21.993 6.09176 21.993H1.76722C1.50245 21.993 1.32594 22.1695 1.32594 22.4343V51.5587ZM34.7973 52.4854C40.0044 52.4854 43.8877 50.0142 45.4321 45.2484C46.0499 43.3951 46.2264 41.7182 46.2264 36.9965C46.2264 32.2748 46.0499 30.598 45.4321 28.7446C43.8877 23.9788 40.0044 21.5076 34.7973 21.5076C29.6343 21.5076 25.7511 23.9788 24.2066 28.7446C23.5888 30.598 23.4123 32.2748 23.4123 36.9965C23.4123 41.7182 23.5888 43.3951 24.2066 45.2484C25.7511 50.0142 29.6343 52.4854 34.7973 52.4854ZM34.7973 47.8078C31.8407 47.8078 30.0756 46.3075 29.2372 43.8805C28.8842 42.7773 28.7077 41.2328 28.7077 36.9965C28.7077 32.7161 28.8842 31.2158 29.2372 30.1126C30.0756 27.6855 31.8407 26.1852 34.7973 26.1852C37.798 26.1852 39.5631 27.6855 40.4015 30.1126C40.7546 31.2158 40.9311 32.7161 40.9311 36.9965C40.9311 41.2328 40.7546 42.7773 40.4015 43.8805C39.5631 46.3075 37.798 47.8078 34.7973 47.8078ZM51.8727 45.2484C53.4172 50.0142 57.3005 52.4854 62.5958 52.4854C67.7588 52.4854 71.7303 49.7936 73.1865 45.116C73.6719 43.6157 73.8926 41.0122 73.8926 38.541V35.9374C73.8926 35.6727 73.716 35.4962 73.4513 35.4962H63.5225C63.2577 35.4962 63.0812 35.6727 63.0812 35.9374V39.4677C63.0812 39.7324 63.2577 39.909 63.5225 39.909H68.4648C68.6413 39.909 68.7296 39.9972 68.7296 40.1737C68.7296 41.8947 68.5531 43.1303 68.2442 44.057C67.4499 46.484 65.1994 47.8078 62.5517 47.8078C59.5069 47.8078 57.7417 46.3075 56.9033 43.8805C56.5503 42.7773 56.3738 41.2328 56.3738 36.9965C56.3738 32.7161 56.5503 31.2158 56.9033 30.1126C57.7417 27.6855 59.5069 26.1852 62.5517 26.1852C65.4641 26.1852 67.2734 27.509 68.5972 29.8919C68.6855 30.0684 68.9061 30.2008 69.1709 30.1126L72.8776 28.4798C73.0983 28.3474 73.1424 28.0827 73.0541 27.862C71.8186 24.5083 68.2001 21.5076 62.5958 21.5076C57.3005 21.5076 53.4172 23.9788 51.8727 28.7446C51.2549 30.598 51.0784 32.2748 51.0784 36.9965C51.0784 41.7182 51.2549 43.3951 51.8727 45.2484ZM90.1296 52.4854C95.3367 52.4854 99.2199 50.0142 100.764 45.2484C101.382 43.3951 101.559 41.7182 101.559 36.9965C101.559 32.2748 101.382 30.598 100.764 28.7446C99.2199 23.9788 95.3367 21.5076 90.1296 21.5076C84.9666 21.5076 81.0833 23.9788 79.5389 28.7446C78.9211 30.598 78.7446 32.2748 78.7446 36.9965C78.7446 41.7182 78.9211 43.3951 79.5389 45.2484C81.0833 50.0142 84.9666 52.4854 90.1296 52.4854ZM90.1296 47.8078C87.173 47.8078 85.4079 46.3075 84.5694 43.8805C84.2164 42.7773 84.0399 41.2328 84.0399 36.9965C84.0399 32.7161 84.2164 31.2158 84.5694 30.1126C85.4079 27.6855 87.173 26.1852 90.1296 26.1852C93.1303 26.1852 94.8954 27.6855 95.7338 30.1126C96.0868 31.2158 96.2633 32.7161 96.2633 36.9965C96.2633 41.2328 96.0868 42.7773 95.7338 43.8805C94.8954 46.3075 93.1303 47.8078 90.1296 47.8078Z" fill="#C6C6C6"/>
</svg>
