<svg width="1599" height="693" viewBox="0 0 1599 693" fill="none" xmlns="http://www.w3.org/2000/svg">
<path opacity="0.1" d="M962.156 376.766C971.473 383.796 1046.02 387.642 1102.49 386.111C1158.97 384.571 1150.8 361.941 1134.44 355.477C1118.08 349.014 1099.26 353.956 1099.26 353.956C1099.26 353.956 1101.54 345.206 1089.95 336.277C1078.34 327.348 1060.21 332.667 1053.3 340.453C1053.3 340.453 1051.51 320.61 1033.84 328.094C1016.17 335.578 1012.73 355.099 1012.73 355.099C1012.73 355.099 997.448 352.539 984.966 356.432C969.697 361.194 957.035 372.892 962.156 376.766Z" fill="#10E8E8"/>
<path opacity="0.5" d="M487.794 400.858C489.674 402.219 492.802 403.23 496.676 403.995C500.588 404.77 505.397 405.328 510.755 405.715C521.47 406.49 534.463 406.584 547.011 406.376C559.559 406.169 571.673 405.649 580.659 405.186C585.147 404.95 588.861 404.732 591.44 404.572C592.735 404.487 593.746 404.42 594.436 404.383C594.776 404.364 595.04 404.345 595.22 404.326C595.305 404.316 595.381 404.317 595.418 404.317C595.437 404.317 595.456 404.317 595.466 404.317C595.475 404.317 595.475 404.317 595.475 404.317C595.475 404.317 595.475 404.317 595.409 403.372C595.343 402.427 595.343 402.427 595.343 402.427H595.333C595.324 402.427 595.305 402.427 595.286 402.427C595.239 402.427 595.173 402.436 595.088 402.436C594.908 402.446 594.653 402.464 594.303 402.493C593.614 402.54 592.612 402.606 591.317 402.682C588.738 402.842 585.034 403.06 580.555 403.296C571.588 403.759 559.493 404.279 546.973 404.487C534.453 404.694 521.527 404.591 510.887 403.825C505.567 403.438 500.843 402.89 497.035 402.143C493.189 401.378 490.421 400.433 488.89 399.337L487.794 400.858ZM509.545 379.673C498.783 378.369 489.835 380.826 485.261 385.059C482.956 387.195 481.709 389.85 482.058 392.713C482.408 395.548 484.307 398.345 487.784 400.858L488.89 399.327C485.658 396.993 484.194 394.612 483.929 392.477C483.664 390.37 484.553 388.281 486.537 386.439C490.553 382.716 498.849 380.278 509.309 381.544L509.545 379.673ZM516.613 392.411C517.322 392.911 518.087 393.167 518.853 393.11C519.609 393.063 520.28 392.723 520.78 392.212C521.782 391.211 522.188 389.576 521.895 387.885C521.281 384.398 517.709 380.656 509.545 379.664L509.319 381.544C517.038 382.48 519.618 385.863 520.034 388.215C520.251 389.453 519.902 390.407 519.439 390.87C519.212 391.097 518.976 391.201 518.73 391.22C518.484 391.239 518.135 391.163 517.7 390.861L516.613 392.411ZM554.693 366.445C539.952 365.906 529.19 371.254 522.698 377.207C519.457 380.174 517.246 383.311 516.15 385.976C515.602 387.299 515.309 388.565 515.328 389.652C515.357 390.738 515.716 391.778 516.613 392.411L517.7 390.87C517.454 390.7 517.227 390.341 517.209 389.604C517.19 388.867 517.398 387.885 517.879 386.703C518.853 384.351 520.875 381.431 523.965 378.606C530.116 372.974 540.397 367.815 554.617 368.335L554.693 366.445ZM594.785 385.447C595.626 385.012 595.626 385.003 595.617 385.003C595.617 385.003 595.617 384.993 595.607 384.993C595.598 384.984 595.588 384.965 595.579 384.946C595.56 384.908 595.532 384.851 595.485 384.785C595.409 384.644 595.286 384.455 595.125 384.209C594.804 383.718 594.313 383.028 593.633 382.196C592.262 380.533 590.117 378.322 586.98 376.083C580.697 371.594 570.482 367.031 554.684 366.454L554.617 368.344C570.067 368.901 579.912 373.361 585.884 377.623C588.87 379.758 590.902 381.847 592.177 383.396C592.81 384.171 593.264 384.804 593.547 385.248C593.689 385.466 593.793 385.636 593.859 385.749C593.888 385.806 593.916 385.844 593.925 385.872C593.935 385.881 593.935 385.891 593.944 385.9C593.954 385.891 593.954 385.891 594.785 385.447ZM595.485 404.307C596.004 404.269 596.401 403.816 596.363 403.296C596.325 402.776 595.872 402.379 595.352 402.417L595.485 404.307ZM488.342 400.093L488.899 399.327L488.342 400.093ZM509.432 380.618L509.545 379.683L509.432 380.618ZM554.655 367.39L554.617 368.335L554.655 367.39ZM593.954 385.891C594.199 386.354 594.766 386.533 595.229 386.288C595.692 386.042 595.872 385.475 595.626 385.012L593.954 385.891Z" fill="#10E8E8"/>
<path opacity="0.1" d="M590.647 403.674C590.647 403.674 517.983 407.671 501.929 403.882C485.876 400.093 493.68 383.217 506.796 382.98C519.911 382.744 520.903 386.439 520.903 386.439C520.903 386.439 528.878 374.788 554.334 373.427C579.799 372.076 619.939 403.702 590.647 403.674Z" fill="#10E8E8"/>
<path opacity="0.1" d="M1502.78 27.7562C1534.59 25.4551 1518.34 10.6074 1506.78 10.8885C1495.24 11.1592 1483.97 15.2512 1483.97 15.2512C1483.97 15.2512 1486.25 0.393059 1458.72 0.00780987C1433.23 -0.356615 1390.26 12.1067 1400.1 21.8525C1409.95 31.5774 1470.96 30.0468 1502.78 27.7562Z" fill="#10E8E8"/>
<path opacity="0.1" d="M194.379 166.43C194.379 166.43 58.6734 171.542 47.0501 167.398C35.4358 163.244 37.6711 144.356 54.042 137.651C70.4129 130.946 84.629 139.962 84.9866 141.212C84.9866 141.212 71.5841 120.835 96.5026 109.778C121.43 98.72 141.663 118.368 141.663 118.368C141.663 118.368 147.958 103.489 175.854 117.535C203.758 131.581 217.411 164.202 194.379 166.43Z" fill="#10E8E8"/>
</svg>
