<svg width="205" height="150" viewBox="0 0 205 150" fill="none" xmlns="http://www.w3.org/2000/svg">
<path d="M93.6549 36.5723C100.044 44.116 106.503 43.6427 110.393 38.8464C114.878 33.3343 115.432 18.6451 115.432 18.6451C115.432 18.6451 115.899 11.6324 111.034 7.71332C108.384 5.57776 102.526 3.04394 97.3488 5.86058" stroke="#800180" stroke-width="1.5" stroke-linecap="round" stroke-linejoin="round"/>
<path d="M86.3304 44.5024C86.3304 44.5024 88.5872 35.3772 87.6291 28.4741" stroke="#800180" stroke-width="1.5" stroke-linecap="round" stroke-linejoin="round"/>
<path d="M87.8658 18.9909C87.8658 18.9909 84.1891 18.6042 83.8717 22.1885C83.5542 25.7728 87.0981 26.8521 87.0981 26.8521" stroke="#800180" stroke-width="1.5" stroke-linecap="round" stroke-linejoin="round"/>
<path d="M85.3377 21.5479C85.7777 21.7824 86.1609 22.1108 86.4601 22.5097C86.7593 22.9087 86.9673 23.3684 87.0692 23.8566" stroke="#800180" stroke-width="1.5" stroke-linecap="round" stroke-linejoin="round"/>
<path d="M106.826 31.4584C106.826 31.4584 103.629 30.6273 102.157 32.0991C100.685 33.5709 102.093 34.3328 103.692 34.2058C104.459 34.1101 105.234 34.1101 106.001 34.2058" stroke="#800180" stroke-width="1.5" stroke-linecap="round" stroke-linejoin="round"/>
<path d="M113.475 17.9695C113.475 17.9695 107.848 16.2784 107.334 18.9796C106.82 21.6808 108.552 27.5969 107.848 28.4742C107.144 29.3515 105.227 29.542 105.227 29.542" stroke="#800180" stroke-width="1.5" stroke-linecap="round" stroke-linejoin="round"/>
<path d="M101.539 28.9824C101.539 28.9824 99.7267 33.0573 96.9217 33.825" stroke="#800180" stroke-width="1.5" stroke-linecap="round" stroke-linejoin="round"/>
<path d="M108.615 29.8596C108.615 29.8596 109.123 32.8263 110.468 34.2231" stroke="#800180" stroke-width="1.5" stroke-linecap="round" stroke-linejoin="round"/>
<path d="M110.468 23.2107V24.9999" stroke="#800180" stroke-width="1.5" stroke-linecap="round" stroke-linejoin="round"/>
<path d="M99.9807 22.6968V24.6823" stroke="#800180" stroke-width="1.5" stroke-linecap="round" stroke-linejoin="round"/>
<path d="M103.161 18.2238C103.161 18.2238 101.308 16.3711 97.9664 18.6683" stroke="#800180" stroke-width="1.5" stroke-linecap="round" stroke-linejoin="round"/>
<path d="M103.432 36.4856C103.432 36.4856 105.031 36.0181 105.862 36.4856" stroke="#800180" stroke-width="1.5" stroke-linecap="round" stroke-linejoin="round"/>
<path d="M109.348 39.9775L108.615 49.0393" stroke="#800180" stroke-width="1.5" stroke-linecap="round" stroke-linejoin="round"/>
<path d="M88.922 17.4446C88.922 17.4446 87.5771 25.45 88.922 24.6651C90.2668 23.8801 95.952 17.9525 96.4253 7.27466" stroke="#800180" stroke-width="1.5" stroke-linecap="round" stroke-linejoin="round"/>
<path d="M95.3171 6.46069C95.3171 6.46069 84.0795 6.66848 84.8702 19.9263" stroke="#800180" stroke-width="1.5" stroke-linecap="round" stroke-linejoin="round"/>
<path d="M93.6548 11.188C93.2104 14.2731 92.1674 17.2415 90.5842 19.9265" stroke="#800180" stroke-width="1.5" stroke-linecap="round" stroke-linejoin="round"/>
<path d="M91.1614 11.1877C91.0921 11.1242 91.1614 12.6364 90.5842 13.1905" stroke="#800180" stroke-width="1.5" stroke-linecap="round" stroke-linejoin="round"/>
<path d="M94.8034 4.92528C93.5545 3.76961 92.1305 2.81896 90.5842 2.10864" stroke="#800180" stroke-width="1.5" stroke-linecap="round" stroke-linejoin="round"/>
<path d="M96.0155 4.09428C96.0155 4.09428 96.2118 2.10878 95.3171 1.02368" stroke="#800180" stroke-width="1.5" stroke-linecap="round" stroke-linejoin="round"/>
<path d="M101.839 13.4905C104.367 14.0605 106.979 14.1467 109.539 13.7444" stroke="#800180" stroke-width="1.5" stroke-linecap="round" stroke-linejoin="round"/>
<path d="M84.8298 46.9326C84.8298 46.9326 89.4472 54.3494 96.9159 54.8573C99.0882 55.0224 101.272 54.7576 103.342 54.0782C105.411 53.3988 107.327 52.3181 108.979 50.8978" stroke="#800180" stroke-width="1.5" stroke-linecap="round" stroke-linejoin="round"/>
<path d="M82.7808 50.9153C82.7808 50.9153 87.5136 58.8226 96.4022 59.2094C105.291 59.5961 110.468 53.0682 110.468 53.0682" stroke="#800180" stroke-width="1.5" stroke-linecap="round" stroke-linejoin="round"/>
<path d="M99.9808 46.9326C99.9808 46.9326 101.453 49.0162 98.6417 50.9152" stroke="#800180" stroke-width="1.5" stroke-linecap="round" stroke-linejoin="round"/>
<path d="M102.347 11.188C104.027 11.597 105.781 11.597 107.461 11.188" stroke="#800180" stroke-width="1.5" stroke-linecap="round" stroke-linejoin="round"/>
<path d="M142.594 64.4902C143.373 65.7139 144.152 67.0645 144.932 68.5594C153.497 84.9108 175.886 135.934 175.886 135.934" stroke="#800180" stroke-width="1.5" stroke-linecap="round" stroke-linejoin="round"/>
<path d="M111.045 49.8704C114.799 51.0068 118.653 51.7799 122.554 52.1791C125.504 52.4677 129.273 52.4446 133.457 54.9034" stroke="#800180" stroke-width="1.5" stroke-linecap="round" stroke-linejoin="round"/>
<path d="M83.8486 46.0205C83.8486 46.0205 50.3722 49.853 44.0232 53.6912C37.6742 57.5295 32.7105 66.545 27.9141 76.8996C23.1177 87.2542 7.77054 123.703 13.7155 134.831C19.6604 145.959 32.4219 147.679 48.1038 136.938C58.1406 129.987 67.7919 122.496 77.0148 114.497" stroke="#800180" stroke-width="1.5" stroke-linecap="round" stroke-linejoin="round"/>
<path d="M61.4886 85.3552C61.4886 85.3552 53.1542 105.88 48.1154 109.718C43.0766 113.556 43.2671 109.337 46.3377 105.499C49.4083 101.661 78.3711 80.9456 78.3711 80.9456" stroke="#800180" stroke-width="1.5" stroke-linecap="round" stroke-linejoin="round"/>
<path d="M57.079 89.0029C57.079 89.0029 58.2334 82.654 57.079 78.6426" stroke="#800180" stroke-width="1.5" stroke-linecap="round" stroke-linejoin="round"/>
<path d="M21.0169 108.183C21.0169 108.183 23.3256 94.948 31.3772 83.0581" stroke="#800180" stroke-width="1.5" stroke-linecap="round" stroke-linejoin="round"/>
<path d="M28.7049 95.6174C28.7049 95.6174 26.2115 102.238 26.2115 105.308" stroke="#800180" stroke-width="1.5" stroke-linecap="round" stroke-linejoin="round"/>
<path d="M76.4549 86.8904C76.4549 86.8904 75.4968 101.47 72.2357 113.937" stroke="#800180" stroke-width="1.5" stroke-linecap="round" stroke-linejoin="round"/>
<path d="M78.3712 117.591C78.3712 117.591 82.2094 95.4559 81.0551 78.0366" stroke="#800180" stroke-width="1.5" stroke-linecap="round" stroke-linejoin="round"/>
<path d="M83.8486 82.1001C83.8486 82.1001 88.8123 77.5462 90.8382 73.5636C92.6275 70.0429 95.8712 69.2233 95.3172 73.9157C94.8228 77.1831 93.6213 80.3032 91.7964 83.0582" stroke="#800180" stroke-width="1.5" stroke-linecap="round" stroke-linejoin="round"/>
<path d="M108.356 69.1886C107.836 69.1886 107.576 69.1886 107.057 69.1886C107.032 69.1866 107.007 69.1936 106.987 69.2085C106.967 69.2233 106.953 69.2449 106.947 69.2694C106.774 70.6257 106.688 71.2953 106.52 72.6228C106.5 72.7739 106.449 72.9195 106.372 73.0511C106.295 73.1827 106.193 73.2977 106.071 73.3895C105.949 73.4812 105.81 73.548 105.662 73.5858C105.515 73.6236 105.361 73.6317 105.21 73.6098C104.477 73.6098 104.056 73.2461 104.136 72.617C104.321 71.2953 104.413 70.62 104.598 69.2636C104.598 69.2174 104.569 69.1828 104.506 69.1828L103.178 69.1482C103.152 69.1447 103.126 69.151 103.105 69.166C103.083 69.181 103.068 69.2035 103.063 69.229C102.867 70.5738 102.768 71.2375 102.578 72.5535C102.388 73.8695 103.45 74.5967 105.077 74.5967C106.705 74.5967 107.894 73.8637 108.05 72.5651C108.206 71.2664 108.286 70.5911 108.448 69.2463C108.477 69.2232 108.442 69.1886 108.356 69.1886Z" fill="#E4255C"/>
<path d="M114.705 70.4987C114.791 69.5117 113.954 68.9057 112.575 68.998C111.495 69.0731 110.953 69.1019 109.862 69.1423C109.837 69.1428 109.812 69.1515 109.793 69.1671C109.773 69.1828 109.759 69.2045 109.752 69.2289C109.568 70.8796 109.458 71.8724 109.308 73.2057C109.798 72.9413 110.322 72.747 110.866 72.6285V72.4611C110.866 72.4265 110.866 72.4092 110.93 72.4092L111.853 72.3572C112.246 73.0902 112.431 73.4538 112.852 74.1753C112.852 74.2273 112.904 74.2504 112.996 74.2388C113.573 74.1984 113.856 74.1695 114.428 74.1176C114.497 74.1176 114.531 74.0657 114.508 74.0195C114.035 73.2576 113.804 72.8651 113.354 72.0859C113.705 71.9749 114.019 71.7671 114.257 71.4864C114.496 71.2057 114.651 70.8634 114.705 70.4987ZM112.263 71.3587L111.051 71.428C111.011 71.428 110.993 71.4279 110.993 71.3875C111.045 70.8912 111.074 70.643 111.126 70.1466C111.127 70.139 111.129 70.1316 111.133 70.1249C111.136 70.1182 111.141 70.1122 111.147 70.1074C111.153 70.1026 111.16 70.0989 111.167 70.0968C111.174 70.0946 111.182 70.0939 111.19 70.0947C111.674 70.0947 111.917 70.0543 112.396 70.0196C112.875 69.985 113.285 70.2159 113.244 70.5968C113.204 70.9777 112.829 71.3183 112.269 71.3587H112.263Z" fill="#E4255C"/>
<path d="M120.65 70.464C119.749 70.6083 119.299 70.6718 118.387 70.793C118.362 70.795 118.338 70.8051 118.32 70.8218C118.301 70.8384 118.288 70.8608 118.283 70.8854C118.283 71.1855 118.248 71.3355 118.231 71.6299C118.231 71.6761 118.26 71.7049 118.324 71.6934L119.218 71.5722C119.259 71.5722 119.276 71.5722 119.276 71.6068C119.266 71.7889 119.227 71.9682 119.16 72.1378C119.047 72.3336 118.887 72.4983 118.695 72.6172C118.503 72.736 118.284 72.8053 118.058 72.8189C117.481 72.8939 117.123 72.7208 117.008 72.3802C116.933 72.0107 116.933 71.63 117.008 71.2605C117.005 70.8672 117.072 70.4766 117.204 70.1062C117.306 69.8975 117.462 69.7197 117.656 69.5909C117.85 69.4622 118.074 69.387 118.306 69.3731C118.508 69.3205 118.721 69.3304 118.917 69.4015C119.112 69.4726 119.282 69.6016 119.403 69.7714C119.403 69.806 119.466 69.8176 119.536 69.7714C119.957 69.5752 120.165 69.4713 120.586 69.2635C120.598 69.2585 120.608 69.2512 120.617 69.242C120.626 69.2328 120.632 69.2219 120.637 69.21C120.641 69.1981 120.643 69.1854 120.642 69.1728C120.641 69.1601 120.638 69.1478 120.632 69.1365C120.361 68.5305 119.605 68.1553 118.381 68.3169C117.857 68.3449 117.348 68.5071 116.905 68.7881C116.461 69.069 116.097 69.4593 115.847 69.9215C115.648 70.3886 115.544 70.891 115.542 71.399C115.455 71.871 115.477 72.3565 115.605 72.8189C115.882 73.6212 116.794 73.9386 117.989 73.7828C118.507 73.7476 119.007 73.5807 119.442 73.2979C119.878 73.015 120.234 72.6257 120.476 72.1667C120.621 71.7803 120.701 71.3728 120.713 70.9604L120.742 70.5275C120.748 70.4813 120.707 70.4582 120.65 70.464Z" fill="#E4255C"/>
<path d="M126.144 67.0527C124.517 67.4163 123.697 67.5779 122.052 67.8608C122.027 67.8633 122.003 67.8745 121.986 67.8923C121.968 67.9102 121.957 67.9337 121.954 67.9589C121.839 70.054 121.781 71.0814 121.671 73.0958C121.671 73.142 121.706 73.165 121.764 73.1535C123.455 72.8649 124.297 72.7033 125.96 72.3455C125.985 72.3429 126.008 72.3318 126.026 72.3139C126.044 72.296 126.055 72.2725 126.058 72.2473L126.087 71.4393C126.087 71.3931 126.052 71.37 125.994 71.3816C124.88 71.624 124.32 71.7394 123.195 71.9587C123.156 71.9587 123.139 71.9472 123.143 71.9241C123.143 71.4912 123.172 71.2777 123.189 70.839C123.189 70.839 123.189 70.7928 123.253 70.7813C124.182 70.6081 124.649 70.5158 125.561 70.3196C125.586 70.3152 125.608 70.3035 125.626 70.2859C125.643 70.2684 125.655 70.2459 125.659 70.2214L125.688 69.3961C125.688 69.3499 125.654 69.3268 125.596 69.3383C124.672 69.5346 124.217 69.6269 123.287 69.8001C123.247 69.8001 123.23 69.8001 123.23 69.7655C123.23 69.3441 123.264 69.1306 123.281 68.7035C123.281 68.6688 123.281 68.6515 123.339 68.6457C124.447 68.4322 125.001 68.3225 126.098 68.0686C126.122 68.0648 126.144 68.0531 126.161 68.0353C126.178 68.0176 126.188 67.9947 126.19 67.9704L126.219 67.1162C126.248 67.0643 126.196 67.0412 126.144 67.0527Z" fill="#E4255C"/>
<path d="M131.968 65.5581L130.941 65.8524C130.916 65.8574 130.894 65.8702 130.877 65.8889C130.86 65.9077 130.85 65.9313 130.848 65.9563C130.848 67.3185 130.848 67.9938 130.814 69.3213H130.767C129.879 68.2362 129.451 67.6763 128.603 66.5335C128.585 66.5114 128.56 66.4956 128.532 66.4883C128.504 66.4811 128.474 66.4828 128.447 66.4931L127.339 66.7644C127.314 66.7671 127.292 66.7784 127.275 66.7964C127.258 66.8144 127.248 66.8378 127.247 66.8625C127.183 68.9576 127.154 69.985 127.097 71.9994C127.097 72.0456 127.131 72.0629 127.189 72.0513L128.262 71.7974C128.287 71.7947 128.31 71.7833 128.327 71.7653C128.344 71.7473 128.354 71.7239 128.355 71.6993C128.384 70.4064 128.401 69.7484 128.43 68.4151H128.476C129.336 69.5291 129.775 70.0658 130.669 71.1163C130.71 71.1625 130.756 71.1682 130.831 71.1509L131.939 70.8393C131.963 70.8342 131.985 70.8222 132.003 70.8048C132.02 70.7874 132.032 70.7652 132.037 70.7411C132.037 68.7268 132.037 67.6994 132.037 65.6042C132.06 65.5638 132.02 65.5407 131.968 65.5581Z" fill="#E4255C"/>
<path d="M137.665 63.9129C137.665 63.861 137.63 63.8437 137.572 63.861C135.749 64.4382 134.831 64.6748 132.955 65.1481C132.931 65.1518 132.909 65.1635 132.892 65.1813C132.875 65.1991 132.865 65.2219 132.863 65.2462L132.816 66.1351C132.816 66.1812 132.845 66.2043 132.903 66.187C133.538 66.0312 133.861 65.9504 134.49 65.7772C134.525 65.7772 134.542 65.7888 134.542 65.8118C134.473 67.4857 134.438 68.311 134.369 69.9329C134.369 69.9791 134.404 69.9964 134.456 69.9849L135.645 69.6616C135.708 69.6616 135.743 69.6039 135.743 69.5577C135.8 67.9359 135.829 67.1163 135.893 65.4367C135.893 65.4078 135.893 65.3847 135.951 65.3732C136.58 65.1943 136.897 65.1019 137.52 64.9114C137.546 64.9054 137.568 64.8915 137.585 64.8717C137.601 64.852 137.611 64.8275 137.613 64.8018L137.665 63.9129Z" fill="#E4255C"/>
<path d="M96.6273 86.0304C106.537 81.9094 112.898 74.1405 111.94 72.8938C111.807 72.7507 111.635 72.649 111.446 72.6009C111.257 72.5527 111.057 72.5603 110.872 72.6225C110.328 72.7411 109.804 72.9354 109.314 73.1997C107.698 74.002 105.574 75.5084 103.432 76.8533C100.566 78.5915 97.5756 80.1174 94.486 81.4188" stroke="#800180" stroke-width="1.5" stroke-linecap="round" stroke-linejoin="round"/>
<path d="M94.486 88.7144L91.8944 90.2497" stroke="#800180" stroke-width="1.5" stroke-linecap="round" stroke-linejoin="round"/>
<path d="M95.3806 91.7852L93.6549 92.9049" stroke="#800180" stroke-width="1.5" stroke-linecap="round" stroke-linejoin="round"/>
<path d="M97.8394 89.0031C97.8394 89.0031 103.53 86.6078 105.862 83.0581" stroke="#800180" stroke-width="1.5" stroke-linecap="round" stroke-linejoin="round"/>
<path d="M97.8394 92.3451C97.8394 92.3451 104.315 89.3091 105.862 86.0308" stroke="#800180" stroke-width="1.5" stroke-linecap="round" stroke-linejoin="round"/>
<path d="M81.2743 109.141C81.2743 109.141 84.8932 101.857 91.8944 99.0751C98.8956 96.2931 105.129 91.9758 107.242 87.8547" stroke="#800180" stroke-width="1.5" stroke-linecap="round" stroke-linejoin="round"/>
<path d="M97.1411 76.4551C98.0322 73.9069 98.7514 71.3018 99.2939 68.6574C100.494 63.2954 100.148 61.8005 100.148 61.8005C100.148 61.8005 113.152 61.9563 125.319 59.6591C137.486 57.362 142.057 55.0706 142.057 55.0706C142.057 55.0706 139.748 72.9631 134.71 88.3507C129.671 103.738 127.824 106.243 127.824 106.243C127.824 106.243 122.473 112.667 108.852 114.734C95.2306 116.8 86.1689 115.617 86.1689 115.617C86.1689 115.617 89.9667 108.171 91.6174 101.285" stroke="#10E8E8" stroke-width="2" stroke-linecap="round" stroke-linejoin="round"/>
<path d="M108.24 82.7988C108.24 82.7988 121.879 82.4236 132.817 76.9866" stroke="#10E8E8" stroke-width="2" stroke-linecap="round" stroke-linejoin="round"/>
<path d="M128.845 95.0059C128.845 95.0059 120.823 99.8888 107.49 100.778" stroke="#10E8E8" stroke-width="2" stroke-linecap="round" stroke-linejoin="round"/>
<path d="M131.12 113.937C134.662 122.562 138.941 130.866 143.91 138.756" stroke="#800180" stroke-width="1.5" stroke-linecap="round" stroke-linejoin="round"/>
<path d="M141.093 124.425L145.185 133.25" stroke="#800180" stroke-width="1.5" stroke-linecap="round" stroke-linejoin="round"/>
<path d="M124.344 115.663C124.344 115.663 124.724 127.876 120.632 138.75" stroke="#800180" stroke-width="1.5" stroke-linecap="round" stroke-linejoin="round"/>
<path d="M50.0605 53.3276C50.0605 53.3276 65.4365 55.0592 64.1263 80.1953" stroke="#800180" stroke-width="1.5" stroke-linecap="round" stroke-linejoin="round"/>
<path d="M58.2334 50.9153C58.2334 50.9153 68.4956 55.071 70.3888 69.2465C71.8144 79.9301 69.5461 84.6572 69.5461 84.6572" stroke="#800180" stroke-width="1.5" stroke-linecap="round" stroke-linejoin="round"/>
<path d="M55.5437 54.1877C55.5437 54.1877 56.1901 52.4561 59.2838 52.7505" stroke="#800180" stroke-width="1.5" stroke-linecap="round" stroke-linejoin="round"/>
<path d="M60.0861 57.9914C60.5061 57.4566 61.0854 57.0693 61.7402 56.8856C62.395 56.702 63.0912 56.7315 63.7281 56.9698" stroke="#800180" stroke-width="1.5" stroke-linecap="round" stroke-linejoin="round"/>
<path d="M63.1394 63.0012C63.5594 62.4664 64.1387 62.0791 64.7935 61.8954C65.4483 61.7117 66.1445 61.7412 66.7814 61.9796" stroke="#800180" stroke-width="1.5" stroke-linecap="round" stroke-linejoin="round"/>
<path d="M64.8997 68.2827C65.4004 67.8215 66.0345 67.531 66.7108 67.4532C67.3871 67.3754 68.0707 67.5143 68.663 67.8499" stroke="#800180" stroke-width="1.5" stroke-linecap="round" stroke-linejoin="round"/>
<path d="M65.3673 74.0545C65.9314 73.6728 66.6024 73.4804 67.2831 73.5053C67.9638 73.5302 68.6189 73.7711 69.1536 74.193" stroke="#800180" stroke-width="1.5" stroke-linecap="round" stroke-linejoin="round"/>
<path d="M65.3904 80.3394C65.9945 80.0268 66.6824 79.9143 67.3546 80.018C68.0269 80.1218 68.6487 80.4364 69.1305 80.9166" stroke="#800180" stroke-width="1.5" stroke-linecap="round" stroke-linejoin="round"/>
<path d="M120.274 53.3684C121.724 54.5684 122.663 56.2749 122.901 58.1417" stroke="#800180" stroke-width="1.5" stroke-linecap="round" stroke-linejoin="round"/>
<path d="M127.668 53.645C127.668 53.645 128.822 54.0894 129.584 57.287" stroke="#800180" stroke-width="1.5" stroke-linecap="round" stroke-linejoin="round"/>
<path d="M123.449 55.071C123.449 55.071 124.649 53.7896 126.837 54.6669" stroke="#800180" stroke-width="1.5" stroke-linecap="round" stroke-linejoin="round"/>
<path d="M65.9964 131.489C65.9964 131.489 70.4118 135.807 78.3711 136.684" stroke="#800180" stroke-width="1.5" stroke-linecap="round" stroke-linejoin="round"/>
<path d="M74.3425 132.355C75.5554 133.205 76.931 133.794 78.3827 134.087" stroke="#800180" stroke-width="1.5" stroke-linecap="round" stroke-linejoin="round"/>
<path d="M107.242 135.933C107.242 135.933 113.187 134.462 115.68 130.531" stroke="#800180" stroke-width="1.5" stroke-linecap="round" stroke-linejoin="round"/>
<path d="M12.3822 138.745H1.25998" stroke="#800180" stroke-width="1.5" stroke-linecap="round" stroke-linejoin="round"/>
<path d="M48.1154 138.745H204" stroke="#800180" stroke-width="1.5" stroke-linecap="round" stroke-linejoin="round"/>
<path d="M27.2792 148.516H183.17" stroke="#800180" stroke-width="1.5" stroke-linecap="round" stroke-linejoin="round"/>
<path d="M99.4151 101.13C100.075 101.193 100.739 101.207 101.401 101.17C102.67 101.118 103.819 101.008 103.819 101.008" stroke="#10E8E8" stroke-width="2" stroke-linecap="round" stroke-linejoin="round"/>
<path d="M93.8453 36.7856C93.8453 36.7856 96.281 42.315 101.539 44.491C106.797 46.667 109.348 43.9138 109.348 43.9138L109.764 39.5503C109.764 39.5503 106.959 42.6094 103.415 42.3381C99.8711 42.0668 95.5134 39.4868 93.8453 36.7856Z" fill="#800180"/>
</svg>
