<svg width="117" height="81" viewBox="0 0 117 81" fill="none" xmlns="http://www.w3.org/2000/svg">
<path d="M89.0008 6.78615C82.6001 3.4773 74.5392 2.69629 66.8256 4.63435C62.8643 5.64677 59.0942 7.31165 55.8432 9.54701C47.199 2.45363 38.5661 3.18803 34.1179 4.28081C21.559 7.392 11.4621 20.4539 11.1247 33.9898C10.829 45.8142 15.8525 56.9621 25.3436 65.4183C27.4054 67.2294 29.6568 68.883 32.0272 70.355L32.3004 70.5238C33.0074 70.9577 33.7145 71.3691 34.4457 71.758L34.743 71.9042C36.3645 72.7784 38.0583 73.561 39.7794 74.2296L40.2615 74.4272C40.9493 74.6763 41.6387 74.9254 42.3506 75.1745L43.0176 75.377C43.752 75.6261 44.488 75.8301 45.3847 76.0841L45.6836 76.1612C46.5803 76.3926 47.4786 76.6224 48.3995 76.8072L48.9539 76.8908C49.6674 77.0483 50.405 77.1591 51.1443 77.27L52.0217 77.4082C52.6902 77.495 53.3603 77.5577 54.0305 77.6204L54.8854 77.712C55.8319 77.7827 56.7801 77.8518 57.7298 77.8759C58.7021 77.9 59.6743 77.8791 60.6241 77.855L61.4822 77.8068C62.1781 77.7779 62.8498 77.7489 63.5472 77.6734L63.7095 77.6782L64.4295 77.6027C65.2185 77.5304 65.9851 77.4339 66.9606 77.2957C66.9606 77.2957 67.1936 77.2556 67.2161 77.2556C68.1224 77.1158 69.0288 76.9534 69.9384 76.7445L70.6358 76.5999C71.3108 76.4553 71.9857 76.2865 72.6623 76.0953L73.4545 75.8832C74.1536 75.6919 74.8542 75.4557 75.7188 75.1761L76.0691 75.0684C76.9337 74.7663 77.7983 74.4401 78.6404 74.1138L78.9907 73.9612C79.7171 73.6558 80.4193 73.3489 81.1216 73.0195L81.7323 72.7109C82.3879 72.4024 83.0452 72.0488 83.8439 71.6294L84.1251 71.4735C85.6984 70.5864 87.2283 69.6287 88.6891 68.5777L89.0892 68.2868C89.7031 67.8384 90.2929 67.3676 91.0498 66.7617C91.0498 66.7617 91.2378 66.6283 91.2394 66.6042C92.6343 65.4584 93.9617 64.2419 95.175 62.9515L95.3646 62.7474C95.9126 62.1592 96.4365 61.5711 97.0086 60.8897L97.1998 60.6631C103.049 53.5858 106.27 45.1907 106.49 36.3746C106.791 24.0632 99.9269 12.4541 89.0008 6.78615Z" fill="white"/>
<path d="M89.0008 6.78615C82.6001 3.4773 74.5392 2.69629 66.8256 4.63435C62.8643 5.64677 59.0942 7.31165 55.8432 9.54701C47.199 2.45363 38.5661 3.18803 34.1179 4.28081C21.559 7.392 11.4621 20.4539 11.1247 33.9898C10.829 45.8142 15.8525 56.9621 25.3436 65.4183C27.4054 67.2294 29.6568 68.883 32.0272 70.355L32.3004 70.5238C33.0074 70.9577 33.7145 71.3691 34.4457 71.758L34.743 71.9042C36.3645 72.7784 38.0583 73.561 39.7794 74.2296L40.2615 74.4272C40.9493 74.6763 41.6387 74.9254 42.3506 75.1745L43.0176 75.377C43.752 75.6261 44.488 75.8301 45.3847 76.0841L45.6836 76.1612C46.5803 76.3926 47.4786 76.6224 48.3995 76.8072L48.9539 76.8908C49.6674 77.0483 50.405 77.1591 51.1443 77.27L52.0217 77.4082C52.6902 77.495 53.3603 77.5577 54.0305 77.6204L54.8854 77.712C55.8319 77.7827 56.7801 77.8518 57.7298 77.8759C58.7021 77.9 59.6743 77.8791 60.6241 77.855L61.4822 77.8068C62.1781 77.7779 62.8498 77.7489 63.5472 77.6734L63.7095 77.6782L64.4295 77.6027C65.2185 77.5304 65.9851 77.4339 66.9606 77.2957C66.9606 77.2957 67.1936 77.2556 67.2161 77.2556C68.1224 77.1158 69.0288 76.9534 69.9384 76.7445L70.6358 76.5999C71.3108 76.4553 71.9857 76.2865 72.6623 76.0953L73.4545 75.8832C74.1536 75.6919 74.8542 75.4557 75.7188 75.1761L76.0691 75.0684C76.9337 74.7663 77.7983 74.4401 78.6404 74.1138L78.9907 73.9612C79.7171 73.6558 80.4193 73.3489 81.1216 73.0195L81.7323 72.7109C82.3879 72.4024 83.0452 72.0488 83.8439 71.6294L84.1251 71.4735C85.6984 70.5864 87.2283 69.6287 88.6891 68.5777L89.0892 68.2868C89.7031 67.8384 90.2929 67.3676 91.0498 66.7617C91.0498 66.7617 91.2378 66.6283 91.2394 66.6042C92.6343 65.4584 93.9617 64.2419 95.175 62.9515L95.3646 62.7474C95.9126 62.1592 96.4365 61.5711 97.0086 60.8897L97.1998 60.6631C103.049 53.5858 106.27 45.1907 106.49 36.3746C106.791 24.0632 99.9269 12.4541 89.0008 6.78615ZM95.0384 58.8954L94.8231 59.1686C94.3458 59.7358 93.8444 60.3015 93.3221 60.8447L93.155 61.0263C92.0124 62.2476 90.7573 63.3982 89.4572 64.4766L89.1262 64.7465C88.583 65.1724 88.0157 65.6224 87.3552 66.1141L87.0724 66.315C85.7048 67.3001 84.2473 68.2129 82.7672 69.0324L82.3446 69.2767C81.7339 69.6094 81.1248 69.9179 80.445 70.2474L79.9292 70.4884C79.2719 70.8195 78.5938 71.1039 77.9156 71.3867L77.5878 71.541C76.7923 71.8447 75.9743 72.1485 75.1564 72.4522L74.8992 72.539C74.8767 72.539 74.6662 72.6032 74.6662 72.6032C74.0121 72.8186 73.3597 73.0098 72.6832 73.2027L71.9375 73.4164C71.3075 73.5851 70.6551 73.7555 70.0042 73.9001L69.3759 74.0463C68.5145 74.2103 67.6548 74.3742 66.6086 74.5333C66.5861 74.5333 66.3756 74.5735 66.3756 74.5735C65.6315 74.6699 64.8891 74.7679 64.1467 74.8418L63.4733 74.8949L63.2869 74.9141C62.6602 74.9672 62.0109 75.0218 61.3617 75.0507L60.5277 75.0764C58.7439 75.1247 56.8926 75.0781 55.1136 74.9415L54.3053 74.8756C53.6592 74.8129 53.0116 74.7277 52.3897 74.6426L51.5589 74.5285C50.8438 74.4417 50.1527 74.3083 49.4842 74.1749L48.9539 74.0929C48.0781 73.9081 47.228 73.7024 46.3762 73.4726L45.9616 73.3698C45.2497 73.1673 44.5603 72.9648 43.8709 72.7382L43.2281 72.5374C42.5628 72.3124 41.92 72.0874 41.1181 71.7676L40.7967 71.6439C39.1688 71.001 37.5891 70.2666 36.0351 69.4647L35.7844 69.3201C35.0757 68.9553 34.4136 68.568 33.7531 68.1582L33.4799 67.9895C31.2462 66.6139 29.1313 65.0567 27.137 63.2922C18.3273 55.4306 13.6316 45.0557 13.9064 34.0653C14.2149 21.7089 23.3814 9.80413 34.7977 6.98703C38.8522 5.97782 46.8792 5.32055 54.8533 12.3513C55.3531 12.7803 56.0698 12.798 56.6113 12.4188C59.7482 10.0886 63.5199 8.3546 67.5053 7.34218C74.565 5.57446 81.9348 6.26708 87.7168 9.25935C97.706 14.4404 103.993 25.0644 103.711 36.3103C103.503 44.4965 100.505 52.2937 95.0384 58.8954Z" fill="#200A52"/>
<path d="M93.1465 24.3011C91.059 20.7753 88.0282 17.828 84.3031 15.8835C77.8798 12.5506 69.1907 13.7237 62.1391 18.8726C61.5493 19.2984 61.3902 20.1035 61.792 20.7158C62.1921 21.3747 62.5922 22.032 62.9683 22.7358C63.767 24.1227 67.8954 35.8716 63.2029 46.7303C63.1547 46.7994 63.1531 46.891 63.1274 46.9601L63.0052 47.2124C62.7353 47.807 62.904 48.506 63.4263 48.8901C67.926 52.2905 74.0214 54.8505 80.014 55C83.138 55.0787 86.2556 54.5082 89.0711 53.0266L89.6818 52.6939C90.0819 52.4496 90.5046 52.2054 90.9047 51.937C91.0462 51.8486 91.1651 51.712 91.2615 51.5754C93.1385 48.7519 94.5109 45.7291 95.3546 42.5311C95.4076 42.2772 95.4606 42.0008 95.5635 41.5637C95.6406 41.2873 95.6937 40.9884 95.7467 40.712C95.7997 40.4131 95.8543 40.1125 95.909 39.7895C95.9636 39.444 96.0199 39.0744 96.0777 38.5666L96.1388 37.9897C96.1999 37.3886 96.2384 36.7651 96.2545 36.1175C96.3605 31.9071 95.2356 27.8269 93.1465 24.3011ZM93.3667 37.7358L93.2799 38.4043C93.2494 38.7273 93.2172 39.0519 93.1626 39.3733C93.1096 39.6497 93.079 39.9277 93.026 40.2041C92.973 40.4581 92.9199 40.7104 92.8171 41.1491C92.7656 41.3789 92.7126 41.6087 92.6612 41.8401C91.9204 44.6459 90.7408 47.3265 89.1049 49.8093C88.8461 49.9877 88.5408 50.142 88.2114 50.3428L87.7887 50.563C81.0087 54.0984 71.929 51.4404 65.967 47.3088C70.7527 35.5502 66.4073 23.1938 65.3885 21.3618C65.2117 21.034 65.0108 20.7046 64.834 20.3751C68.5993 17.9228 72.7759 16.6838 76.6633 16.7802C78.9308 16.8365 81.0939 17.3539 83.0143 18.3519C89.5516 21.7331 93.6624 28.6673 93.4776 36.0484C93.4647 36.6269 93.4277 37.1829 93.3667 37.7358Z" fill="#200A52"/>
<path d="M74.7493 61.8845C69.287 60.8688 63.7444 58.4149 59.1306 54.9871C58.6083 54.5806 57.8434 54.6304 57.3693 55.0819C54.0974 58.1722 49.8228 60.5667 44.5694 62.2878L44.3589 62.3521V62.3746C43.7756 62.5224 43.369 63.0447 43.332 63.6458C43.3176 64.2468 43.6743 64.7883 44.248 65.0117C48.5838 66.6252 53.2152 67.5283 57.9816 67.6472C63.9517 67.7967 69.6743 66.7361 75.0321 64.5312C75.5946 64.2902 75.9561 63.7213 75.8774 63.117C75.8228 62.4903 75.3712 61.9921 74.7493 61.8845ZM49.0048 63.6024C52.6318 62.0725 55.7816 60.1601 58.4091 57.8862C61.8674 60.3112 65.6873 62.1898 69.6389 63.4465C63.0405 65.2962 55.6996 65.3444 49.0048 63.6024Z" fill="#200A52"/>
<path d="M56.4453 39.1755C56.5144 39.1771 56.5835 39.1788 56.6542 39.1579C57.305 39.0807 57.8032 38.5617 57.8659 37.914C57.9254 37.3821 57.9607 36.8743 57.98 36.1576C57.9928 35.6722 57.98 35.2078 57.9687 34.745C57.9093 32.4968 57.5638 30.5667 57.2938 29.3325C57.1476 28.7042 56.6044 28.2044 55.931 28.2558C55.2834 28.2398 54.7161 28.6881 54.5844 29.3342C54.4815 29.7247 54.4253 30.1409 54.369 30.533C54.3144 30.9026 54.2822 31.2481 54.2501 31.6177C54.0782 33.837 54.3931 36.0676 55.1725 38.2627C55.3895 38.8011 55.8909 39.1611 56.4453 39.1755Z" fill="#200A52"/>
<path d="M52.0325 48.0721C44.5535 38.7851 43.9074 29.4837 50.1073 20.4233C50.2712 20.3349 50.3902 20.1983 50.4882 20.0392C50.8498 19.4688 50.7533 18.7022 50.2552 18.2506C46.0448 14.4179 41.333 13.0262 36.5794 14.2042C36.0893 14.3311 35.6008 14.4806 35.0849 14.6766L34.5482 14.8711C34.2444 15.0028 33.9391 15.133 33.6579 15.2648C33.5165 15.3307 33.3767 15.3966 33.0472 15.5733C32.7901 15.7051 32.5314 15.861 32.2501 15.9928L31.8259 16.2836L31.6137 16.417C31.3791 16.5504 31.1429 16.7063 30.9308 16.8638L30.341 17.2896C30.1048 17.4696 29.8685 17.648 29.6564 17.828C29.4909 17.9855 29.3254 18.1205 29.0875 18.3229C28.8738 18.5254 28.6617 18.7054 28.4479 18.932C28.2583 19.0895 28.0687 19.2936 27.9015 19.4736C27.6878 19.6761 27.4982 19.8802 27.3069 20.0842C27.1398 20.2883 26.9502 20.4924 26.783 20.6965C26.5934 20.9006 26.4247 21.1272 26.2576 21.3313C26.0904 21.5579 25.9217 21.7861 25.7546 22.0127C25.5874 22.2168 25.4428 22.445 25.2982 22.6732C25.131 22.9013 24.9623 23.1279 24.8177 23.3786C24.673 23.6068 24.5509 23.835 24.4079 24.0632C24.2632 24.3139 24.117 24.5662 23.9724 24.8169L23.6317 25.4806C23.5095 25.7554 23.3633 26.0302 23.2396 26.3275L22.9455 26.9912C22.8458 27.2901 22.7221 27.5649 22.6225 27.8397L22.473 28.2993L22.3734 28.5516C22.2962 28.8505 22.1966 29.1269 22.097 29.4242L21.9941 29.8389L21.9427 30.0687C21.8656 30.3901 21.7868 30.7131 21.7097 31.0361L21.6534 31.4507C21.5747 31.8428 21.5184 32.2349 21.4622 32.627C21.4622 32.627 21.4622 32.627 21.4622 32.6495C21.4027 33.1814 21.3658 33.7118 21.3529 34.2437C21.1585 42.0426 24.2102 49.6438 29.9633 55.691C30.3474 56.0943 30.7299 56.4977 31.1381 56.8786C31.4097 57.1405 31.7311 57.2642 32.0782 57.2723C32.1248 57.2739 32.1939 57.2755 32.2646 57.253C40.9714 56.2663 47.5618 53.8381 51.8718 49.9861C52.4134 49.4943 52.4809 48.6619 52.0325 48.0721ZM32.6085 54.4407C32.3819 54.227 32.1794 54.0132 31.9769 53.777C26.7429 48.2746 23.9515 41.374 24.1283 34.316C24.1395 33.8757 24.1732 33.4145 24.2311 32.9516C24.2632 32.6045 24.3179 32.259 24.395 31.9376L24.4513 31.568C24.5043 31.2916 24.5573 31.0377 24.6345 30.7613L24.7116 30.4849L24.7887 30.186C24.8418 29.9321 24.9398 29.6798 25.0153 29.4275L25.115 29.1527L25.2162 28.8088C25.3158 28.5564 25.4139 28.3041 25.6099 27.8686L25.7819 27.4556C25.8815 27.2033 26.002 26.9751 26.1724 26.6312L26.4166 26.1282C26.5613 25.9 26.6834 25.6718 26.8039 25.4437L27.1655 24.8732C27.3101 24.645 27.4548 24.4409 27.5978 24.2352C27.7183 24.0295 27.863 23.8254 28.006 23.6438C28.1506 23.4397 28.2936 23.2581 28.4383 23.0524C28.6054 22.8483 28.7484 22.6667 28.9156 22.4851C29.0586 22.3035 29.2257 22.1219 29.3687 21.9403C29.5359 21.7588 29.7014 21.5788 29.891 21.3972L30.3667 20.9231C30.5563 20.7431 30.746 20.5856 31.0063 20.3365L31.4321 19.9766C31.6218 19.8191 31.8098 19.6616 32.165 19.3932L32.5185 19.1249C32.7065 18.9915 32.9186 18.8806 33.1067 18.7456L33.3188 18.6122L33.6723 18.3888C33.8829 18.278 34.1175 18.1446 34.3296 18.0353L34.5642 17.926L34.8455 17.7717C35.0801 17.6625 35.3372 17.5532 35.6409 17.4439C35.6409 17.4439 36.0154 17.2912 36.0395 17.2687C36.4364 17.1402 36.8333 17.0116 37.2528 16.9056C40.748 16.0442 44.1758 16.9168 47.3995 19.4752C41.2109 28.9759 41.7701 39.0615 49.0306 48.7374C45.2525 51.63 39.7404 53.5536 32.6085 54.4407Z" fill="#200A52"/>
</svg>
