<svg width="117" height="81" viewBox="0 0 117 81" fill="none" xmlns="http://www.w3.org/2000/svg">
<path d="M89.0008 6.78615C82.6001 3.4773 74.5392 2.69629 66.8256 4.63435C62.8643 5.64677 59.0942 7.31165 55.8432 9.54701C47.199 2.45363 38.5661 3.18803 34.1179 4.28081C21.559 7.392 11.4621 20.4539 11.1247 33.9898C10.829 45.8142 15.8525 56.9621 25.3436 65.4183C27.4054 67.2294 29.6568 68.883 32.0272 70.355L32.3004 70.5238C33.0074 70.9577 33.7145 71.3691 34.4457 71.758L34.743 71.9042C36.3645 72.7784 38.0583 73.561 39.7794 74.2296L40.2615 74.4272C40.9493 74.6763 41.6387 74.9254 42.3506 75.1745L43.0176 75.377C43.752 75.6261 44.488 75.8301 45.3847 76.0841L45.6836 76.1612C46.5803 76.3926 47.4786 76.6224 48.3995 76.8072L48.9539 76.8908C49.6674 77.0483 50.405 77.1591 51.1443 77.27L52.0217 77.4082C52.6902 77.495 53.3603 77.5577 54.0305 77.6204L54.8854 77.712C55.8319 77.7827 56.7801 77.8518 57.7298 77.8759C58.7021 77.9 59.6743 77.8791 60.6241 77.855L61.4822 77.8068C62.1781 77.7779 62.8498 77.7489 63.5472 77.6734L63.7095 77.6782L64.4295 77.6027C65.2185 77.5304 65.9851 77.4339 66.9606 77.2957C66.9606 77.2957 67.1936 77.2556 67.2161 77.2556C68.1224 77.1158 69.0288 76.9534 69.9384 76.7445L70.6358 76.5999C71.3108 76.4553 71.9857 76.2865 72.6623 76.0953L73.4545 75.8832C74.1536 75.6919 74.8542 75.4557 75.7188 75.1761L76.0691 75.0684C76.9337 74.7663 77.7983 74.4401 78.6404 74.1138L78.9907 73.9612C79.7171 73.6558 80.4193 73.3489 81.1216 73.0195L81.7323 72.7109C82.3879 72.4024 83.0452 72.0488 83.8439 71.6294L84.1251 71.4735C85.6984 70.5864 87.2283 69.6287 88.6891 68.5777L89.0892 68.2868C89.7031 67.8384 90.2929 67.3676 91.0498 66.7617C91.0498 66.7617 91.2378 66.6283 91.2394 66.6042C92.6343 65.4584 93.9617 64.2419 95.175 62.9515L95.3646 62.7474C95.9126 62.1592 96.4365 61.5711 97.0086 60.8897L97.1998 60.6631C103.049 53.5858 106.27 45.1907 106.49 36.3746C106.791 24.0632 99.9269 12.4541 89.0008 6.78615Z" fill="white"/>
<path d="M89.0008 6.78615C82.6001 3.4773 74.5392 2.69629 66.8256 4.63435C62.8643 5.64677 59.0942 7.31165 55.8432 9.54701C47.199 2.45363 38.5661 3.18803 34.1179 4.28081C21.559 7.392 11.4621 20.4539 11.1247 33.9898C10.829 45.8142 15.8525 56.9621 25.3436 65.4183C27.4054 67.2294 29.6568 68.883 32.0272 70.355L32.3004 70.5238C33.0074 70.9577 33.7145 71.3691 34.4457 71.758L34.743 71.9042C36.3645 72.7784 38.0583 73.561 39.7794 74.2296L40.2615 74.4272C40.9493 74.6763 41.6387 74.9254 42.3506 75.1745L43.0176 75.377C43.752 75.6261 44.488 75.8301 45.3847 76.0841L45.6836 76.1612C46.5803 76.3926 47.4786 76.6224 48.3995 76.8072L48.9539 76.8908C49.6674 77.0483 50.405 77.1591 51.1443 77.27L52.0217 77.4082C52.6902 77.495 53.3603 77.5577 54.0305 77.6204L54.8854 77.712C55.8319 77.7827 56.7801 77.8518 57.7298 77.8759C58.7021 77.9 59.6743 77.8791 60.6241 77.855L61.4822 77.8068C62.1781 77.7779 62.8498 77.7489 63.5472 77.6734L63.7095 77.6782L64.4295 77.6027C65.2185 77.5304 65.9851 77.4339 66.9606 77.2957C66.9606 77.2957 67.1936 77.2556 67.2161 77.2556C68.1224 77.1158 69.0288 76.9534 69.9384 76.7445L70.6358 76.5999C71.3108 76.4553 71.9857 76.2865 72.6623 76.0953L73.4545 75.8832C74.1536 75.6919 74.8542 75.4557 75.7188 75.1761L76.0691 75.0684C76.9337 74.7663 77.7983 74.4401 78.6404 74.1138L78.9907 73.9612C79.7171 73.6558 80.4193 73.3489 81.1216 73.0195L81.7323 72.7109C82.3879 72.4024 83.0452 72.0488 83.8439 71.6294L84.1251 71.4735C85.6984 70.5864 87.2283 69.6287 88.6891 68.5777L89.0892 68.2868C89.7031 67.8384 90.2929 67.3676 91.0498 66.7617C91.0498 66.7617 91.2378 66.6283 91.2394 66.6042C92.6343 65.4584 93.9617 64.2419 95.175 62.9515L95.3646 62.7474C95.9126 62.1592 96.4365 61.5711 97.0086 60.8897L97.1998 60.6631C103.049 53.5858 106.27 45.1907 106.49 36.3746C106.791 24.0632 99.9269 12.4541 89.0008 6.78615ZM95.0384 58.8954L94.8231 59.1686C94.3458 59.7358 93.8444 60.3015 93.3221 60.8447L93.155 61.0263C92.0124 62.2476 90.7573 63.3982 89.4572 64.4766L89.1262 64.7465C88.583 65.1724 88.0157 65.6224 87.3552 66.1141L87.0724 66.315C85.7048 67.3001 84.2473 68.2129 82.7672 69.0324L82.3446 69.2767C81.7339 69.6094 81.1248 69.9179 80.445 70.2474L79.9292 70.4884C79.2719 70.8195 78.5938 71.1039 77.9156 71.3867L77.5878 71.541C76.7923 71.8447 75.9743 72.1485 75.1564 72.4522L74.8992 72.539C74.8767 72.539 74.6662 72.6032 74.6662 72.6032C74.0121 72.8186 73.3597 73.0098 72.6832 73.2027L71.9375 73.4164C71.3075 73.5851 70.6551 73.7555 70.0042 73.9001L69.3759 74.0463C68.5145 74.2103 67.6548 74.3742 66.6086 74.5333C66.5861 74.5333 66.3756 74.5735 66.3756 74.5735C65.6315 74.6699 64.8891 74.7679 64.1467 74.8418L63.4733 74.8949L63.2869 74.9141C62.6602 74.9672 62.0109 75.0218 61.3617 75.0507L60.5277 75.0764C58.7439 75.1247 56.8926 75.0781 55.1136 74.9415L54.3053 74.8756C53.6592 74.8129 53.0116 74.7277 52.3897 74.6426L51.5589 74.5285C50.8438 74.4417 50.1527 74.3083 49.4842 74.1749L48.9539 74.0929C48.0781 73.9081 47.228 73.7024 46.3762 73.4726L45.9616 73.3698C45.2497 73.1673 44.5603 72.9648 43.8709 72.7382L43.2281 72.5374C42.5628 72.3124 41.92 72.0874 41.1181 71.7676L40.7967 71.6439C39.1688 71.001 37.5891 70.2666 36.0351 69.4647L35.7844 69.3201C35.0757 68.9553 34.4136 68.568 33.7531 68.1582L33.4799 67.9895C31.2462 66.6139 29.1313 65.0567 27.137 63.2922C18.3273 55.4306 13.6316 45.0557 13.9064 34.0653C14.2149 21.7089 23.3814 9.80413 34.7977 6.98703C38.8522 5.97782 46.8792 5.32055 54.8533 12.3513C55.3531 12.7803 56.0698 12.798 56.6113 12.4188C59.7482 10.0886 63.5199 8.3546 67.5053 7.34218C74.565 5.57446 81.9348 6.26708 87.7168 9.25935C97.706 14.4404 103.993 25.0644 103.711 36.3103C103.503 44.4965 100.505 52.2937 95.0384 58.8954Z" fill="#200A52"/>
<path d="M93.1465 24.3011C91.059 20.7753 88.0282 17.828 84.3031 15.8835C77.8798 12.5506 69.1907 13.7237 62.1391 18.8726C61.5493 19.2984 61.3902 20.1035 61.792 20.7158C62.1921 21.3747 62.5922 22.032 62.9683 22.7358C63.767 24.1227 67.8954 35.8716 63.2029 46.7303C63.1547 46.7994 63.1531 46.891 63.1274 46.9601L63.0052 47.2124C62.7353 47.807 62.904 48.506 63.4263 48.8901C67.926 52.2905 74.0214 54.8505 80.014 55C83.138 55.0787 86.2556 54.5082 89.0711 53.0266L89.6818 52.6939C90.0819 52.4496 90.5046 52.2054 90.9047 51.937C91.0462 51.8486 91.1651 51.712 91.2615 51.5754C93.1385 48.7519 94.5109 45.7291 95.3546 42.5311C95.4076 42.2772 95.4606 42.0008 95.5635 41.5637C95.6406 41.2873 95.6937 40.9884 95.7467 40.712C95.7997 40.4131 95.8543 40.1125 95.909 39.7895C95.9636 39.444 96.0199 39.0744 96.0777 38.5666L96.1388 37.9897C96.1999 37.3886 96.2384 36.7651 96.2545 36.1175C96.3605 31.9071 95.2356 27.8269 93.1465 24.3011ZM93.3667 37.7358L93.2799 38.4043C93.2494 38.7273 93.2172 39.0519 93.1626 39.3733C93.1096 39.6497 93.079 39.9277 93.026 40.2041C92.973 40.4581 92.9199 40.7104 92.8171 41.1491C92.7656 41.3789 92.7126 41.6087 92.6612 41.8401C91.9204 44.6459 90.7408 47.3265 89.1049 49.8093C88.8461 49.9877 88.5408 50.142 88.2114 50.3428L87.7887 50.563C81.0087 54.0984 71.929 51.4404 65.967 47.3088C70.7527 35.5502 66.4073 23.1938 65.3885 21.3618C65.2117 21.034 65.0108 20.7046 64.834 20.3751C68.5993 17.9228 72.7759 16.6838 76.6633 16.7802C78.9308 16.8365 81.0939 17.3539 83.0143 18.3519C89.5516 21.7331 93.6624 28.6673 93.4776 36.0484C93.4647 36.6269 93.4277 37.1829 93.3667 37.7358Z" fill="#200A52"/>
<path d="M74.7493 61.8845C69.287 60.8688 63.7444 58.4149 59.1306 54.9871C58.6083 54.5806 57.8434 54.6304 57.3693 55.0819C54.0974 58.1722 49.8228 60.5667 44.5694 62.2878L44.3589 62.3521V62.3746C43.7756 62.5224 43.369 63.0447 43.332 63.6458C43.3176 64.2468 43.6743 64.7883 44.248 65.0117C48.5838 66.6252 53.2152 67.5283 57.9816 67.6472C63.9517 67.7967 69.6743 66.7361 75.0321 64.5312C75.5946 64.2902 75.9561 63.7213 75.8774 63.117C75.8228 62.4903 75.3712 61.9921 74.7493 61.8845ZM49.0048 63.6024C52.6318 62.0725 55.7816 60.1601 58.4091 57.8862C61.8674 60.3112 65.6873 62.1898 69.6389 63.4465C63.0405 65.2962 55.6996 65.3444 49.0048 63.6024Z" fill="#200A52"/>
<path d="M56.4453 39.1755C56.5144 39.1771 56.5835 39.1788 56.6542 39.1579C57.305 39.0807 57.8032 38.5617 57.8659 37.914C57.9254 37.3821 57.9607 36.8743 57.98 36.1576C57.9928 35.6722 57.98 35.2078 57.9687 34.745C57.9093 32.4968 57.5638 30.5667 57.2938 29.3325C57.1476 28.7042 56.6044 28.2044 55.931 28.2558C55.2834 28.2398 54.7161 28.6881 54.5844 29.3342C54.4815 29.7247 54.4253 30.1409 54.369 30.533C54.3144 30.9026 54.2822 31.2481 54.2501 31.6177C54.0782 33.837 54.3931 36.0676 55.1725 38.2627C55.3895 38.8011 55.8909 39.1611 56.4453 39.1755Z" fill="#200A52"/>
<path d="M52.0325 48.0721C44.5535 38.7851 43.9074 29.4837 50.1073 20.4233C50.2712 20.3349 50.3902 20.1983 50.4882 20.0392C50.8498 19.4688 50.7533 18.7022 50.2552 18.2506C46.0448 14.4179 41.333 13.0262 36.5794 14.2042C36.0893 14.3311 35.6008 14.4806 35.0849 14.6766L34.5482 14.8711C34.2444 15.0028 33.9391 15.133 33.6579 15.2648C33.5165 15.3307 33.3767 15.3966 33.0472 15.5733C32.7901 15.7051 32.5314 15.861 32.2501 15.9928L31.8259 16.2836L31.6137 16.417C31.3791 16.5504 31.1429 16.7063 30.9308 16.8638L30.341 17.2896C30.1048 17.4696 29.8685 17.648 29.6564 17.828C29.4909 17.9855 29.3254 18.1205 29.0875 18.3229C28.8738 18.5254 28.6617 18.7054 28.4479 18.932C28.2583 19.0895 28.0687 19.2936 27.9015 19.4736C27.6878 19.6761 27.4982 19.8802 27.3069 20.0842C27.1398 20.2883 26.9502 20.4924 26.783 20.6965C26.5934 20.9006 26.4247 21.1272 26.2576 21.3313C26.0904 21.5579 25.9217 21.7861 25.7546 22.0127C25.5874 22.2168 25.4428 22.445 25.2982 22.6732C25.131 22.9013 24.9623 23.1279 24.8177 23.3786C24.673 23.6068 24.5509 23.835 24.4079 24.0632C24.2632 24.3139 24.117 24.5662 23.9724 24.8169L23.6317 25.4806C23.5095 25.7554 23.3633 26.0302 23.2396 26.3275L22.9455 26.9912C22.8458 27.2901 22.7221 27.5649 22.6225 27.8397L22.473 28.2993L22.3734 28.5516C22.2962 28.8505 22.1966 29.1269 22.097 29.4242L21.9941 29.8389L21.9427 30.0687C21.8656 30.3901 21.7868 30.7131 21.7097 31.0361L21.6534 31.4507C21.5747 31.8428 21.5184 32.2349 21.4622 32.627C21.4622 32.627 21.4622 32.627 21.4622 32.6495C21.4027 33.1814 21.3658 33.7118 21.3529 34.2437C21.1585 42.0426 24.2102 49.6438 29.9633 55.691C30.3474 56.0943 30.7299 56.4977 31.1381 56.8786C31.4097 57.1405 31.7311 57.2642 32.0782 57.2723C32.1248 57.2739 32.1939 57.2755 32.2646 57.253C40.9714 56.2663 47.5618 53.8381 51.8718 49.9861C52.4134 49.4943 52.4809 48.6619 52.0325 48.0721ZM32.6085 54.4407C32.3819 54.227 32.1794 54.0132 31.9769 53.777C26.7429 48.2746 23.9515 41.374 24.1283 34.316C24.1395 33.8757 24.1732 33.4145 24.2311 32.9516C24.2632 32.6045 24.3179 32.259 24.395 31.9376L24.4513 31.568C24.5043 31.2916 24.5573 31.0377 24.6345 30.7613L24.7116 30.4849L24.7887 30.186C24.8418 29.9321 24.9398 29.6798 25.0153 29.4275L25.115 29.1527L25.2162 28.8088C25.3158 28.5564 25.4139 28.3041 25.6099 27.8686L25.7819 27.4556C25.8815 27.2033 26.002 26.9751 26.1724 26.6312L26.4166 26.1282C26.5613 25.9 26.6834 25.6718 26.8039 25.4437L27.1655 24.8732C27.3101 24.645 27.4548 24.4409 27.5978 24.2352C27.7183 24.0295 27.863 23.8254 28.006 23.6438C28.1506 23.4397 28.2936 23.2581 28.4383 23.0524C28.6054 22.8483 28.7484 22.6667 28.9156 22.4851C29.0586 22.3035 29.2257 22.1219 29.3687 21.9403C29.5359 21.7588 29.7014 21.5788 29.891 21.3972L30.3667 20.9231C30.5563 20.7431 30.746 20.5856 31.0063 20.3365L31.4321 19.9766C31.6218 19.8191 31.8098 19.6616 32.165 19.3932L32.5185 19.1249C32.7065 18.9915 32.9186 18.8806 33.1067 18.7456L33.3188 18.6122L33.6723 18.3888C33.8829 18.278 34.1175 18.1446 34.3296 18.0353L34.5642 17.926L34.8455 17.7717C35.0801 17.6625 35.3372 17.5532 35.6409 17.4439C35.6409 17.4439 36.0154 17.2912 36.0395 17.2687C36.4364 17.1402 36.8333 17.0116 37.2528 16.9056C40.748 16.0442 44.1758 16.9168 47.3995 19.4752C41.2109 28.9759 41.7701 39.0615 49.0306 48.7374C45.2525 51.63 39.7404 53.5536 32.6085 54.4407Z" fill="#200A52"/>
<path d="M33.4856 3.7944L34.6123 3.96764C35.3102 4.07494 35.7889 4.72765 35.6816 5.4255L35.5084 6.5522C35.4011 7.25006 34.7484 7.72879 34.0505 7.62149L32.9238 7.44825C32.226 7.34095 31.7472 6.68825 31.8545 5.99039L32.0278 4.86369C32.1351 4.16584 32.7878 3.6871 33.4856 3.7944Z" fill="#10E8E8" stroke="#200A52" stroke-width="1.3"/>
<path d="M22.68 9.19016L23.4745 10.0076C23.9666 10.5139 23.9551 11.3233 23.4488 11.8154L22.6313 12.6099C22.125 13.102 21.3156 13.0905 20.8236 12.5841L20.0291 11.7667C19.537 11.2604 19.5485 10.451 20.0548 9.95891L20.8723 9.16441C21.3786 8.67231 22.188 8.68384 22.68 9.19016Z" fill="#10E8E8" stroke="#200A52" stroke-width="1.3"/>
<path d="M24.7965 23.5714L25.3073 24.5905C25.6237 25.2216 25.3685 25.9898 24.7374 26.3062L23.7183 26.8171C23.0871 27.1335 22.3189 26.8783 22.0025 26.2471L21.4917 25.2281C21.1752 24.5969 21.4304 23.8287 22.0616 23.5123L23.0807 23.0014C23.7119 22.685 24.48 22.9402 24.7965 23.5714Z" fill="#10E8E8" stroke="#200A52" stroke-width="1.3"/>
<path d="M69.9349 3.14316L70.4457 4.16223C70.7621 4.79342 70.507 5.56159 69.8758 5.878L68.8567 6.38886C68.2255 6.70526 67.4573 6.45009 67.1409 5.8189L66.6301 4.79983C66.3137 4.16864 66.5689 3.40047 67.2 3.08406L68.2191 2.5732C68.8503 2.2568 69.6185 2.51197 69.9349 3.14316Z" fill="#10E8E8" stroke="#200A52" stroke-width="1.3"/>
<path d="M23.3267 55.0085L23.5344 56.1293C23.663 56.8236 23.2045 57.4906 22.5103 57.6193L21.3895 57.827C20.6952 57.9557 20.0281 57.4972 19.8995 56.8029L19.6918 55.6821C19.5631 54.9878 20.0216 54.3208 20.7159 54.1921L21.8367 53.9844C22.5309 53.8557 23.198 54.3142 23.3267 55.0085Z" fill="#10E8E8" stroke="#200A52" stroke-width="1.3"/>
<path d="M59.8106 10.0533L60.3215 11.0724C60.6379 11.7036 60.3827 12.4718 59.7515 12.7882L58.7325 13.299C58.1013 13.6154 57.3331 13.3602 57.0167 12.7291L56.5058 11.71C56.1894 11.0788 56.4446 10.3106 57.0758 9.99421L58.0949 9.48336C58.7261 9.16695 59.4942 9.42213 59.8106 10.0533Z" fill="#10E8E8" stroke="#200A52" stroke-width="1.3"/>
<path d="M43.1759 53.6774L44.0148 54.4492C44.5343 54.9273 44.568 55.736 44.09 56.2556L43.3181 57.0945C42.8401 57.6141 42.0313 57.6477 41.5117 57.1697L40.6728 56.3978C40.1532 55.9198 40.1196 55.111 40.5976 54.5914L41.3695 53.7526C41.8475 53.233 42.6563 53.1993 43.1759 53.6774Z" fill="#10E8E8" stroke="#200A52" stroke-width="1.3"/>
<path d="M40.5687 69.7276L40.4272 70.8588C40.3396 71.5594 39.7007 72.0563 39.0001 71.9687L37.8689 71.8272C37.1683 71.7396 36.6714 71.1006 36.759 70.4L36.9005 69.2689C36.9881 68.5683 37.6271 68.0714 38.3277 68.159L39.4588 68.3005C40.1594 68.3881 40.6563 69.027 40.5687 69.7276Z" fill="#10E8E8" stroke="#200A52" stroke-width="1.3"/>
<path d="M43.0315 15.1254L43.8704 15.8972C44.39 16.3752 44.4236 17.184 43.9456 17.7036L43.1737 18.5425C42.6957 19.0621 41.8869 19.0957 41.3673 18.6177L40.5285 17.8458C40.0089 17.3678 39.9752 16.559 40.4533 16.0394L41.2251 15.2005C41.7032 14.681 42.5119 14.6473 43.0315 15.1254Z" fill="#10E8E8" stroke="#200A52" stroke-width="1.3"/>
<path d="M69.9812 36.7382L69.0939 37.4539C68.5443 37.8971 67.7395 37.811 67.2962 37.2614L66.5805 36.3741C66.1373 35.8245 66.2235 35.0197 66.773 34.5764L67.6603 33.8607C68.2099 33.4175 69.0147 33.5036 69.458 34.0532L70.1737 34.9405C70.6169 35.4901 70.5308 36.2949 69.9812 36.7382Z" fill="#10E8E8" stroke="#200A52" stroke-width="1.3"/>
<path d="M61.0608 45.4873L59.9247 45.5805C59.221 45.6383 58.6038 45.1147 58.546 44.411L58.4527 43.2749C58.3949 42.5712 58.9186 41.9539 59.6222 41.8961L60.7584 41.8029C61.462 41.7451 62.0793 42.2687 62.1371 42.9724L62.2304 44.1085C62.2881 44.8122 61.7645 45.4295 61.0608 45.4873Z" fill="#10E8E8" stroke="#200A52" stroke-width="1.3"/>
<path d="M15.65 33.1758L16.4445 33.9932C16.9365 34.4995 16.925 35.3089 16.4187 35.801L15.6012 36.5955C15.0949 37.0876 14.2856 37.0761 13.7935 36.5697L12.999 35.7523C12.5069 35.246 12.5184 34.4366 13.0247 33.9445L13.8422 33.15C14.3485 32.6579 15.1579 32.6694 15.65 33.1758Z" fill="#10E8E8" stroke="#200A52" stroke-width="1.3"/>
<path d="M75.2704 69.9765L76.0649 70.794C76.557 71.3003 76.5454 72.1097 76.0391 72.6018L75.2217 73.3963C74.7154 73.8884 73.906 73.8768 73.4139 73.3705L72.6194 72.5531C72.1273 72.0467 72.1388 71.2374 72.6451 70.7453L73.4626 69.9508C73.9689 69.4587 74.7783 69.4702 75.2704 69.9765Z" fill="#10E8E8" stroke="#200A52" stroke-width="1.3"/>
<path d="M29.3977 47.2417L30.4776 47.6067C31.1465 47.8327 31.5055 48.5582 31.2795 49.2271L30.9145 50.3071C30.6885 50.9759 29.963 51.3349 29.2941 51.1089L28.2141 50.7439C27.5453 50.5179 27.1863 49.7924 27.4123 49.1235L27.7773 48.0436C28.0033 47.3747 28.7288 47.0157 29.3977 47.2417Z" fill="#10E8E8" stroke="#200A52" stroke-width="1.3"/>
<path d="M83.2016 4.47409L82.0749 4.64733C81.3771 4.75463 80.8983 5.40734 81.0056 6.10519L81.1789 7.23189C81.2862 7.92974 81.9389 8.40848 82.6367 8.30118L83.7634 8.12794C84.4613 8.02064 84.94 7.36794 84.8327 6.67008L84.6595 5.54338C84.5522 4.84553 83.8995 4.36679 83.2016 4.47409Z" fill="#10E8E8" stroke="#200A52" stroke-width="1.3"/>
<path d="M100.435 14.6909L99.6407 15.5084C99.1487 16.0147 99.1602 16.824 99.6665 17.3161L100.484 18.1106C100.99 18.6027 101.8 18.5912 102.292 18.0849L103.086 17.2674C103.578 16.7611 103.567 15.9517 103.06 15.4596L102.243 14.6651C101.737 14.173 100.927 14.1846 100.435 14.6909Z" fill="#10E8E8" stroke="#200A52" stroke-width="1.3"/>
<path d="M91.8908 24.2511L91.3799 25.2701C91.0635 25.9013 91.3187 26.6695 91.9499 26.9859L92.9689 27.4968C93.6001 27.8132 94.3683 27.558 94.6847 26.9268L95.1956 25.9077C95.512 25.2766 95.2568 24.5084 94.6256 24.192L93.6065 23.6811C92.9754 23.3647 92.2072 23.6199 91.8908 24.2511Z" fill="#10E8E8" stroke="#200A52" stroke-width="1.3"/>
<path d="M88.7002 62.1161L88.4925 63.237C88.3638 63.9312 88.8223 64.5983 89.5166 64.727L90.6374 64.9347C91.3317 65.0633 91.9987 64.6048 92.1274 63.9106L92.3351 62.7897C92.4638 62.0955 92.0053 61.4284 91.311 61.2998L90.1902 61.0921C89.4959 60.9634 88.8289 61.4219 88.7002 62.1161Z" fill="#10E8E8" stroke="#200A52" stroke-width="1.3"/>
<path d="M73.5114 54.357L72.6725 55.1289C72.1529 55.6069 72.1192 56.4157 72.5973 56.9353L73.3691 57.7742C73.8472 58.2938 74.6559 58.3274 75.1755 57.8494L76.0144 57.0775C76.534 56.5995 76.5677 55.7907 76.0896 55.2711L75.3178 54.4322C74.8397 53.9127 74.0309 53.879 73.5114 54.357Z" fill="#10E8E8" stroke="#200A52" stroke-width="1.3"/>
<path d="M68.8347 12.7516L67.9958 13.5234C67.4762 14.0015 67.4425 14.8102 67.9206 15.3298L68.6924 16.1687C69.1705 16.6883 69.9792 16.722 70.4988 16.2439L71.3377 15.4721C71.8573 14.994 71.891 14.1852 71.4129 13.6657L70.6411 12.8268C70.163 12.3072 69.3543 12.2735 68.8347 12.7516Z" fill="#10E8E8" stroke="#200A52" stroke-width="1.3"/>
<path d="M44.8386 34.2139L44.8718 35.3533C44.8923 36.0591 45.4811 36.6146 46.1868 36.594L47.3263 36.5609C48.0321 36.5403 48.5875 35.9515 48.567 35.2458L48.5338 34.1063C48.5133 33.4006 47.9245 32.8451 47.2188 32.8656L46.0793 32.8988C45.3735 32.9193 44.8181 33.5081 44.8386 34.2139Z" fill="#10E8E8" stroke="#200A52" stroke-width="1.3"/>
<path d="M101.037 33.8554L100.243 34.6729C99.7507 35.1792 99.7622 35.9886 100.269 36.4807L101.086 37.2752C101.592 37.7673 102.402 37.7557 102.894 37.2494L103.688 36.432C104.18 35.9257 104.169 35.1163 103.663 34.6242L102.845 33.8297C102.339 33.3376 101.529 33.3491 101.037 33.8554Z" fill="#10E8E8" stroke="#200A52" stroke-width="1.3"/>
<path d="M56.8389 63.7712L57.1339 64.8723C57.3166 65.5543 56.9119 66.2553 56.2299 66.438L55.1288 66.7331C54.4468 66.9158 53.7458 66.5111 53.5631 65.8291L53.268 64.728C53.0853 64.046 53.49 63.345 54.172 63.1622L55.2731 62.8672C55.9551 62.6845 56.6561 63.0892 56.8389 63.7712Z" fill="#10E8E8" stroke="#200A52" stroke-width="1.3"/>
<path d="M88.7223 45.5078L88.4651 46.6183C88.3058 47.3062 88.7343 47.9929 89.4221 48.1522L90.5327 48.4094C91.2205 48.5687 91.9073 48.1403 92.0666 47.4524L92.3238 46.3419C92.4831 45.654 92.0546 44.9673 91.3668 44.808L90.2562 44.5508C89.5684 44.3915 88.8816 44.8199 88.7223 45.5078Z" fill="#10E8E8" stroke="#200A52" stroke-width="1.3"/>
<path d="M65.9147 76.0989L66.4417 77.1097C66.768 77.7358 66.5251 78.5079 65.899 78.8343L64.8881 79.3613C64.2621 79.6876 63.4899 79.4447 63.1636 78.8186L62.6366 77.8077C62.3102 77.1816 62.5532 76.4095 63.1793 76.0831L64.1901 75.5562C64.8162 75.2298 65.5883 75.4728 65.9147 76.0989Z" fill="#10E8E8" stroke="#200A52" stroke-width="1.3"/>
</svg>
