<svg width="120" height="120" viewBox="0 0 120 120" fill="none" xmlns="http://www.w3.org/2000/svg">
<g clip-path="url(#clip0)">
<path d="M108 43.0198C107.99 45.7198 106.67 48.2398 104.46 49.7998L90 60.0799L75.54 49.7798C73.34 48.2298 72.02 45.7098 72 43.0098V20.6698L90 12.8998L108 20.6698V43.0198ZM110.8 17.5198L90.8 8.87984C90.29 8.65984 89.72 8.65984 89.22 8.87984L69.22 17.5198C68.49 17.8398 68.02 18.5598 68.02 19.3598V43.0198C68.03 46.9998 69.97 50.7398 73.22 53.0498L88.85 64.1698C89.54 64.6598 90.47 64.6598 91.17 64.1698L106.8 53.0498C110.05 50.7498 112 47.0098 112.01 43.0198V19.3498C112 18.5598 111.53 17.8398 110.8 17.5198Z" fill="#800180"/>
<path d="M103.56 27.2494L87.56 47.2494C86.88 48.0894 85.66 48.2494 84.8 47.5994L76.8 41.5994C76.23 41.1694 75.93 40.4694 76.01 39.7594C76.1 39.0494 76.55 38.4394 77.21 38.1594C77.87 37.8794 78.63 37.9694 79.2 38.3994L85.64 43.2394L100.44 24.7494C101.13 23.8894 102.39 23.7494 103.25 24.4394C104.11 25.1294 104.25 26.3894 103.56 27.2494Z" fill="#800180"/>
<path d="M85.64 43.2394L100.44 24.7494C101.13 23.8894 102.39 23.7494 103.25 24.4394C104.11 25.1294 104.25 26.3894 103.56 27.2494L87.56 47.2494C86.88 48.0894 85.66 48.2494 84.8 47.5994L76.8 41.5994C76.23 41.1694 75.93 40.4694 76.01 39.7594C76.1 39.0494 76.55 38.4394 77.21 38.1594C77.87 37.8794 78.63 37.9694 79.2 38.3994L85.64 43.2394Z" fill="#800180"/>
<path d="M108 43.0198C107.99 45.7198 106.67 48.2398 104.46 49.7998L90 60.0799L75.54 49.7798C73.34 48.2298 72.02 45.7098 72 43.0098V20.6698L90 12.8998L108 20.6698V43.0198ZM110.8 17.5198L90.8 8.87984C90.29 8.65984 89.72 8.65984 89.22 8.87984L69.22 17.5198C68.49 17.8398 68.02 18.5598 68.02 19.3598V43.0198C68.03 46.9998 69.97 50.7398 73.22 53.0498L88.85 64.1698C89.54 64.6598 90.47 64.6598 91.17 64.1698L106.8 53.0498C110.05 50.7498 112 47.0098 112.01 43.0198V19.3498C112 18.5598 111.53 17.8398 110.8 17.5198Z" fill="#800180"/>
<path d="M116 43.0096C115.98 48.2896 113.41 53.2396 109.1 56.2996L90 69.8996L70.9 56.2996C66.59 53.2396 64.02 48.2996 64 43.0196V15.4096L90 4.17963L116 15.4096V43.0096ZM118.8 12.2596L90.8 0.159629C90.29 -0.0603711 89.72 -0.0603711 89.22 0.159629L61.2 12.2596C60.47 12.5796 60 13.2996 60 14.0996V21.9996H59.99V25.9996H60V29.9996H59.99V33.9996H60V37.9996H59.99V41.9996H60V43.0196C60.02 49.5996 63.22 55.7596 68.58 59.5596L71.13 61.3796L72 61.9996L77.59 65.9996H77.62L83.66 70.3096C83.65 70.3096 83.63 70.3196 83.62 70.3196L87.78 73.2896C88.43 73.7496 89.21 73.9996 90.01 73.9996C90.41 73.9996 90.8 73.9396 91.18 73.8196C91.56 73.6996 91.91 73.5196 92.24 73.2896L96.22 70.4396C96.21 70.4296 96.19 70.4296 96.18 70.4196L101.13 66.8996C101.14 66.8996 101.15 66.9096 101.15 66.9096L104.56 64.4696L104.55 64.4596L109.67 60.8196L110.04 60.5596L111.43 59.5696C116.79 55.7596 119.98 49.5996 120.01 43.0296V14.0996C120 13.2996 119.53 12.5796 118.8 12.2596Z" fill="#800180"/>
<path d="M85.64 43.2394L100.44 24.7494C101.13 23.8894 102.39 23.7494 103.25 24.4394C104.11 25.1294 104.25 26.3894 103.56 27.2494L87.56 47.2494C86.88 48.0894 85.66 48.2494 84.8 47.5994L76.8 41.5994C76.23 41.1694 75.93 40.4694 76.01 39.7594C76.1 39.0494 76.55 38.4394 77.21 38.1594C77.87 37.8794 78.63 37.9694 79.2 38.3994L85.64 43.2394Z" fill="#800180"/>
<path d="M108 43.0198C107.99 45.7198 106.67 48.2398 104.46 49.7998L90 60.0799L75.54 49.7798C73.34 48.2298 72.02 45.7098 72 43.0098V20.6698L90 12.8998L108 20.6698V43.0198ZM110.8 17.5198L90.8 8.87984C90.29 8.65984 89.72 8.65984 89.22 8.87984L69.22 17.5198C68.49 17.8398 68.02 18.5598 68.02 19.3598V43.0198C68.03 46.9998 69.97 50.7398 73.22 53.0498L88.85 64.1698C89.54 64.6598 90.47 64.6598 91.17 64.1698L106.8 53.0498C110.05 50.7498 112 47.0098 112.01 43.0198V19.3498C112 18.5598 111.53 17.8398 110.8 17.5198Z" fill="#800180"/>
<path d="M98 114C98 115.11 97.1 116 96 116H84C82.9 116 82 115.1 82 114V106H98V114ZM90 97.9995H94V102H90V97.9995ZM26 114C26 115.11 25.1 116 24 116H12C10.9 116 10 115.1 10 114V106H26V114ZM14 97.9995H18V102H14V97.9995ZM106.02 66.0295L102.79 68.3795C103.57 69.3995 104.01 70.6695 104.01 71.9995V102H98.01V97.9995C98.01 95.7895 96.22 93.9995 94.01 93.9995H90.01C87.8 93.9995 86.01 95.7895 86.01 97.9995V102H22V97.9995C22 95.7895 20.21 93.9995 18 93.9995H14C11.79 93.9995 10 95.7895 10 97.9995V102H4V71.9995C4 68.6895 6.69 65.9995 10 65.9995H74.05L68.59 61.9995H12.82L24.08 29.9995C24.93 27.5995 27.19 25.9995 29.74 25.9995H52V29.9995H46C43.79 29.9995 42 31.7895 42 33.9995V37.9995C42 40.2095 43.79 41.9995 46 41.9995H58.68V37.9995H46V33.9995H58.68V29.9995H56V25.9995H58.68V21.9995H29.74C25.5 21.9995 21.72 24.6795 20.31 28.6795L8.53 62.1495C3.64 62.8695 0.01 67.0595 0 71.9995V102C0 104.21 1.79 106 4 106H6V114C6 117.31 8.69 120 12 120H24C27.31 120 30 117.31 30 114V106H78V114C78 117.31 80.69 120 84 120H96C99.31 120 102 117.31 102 114V106H104C106.21 106 108 104.21 108 102V71.9995C108.01 69.8295 107.3 67.7395 106.02 66.0295ZM98.19 71.7195L94.81 74.1695C95.51 74.4895 96 75.1895 96 75.9995V79.9995C96 81.0995 95.1 81.9995 94 81.9995H82C80.9 81.9995 80 81.0995 80 79.9995C80 76.9995 82.2 74.5095 85.08 74.0695L81.22 71.2395C78.07 72.9595 76.01 76.2795 76 79.9995C76 83.3095 78.69 85.9995 82 85.9995H94C97.31 85.9995 100 83.3095 100 79.9995V75.9995C100 74.3595 99.32 72.8295 98.19 71.7195Z" fill="#10E8E8"/>
<path d="M36 29.9995H32.58C30.04 29.9995 27.77 31.5995 26.92 33.9995L19.41 55.3395C19.04 56.3795 19.59 57.5195 20.63 57.8895C21.67 58.2595 22.81 57.7095 23.18 56.6695L30.69 35.3395C30.97 34.5395 31.73 33.9995 32.58 33.9995H36C37.1 33.9995 38 33.0995 38 31.9995C38 30.8995 37.11 29.9995 36 29.9995Z" fill="#10E8E8"/>
<path d="M11.9999 75.9995C11.9999 74.8995 12.8999 73.9995 13.9999 73.9995H21.9999C25.3099 73.9995 27.9999 76.6895 27.9999 79.9995C27.9999 81.0995 27.0999 81.9995 25.9999 81.9995H13.9999C12.8999 81.9995 11.9999 81.0995 11.9999 79.9995V75.9995ZM13.9999 85.9995H25.9999C29.3099 85.9995 31.9999 83.3095 31.9999 79.9995C31.9899 74.4795 27.5199 70.0095 21.9999 69.9995H13.9999C10.6899 69.9995 7.99994 72.6895 7.99994 75.9995V79.9995C7.99994 83.3095 10.6899 85.9995 13.9999 85.9995Z" fill="#10E8E8"/>
<path d="M40.0001 85.9995H68.0001V93.9995H40.0001V85.9995ZM40.0001 97.9995H68.0001C70.2101 97.9995 72.0001 96.2095 72.0001 93.9995V85.9995C72.0001 83.7895 70.2101 81.9995 68.0001 81.9995H40.0001C37.7901 81.9995 36.0001 83.7895 36.0001 85.9995V93.9995C36.0001 96.2095 37.7901 97.9995 40.0001 97.9995Z" fill="#10E8E8"/>
</g>
<defs>
<clipPath id="clip0">
<rect width="120" height="120" fill="white"/>
</clipPath>
</defs>
</svg>
