<svg width="120" height="120" viewBox="0 0 120 120" fill="none" xmlns="http://www.w3.org/2000/svg">
<path d="M31.55 89.62L24.47 96.68L20.23 92.44C19.45 91.66 18.19 91.66 17.41 92.44C17.03 92.82 16.82 93.33 16.82 93.86C16.82 94.39 17.03 94.91 17.41 95.28L21.65 99.52C22.4 100.27 23.41 100.68 24.47 100.68C25.53 100.68 26.55 100.27 27.31 99.52L34.37 92.44C35.05 91.64 35 90.46 34.27 89.72C33.53 88.98 32.35 88.94 31.55 89.62Z" fill="#10E8E8"/>
<path d="M8 94.9998C8 104.39 15.61 112 25 112C34.39 112 42 104.39 42 94.9998C42 93.8898 41.11 92.9998 40 92.9998C38.9 92.9998 38 93.8998 38 94.9998C38 102.18 32.18 108 25 108C17.82 108 12 102.18 12 94.9998C12 87.8198 17.82 81.9998 25 81.9998C27.81 81.9898 30.55 82.9098 32.8 84.5998C33.68 85.2598 34.94 85.0798 35.6 84.1998C36.26 83.3198 36.08 82.0598 35.2 81.3998C30.05 77.5398 23.16 76.9198 17.4 79.7898C11.64 82.6698 8 88.5598 8 94.9998Z" fill="#10E8E8"/>
<path d="M71.99 16C73.09 16 73.99 15.1 73.99 14C73.99 12.9 73.09 12 71.99 12H20C18.89 12 18 12.9 18 14V22C18 23.11 18.89 24 20 24H71.99C73.09 24 73.99 23.1 73.99 22C73.99 20.9 73.09 20 71.99 20H22V16H71.99Z" fill="#10E8E8"/>
<path d="M25.99 28C24.88 28 23.99 28.9 23.99 30C23.99 31.1 24.88 32 25.99 32H65.98C67.08 32 67.98 31.1 67.98 30C67.98 28.89 67.08 28 65.98 28H25.99Z" fill="#10E8E8"/>
<path d="M77.99 42H33.99C32.89 42 31.99 42.9 31.99 44C31.99 45.11 32.88 46 33.99 46H77.98C79.08 46 79.98 45.11 79.98 44C79.99 42.89 79.09 42 77.99 42Z" fill="#10E8E8"/>
<path d="M57.99 56C57.99 54.9 57.09 54 55.99 54H16C14.89 54 14 54.9 14 56C14 57.11 14.89 58 16 58H55.99C57.09 58 57.99 57.1 57.99 56Z" fill="#10E8E8"/>
<path d="M77.99 54H63.99C62.89 54 61.99 54.9 61.99 56C61.99 57.11 62.88 58 63.99 58H77.99C79.09 58 79.99 57.11 79.99 56C79.99 54.89 79.09 54 77.99 54Z" fill="#10E8E8"/>
<path d="M35.99 68C37.09 68 37.99 67.11 37.99 66C37.99 64.89 37.09 64 35.99 64H16C14.89 64 14 64.9 14 66C14 67.1 14.89 68 16 68H35.99Z" fill="#10E8E8"/>
<path d="M43.99 68H57.99C59.09 68 59.99 67.11 59.99 66C59.99 64.89 59.09 64 57.99 64H43.99C42.88 64 41.99 64.9 41.99 66C41.99 67.11 42.89 68 43.99 68Z" fill="#10E8E8"/>
<path d="M110.44 44.12L103.52 40.12L107.52 33.2001L114.44 37.2001L110.44 44.12ZM92.44 75.3001L85.52 71.3001L101.52 43.5801L108.44 47.5801L92.44 75.3001ZM78.99 90.62C78.15 90.0301 77.89 88.9 78.39 88L79.39 86.2601L82.87 88.26L81.87 89.98C81.59 90.47 81.12 90.8101 80.57 90.94C80.02 91.0601 79.45 90.94 78.99 90.62ZM84.98 84.84L83.98 84.2601L81.02 82.5401L83.86 74.9401L90.16 78.5801L84.98 84.84ZM112.24 29C112.51 28.54 112.94 28.2 113.46 28.06C113.97 27.93 114.52 28.01 114.98 28.26C115.44 28.53 115.78 28.97 115.92 29.48C116.05 29.99 115.98 30.54 115.72 31L114.72 32.7401L111.24 30.74L112.24 29ZM119.78 28.4401C119.37 26.9001 118.36 25.59 116.98 24.8C115.6 24 113.96 23.7901 112.42 24.2001C110.88 24.6201 109.58 25.62 108.78 27L107.78 28.74C106.83 28.19 105.62 28.51 105.06 29.46L99.98 38.12L98.24 37.12C97.78 36.85 97.23 36.78 96.72 36.92C96.21 37.06 95.77 37.4001 95.5 37.8601C94.96 38.8201 95.29 40.0301 96.24 40.5801L97.98 41.5801L80.98 71.0401L76.78 82.2601L74.78 86C73.61 88.04 73.73 90.57 75.1 92.48L70.6 98L69.34 94.84C68.77 93.43 67.46 92.47 65.95 92.35C64.44 92.23 62.99 92.98 62.21 94.28L61.49 95.5L60.81 87.5C60.65 85.6101 59.19 84.09 57.3 83.8601C55.41 83.6301 53.63 84.76 53.03 86.56L48.11 101.32C47.77 102.37 48.33 103.49 49.37 103.84C49.57 103.93 49.78 103.99 49.99 104C50.85 104 51.61 103.46 51.89 102.64L56.79 87.88L57.49 96C57.64 97.73 58.88 99.17 60.57 99.57C62.26 99.96 64.01 99.22 64.9 97.72L65.64 96.5L66.88 99.64C67.41 100.96 68.6 101.91 70 102.12C71.41 102.33 72.82 101.78 73.71 100.66L78.37 94.76C78.89 94.9 79.42 94.96 79.95 94.96C82.09 94.98 84.08 93.85 85.17 92L87.17 88.66L94.79 79.4001L111.97 49.5801L113.71 50.5801C114.18 50.8501 114.51 51.29 114.65 51.8C114.79 52.31 114.72 52.8601 114.45 53.32L106.45 67.18C106.15 67.64 106.04 68.1901 106.17 68.7301C106.29 69.2601 106.62 69.7201 107.09 70C107.55 70.2701 108.1 70.34 108.61 70.2C109.13 70.06 109.56 69.7201 109.83 69.2601L117.83 55.4001C118.63 54.0201 118.84 52.3801 118.43 50.84C118.01 49.3 117.01 47.9901 115.63 47.2001L113.89 46.2001L118.89 37.5401C119.44 36.5901 119.11 35.38 118.17 34.82L119.17 33.0801C120 31.6801 120.21 30.0001 119.78 28.4401Z" fill="#800180"/>
<path d="M89.98 92C88.87 92 87.98 92.9 87.98 94V114C87.98 115.11 87.08 116 85.98 116H6C4.89 116 4 115.1 4 114V6C4 4.9 4.89 4 6 4H85.99C87.09 4 87.99 4.9 87.99 6V43.56C87.99 44.67 88.89 45.56 89.99 45.56C91.09 45.56 91.99 44.66 91.99 43.56V6C91.99 2.69 89.31 0 85.99 0H6C2.68 0 0 2.69 0 6V114C0 117.32 2.68 120 6 120H85.99C89.3 120 91.99 117.31 91.99 114V94C91.98 92.9 91.09 92 89.98 92Z" fill="#10E8E8"/>
</svg>
