<svg width="120" height="120" viewBox="0 0 120 120" fill="none" xmlns="http://www.w3.org/2000/svg">
<g clip-path="url(#clip0)">
<path d="M116.13 89.4699C116.13 97.1299 112.02 104.24 105.4 108.03L93.54 114.84C91.95 115.76 89.99 115.76 88.39 114.84L76.53 108.03C69.92 104.23 65.8 97.1199 65.8 89.4699V64.5899C65.8 63.2699 66.87 62.1999 68.19 62.1999H69.27C77.75 62.1999 85.67 58.3799 90.97 51.8599C96.26 58.3799 104.19 62.1999 112.67 62.1999H113.75C115.07 62.1999 116.13 63.2699 116.13 64.5899V89.4699ZM114.81 58.3099H112.67C104.6 58.3099 97.06 54.2599 92.58 47.5099C92.2 46.9299 91.58 46.6499 90.97 46.6499C90.36 46.6499 89.74 46.9399 89.36 47.5099C87.12 50.8799 84.12 53.5799 80.66 55.4399C77.21 57.2999 73.31 58.3099 69.27 58.3099H67.13C64.26 58.3099 61.94 60.6399 61.94 63.5199V89.4799C61.94 97.0099 64.63 103.09 70.28 107.84C70.28 107.84 72.13 109.45 76.9 112.49C81.67 115.53 88.41 119.32 88.41 119.32C90 120.23 91.96 120.23 93.56 119.32L107.34 111.41C115.16 106.93 120.02 98.5199 120.02 89.4699V63.5099C120 60.6399 117.68 58.3099 114.81 58.3099Z" fill="#800180"/>
<path d="M108.39 77.7402V89.4702C108.39 94.3402 105.77 98.8702 101.56 101.28L103.48 104.65C108.89 101.55 112.26 95.7202 112.26 89.4602V77.7402H108.39Z" fill="#800180"/>
<path d="M107.02 66.6499L81.29 92.4799L74.92 86.0799L72.18 88.8299L81.29 97.9799L109.76 69.3999L107.02 66.6499Z" fill="#800180"/>
<path d="M19.35 79.68V71.91C19.35 70.84 20.22 69.97 21.29 69.97H50.32C51.39 69.97 52.26 70.84 52.26 71.91V95.23C52.26 96.3 51.39 97.17 50.32 97.17H32.9C31.83 97.17 30.96 96.3 30.96 95.23V84.6C30.96 82.96 29.63 81.63 28 81.63H21.28C20.22 81.63 19.35 80.76 19.35 79.68ZM25.08 104.06L8.63 87.54C7.88 86.79 8.41 85.51 9.47 85.51H25.92C26.57 85.51 27.1 86.04 27.1 86.7V103.22C27.1 104.28 25.82 104.81 25.08 104.06ZM68.83 108.84H32.9C31.83 108.84 30.96 107.97 30.96 106.9V103.01C30.96 101.94 31.83 101.07 32.9 101.07H52.7C54.59 101.07 56.12 99.53 56.12 97.63V69.51C56.12 67.61 54.59 66.07 52.7 66.07H18.9C17.01 66.07 15.48 67.61 15.48 69.51V79.68C15.48 80.75 14.61 81.62 13.54 81.62H5.81C4.74 81.62 3.87 80.75 3.87 79.68V5.83C3.87 4.76 4.74 3.89 5.81 3.89H87.1C88.17 3.89 89.04 4.76 89.04 5.83V38.87H92.91V3.83C92.9 1.72 91.2 0 89.09 0H3.82C1.71 0 0 1.72 0 3.83V82.11C0 83.56 0.58 84.96 1.6 85.98L26.63 111.12C27.65 112.15 29.04 112.73 30.49 112.73H75.15L68.83 108.84Z" fill="#10E8E8"/>
<path d="M75.48 15.55H17.42C16.35 15.55 15.48 14.68 15.48 13.61C15.48 12.54 16.35 11.67 17.42 11.67H75.48C76.55 11.67 77.42 12.54 77.42 13.61C77.42 14.68 76.55 15.55 75.48 15.55ZM11.61 11.16V16.04C11.61 17.91 13.12 19.43 14.99 19.43H77.92C79.78 19.43 81.3 17.91 81.3 16.04V11.16C81.3 9.29002 79.79 7.77002 77.92 7.77002H14.99C13.12 7.77002 11.61 9.29002 11.61 11.16Z" fill="#10E8E8"/>
<path d="M25.16 73.8501H46.45C47.52 73.8501 48.39 74.7201 48.39 75.7901C48.39 76.8601 47.52 77.7301 46.45 77.7301H25.16C24.09 77.7301 23.22 76.8601 23.22 75.7901C23.22 74.7201 24.09 73.8501 25.16 73.8501Z" fill="#10E8E8"/>
<path d="M36.77 81.6299H46.45C47.52 81.6299 48.39 82.4999 48.39 83.5699C48.39 84.6399 47.52 85.5099 46.45 85.5099H36.77C35.7 85.5099 34.83 84.6399 34.83 83.5699C34.83 82.4999 35.7 81.6299 36.77 81.6299Z" fill="#10E8E8"/>
<path d="M36.77 89.3999H46.45C47.52 89.3999 48.39 90.2699 48.39 91.3399C48.39 92.4099 47.52 93.2799 46.45 93.2799H36.77C35.7 93.2799 34.83 92.4099 34.83 91.3399C34.83 90.2699 35.7 89.3999 36.77 89.3999Z" fill="#10E8E8"/>
<path d="M13.55 27.21H71.61C72.68 27.21 73.55 28.08 73.55 29.15C73.55 30.22 72.68 31.09 71.61 31.09H13.55C12.48 31.09 11.61 30.22 11.61 29.15C11.61 28.08 12.48 27.21 13.55 27.21Z" fill="#10E8E8"/>
<path d="M13.55 34.98H71.61C72.68 34.98 73.55 35.85 73.55 36.92C73.55 37.99 72.68 38.86 71.61 38.86H13.55C12.48 38.86 11.61 37.99 11.61 36.92C11.61 35.85 12.48 34.98 13.55 34.98Z" fill="#10E8E8"/>
<path d="M13.55 42.7598H71.61C72.68 42.7598 73.55 43.6298 73.55 44.6998C73.55 45.7698 72.68 46.6398 71.61 46.6398H13.55C12.48 46.6398 11.61 45.7698 11.61 44.6998C11.61 43.6298 12.48 42.7598 13.55 42.7598Z" fill="#10E8E8"/>
<path d="M13.55 50.5298H46.45C47.52 50.5298 48.39 51.3998 48.39 52.4698C48.39 53.5398 47.52 54.4098 46.45 54.4098H13.55C12.48 54.4098 11.61 53.5398 11.61 52.4698C11.61 51.3998 12.48 50.5298 13.55 50.5298Z" fill="#10E8E8"/>
<path d="M13.55 58.3101H46.45C47.52 58.3101 48.39 59.1801 48.39 60.2501C48.39 61.3201 47.52 62.1901 46.45 62.1901H13.55C12.48 62.1901 11.61 61.3201 11.61 60.2501C11.61 59.1801 12.48 58.3101 13.55 58.3101Z" fill="#10E8E8"/>
<path d="M79.35 27.21C80.42 27.21 81.29 28.08 81.29 29.15C81.29 30.22 80.42 31.09 79.35 31.09C78.28 31.09 77.41 30.22 77.41 29.15C77.41 28.08 78.29 27.21 79.35 27.21Z" fill="#10E8E8"/>
<path d="M79.35 34.98C80.42 34.98 81.29 35.85 81.29 36.92C81.29 37.99 80.42 38.86 79.35 38.86C78.28 38.86 77.41 37.99 77.41 36.92C77.41 35.85 78.29 34.98 79.35 34.98Z" fill="#10E8E8"/>
<path d="M79.35 42.7598C80.42 42.7598 81.29 43.6298 81.29 44.6998C81.29 45.7698 80.42 46.6398 79.35 46.6398C78.28 46.6398 77.41 45.7698 77.41 44.6998C77.41 43.6298 78.29 42.7598 79.35 42.7598Z" fill="#10E8E8"/>
<path d="M54.19 50.5298C55.26 50.5298 56.13 51.3998 56.13 52.4698C56.13 53.5398 55.26 54.4098 54.19 54.4098C53.12 54.4098 52.25 53.5398 52.25 52.4698C52.25 51.3998 53.12 50.5298 54.19 50.5298Z" fill="#10E8E8"/>
<path d="M54.19 58.3101C55.26 58.3101 56.13 59.1801 56.13 60.2501C56.13 61.3201 55.26 62.1901 54.19 62.1901C53.12 62.1901 52.25 61.3201 52.25 60.2501C52.25 59.1801 53.12 58.3101 54.19 58.3101Z" fill="#10E8E8"/>
</g>
<defs>
<clipPath id="clip0">
<rect width="120" height="120" fill="white"/>
</clipPath>
</defs>
</svg>
