<svg width="244" height="157" viewBox="0 0 244 157" fill="none" xmlns="http://www.w3.org/2000/svg">
<path d="M43.5254 72.2048C43.5254 72.2048 39.7744 83.0704 40.7372 94.0047C41.6999 104.939 41.9875 127.264 42.0563 130.265C42.125 133.266 44.4569 141.987 49.5584 143.756" stroke="#800180" stroke-width="1.5" stroke-linecap="round" stroke-linejoin="round"/>
<path d="M43.7568 120.756C43.7568 120.756 43.8756 112.497 44.3382 110.172" stroke="#800180" stroke-width="1.5" stroke-linecap="round" stroke-linejoin="round"/>
<path d="M46.2012 116.335V118.892" stroke="#800180" stroke-width="1.5" stroke-linecap="round" stroke-linejoin="round"/>
<path d="M63.531 90.5159C63.531 90.5159 61.7868 92.1476 61.7868 100.756C61.7868 109.365 63.8811 125.294 60.624 126.926C57.3668 128.558 55.9727 125.182 59.4611 124.713C62.9496 124.244 77.7225 127.97 87.2564 128.464C96.7903 128.958 101.448 129.508 101.448 129.508C100.123 132.429 99.4494 135.603 99.4723 138.811C99.5118 141.958 99.0905 145.094 98.222 148.12" stroke="#800180" stroke-width="1.5" stroke-linecap="round" stroke-linejoin="round"/>
<path d="M52.4842 144.6C52.4842 144.6 59.1111 146.807 71.7896 145.85C84.4682 144.894 92.958 144.106 96.2152 144.6" stroke="#800180" stroke-width="1.5" stroke-linecap="round" stroke-linejoin="round"/>
<path d="M96.2152 142.856C96.2152 142.856 96.334 132.503 98.4221 130.178" stroke="#800180" stroke-width="1.5" stroke-linecap="round" stroke-linejoin="round"/>
<path d="M89.7884 94.8428C87.8111 97.9187 84.818 100.204 81.3298 101.301C75.4844 103.133 70.508 103.833 71.2957 104.095C72.0834 104.358 77.7475 104.614 74.084 107.146" stroke="#800180" stroke-width="1.5" stroke-linecap="round" stroke-linejoin="round"/>
<path d="M64.0562 94.841C64.9956 93.6676 66.0149 92.5605 67.107 91.5276" stroke="#800180" stroke-width="1.5" stroke-linecap="round" stroke-linejoin="round"/>
<path d="M50.096 69.8101C50.096 69.8101 47.6516 73.1235 47.6516 75.918" stroke="#800180" stroke-width="1.5" stroke-linecap="round" stroke-linejoin="round"/>
<path d="M64.8127 65.9155L62.4245 73.1238L77.4287 68.9351L75.3344 75.5682L82.6677 68.9351" stroke="#800180" stroke-width="1.5" stroke-linecap="round" stroke-linejoin="round"/>
<path d="M68.6012 62.3086C71.1423 62.6698 73.6381 63.2985 76.047 64.1841C78.5212 65.1076 80.9136 66.2368 83.199 67.56C83.5481 65.7609 84.0953 64.006 84.8307 62.3273C85.3128 61.2877 85.8556 60.2774 86.4562 59.3015C86.4562 59.3015 84.3056 57.676 82.7051 52.6746C81.1047 47.6732 81.1047 47.3794 81.1047 47.3794" stroke="#800180" stroke-width="1.5" stroke-linecap="round" stroke-linejoin="round"/>
<path d="M84.4681 69.2595C84.4681 69.2595 92.8392 83.1572 94.0021 94.8917C95.1649 106.626 94.5835 117.836 94.9336 126.213" stroke="#800180" stroke-width="1.5" stroke-linecap="round" stroke-linejoin="round"/>
<path d="M85.1683 67.7591L92.4516 67.5403L87.7816 64.5332L90.7511 59.9507" stroke="#800180" stroke-width="1.5" stroke-linecap="round" stroke-linejoin="round"/>
<path d="M104.005 75.5686C104.005 75.5686 108.312 78.882 108.894 92.0232C109.356 102.532 108.2 120.056 112.388 128.777" stroke="#800180" stroke-width="1.5" stroke-linecap="round" stroke-linejoin="round"/>
<path d="M107.556 102.463C107.556 102.463 105.68 104.339 103.598 106.095C101.517 107.852 101.098 109.221 101.098 109.221" stroke="#800180" stroke-width="1.5" stroke-linecap="round" stroke-linejoin="round"/>
<path d="M105.987 106.389L104.005 109.527" stroke="#800180" stroke-width="1.5" stroke-linecap="round" stroke-linejoin="round"/>
<path d="M92.4517 58.7576C92.4517 58.7576 101.542 59.6016 108.006 67.0161C115.758 75.9186 120.51 115.373 122.848 120.056" stroke="#800180" stroke-width="1.5" stroke-linecap="round" stroke-linejoin="round"/>
<path d="M101.448 132.909C101.448 132.909 110.694 132.615 115.696 131.221C120.697 129.827 130.237 134.247 133.669 134.128" stroke="#800180" stroke-width="1.5" stroke-linecap="round" stroke-linejoin="round"/>
<path d="M118.084 133.315C118.084 133.315 120.76 131.865 125.467 134.134C128.254 135.487 131.273 136.295 134.363 136.516" stroke="#800180" stroke-width="1.5" stroke-linecap="round" stroke-linejoin="round"/>
<path d="M119.184 136.104C119.184 136.104 121.685 135.178 125.292 136.516C128.899 137.854 132.094 139.017 132.094 139.017" stroke="#800180" stroke-width="1.5" stroke-linecap="round" stroke-linejoin="round"/>
<path d="M120.816 138.26C120.816 138.26 122.848 138.26 127.068 139.942C131.287 141.624 131.606 141.724 131.319 142.443C131.081 143.024 130.794 143.781 119.159 140.267C119.159 140.267 112.238 143.899 102.642 142.211" stroke="#800180" stroke-width="1.5" stroke-linecap="round" stroke-linejoin="round"/>
<path d="M133.494 144.337H101.448V147.3H197.631L216.649 102.113H153.5L135.351 145.556" stroke="#800180" stroke-width="1.5" stroke-linecap="round" stroke-linejoin="round"/>
<path d="M182.341 125.622C183.104 123.611 182.626 121.564 181.274 121.051C179.921 120.538 178.206 121.752 177.443 123.763C176.68 125.774 177.157 127.821 178.51 128.334C179.863 128.847 181.578 127.633 182.341 125.622Z" stroke="#800180" stroke-width="1.5" stroke-linecap="round" stroke-linejoin="round"/>
<path d="M49.5709 147.088H1.41992" stroke="#800180" stroke-width="1.5" stroke-linecap="round" stroke-linejoin="round"/>
<path d="M243 147.088H201.363" stroke="#800180" stroke-width="1.5" stroke-linecap="round" stroke-linejoin="round"/>
<path d="M35.2669 155.872H184.959" stroke="#800180" stroke-width="1.5" stroke-linecap="round" stroke-linejoin="round"/>
<path d="M108.2 122.149L105.987 127.263" stroke="#800180" stroke-width="1.5" stroke-linecap="round" stroke-linejoin="round"/>
<path d="M119.941 120.055C119.941 120.055 134.482 125.988 139.834 127.263" stroke="#800180" stroke-width="1.5" stroke-linecap="round" stroke-linejoin="round"/>
<path d="M81.3298 29.0732C81.3298 29.0732 85.1371 39.8012 82.6614 44.8589C80.1857 49.9166 74.4341 49.5977 69.5327 47.3596" stroke="#800180" stroke-width="1.5" stroke-linecap="round" stroke-linejoin="round"/>
<path d="M70.1642 47.6295C71.6896 49.8826 73.9293 51.5563 76.5222 52.3808C80.9797 53.8625 82.1488 50.9804 82.1488 50.9804L80.7171 47.3794C80.7171 47.3794 78.7166 50.574 70.1642 47.6295Z" fill="#800180"/>
<path d="M79.1479 39.6274C79.1479 39.6274 77.6975 40.2151 76.8472 40.4714C75.997 40.7277 74.0277 41.1654 74.0277 41.1654C74.0277 41.1654 76.4721 43.8411 79.1479 41.4029" stroke="#800180" stroke-width="1.5" stroke-linecap="round" stroke-linejoin="round"/>
<path d="M78.9479 27.9983C78.9479 27.9983 74.8467 28.4297 74.978 31.0241C75.1093 33.6186 78.3977 35.0315 78.2977 36.7195C78.2724 37.1251 78.1344 37.5156 77.8991 37.847C77.6638 38.1783 77.3407 38.4374 76.9661 38.595" stroke="#800180" stroke-width="1.5" stroke-linecap="round" stroke-linejoin="round"/>
<path d="M78.5977 31.6877L79.0353 33.3132" stroke="#800180" stroke-width="1.5" stroke-linecap="round" stroke-linejoin="round"/>
<path d="M70.683 34.6753L71.1394 36.3133" stroke="#800180" stroke-width="1.5" stroke-linecap="round" stroke-linejoin="round"/>
<path d="M71.9521 30.8367C71.9521 30.8367 68.3949 31.0117 67.1508 33.4562" stroke="#800180" stroke-width="1.5" stroke-linecap="round" stroke-linejoin="round"/>
<path d="M60.7953 43.9182C62.9714 43.2901 63.9268 39.9787 62.9291 36.5221C61.9313 33.0654 59.3584 30.7724 57.1822 31.4005C55.0061 32.0287 54.0507 35.34 55.0485 38.7967C56.0462 42.2533 58.6191 44.5463 60.7953 43.9182Z" stroke="#10E8E8" stroke-width="1.5" stroke-linecap="round" stroke-linejoin="round"/>
<path d="M57.398 40.758C57.6369 41.0189 57.9391 41.2136 58.2754 41.3231C58.6117 41.4327 58.9707 41.4534 59.3173 41.3832C60.5677 41.0269 61.0803 39.1576 60.5177 37.2133C59.955 35.269 58.5046 33.9749 57.2793 34.325C56.5353 34.5376 56.0289 35.3065 55.8976 36.313" stroke="#10E8E8" stroke-width="1.5" stroke-linecap="round" stroke-linejoin="round"/>
<path d="M63.2122 43.9895C64.2541 44.9019 65.5491 45.4756 66.9249 45.6342C68.3007 45.7928 69.6922 45.5287 70.9144 44.8772" stroke="#10E8E8" stroke-width="1.5" stroke-linecap="round" stroke-linejoin="round"/>
<path d="M73.1179 44.9328C73.9945 44.5772 74.5327 43.8635 74.3198 43.3388C74.107 42.8141 73.2237 42.677 72.3471 43.0326C71.4704 43.3882 70.9323 44.1019 71.1451 44.6266C71.358 45.1513 72.2412 45.2884 73.1179 44.9328Z" stroke="#10E8E8" stroke-width="1.5" stroke-linecap="round" stroke-linejoin="round"/>
<path d="M56.3227 30.4368C56.3227 30.4368 53.3532 17.877 66.0317 14.97" stroke="#10E8E8" stroke-width="1.5" stroke-linecap="round" stroke-linejoin="round"/>
<path d="M62.4245 45.9912C62.4245 45.9912 66.5569 54.4248 62.4245 58.7573" stroke="#800180" stroke-width="1.5" stroke-linecap="round" stroke-linejoin="round"/>
<path d="M60.0426 53.5806C60.0426 53.5806 62.8121 58.732 56.0165 62.5706C49.2208 66.4092 46.2575 65.5089 44.0756 69.26" stroke="#800180" stroke-width="1.5" stroke-linecap="round" stroke-linejoin="round"/>
<path d="M54.7223 43.9895C54.7223 43.9895 54.6348 46.6027 48.877 50.8664C43.1191 55.1301 38.8742 61.0693 42.6252 70.2469" stroke="#800180" stroke-width="1.5" stroke-linecap="round" stroke-linejoin="round"/>
<path d="M46.0949 59.9507C46.0949 59.9507 43.3941 61.87 43.1316 66.6651" stroke="#800180" stroke-width="1.5" stroke-linecap="round" stroke-linejoin="round"/>
<path d="M53.0656 65.9148C53.0656 65.9148 62.0494 67.2777 63.8811 59.9507" stroke="#800180" stroke-width="1.5" stroke-linecap="round" stroke-linejoin="round"/>
<path d="M49.5709 47.3788C49.5709 47.3788 52.5968 45.4158 52.5968 33.8313C52.5968 22.5782 56.4854 16.1201 61.6118 14.9885" stroke="#800180" stroke-width="1.5" stroke-linecap="round" stroke-linejoin="round"/>
<path d="M66.6694 15.8386C67.459 15.0788 68.4476 14.5581 69.5208 14.3368C70.594 14.1155 71.7079 14.2027 72.7336 14.5883C77.3037 16.22 81.7612 21.1776 83.943 28.0045C86.1249 34.8314 85.9498 40.9394 90.4011 43.9902C94.8523 47.0411 100.779 51.0235 95.8088 57.4503" stroke="#800180" stroke-width="1.5" stroke-linecap="round" stroke-linejoin="round"/>
<path d="M65.4754 16.3081C65.4754 16.3081 69.3702 17.1771 68.6012 23.11C67.8323 29.0429 62.437 32.4876 62.437 32.4876" stroke="#800180" stroke-width="1.5" stroke-linecap="round" stroke-linejoin="round"/>
<path d="M65.5566 21.0144C65.5566 21.0144 66.088 23.8089 59.6925 30.4358" stroke="#800180" stroke-width="1.5" stroke-linecap="round" stroke-linejoin="round"/>
<path d="M58.9923 25.9602C58.9923 25.9602 58.936 28.636 57.8295 29.9113" stroke="#800180" stroke-width="1.5" stroke-linecap="round" stroke-linejoin="round"/>
<path d="M70.1642 20.7844C70.1642 20.7844 70.2767 23.4852 75.6282 24.4042C80.9797 25.3232 82.18 27.9989 82.18 27.9989" stroke="#800180" stroke-width="1.5" stroke-linecap="round" stroke-linejoin="round"/>
<path d="M72.7336 19.8711C72.7336 19.8711 73.115 21.2652 76.1721 22.4281" stroke="#800180" stroke-width="1.5" stroke-linecap="round" stroke-linejoin="round"/>
<path d="M84.7557 45.6658C84.7557 45.6658 88.5068 45.7345 87.2564 55.9124" stroke="#800180" stroke-width="1.5" stroke-linecap="round" stroke-linejoin="round"/>
<path d="M92.9018 48.4668C92.9018 48.4668 95.1212 51.0675 92.4517 56.2565" stroke="#800180" stroke-width="1.5" stroke-linecap="round" stroke-linejoin="round"/>
<path d="M89.1757 51.6057L88.8069 55.9132" stroke="#800180" stroke-width="1.5" stroke-linecap="round" stroke-linejoin="round"/>
<path d="M124.895 48.2426C124.895 49.3091 124.65 50.1669 124.16 50.8163C123.67 51.4613 123.012 51.7838 122.186 51.7838C121.305 51.7838 120.623 51.472 120.141 50.8485L120.083 51.6548H118.987V41.7473H120.18V45.4433C120.662 44.8455 121.326 44.5467 122.173 44.5467C123.02 44.5467 123.685 44.867 124.166 45.5078C124.652 46.1485 124.895 47.0257 124.895 48.1394V48.2426ZM123.702 48.1072C123.702 47.2945 123.545 46.6666 123.231 46.2237C122.917 45.7808 122.466 45.5594 121.876 45.5594C121.09 45.5594 120.524 45.9249 120.18 46.6559V49.6746C120.546 50.4056 121.115 50.7711 121.889 50.7711C122.461 50.7711 122.906 50.5496 123.225 50.1067C123.543 49.6638 123.702 48.9973 123.702 48.1072Z" fill="#10E8E8"/>
<path d="M127.701 51.6548H126.508V41.7473H127.701V51.6548Z" fill="#10E8E8"/>
<path d="M133.925 51.6548C133.857 51.5172 133.801 51.2721 133.758 50.9195C133.203 51.4957 132.541 51.7838 131.771 51.7838C131.083 51.7838 130.518 51.5903 130.075 51.2033C129.636 50.812 129.417 50.3174 129.417 49.7197C129.417 48.993 129.692 48.4297 130.242 48.0298C130.797 47.6256 131.575 47.4235 132.577 47.4235H133.738V46.8752C133.738 46.4581 133.614 46.127 133.364 45.8819C133.115 45.6325 132.747 45.5078 132.261 45.5078C131.836 45.5078 131.479 45.6153 131.191 45.8303C130.902 46.0453 130.758 46.3054 130.758 46.6107H129.559C129.559 46.2624 129.681 45.927 129.926 45.6045C130.176 45.2777 130.511 45.0197 130.933 44.8305C131.358 44.6413 131.825 44.5467 132.332 44.5467C133.136 44.5467 133.766 44.7488 134.222 45.153C134.678 45.5529 134.914 46.1055 134.932 46.8107V50.0229C134.932 50.6636 135.013 51.1732 135.177 51.5516V51.6548H133.925ZM131.945 50.7453C132.319 50.7453 132.674 50.6486 133.009 50.455C133.345 50.2615 133.588 50.01 133.738 49.7004V48.2684H132.803C131.341 48.2684 130.61 48.6963 130.61 49.552C130.61 49.9261 130.735 50.2185 130.984 50.4292C131.234 50.6399 131.554 50.7453 131.945 50.7453Z" fill="#10E8E8"/>
<path d="M137.995 45.5207C138.524 44.8713 139.212 44.5467 140.06 44.5467C141.534 44.5467 142.278 45.3788 142.291 47.0429V51.6548H141.098V47.0365C141.094 46.5333 140.978 46.1614 140.75 45.9206C140.526 45.6798 140.176 45.5594 139.698 45.5594C139.311 45.5594 138.972 45.6626 138.679 45.869C138.387 46.0754 138.159 46.3463 137.995 46.6817V51.6548H136.802V41.7473H137.995V45.5207Z" fill="#10E8E8"/>
<path d="M132.236 4.24835C132.236 4.85399 132.097 5.34118 131.819 5.70994C131.54 6.07625 131.167 6.25941 130.698 6.25941C130.197 6.25941 129.81 6.08236 129.536 5.72825L129.504 6.18615H128.881V0.55957H129.558V2.65855C129.832 2.3191 130.209 2.14937 130.69 2.14937C131.171 2.14937 131.549 2.33131 131.822 2.69518C132.098 3.05905 132.236 3.55724 132.236 4.18974V4.24835ZM131.559 4.17142C131.559 3.70987 131.469 3.35332 131.291 3.10179C131.113 2.85025 130.856 2.72448 130.522 2.72448C130.075 2.72448 129.754 2.93206 129.558 3.34722V5.06156C129.766 5.47672 130.09 5.6843 130.529 5.6843C130.854 5.6843 131.107 5.55853 131.287 5.30699C131.468 5.05546 131.559 4.67693 131.559 4.17142Z" fill="#10E8E8"/>
<path d="M133.83 6.18615H133.152V0.55957H133.83V6.18615Z" fill="#10E8E8"/>
<path d="M137.365 6.18615C137.326 6.108 137.294 5.9688 137.269 5.76855C136.954 6.09579 136.578 6.25941 136.141 6.25941C135.75 6.25941 135.429 6.14952 135.178 5.92973C134.929 5.7075 134.804 5.42666 134.804 5.08721C134.804 4.67449 134.96 4.35458 135.273 4.12746C135.588 3.89791 136.03 3.78313 136.599 3.78313H137.258V3.47176C137.258 3.23488 137.188 3.04684 137.046 2.90764C136.904 2.766 136.695 2.69518 136.42 2.69518C136.178 2.69518 135.975 2.75623 135.811 2.87833C135.648 3.00044 135.566 3.14819 135.566 3.32157H134.885C134.885 3.12377 134.954 2.93328 135.093 2.75013C135.235 2.56453 135.426 2.418 135.665 2.31055C135.907 2.2031 136.172 2.14937 136.46 2.14937C136.916 2.14937 137.274 2.26415 137.533 2.49371C137.792 2.72082 137.926 3.03463 137.936 3.43513V5.25937C137.936 5.62324 137.982 5.91263 138.075 6.12754V6.18615H137.365ZM136.24 5.66964C136.452 5.66964 136.654 5.6147 136.844 5.5048C137.035 5.39491 137.173 5.25205 137.258 5.07622V4.263H136.727C135.897 4.263 135.482 4.50599 135.482 4.99196C135.482 5.20443 135.553 5.37049 135.694 5.49015C135.836 5.60981 136.018 5.66964 136.24 5.66964Z" fill="#10E8E8"/>
<path d="M139.676 2.7025C139.976 2.33375 140.367 2.14937 140.848 2.14937C141.686 2.14937 142.108 2.62192 142.116 3.567V6.18615H141.438V3.56334C141.436 3.27762 141.37 3.06638 141.24 2.92962C141.113 2.79286 140.914 2.72448 140.643 2.72448C140.423 2.72448 140.23 2.78309 140.064 2.90031C139.898 3.01753 139.769 3.17139 139.676 3.36187V6.18615H138.998V0.55957H139.676V2.7025Z" fill="#10E8E8"/>
<path d="M105.522 35.0884C105.522 35.6941 105.383 36.1813 105.105 36.55C104.826 36.9163 104.453 37.0995 103.984 37.0995C103.483 37.0995 103.096 36.9224 102.823 36.5683L102.79 37.0262H102.167V31.3997H102.845V33.4986C103.118 33.1592 103.496 32.9895 103.977 32.9895C104.458 32.9895 104.835 33.1714 105.109 33.5353C105.385 33.8991 105.522 34.3973 105.522 35.0298V35.0884ZM104.845 35.0115C104.845 34.55 104.756 34.1934 104.577 33.9419C104.399 33.6903 104.143 33.5646 103.808 33.5646C103.361 33.5646 103.04 33.7721 102.845 34.1873V35.9017C103.052 36.3168 103.376 36.5244 103.815 36.5244C104.14 36.5244 104.393 36.3986 104.574 36.1471C104.754 35.8955 104.845 35.517 104.845 35.0115Z" fill="#10E8E8"/>
<path d="M107.116 37.0262H106.438V31.3997H107.116V37.0262Z" fill="#10E8E8"/>
<path d="M110.651 37.0262C110.612 36.9481 110.58 36.8089 110.556 36.6086C110.241 36.9359 109.865 37.0995 109.427 37.0995C109.037 37.0995 108.716 36.9896 108.464 36.7698C108.215 36.5476 108.09 36.2667 108.09 35.9273C108.09 35.5146 108.247 35.1947 108.559 34.9676C108.874 34.738 109.316 34.6232 109.885 34.6232H110.545V34.3119C110.545 34.075 110.474 33.8869 110.332 33.7477C110.191 33.6061 109.982 33.5353 109.706 33.5353C109.464 33.5353 109.261 33.5963 109.098 33.7184C108.934 33.8405 108.852 33.9883 108.852 34.1617H108.171C108.171 33.9639 108.241 33.7734 108.38 33.5902C108.521 33.4046 108.712 33.2581 108.951 33.1506C109.193 33.0432 109.458 32.9895 109.746 32.9895C110.203 32.9895 110.561 33.1042 110.819 33.3338C111.078 33.5609 111.213 33.8747 111.222 34.2752V36.0995C111.222 36.4633 111.269 36.7527 111.362 36.9676V37.0262H110.651ZM109.526 36.5097C109.739 36.5097 109.94 36.4548 110.131 36.3449C110.321 36.235 110.459 36.0921 110.545 35.9163V35.1031H110.013C109.183 35.1031 108.768 35.3461 108.768 35.8321C108.768 36.0445 108.839 36.2106 108.98 36.3302C109.122 36.4499 109.304 36.5097 109.526 36.5097Z" fill="#10E8E8"/>
<path d="M112.962 33.5426C113.263 33.1738 113.653 32.9895 114.135 32.9895C114.972 32.9895 115.395 33.462 115.402 34.4071V37.0262H114.724V34.4034C114.722 34.1177 114.656 33.9065 114.526 33.7697C114.399 33.6329 114.2 33.5646 113.929 33.5646C113.71 33.5646 113.517 33.6232 113.351 33.7404C113.185 33.8576 113.055 34.0115 112.962 34.202V37.0262H112.285V31.3997H112.962V33.5426Z" fill="#10E8E8"/>
<path d="M180.331 14.3016C180.331 14.9072 180.192 15.3944 179.913 15.7632C179.635 16.1295 179.261 16.3126 178.792 16.3126C178.292 16.3126 177.905 16.1356 177.631 15.7815L177.598 16.2394H176.975V10.6128H177.653V12.7118C177.927 12.3723 178.304 12.2026 178.785 12.2026C179.266 12.2026 179.643 12.3845 179.917 12.7484C180.193 13.1123 180.331 13.6105 180.331 14.243V14.3016ZM179.653 14.2246C179.653 13.7631 179.564 13.4065 179.386 13.155C179.208 12.9035 178.951 12.7777 178.617 12.7777C178.17 12.7777 177.849 12.9853 177.653 13.4004V15.1148C177.861 15.5299 178.184 15.7375 178.624 15.7375C178.949 15.7375 179.201 15.6118 179.382 15.3602C179.563 15.1087 179.653 14.7302 179.653 14.2246Z" fill="#10E8E8"/>
<path d="M181.924 16.2394H181.247V10.6128H181.924V16.2394Z" fill="#10E8E8"/>
<path d="M185.459 16.2394C185.42 16.1612 185.388 16.022 185.364 15.8218C185.049 16.149 184.673 16.3126 184.236 16.3126C183.845 16.3126 183.524 16.2027 183.272 15.9829C183.023 15.7607 182.899 15.4799 182.899 15.1404C182.899 14.7277 183.055 14.4078 183.368 14.1807C183.683 13.9511 184.125 13.8364 184.694 13.8364H185.353V13.525C185.353 13.2881 185.282 13.1001 185.141 12.9609C184.999 12.8192 184.79 12.7484 184.514 12.7484C184.272 12.7484 184.07 12.8095 183.906 12.9316C183.742 13.0537 183.661 13.2014 183.661 13.3748H182.979C182.979 13.177 183.049 12.9865 183.188 12.8033C183.33 12.6177 183.52 12.4712 183.76 12.3638C184.001 12.2563 184.266 12.2026 184.554 12.2026C185.011 12.2026 185.369 12.3174 185.628 12.5469C185.887 12.774 186.021 13.0879 186.031 13.4884V15.3126C186.031 15.6765 186.077 15.9659 186.17 16.1808V16.2394H185.459ZM184.335 15.7229C184.547 15.7229 184.749 15.6679 184.939 15.558C185.13 15.4481 185.268 15.3053 185.353 15.1294V14.3162H184.822C183.992 14.3162 183.576 14.5592 183.576 15.0452C183.576 15.2576 183.647 15.4237 183.789 15.5434C183.931 15.663 184.112 15.7229 184.335 15.7229Z" fill="#10E8E8"/>
<path d="M187.771 12.7557C188.071 12.387 188.462 12.2026 188.943 12.2026C189.781 12.2026 190.203 12.6751 190.21 13.6202V16.2394H189.533V13.6166C189.53 13.3308 189.464 13.1196 189.335 12.9828C189.208 12.8461 189.009 12.7777 188.738 12.7777C188.518 12.7777 188.325 12.8363 188.159 12.9535C187.993 13.0708 187.864 13.2246 187.771 13.4151V16.2394H187.093V10.6128H187.771V12.7557Z" fill="#10E8E8"/>
<path d="M139.057 73.0054C139.057 73.6111 138.918 74.0983 138.639 74.467C138.361 74.8333 137.987 75.0165 137.518 75.0165C137.018 75.0165 136.631 74.8394 136.357 74.4853L136.324 74.9432H135.701V69.3167H136.379V71.4156C136.653 71.0762 137.03 70.9065 137.511 70.9065C137.992 70.9065 138.369 71.0884 138.643 71.4523C138.919 71.8161 139.057 72.3143 139.057 72.9468V73.0054ZM138.379 72.9285C138.379 72.4669 138.29 72.1104 138.112 71.8589C137.933 71.6073 137.677 71.4816 137.343 71.4816C136.896 71.4816 136.574 71.6891 136.379 72.1043V73.8186C136.587 74.2338 136.91 74.4414 137.35 74.4414C137.675 74.4414 137.927 74.3156 138.108 74.0641C138.289 73.8125 138.379 73.434 138.379 72.9285Z" fill="#10E8E8"/>
<path d="M140.65 74.9432H139.973V69.3167H140.65V74.9432Z" fill="#10E8E8"/>
<path d="M144.185 74.9432C144.146 74.8651 144.114 74.7259 144.09 74.5256C143.775 74.8529 143.399 75.0165 142.962 75.0165C142.571 75.0165 142.25 74.9066 141.998 74.6868C141.749 74.4646 141.625 74.1837 141.625 73.8443C141.625 73.4316 141.781 73.1117 142.094 72.8845C142.409 72.655 142.851 72.5402 143.42 72.5402H144.079V72.2288C144.079 71.992 144.008 71.8039 143.867 71.6647C143.725 71.5231 143.516 71.4523 143.24 71.4523C142.998 71.4523 142.796 71.5133 142.632 71.6354C142.468 71.7575 142.387 71.9053 142.387 72.0787H141.705C141.705 71.8808 141.775 71.6904 141.914 71.5072C142.056 71.3216 142.246 71.1751 142.486 71.0676C142.727 70.9602 142.992 70.9065 143.28 70.9065C143.737 70.9065 144.095 71.0212 144.354 71.2508C144.613 71.4779 144.747 71.7917 144.757 72.1922V74.0165C144.757 74.3803 144.803 74.6697 144.896 74.8846V74.9432H144.185ZM143.061 74.4267C143.273 74.4267 143.475 74.3718 143.665 74.2619C143.856 74.152 143.994 74.0091 144.079 73.8333V73.0201H143.548C142.718 73.0201 142.302 73.2631 142.302 73.749C142.302 73.9615 142.373 74.1276 142.515 74.2472C142.656 74.3669 142.838 74.4267 143.061 74.4267Z" fill="#10E8E8"/>
<path d="M146.497 71.4596C146.797 71.0908 147.188 70.9065 147.669 70.9065C148.507 70.9065 148.929 71.379 148.936 72.3241V74.9432H148.259V72.3204C148.256 72.0347 148.19 71.8235 148.061 71.6867C147.934 71.5499 147.735 71.4816 147.464 71.4816C147.244 71.4816 147.051 71.5402 146.885 71.6574C146.719 71.7746 146.589 71.9285 146.497 72.1189V74.9432H145.819V69.3167H146.497V71.4596Z" fill="#10E8E8"/>
<path d="M158.781 25.3729C158.781 25.9785 158.642 26.4657 158.364 26.8345C158.085 27.2008 157.712 27.3839 157.243 27.3839C156.742 27.3839 156.355 27.2069 156.081 26.8528L156.048 27.3107H155.426V21.6841H156.103V23.7831C156.377 23.4436 156.754 23.2739 157.235 23.2739C157.716 23.2739 158.094 23.4558 158.367 23.8197C158.643 24.1836 158.781 24.6817 158.781 25.3142V25.3729ZM158.103 25.2959C158.103 24.8344 158.014 24.4778 157.836 24.2263C157.658 23.9748 157.401 23.849 157.067 23.849C156.62 23.849 156.299 24.0566 156.103 24.4717V26.1861C156.311 26.6012 156.635 26.8088 157.074 26.8088C157.399 26.8088 157.652 26.683 157.832 26.4315C158.013 26.18 158.103 25.8014 158.103 25.2959Z" fill="#10E8E8"/>
<path d="M160.375 27.3107H159.697V21.6841H160.375V27.3107Z" fill="#10E8E8"/>
<path d="M163.91 27.3107C163.87 27.2325 163.839 27.0933 163.814 26.8931C163.499 27.2203 163.123 27.3839 162.686 27.3839C162.295 27.3839 161.974 27.274 161.723 27.0542C161.474 26.832 161.349 26.5512 161.349 26.2117C161.349 25.799 161.505 25.4791 161.818 25.252C162.133 25.0224 162.575 24.9076 163.144 24.9076H163.803V24.5963C163.803 24.3594 163.732 24.1714 163.591 24.0322C163.449 23.8905 163.24 23.8197 162.964 23.8197C162.723 23.8197 162.52 23.8807 162.356 24.0028C162.193 24.125 162.111 24.2727 162.111 24.4461H161.43C161.43 24.2483 161.499 24.0578 161.638 23.8746C161.78 23.689 161.971 23.5425 162.21 23.4351C162.452 23.3276 162.717 23.2739 163.005 23.2739C163.461 23.2739 163.819 23.3887 164.078 23.6182C164.337 23.8453 164.471 24.1591 164.481 24.5596V26.3839C164.481 26.7478 164.527 27.0371 164.62 27.252V27.3107H163.91ZM162.785 26.7942C162.997 26.7942 163.199 26.7392 163.389 26.6293C163.58 26.5194 163.718 26.3766 163.803 26.2007V25.3875H163.272C162.442 25.3875 162.027 25.6305 162.027 26.1165C162.027 26.3289 162.098 26.495 162.239 26.6147C162.381 26.7343 162.563 26.7942 162.785 26.7942Z" fill="#10E8E8"/>
<path d="M166.221 23.827C166.521 23.4583 166.912 23.2739 167.393 23.2739C168.231 23.2739 168.653 23.7464 168.661 24.6915V27.3107H167.983V24.6879C167.981 24.4021 167.915 24.1909 167.785 24.0541C167.658 23.9174 167.459 23.849 167.188 23.849C166.968 23.849 166.775 23.9076 166.609 24.0248C166.443 24.142 166.314 24.2959 166.221 24.4864V27.3107H165.543V21.6841H166.221V23.827Z" fill="#10E8E8"/>
<path d="M172.041 63.4517C172.041 64.0574 171.902 64.5446 171.624 64.9133C171.345 65.2796 170.971 65.4628 170.503 65.4628C170.002 65.4628 169.615 65.2857 169.341 64.9316L169.308 65.3895H168.686V59.7629H169.363V61.8619C169.637 61.5225 170.014 61.3527 170.495 61.3527C170.976 61.3527 171.354 61.5347 171.627 61.8985C171.903 62.2624 172.041 62.7606 172.041 63.3931V63.4517ZM171.363 63.3748C171.363 62.9132 171.274 62.5567 171.096 62.3052C170.918 62.0536 170.661 61.9279 170.327 61.9279C169.88 61.9279 169.559 62.1354 169.363 62.5506V64.2649C169.571 64.6801 169.895 64.8877 170.334 64.8877C170.659 64.8877 170.912 64.7619 171.092 64.5104C171.273 64.2588 171.363 63.8803 171.363 63.3748Z" fill="#10E8E8"/>
<path d="M173.635 65.3895H172.957V59.7629H173.635V65.3895Z" fill="#10E8E8"/>
<path d="M177.169 65.3895C177.13 65.3114 177.099 65.1722 177.074 64.9719C176.759 65.2992 176.383 65.4628 175.946 65.4628C175.555 65.4628 175.234 65.3529 174.983 65.1331C174.734 64.9109 174.609 64.63 174.609 64.2906C174.609 63.8779 174.765 63.5579 175.078 63.3308C175.393 63.1013 175.835 62.9865 176.404 62.9865H177.063V62.6751C177.063 62.4382 176.992 62.2502 176.851 62.111C176.709 61.9694 176.5 61.8985 176.224 61.8985C175.983 61.8985 175.78 61.9596 175.616 62.0817C175.453 62.2038 175.371 62.3516 175.371 62.5249H174.69C174.69 62.3271 174.759 62.1367 174.898 61.9535C175.04 61.7679 175.23 61.6214 175.47 61.5139C175.712 61.4065 175.977 61.3527 176.265 61.3527C176.721 61.3527 177.079 61.4675 177.338 61.6971C177.597 61.9242 177.731 62.238 177.741 62.6385V64.4627C177.741 64.8266 177.787 65.116 177.88 65.3309V65.3895H177.169ZM176.045 64.873C176.257 64.873 176.459 64.8181 176.649 64.7082C176.84 64.5983 176.978 64.4554 177.063 64.2796V63.4664H176.532C175.702 63.4664 175.287 63.7094 175.287 64.1953C175.287 64.4078 175.357 64.5739 175.499 64.6935C175.641 64.8132 175.823 64.873 176.045 64.873Z" fill="#10E8E8"/>
<path d="M179.481 61.9059C179.781 61.5371 180.172 61.3527 180.653 61.3527C181.491 61.3527 181.913 61.8253 181.921 62.7704V65.3895H181.243V62.7667C181.24 62.481 181.175 62.2697 181.045 62.133C180.918 61.9962 180.719 61.9279 180.448 61.9279C180.228 61.9279 180.035 61.9865 179.869 62.1037C179.703 62.2209 179.574 62.3748 179.481 62.5652V65.3895H178.803V59.7629H179.481V61.9059Z" fill="#10E8E8"/>
</svg>
