<svg width="204" height="145" viewBox="0 0 204 145" fill="none" xmlns="http://www.w3.org/2000/svg">
<path opacity="0.1" d="M21.9649 130.878V123.843L3.94592 92.9888H56.4305L73.2045 126.086H101.43V130.878H21.9649Z" fill="#10E8E8"/>
<path d="M173.087 55.1054C173.087 55.1054 167.469 66.0359 152.798 65.2149C138.122 64.3939 134.752 54.88 134.377 47.2443C134.001 39.6085 134.377 25.9789 134.377 25.9789C134.377 25.9789 136.4 8.23364 154.295 8.23364" stroke="#800180" stroke-width="1.5" stroke-miterlimit="10" stroke-linecap="round" stroke-linejoin="round"/>
<path d="M141.749 42.1511C143.465 42.1511 144.856 40.0225 144.856 37.3968C144.856 34.7711 143.465 32.6426 141.749 32.6426C140.034 32.6426 138.643 34.7711 138.643 37.3968C138.643 40.0225 140.034 42.1511 141.749 42.1511Z" stroke="#800180" stroke-width="1.5" stroke-miterlimit="10" stroke-linecap="round" stroke-linejoin="round"/>
<path d="M156.361 42.1511C158.077 42.1511 159.468 40.0225 159.468 37.3968C159.468 34.7711 158.077 32.6426 156.361 32.6426C154.645 32.6426 153.254 34.7711 153.254 37.3968C153.254 40.0225 154.645 42.1511 156.361 42.1511Z" stroke="#800180" stroke-width="1.5" stroke-miterlimit="10" stroke-linecap="round" stroke-linejoin="round"/>
<path d="M176.682 50.5383C181.355 50.5383 185.144 46.2307 185.144 40.9171C185.144 35.6035 181.355 31.2959 176.682 31.2959C172.008 31.2959 168.22 35.6035 168.22 40.9171C168.22 46.2307 172.008 50.5383 176.682 50.5383Z" stroke="#10E8E8" stroke-width="2" stroke-miterlimit="10" stroke-linecap="round" stroke-linejoin="round"/>
<path d="M178.329 47.9895C181.471 47.9895 184.017 44.9048 184.017 41.0996C184.017 37.2944 181.471 34.2097 178.329 34.2097C175.188 34.2097 172.641 37.2944 172.641 41.0996C172.641 44.9048 175.188 47.9895 178.329 47.9895Z" stroke="#10E8E8" stroke-width="2" stroke-miterlimit="10" stroke-linecap="round" stroke-linejoin="round"/>
<path d="M133.164 35.0361C133.164 35.0361 130.019 36.3079 130.019 41.7758C130.019 47.2437 133.164 48.3652 133.164 48.3652" stroke="#10E8E8" stroke-width="2" stroke-miterlimit="10" stroke-linecap="round" stroke-linejoin="round"/>
<path d="M155.567 7.85767C155.567 7.85767 168.456 8.8772 171.965 17.291C174.584 23.58 173.688 30.6201 173.688 30.6201" stroke="#10E8E8" stroke-width="2" stroke-miterlimit="10" stroke-linecap="round" stroke-linejoin="round"/>
<path d="M139.018 11.9035C139.018 11.9035 142.839 4.9385 158.561 5.68973C169.862 6.22633 176.328 13.4328 177.938 17.2963C180.556 23.5853 179.66 30.6254 179.66 30.6254" stroke="#10E8E8" stroke-width="2" stroke-miterlimit="10" stroke-linecap="round" stroke-linejoin="round"/>
<path d="M170.838 49.9375C170.838 49.9375 167.769 53.3825 165.596 53.7581C163.423 54.1337 159.468 53.9512 159.468 53.9512" stroke="#10E8E8" stroke-width="2" stroke-miterlimit="10" stroke-linecap="round" stroke-linejoin="round"/>
<path d="M159.758 52.1911C159.758 52.1911 158.105 51.9979 158.11 54.1282C158.116 55.9312 159.758 55.9258 160.133 55.3999" stroke="#10E8E8" stroke-width="2" stroke-miterlimit="10" stroke-linecap="round" stroke-linejoin="round"/>
<path d="M159.758 52.1909H154.327C154.327 52.1909 153.319 52.3626 153.506 54.069C153.694 55.7754 154.928 55.7056 154.928 55.7056H157.847" stroke="#10E8E8" stroke-width="2" stroke-miterlimit="10" stroke-linecap="round" stroke-linejoin="round"/>
<path d="M148.151 65.2573V72.0292C148.151 72.0292 147.55 76.821 158.11 76.6707C168.665 76.5205 169.567 73.0755 169.567 73.0755" stroke="#800180" stroke-width="1.5" stroke-miterlimit="10" stroke-linecap="round" stroke-linejoin="round"/>
<path d="M169.567 60.9431V70.9614C169.567 70.9614 184.092 69.7916 188.584 75.6244C193.075 81.4572 176.601 92.8385 176.677 88.1969C176.752 83.5553 185.139 71.7985 197.266 79.3591C209.355 86.8983 200.362 103.721 188.433 101.22C177.058 98.843 177.052 91.0355 177.052 91.0355" stroke="#800180" stroke-width="1.5" stroke-miterlimit="10" stroke-linecap="round" stroke-linejoin="round"/>
<path d="M191.68 103.522L181.297 129.279" stroke="#800180" stroke-width="1.5" stroke-miterlimit="10" stroke-linecap="round" stroke-linejoin="round"/>
<path d="M165.156 116.401L123.596 119.798" stroke="#800180" stroke-width="1.5" stroke-miterlimit="10" stroke-linecap="round" stroke-linejoin="round"/>
<path d="M123.596 129.279C123.596 129.279 123.596 119.019 124.943 117.323" stroke="#800180" stroke-width="1.5" stroke-miterlimit="10" stroke-linecap="round" stroke-linejoin="round"/>
<path d="M120.822 119.346C120.822 119.346 103.903 117.098 102.927 116.948C101.95 116.798 91.7708 116.948 91.3201 116.948C90.8693 116.948 84.355 124.208 84.355 124.208" stroke="#800180" stroke-width="1.5" stroke-miterlimit="10" stroke-linecap="round" stroke-linejoin="round"/>
<path d="M88.4761 123.838L92.8977 119.196" stroke="#800180" stroke-width="1.5" stroke-miterlimit="10" stroke-linecap="round" stroke-linejoin="round"/>
<path d="M100.083 124.664C100.083 124.664 104.724 118.423 103.377 118.102C102.031 117.78 102.406 123.468 103.227 124.219C104.048 124.97 112.51 129.612 112.51 129.612" stroke="#800180" stroke-width="1.5" stroke-miterlimit="10" stroke-linecap="round" stroke-linejoin="round"/>
<path d="M181.297 123.843C181.297 123.843 179.403 121.042 175.206 121.514C171.015 121.987 169.518 121.987 167.919 119.191C166.32 116.395 166.025 115.295 166.025 115.295L176.505 95.4304" stroke="#800180" stroke-width="1.5" stroke-miterlimit="10" stroke-linecap="round" stroke-linejoin="round"/>
<path d="M182.295 101.478L179.8 105.819L186.287 109.114L189.383 103.522" stroke="#800180" stroke-width="1.5" stroke-miterlimit="10" stroke-linecap="round" stroke-linejoin="round"/>
<path d="M146.058 70.9614C146.058 70.9614 131.833 72.0239 128.538 80.5612C125.244 89.0984 125.094 108.716 126.44 111.41C127.787 114.104 135.852 116.883 135.852 116.883" stroke="#800180" stroke-width="1.5" stroke-miterlimit="10" stroke-linecap="round" stroke-linejoin="round"/>
<path d="M146.058 115.45C146.058 115.45 143.386 93.7343 153.259 80.1101" stroke="#800180" stroke-width="1.5" stroke-miterlimit="10" stroke-linecap="round" stroke-linejoin="round"/>
<path d="M148.146 75.168C148.146 75.168 151.446 79.509 163.127 77.4163" stroke="#800180" stroke-width="1.5" stroke-miterlimit="10" stroke-linecap="round" stroke-linejoin="round"/>
<path d="M128.984 76.6712C128.984 76.6712 120.699 76.5693 118.504 84.1567C116.309 91.7442 118.805 95.6399 123.747 98.4302" stroke="#800180" stroke-width="1.5" stroke-miterlimit="10" stroke-linecap="round" stroke-linejoin="round"/>
<path d="M117.104 93.9226C117.104 93.9226 121.547 105.116 123.591 104.021C125.641 102.921 117.404 93.5416 115.306 95.4358C113.208 97.33 106.822 112.006 106.822 112.006" stroke="#800180" stroke-width="1.5" stroke-miterlimit="10" stroke-linecap="round" stroke-linejoin="round"/>
<path d="M124.943 113.105L122.394 118.085" stroke="#800180" stroke-width="1.5" stroke-miterlimit="10" stroke-linecap="round" stroke-linejoin="round"/>
<path d="M107.622 116.4C107.622 116.4 106.651 112.108 102.594 108.314C98.5373 104.52 77.9749 86.9519 77.9749 86.9519" stroke="#800180" stroke-width="1.5" stroke-miterlimit="10" stroke-linecap="round" stroke-linejoin="round"/>
<path d="M87.1561 119.196C87.1561 119.196 67.4898 92.0438 67.6883 91.1423" stroke="#800180" stroke-width="1.5" stroke-miterlimit="10" stroke-linecap="round" stroke-linejoin="round"/>
<path d="M66.5883 92.2426C66.5883 92.2426 75.3724 88.9479 77.4169 85.2561" stroke="#800180" stroke-width="1.5" stroke-miterlimit="10" stroke-linecap="round" stroke-linejoin="round"/>
<path d="M66.5883 89.9948C66.5883 89.9948 59.4515 81.2107 59.0008 80.4595C58.5501 79.7083 56.7525 80.4595 56.7525 80.4595C56.7525 80.4595 56.6505 84.001 54.9549 84.5537C53.2592 85.1011 54.4558 82.0586 53.9568 79.7136" stroke="#800180" stroke-width="1.5" stroke-miterlimit="10" stroke-linecap="round" stroke-linejoin="round"/>
<path d="M77.4222 84.1026C77.4222 83.9041 75.4743 71.1223 74.1275 70.6233C72.7806 70.1243 67.3395 69.7808 66.9907 69.6789C66.642 69.5769 67.4039 72.2224 69.5342 73.7195C71.3801 75.018 72.4318 74.5673 72.4318 74.5673" stroke="#800180" stroke-width="1.5" stroke-miterlimit="10" stroke-linecap="round" stroke-linejoin="round"/>
<path d="M72.0025 76.0701C72.0025 76.0701 71.2781 79.5633 74.4763 81.1624" stroke="#800180" stroke-width="1.5" stroke-miterlimit="10" stroke-linecap="round" stroke-linejoin="round"/>
<path d="M59.1028 84.1025C59.1028 84.1025 63.5941 78.7741 69.6362 75.6243" stroke="#800180" stroke-width="1.5" stroke-miterlimit="10" stroke-linecap="round" stroke-linejoin="round"/>
<path d="M67.9351 68.3805C67.9351 68.3805 66.9854 65.7351 64.7424 64.8873C62.494 64.0394 60.8467 62.7892 57.8525 62.9931C54.8583 63.1916 52.6099 62.9448 53.0124 63.8892C53.4094 64.839 55.9583 66.1375 58.6037 65.8853C58.6037 65.8853 61.0989 67.4307 63.7926 68.3805" stroke="#800180" stroke-width="1.5" stroke-miterlimit="10" stroke-linecap="round" stroke-linejoin="round"/>
<path d="M64.7424 70.9294C64.7424 70.9294 61.9467 68.4825 61.3457 68.386C60.7447 68.284 56.5056 68.2357 56.1032 68.386C55.7061 68.5362 55.2554 69.5826 55.6041 72.5285C55.9529 75.4744 55.4056 77.4223 56.5003 77.6691C57.6003 77.9213 58.6466 73.6285 58.4964 72.3299" stroke="#800180" stroke-width="1.5" stroke-miterlimit="10" stroke-linecap="round" stroke-linejoin="round"/>
<path d="M54.708 71.9268C54.708 71.9268 54.1071 79.2191 54.9602 79.8684C55.8081 80.5123 57.3052 78.6181 57.3052 78.6181" stroke="#800180" stroke-width="1.5" stroke-miterlimit="10" stroke-linecap="round" stroke-linejoin="round"/>
<path d="M10.6855 130.878H199.965" stroke="#800180" stroke-width="1.5" stroke-miterlimit="10" stroke-linecap="round" stroke-linejoin="round"/>
<path d="M31.6504 140.161H179.81" stroke="#800180" stroke-width="1.5" stroke-miterlimit="10" stroke-linecap="round" stroke-linejoin="round"/>
<path d="M102.594 129.606V125.185H75.6729V129.279" stroke="#10E8E8" stroke-width="2" stroke-miterlimit="10" stroke-linecap="round" stroke-linejoin="round"/>
<path d="M73.988 124.213L57.3052 91.1423H1L19.9687 125.184H71.1816" stroke="#10E8E8" stroke-width="2" stroke-miterlimit="10" stroke-linecap="round" stroke-linejoin="round"/>
<path d="M20.0439 126.086V130.127" stroke="#10E8E8" stroke-width="2" stroke-miterlimit="10" stroke-linecap="round" stroke-linejoin="round"/>
<path d="M75.6729 123.843L59.1028 91.1423H58.2013" stroke="#10E8E8" stroke-width="2" stroke-miterlimit="10" stroke-linecap="round" stroke-linejoin="round"/>
<path opacity="0.1" d="M177.353 50.5329C181.653 50.5329 185.139 46.4439 185.139 41.4C185.139 36.356 181.653 32.2671 177.353 32.2671C173.053 32.2671 169.567 36.356 169.567 41.4C169.567 46.4439 173.053 50.5329 177.353 50.5329Z" fill="#10E8E8"/>
<path d="M149.208 70.8545C149.208 70.8545 150.04 73.296 157.144 73.4409C164.249 73.5858 167.351 71.8687 168.504 70.613" stroke="#800180" stroke-width="1.5" stroke-miterlimit="10" stroke-linecap="round" stroke-linejoin="round"/>
<path d="M149.096 67.5222C149.096 67.5222 150.909 70.0228 159.114 68.9657C167.318 67.914 168.241 64.7319 168.241 64.7319" stroke="#800180" stroke-width="1.5" stroke-miterlimit="10" stroke-linecap="round" stroke-linejoin="round"/>
<path d="M153.254 87.553C153.254 87.553 149.042 95.0922 149.095 109.645" stroke="#800180" stroke-width="1.5" stroke-miterlimit="10" stroke-linecap="round" stroke-linejoin="round"/>
<path d="M123.344 81.1621C123.344 81.1621 120.425 81.2694 119.4 88.7496" stroke="#800180" stroke-width="1.5" stroke-miterlimit="10" stroke-linecap="round" stroke-linejoin="round"/>
<path d="M73.2045 95.4355L87.1561 114.007" stroke="#800180" stroke-width="1.5" stroke-miterlimit="10" stroke-linecap="round" stroke-linejoin="round"/>
<path d="M127.589 121.52L153.646 119.196" stroke="#800180" stroke-width="1.5" stroke-miterlimit="10" stroke-linecap="round" stroke-linejoin="round"/>
<path d="M181.297 92.9888C181.297 92.9888 183.99 97.8611 191.68 97.7806" stroke="#800180" stroke-width="1.5" stroke-miterlimit="10" stroke-linecap="round" stroke-linejoin="round"/>
<path d="M153.646 11.6787C153.646 11.6787 148.752 11.9792 144.856 15.2739" stroke="#800180" stroke-width="1.5" stroke-miterlimit="10" stroke-linecap="round" stroke-linejoin="round"/>
<path d="M135.847 27.1482V44.5232" stroke="#800180" stroke-width="1.5" stroke-miterlimit="10" stroke-linecap="round" stroke-linejoin="round"/>
</svg>
