<svg width="903" height="52" viewBox="0 0 903 52" fill="none" xmlns="http://www.w3.org/2000/svg">
<circle cx="26" cy="26" r="24" fill="white" stroke="#E4255C" stroke-width="4"/>
<path d="M25.4131 32.79C25.4131 32.916 25.4971 33 25.6231 33H28.1431C28.2691 33 28.3531 32.916 28.3531 32.79V18.93C28.3531 18.804 28.2691 18.72 28.1431 18.72H25.7911C25.6441 18.72 25.5181 18.762 25.4131 18.846L23.0191 20.568C22.9141 20.652 22.8721 20.736 22.8721 20.862V23.466C22.8721 23.634 22.9771 23.676 23.1031 23.592L25.3711 22.038H25.4131V32.79Z" fill="#E4255C"/>
<circle cx="451" cy="26" r="24" fill="white" stroke="#E4255C" stroke-width="4"/>
<path d="M446.696 32.79C446.696 32.916 446.78 33 446.906 33H455.39C455.516 33 455.6 32.916 455.6 32.79V30.711C455.6 30.585 455.516 30.501 455.39 30.501H450.392V30.459L454.151 26.028C455.054 24.999 455.6 23.928 455.6 22.563C455.6 20.253 453.941 18.489 451.211 18.489C448.46 18.489 446.864 20.211 446.717 22.185C446.696 22.311 446.759 22.416 446.885 22.437L449.195 22.815C449.342 22.836 449.426 22.773 449.426 22.647C449.552 21.555 450.14 20.967 451.106 20.967C452.093 20.967 452.66 21.66 452.66 22.605C452.66 23.34 452.366 23.949 451.82 24.579L446.801 30.543C446.717 30.648 446.696 30.711 446.696 30.837V32.79Z" fill="#E4255C"/>
<circle cx="877" cy="26" r="24" fill="white" stroke="#E4255C" stroke-width="4"/>
<path d="M872.507 29.955C872.906 32.013 874.712 33.231 877.148 33.231C879.836 33.231 881.81 31.488 881.81 28.884C881.81 26.994 880.802 25.839 879.941 25.419V25.377C880.97 24.705 881.537 23.655 881.537 22.437C881.537 20.148 879.92 18.489 877.127 18.489C874.607 18.489 872.99 19.875 872.654 21.765C872.633 21.891 872.696 21.975 872.822 21.996L875.111 22.437C875.237 22.458 875.321 22.416 875.363 22.29C875.573 21.492 876.077 20.967 876.98 20.967C877.988 20.967 878.597 21.639 878.597 22.647C878.597 23.739 877.904 24.432 876.833 24.432H876.266C876.14 24.432 876.056 24.516 876.056 24.642V26.679C876.056 26.805 876.14 26.889 876.266 26.889H876.875C878.093 26.889 878.87 27.624 878.87 28.905C878.87 29.976 878.198 30.753 877.106 30.753C876.098 30.753 875.489 30.165 875.237 29.409C875.195 29.283 875.111 29.22 874.985 29.241L872.675 29.682C872.549 29.724 872.486 29.829 872.507 29.955Z" fill="#E4255C"/>
<path d="M26 2L877 2.00007" stroke="#E4255C" stroke-width="4"/>
</svg>
