<svg width="20" height="20" viewBox="0 0 20 20" fill="none" xmlns="http://www.w3.org/2000/svg">
<path fill-rule="evenodd" clip-rule="evenodd" d="M0.195709 9.99987C0.195709 4.75324 4.44895 0.5 9.69558 0.5C14.9422 0.5 19.1955 4.75324 19.1955 9.99987C19.1955 15.2465 14.9422 19.4997 9.69558 19.4997C4.44895 19.4997 0.195709 15.2465 0.195709 9.99987Z" fill="#BDBEBF"/>
<path fill-rule="evenodd" clip-rule="evenodd" d="M7.04609 6.3673C7.03212 5.73307 6.57858 5.25 5.84209 5.25C5.1056 5.25 4.62411 5.73307 4.62411 6.3673C4.62411 6.9884 5.09137 7.48538 5.81414 7.48538H5.8279C6.57858 7.48538 7.04609 6.9884 7.04609 6.3673ZM6.90541 8.36863H4.75253V14.8371H6.90541V8.36863ZM12.1922 8.21618C13.6089 8.21618 14.671 9.14089 14.671 11.1277L14.6709 14.8366H12.5181V11.3759C12.5181 10.5067 12.2065 9.91353 11.4272 9.91353C10.8324 9.91353 10.4781 10.3134 10.3225 10.6996C10.2656 10.838 10.2516 11.0309 10.2516 11.2242V14.8367H8.09851C8.09851 14.8367 8.12689 8.97521 8.09851 8.36824H10.2516V9.28445C10.5374 8.84401 11.0491 8.21618 12.1922 8.21618Z" fill="white"/>
</svg>
