<svg width="14" height="13" viewBox="0 0 14 13" fill="none" xmlns="http://www.w3.org/2000/svg">
<path fill-rule="evenodd" clip-rule="evenodd" d="M3.42853 1.56575C3.41051 0.747913 2.82567 0.125 1.87598 0.125C0.926295 0.125 0.30542 0.747913 0.30542 1.56575C0.30542 2.36664 0.907944 3.00749 1.83995 3.00749H1.85769C2.82568 3.00749 3.42853 2.36664 3.42853 1.56575ZM3.24717 4.14623H0.471054V12.4873H3.24717V4.14623ZM10.0644 3.94945C11.8912 3.94945 13.2608 5.14186 13.2608 7.70387L13.2606 12.4864H10.4846V8.02391C10.4846 6.90303 10.0829 6.13817 9.07796 6.13817C8.311 6.13817 7.85417 6.6538 7.65354 7.15182C7.58013 7.3303 7.56212 7.57898 7.56212 7.82826V12.4866H4.78567C4.78567 12.4866 4.82226 4.92822 4.78567 4.14554H7.56212V5.32698C7.93057 4.75904 8.59048 3.94945 10.0644 3.94945Z" fill="#E4255C"/>
</svg>
