<svg width="16" height="17" viewBox="0 0 16 17" fill="none" xmlns="http://www.w3.org/2000/svg">
<path d="M8.00001 1.00195C6.54186 1.00373 5.14394 1.58376 4.11288 2.61482C3.08181 3.64589 2.50178 5.04381 2.50001 6.50195C2.49828 7.69359 2.88758 8.85287 3.60816 9.80195C3.60816 9.80195 3.75816 9.9992 3.78226 10.0278L8.00001 15.002L12.2195 10.0257C12.2417 9.999 12.3919 9.80175 12.3919 9.80175L12.3926 9.80055C13.1128 8.85183 13.5018 7.69304 13.5 6.50195C13.4982 5.04381 12.9182 3.64589 11.8871 2.61482C10.8561 1.58376 9.45815 1.00373 8.00001 1.00195Z" fill="#BDBEBF"/>
<path d="M8 8.00195C9.10457 8.00195 10 7.10652 10 6.00195C10 4.89738 9.10457 4.00195 8 4.00195C6.89543 4.00195 6 4.89738 6 6.00195C6 7.10652 6.89543 8.00195 8 8.00195Z" fill="white"/>
</svg>
