<svg width="180" height="39" viewBox="0 0 180 39" fill="none" xmlns="http://www.w3.org/2000/svg">
<g clip-path="url(#clip0)">
<path d="M1.59999 35.5302L1.51999 35.4902C0.529994 34.9002 0.609994 33.6602 1.01999 32.9802L13.4 12.0902C13.4 12.0902 13.47 11.9602 13.5 11.9202C15.56 8.44023 18.6 6.19023 22.57 5.18023C26.6 4.15023 30.33 4.72023 33.71 6.91023C36.72 8.81023 38.71 11.4702 39.68 14.8602C40.87 19.0002 40.24 23.5202 37.93 27.1402C35.86 30.3902 32.88 32.5302 29.08 33.5302C25.11 34.5402 21.39 33.9802 18.01 31.7802C14.55 29.5302 12.45 26.3202 11.65 22.1802L4.14999 34.8202C4.14999 34.8202 3.26999 36.5302 1.59999 35.5302ZM31.77 10.0702C29.19 8.35023 26.43 7.90023 23.35 8.76023C20.31 9.64023 18.08 11.4002 16.54 14.0902C15.08 16.6602 14.72 19.3802 15.37 22.2302C16.02 25.0902 17.6 27.2402 20.08 28.7302C22.61 30.2502 25.28 30.6402 28.18 29.9002C31.07 29.1602 33.28 27.5602 34.85 25.0002C36.4 22.4802 36.86 19.7702 36.26 16.8302C35.67 13.9002 34.21 11.6402 31.77 10.0702Z" fill="white"/>
<path d="M38.66 35.5299L38.74 35.4899C39.73 34.8999 39.65 33.6599 39.24 32.9799L26.87 12.0899C26.87 12.0899 26.8 11.9599 26.77 11.9199C24.71 8.43989 21.67 6.18989 17.7 5.17989C13.66 4.14989 9.94001 4.71989 6.56001 6.91989C3.55001 8.8299 1.56001 11.4799 0.590009 14.8699C-0.599991 18.9999 0.030009 23.5299 2.34001 27.1499C4.41001 30.3999 7.39001 32.5299 11.19 33.5299C15.16 34.5399 18.88 33.9799 22.26 31.7799C25.72 29.5299 27.82 26.3199 28.62 22.1799L36.11 34.8299C36.11 34.8199 36.99 36.5299 38.66 35.5299ZM8.48001 10.0699C11.06 8.34989 13.82 7.89989 16.9 8.75989C19.94 9.63989 22.17 11.3999 23.71 14.0899C25.17 16.6599 25.53 19.3799 24.88 22.2299C24.23 25.0899 22.65 27.2399 20.17 28.7299C17.64 30.2499 14.97 30.6399 12.07 29.8999C9.18001 29.1599 6.97001 27.5599 5.40001 24.9999C3.85001 22.4799 3.39001 19.7699 3.99001 16.8299C4.59001 13.8999 6.05001 11.6399 8.48001 10.0699Z" fill="white"/>
<path d="M56.97 38.6891C56.48 38.6891 56.04 38.5091 55.68 38.1391C55.32 37.7791 55.14 37.3491 55.14 36.8391V19.2891C55.15 16.2391 56.23 13.6491 58.38 11.5091C60.51 9.36906 63.09 8.28906 66.12 8.28906C69.15 8.28906 71.74 9.36906 73.88 11.5191C76.03 13.6791 77.1 16.2791 77.1 19.3291C77.1 22.3791 76.03 24.9791 73.88 27.1391C71.73 29.2991 69.15 30.3691 66.12 30.3691C63.35 30.3691 60.92 29.4491 58.86 27.5991V36.8391C58.86 37.3391 58.68 37.7691 58.32 38.1391C57.96 38.4991 57.53 38.6891 57.03 38.6891H56.97ZM71.25 24.4491C72.67 23.0191 73.38 21.2991 73.38 19.2991C73.38 17.2791 72.67 15.5491 71.25 14.1191C69.84 12.7091 68.13 11.9991 66.13 11.9991C64.13 11.9991 62.4 12.7091 60.98 14.1191C59.57 15.5491 58.87 17.2691 58.87 19.2991C58.87 21.3091 59.58 23.0291 60.98 24.4491C62.4 25.8791 64.12 26.5891 66.13 26.5891C68.13 26.5891 69.84 25.8791 71.25 24.4491Z" fill="white"/>
<path d="M89.93 8.28906C90.44 8.28906 90.88 8.46906 91.24 8.83906C91.59 9.19906 91.76 9.63906 91.76 10.1491V10.1891C91.76 10.6991 91.59 11.1291 91.24 11.4891C90.88 11.8491 90.44 12.0391 89.93 12.0391H88.79C87.53 12.0391 86.46 12.4891 85.57 13.3691C84.7 14.2591 84.26 15.3391 84.24 16.5991V28.5291C84.24 29.0391 84.06 29.4691 83.7 29.8291C83.34 30.1891 82.91 30.3791 82.41 30.3791H82.35C81.86 30.3791 81.43 30.1991 81.06 29.8291C80.7 29.4791 80.52 29.0491 80.52 28.5291V16.5991C80.55 14.2891 81.35 12.3291 82.93 10.7191C84.54 9.09906 86.5 8.29906 88.79 8.29906L89.93 8.28906Z" fill="white"/>
<path d="M114.33 14.7413C114.54 15.2013 114.56 15.6712 114.39 16.1512C114.22 16.6213 113.9 16.9713 113.43 17.1813C111.55 18.0313 109.09 19.1513 106.03 20.5413C102.24 22.2713 99.78 23.3813 98.65 23.9012C100.1 25.7612 102 26.6912 104.36 26.6912C105.93 26.6912 107.35 26.2313 108.62 25.2913C109.85 24.3913 110.72 23.2113 111.21 21.7713C111.51 20.9313 112.1 20.5113 112.98 20.5113C113.61 20.5113 114.11 20.7712 114.49 21.3012C114.85 21.8112 114.93 22.3713 114.71 22.9812C113.96 25.1612 112.65 26.9312 110.77 28.2812C108.85 29.6712 106.71 30.3613 104.35 30.3613C101.32 30.3613 98.73 29.2812 96.59 27.1312C94.44 24.9712 93.37 22.3713 93.37 19.3212C93.37 16.2712 94.44 13.6713 96.59 11.5113C98.74 9.35125 101.32 8.28125 104.35 8.28125C106.54 8.28125 108.53 8.88125 110.34 10.0813C112.13 11.2713 113.45 12.8212 114.33 14.7413ZM104.35 12.0813C102.34 12.0813 100.62 12.7913 99.2 14.2213C97.79 15.6513 97.09 17.3713 97.09 19.4012C97.09 19.7612 97.12 20.1212 97.17 20.4712L109.9 14.6912C108.45 12.9513 106.6 12.0813 104.35 12.0813Z" fill="white"/>
<path d="M120.34 0C120.83 0 121.26 0.17 121.63 0.53C121.99 0.89 122.17 1.33 122.17 1.84V8.3H125.79C126.28 8.3 126.72 8.48 127.08 8.85C127.44 9.21 127.62 9.65 127.62 10.16V10.2C127.62 10.71 127.44 11.14 127.08 11.5C126.72 11.86 126.29 12.05 125.79 12.05H122.17V24.65C122.17 25.2 122.37 25.67 122.75 26.07C123.14 26.46 123.61 26.66 124.18 26.66H125.79C126.28 26.66 126.72 26.84 127.08 27.21C127.44 27.57 127.62 28.01 127.62 28.52V28.56C127.62 29.07 127.44 29.5 127.08 29.85C126.72 30.21 126.29 30.4 125.79 30.4H124.18C122.6 30.4 121.24 29.84 120.12 28.72C119.01 27.59 118.45 26.23 118.45 24.66V1.84C118.45 1.33 118.63 0.89 118.99 0.53C119.35 0.18 119.78 0 120.28 0H120.34Z" fill="white"/>
<path d="M142.82 12.2398C142.97 12.0798 142.93 11.9898 142.7 11.9798H132.36C131.85 11.9798 131.42 11.7998 131.07 11.4298C130.71 11.0698 130.53 10.6398 130.53 10.1298V10.0698C130.53 9.56977 130.71 9.13977 131.07 8.76977C131.42 8.40977 131.85 8.21977 132.36 8.21977H144.44C145.84 8.18977 146.81 8.81977 147.36 10.0998C147.91 11.4098 147.69 12.5598 146.7 13.5398C142.15 18.3398 138.16 22.5498 134.72 26.1798C134.72 26.1998 134.69 26.2398 134.62 26.2998C134.46 26.4598 134.49 26.5498 134.72 26.5598H134.86L145.94 26.5798C146.45 26.5798 146.88 26.7498 147.23 27.1098C147.59 27.4698 147.77 27.9098 147.77 28.4198V28.4598C147.77 28.9698 147.59 29.4098 147.23 29.7698C146.88 30.1198 146.45 30.2998 145.94 30.2998H132.97C131.57 30.3398 130.6 29.7098 130.06 28.4198C129.51 27.1298 129.73 25.9798 130.72 24.9798C132.03 23.6098 134.03 21.4998 136.71 18.6698C139.35 15.8798 141.35 13.7698 142.7 12.3398C142.7 12.3498 142.74 12.2998 142.82 12.2398Z" fill="white"/>
<path d="M171.35 14.7413C171.56 15.2013 171.58 15.6712 171.41 16.1512C171.24 16.6213 170.92 16.9713 170.45 17.1813C168.57 18.0313 166.11 19.1513 163.05 20.5413C159.26 22.2713 156.8 23.3813 155.67 23.9012C157.12 25.7612 159.02 26.6912 161.38 26.6912C162.95 26.6912 164.37 26.2313 165.64 25.2913C166.87 24.3913 167.74 23.2113 168.23 21.7713C168.53 20.9313 169.12 20.5113 170 20.5113C170.63 20.5113 171.13 20.7712 171.51 21.3012C171.87 21.8112 171.95 22.3713 171.73 22.9812C170.98 25.1612 169.67 26.9312 167.79 28.2812C165.87 29.6712 163.73 30.3613 161.37 30.3613C158.34 30.3613 155.75 29.2812 153.61 27.1312C151.46 24.9712 150.39 22.3713 150.39 19.3212C150.39 16.2712 151.46 13.6713 153.61 11.5113C155.76 9.35125 158.34 8.28125 161.37 8.28125C163.56 8.28125 165.55 8.88125 167.36 10.0813C169.16 11.2713 170.48 12.8212 171.35 14.7413ZM161.38 12.0813C159.37 12.0813 157.65 12.7913 156.23 14.2213C154.82 15.6513 154.12 17.3713 154.12 19.4012C154.12 19.7612 154.15 20.1212 154.2 20.4712L166.93 14.6912C165.48 12.9513 163.63 12.0813 161.38 12.0813Z" fill="white"/>
<path d="M178.17 0C178.66 0 179.09 0.17 179.46 0.53C179.82 0.89 180 1.33 180 1.84V28.53C180 29.04 179.82 29.47 179.46 29.82C179.1 30.18 178.67 30.37 178.17 30.37H178.11C177.62 30.37 177.18 30.19 176.82 29.82C176.46 29.47 176.28 29.04 176.28 28.53V1.84C176.28 1.33 176.46 0.89 176.82 0.53C177.18 0.18 177.61 0 178.11 0H178.17Z" fill="white"/>
</g>
<defs>
<clipPath id="clip0">
<rect width="180" height="38.69" fill="white"/>
</clipPath>
</defs>
</svg>
