<svg width="32" height="36" viewBox="0 0 32 36" fill="none" xmlns="http://www.w3.org/2000/svg">
<g clip-path="url(#clip0)">
<path fill-rule="evenodd" clip-rule="evenodd" d="M29.6894 2.75634H2.3116V34.0452H29.6894V2.75634ZM2.3116 0.800781C1.23158 0.800781 0.356049 1.67631 0.356049 2.75634V34.0452C0.356049 35.1252 1.23158 36.0008 2.3116 36.0008H29.6894C30.7694 36.0008 31.6449 35.1252 31.6449 34.0452V2.75634C31.6449 1.67631 30.7694 0.800781 29.6894 0.800781H2.3116Z" fill="#800180"/>
<path fill-rule="evenodd" clip-rule="evenodd" d="M15.9982 14.4897C17.0783 14.4897 17.9538 13.6142 17.9538 12.5342C17.9538 11.4541 17.0783 10.5786 15.9982 10.5786C14.9182 10.5786 14.0427 11.4541 14.0427 12.5342C14.0427 13.6142 14.9182 14.4897 15.9982 14.4897ZM19.9093 12.5342C19.9093 14.6942 18.1583 16.4453 15.9982 16.4453C13.8382 16.4453 12.0871 14.6942 12.0871 12.5342C12.0871 10.3741 13.8382 8.62305 15.9982 8.62305C18.1583 8.62305 19.9093 10.3741 19.9093 12.5342Z" fill="#800180"/>
<path d="M14.0447 20.3559H17.9558C20.1159 20.3559 21.8669 22.107 21.8669 24.2671V26.2226H23.8225V24.2671C23.8225 21.027 21.1959 18.4004 17.9558 18.4004H14.0447C10.8046 18.4004 8.17804 21.027 8.17804 24.2671V26.2226H10.1336V24.2671C10.1336 22.107 11.8847 20.3559 14.0447 20.3559Z" fill="#800180"/>
</g>
<defs>
<clipPath id="clip0">
<rect width="32" height="35.2" fill="white" transform="translate(0 0.800781)"/>
</clipPath>
</defs>
</svg>
