<svg width="26" height="25" viewBox="0 0 26 25" fill="none" xmlns="http://www.w3.org/2000/svg">
<g clip-path="url(#clip0)">
<path fill-rule="evenodd" clip-rule="evenodd" d="M13.121 0.324646C6.51012 0.324646 1.15125 5.68629 1.15125 12.3038C1.15125 17.378 4.30602 21.7132 8.75808 23.4589C8.65339 22.5117 8.56002 21.0577 8.80052 20.0213C9.01697 19.0869 10.2039 14.0679 10.2039 14.0679C10.2039 14.0679 9.84598 13.35 9.84598 12.2896C9.84598 10.6232 10.8094 9.38013 12.0119 9.38013C13.0319 9.38013 13.5256 10.1475 13.5256 11.0678C13.5256 12.0956 12.872 13.6318 12.5339 15.0561C12.2524 16.2496 13.1323 17.2208 14.3065 17.2208C16.4342 17.2208 18.0696 14.9754 18.0696 11.7346C18.0696 8.86619 16.0112 6.86141 13.0701 6.86141C9.6649 6.86141 7.66593 9.41835 7.66593 12.0602C7.66593 13.0895 8.06063 14.1939 8.55578 14.7942C8.65339 14.9131 8.66754 15.0164 8.63924 15.1382C8.5487 15.5162 8.3464 16.3303 8.30679 16.496C8.25444 16.7154 8.13278 16.7621 7.90501 16.6574C6.41109 15.9608 5.47739 13.7719 5.47739 12.0163C5.47739 8.23757 8.22049 4.76602 13.3856 4.76602C17.5377 4.76602 20.7646 7.72788 20.7646 11.6851C20.7646 15.8135 18.163 19.1364 14.5541 19.1364C13.3403 19.1364 12.2 18.505 11.8096 17.7603C11.8096 17.7603 11.2097 20.0468 11.064 20.6074C10.7938 21.6481 10.0638 22.952 9.57719 23.7477C10.6962 24.096 11.886 24.2829 13.121 24.2829C19.7319 24.2829 25.0908 18.9198 25.0908 12.3038C25.0908 5.68629 19.7319 0.324646 13.121 0.324646Z" fill="#10E8E8"/>
</g>
<defs>
<clipPath id="clip0">
<rect width="25" height="25" fill="white" transform="translate(0.42981)"/>
</clipPath>
</defs>
</svg>
