<svg width="24" height="23" viewBox="0 0 24 23" fill="none" xmlns="http://www.w3.org/2000/svg">
<path fill-rule="evenodd" clip-rule="evenodd" d="M12.2607 0.20697C9.19375 0.20697 8.80885 0.220381 7.60426 0.275199C6.40202 0.330252 5.5814 0.520586 4.86335 0.799853C4.1206 1.08829 3.49055 1.47414 2.86284 2.10208C2.23467 2.72978 1.84883 3.35983 1.55944 4.10235C1.27947 4.82063 1.0889 5.64149 1.03479 6.84326C0.980913 8.04784 0.966797 8.43298 0.966797 11.5C0.966797 14.567 0.980443 14.9507 1.03503 16.1553C1.09031 17.3575 1.28065 18.1781 1.55968 18.8962C1.84836 19.6389 2.2342 20.269 2.86214 20.8967C3.48961 21.5249 4.11966 21.9116 4.86194 22.2001C5.58046 22.4794 6.40132 22.6697 7.60332 22.7247C8.8079 22.7796 9.19257 22.793 12.2593 22.793C15.3266 22.793 15.7103 22.7796 16.9149 22.7247C18.1171 22.6697 18.9387 22.4794 19.6572 22.2001C20.3997 21.9116 21.0288 21.5249 21.6563 20.8967C22.2845 20.269 22.6703 19.6389 22.9597 18.8964C23.2373 18.1781 23.4279 17.3573 23.4843 16.1555C23.5384 14.9509 23.5526 14.567 23.5526 11.5C23.5526 8.43298 23.5384 8.04808 23.4843 6.84349C23.4279 5.64126 23.2373 4.82063 22.9597 4.10259C22.6703 3.35984 22.2845 2.72978 21.6563 2.10208C21.0281 1.4739 20.3999 1.08806 19.6565 0.799853C18.9366 0.520586 18.1155 0.330252 16.9132 0.275199C15.7086 0.220381 15.3251 0.20697 12.2572 0.20697H12.2607ZM11.2476 2.24251C11.5483 2.24203 11.8838 2.24251 12.2607 2.24251C15.2759 2.24251 15.6333 2.25333 16.824 2.30744C17.9251 2.35779 18.5227 2.54177 18.9207 2.69634C19.4477 2.90103 19.8235 3.14571 20.2185 3.54096C20.6137 3.93622 20.8584 4.31265 21.0636 4.83966C21.2182 5.23727 21.4024 5.83486 21.4525 6.93592C21.5066 8.12639 21.5184 8.48401 21.5184 11.4978C21.5184 14.5116 21.5066 14.8693 21.4525 16.0597C21.4021 17.1608 21.2182 17.7584 21.0636 18.156C20.8589 18.683 20.6137 19.0583 20.2185 19.4533C19.8232 19.8485 19.448 20.0932 18.9207 20.2979C18.5231 20.4532 17.9251 20.6367 16.824 20.687C15.6335 20.7411 15.2759 20.7529 12.2607 20.7529C9.24522 20.7529 8.88785 20.7411 7.69738 20.687C6.59631 20.6362 5.99872 20.4522 5.60041 20.2977C5.0734 20.093 4.69697 19.8483 4.30171 19.453C3.90646 19.0578 3.66178 18.6823 3.45662 18.155C3.30205 17.7574 3.11783 17.1599 3.06772 16.0588C3.0136 14.8683 3.00278 14.5107 3.00278 11.495C3.00278 8.4793 3.0136 8.12357 3.06772 6.9331C3.11806 5.83203 3.30205 5.23444 3.45662 4.83637C3.6613 4.30936 3.90646 3.93293 4.30171 3.53767C4.69697 3.14242 5.0734 2.89773 5.60041 2.69258C5.99849 2.5373 6.59631 2.35379 7.69738 2.3032C8.73916 2.25615 9.14288 2.24203 11.2476 2.23968V2.24251ZM18.2889 4.11704C17.5407 4.11704 16.9337 4.72333 16.9337 5.47172C16.9337 6.21989 17.5407 6.82689 18.2889 6.82689C19.0371 6.82689 19.6441 6.21989 19.6441 5.47172C19.6441 4.72356 19.0371 4.11656 18.2889 4.11656V4.11704ZM12.2604 5.70065C9.05768 5.70065 6.461 8.29734 6.461 11.5001C6.461 14.7028 9.05768 17.2983 12.2604 17.2983C15.4632 17.2983 18.0589 14.7028 18.0589 11.5001C18.0589 8.29734 15.4629 5.70065 12.2602 5.70065H12.2604ZM12.2603 7.73545C14.3391 7.73545 16.0246 9.4207 16.0246 11.4998C16.0246 13.5786 14.3391 15.2641 12.2603 15.2641C10.1812 15.2641 8.49594 13.5786 8.49594 11.4998C8.49594 9.4207 10.1812 7.73545 12.2603 7.73545Z" fill="#10E8E8"/>
</svg>
