<svg width="13" height="11" viewBox="0 0 13 11" fill="none" xmlns="http://www.w3.org/2000/svg">
<path fill-rule="evenodd" clip-rule="evenodd" d="M6.17546 2.95656L6.20116 3.38043L5.77273 3.32853C4.21325 3.12957 2.85084 2.45483 1.69408 1.3216L1.12855 0.759319L0.982886 1.17454C0.674416 2.10015 0.871494 3.07766 1.51414 3.73511C1.85688 4.09843 1.77977 4.15033 1.18853 3.93407C0.982886 3.86486 0.802945 3.81296 0.785808 3.83891C0.725828 3.89947 0.931474 4.68667 1.09428 4.99809C1.31706 5.43061 1.7712 5.85449 2.26818 6.10535L2.68804 6.30432L2.19106 6.31297C1.71122 6.31297 1.69408 6.32162 1.74549 6.50328C1.91686 7.06557 2.59378 7.66245 3.34782 7.92197L3.87907 8.10363L3.41637 8.38045C2.73088 8.77837 1.92543 9.00329 1.11998 9.02059C0.734397 9.02924 0.417358 9.06384 0.417358 9.08979C0.417358 9.1763 1.46273 9.66073 2.0711 9.85104C3.89621 10.4133 6.06407 10.1711 7.6921 9.2109C8.84886 8.52751 10.0056 7.16937 10.5454 5.85449C10.8368 5.15379 11.1281 3.87351 11.1281 3.25933C11.1281 2.8614 11.1538 2.8095 11.6337 2.33372C11.9164 2.0569 12.182 1.75413 12.2335 1.66763C12.3191 1.50327 12.3106 1.50327 11.8736 1.65032C11.1452 1.90984 11.0424 1.87524 11.4023 1.48596C11.6679 1.20915 11.985 0.707415 11.985 0.560356C11.985 0.534404 11.8564 0.577657 11.7108 0.655512C11.5565 0.742018 11.2138 0.871776 10.9567 0.949631L10.494 1.09669L10.0742 0.811222C9.84282 0.655512 9.51721 0.482501 9.34584 0.430598C8.90884 0.30949 8.24049 0.326791 7.84634 0.4652C6.77526 0.854475 6.09834 1.85794 6.17546 2.95656Z" fill="#E4255C"/>
</svg>
