<svg width="20" height="20" viewBox="0 0 20 20" fill="none" xmlns="http://www.w3.org/2000/svg">
<path fill-rule="evenodd" clip-rule="evenodd" d="M0.594727 9.99987C0.594727 4.75324 4.84796 0.5 10.0946 0.5C15.3412 0.5 19.5945 4.75324 19.5945 9.99987C19.5945 15.2465 15.3412 19.4997 10.0946 19.4997C4.84796 19.4997 0.594727 15.2465 0.594727 9.99987Z" fill="#BDBEBF"/>
<path fill-rule="evenodd" clip-rule="evenodd" d="M9.80917 8.22091L9.8291 8.54963L9.49685 8.50938C8.28747 8.35508 7.23092 7.83182 6.33385 6.953L5.89528 6.51695L5.78232 6.83896C5.5431 7.55677 5.69593 8.31483 6.19431 8.82468C6.4601 9.10643 6.4003 9.14668 5.9418 8.97897C5.78232 8.9253 5.64277 8.88505 5.62948 8.90518C5.58297 8.95214 5.74245 9.56261 5.8687 9.80412C6.04147 10.1395 6.39365 10.4683 6.77906 10.6628L7.10467 10.8171L6.71926 10.8238C6.34714 10.8238 6.33385 10.8305 6.37372 10.9714C6.50662 11.4075 7.03157 11.8703 7.61633 12.0716L8.02832 12.2125L7.66949 12.4271C7.13789 12.7357 6.51326 12.9102 5.88864 12.9236C5.58961 12.9303 5.34375 12.9571 5.34375 12.9772C5.34375 13.0443 6.15444 13.42 6.62623 13.5676C8.0416 14.0036 9.72278 13.8158 10.9853 13.0712C11.8824 12.5412 12.7795 11.488 13.1981 10.4683C13.424 9.92487 13.65 8.93201 13.65 8.45571C13.65 8.14712 13.6699 8.10687 14.042 7.7379C14.2613 7.52323 14.4673 7.28843 14.5072 7.22134C14.5736 7.09388 14.567 7.09388 14.2281 7.20793C13.6632 7.40918 13.5835 7.38235 13.8626 7.08046C14.0686 6.86579 14.3145 6.4767 14.3145 6.36265C14.3145 6.34253 14.2148 6.37607 14.1018 6.43645C13.9822 6.50353 13.7164 6.60416 13.5171 6.66454L13.1582 6.77858L12.8326 6.5572C12.6532 6.43645 12.4007 6.30228 12.2678 6.26203C11.9289 6.16811 11.4106 6.18152 11.1049 6.28886C10.2743 6.59074 9.74936 7.36893 9.80917 8.22091Z" fill="white"/>
</svg>
