<svg width="25" height="21" viewBox="0 0 25 21" fill="none" xmlns="http://www.w3.org/2000/svg">
<path fill-rule="evenodd" clip-rule="evenodd" d="M12.0131 6.00597L12.064 6.83672L11.2159 6.73499C8.12879 6.34505 5.43185 5.02264 3.14198 2.80166L2.0225 1.69965L1.73414 2.51344C1.12351 4.32752 1.51364 6.24333 2.78578 7.53183C3.46426 8.2439 3.3116 8.34562 2.14123 7.92177C1.73414 7.78614 1.37794 7.68442 1.34402 7.73528C1.22528 7.85396 1.63237 9.39677 1.95465 10.0071C2.39566 10.8548 3.29464 11.6856 4.27843 12.1772L5.10957 12.5672L4.12578 12.5841C3.17591 12.5841 3.14198 12.6011 3.24376 12.9571C3.58299 14.0591 4.92299 15.229 6.41564 15.7376L7.46728 16.0936L6.55133 16.6361C5.19438 17.416 3.59996 17.8568 2.00553 17.8907C1.24225 17.9077 0.614655 17.9755 0.614655 18.0264C0.614655 18.1959 2.68401 19.1453 3.88831 19.5183C7.5012 20.6203 11.7926 20.1456 15.0153 18.2637C17.3052 16.9244 19.5951 14.2626 20.6637 11.6856C21.2404 10.3123 21.8171 7.8031 21.8171 6.59936C21.8171 5.81948 21.868 5.71775 22.8178 4.78528C23.3776 4.24275 23.9034 3.64936 24.0052 3.47982C24.1748 3.15769 24.1578 3.15769 23.2928 3.44591C21.851 3.95453 21.6475 3.88672 22.3599 3.12379C22.8857 2.58126 23.5133 1.59792 23.5133 1.30971C23.5133 1.25884 23.2588 1.34361 22.9705 1.4962C22.6652 1.66574 21.9867 1.92005 21.4778 2.07264L20.5619 2.36085L19.7308 1.80137C19.2728 1.4962 18.6282 1.15712 18.289 1.0554C17.4239 0.818039 16.1009 0.851947 15.3207 1.12321C13.2004 1.88614 11.8604 3.85281 12.0131 6.00597Z" fill="#10E8E8"/>
</svg>
