<svg width="241" height="52" viewBox="0 0 241 52" fill="none" xmlns="http://www.w3.org/2000/svg">
<g clip-path="url(#clip0)">
<path d="M2.14221 47.5707L2.0351 47.5172C0.709601 46.7272 0.816712 45.067 1.36566 44.1566L17.9411 16.1872C17.9411 16.1872 18.0348 16.0131 18.075 15.9596C20.8331 11.3002 24.9033 8.28772 30.2187 6.93544C35.6144 5.55639 40.6085 6.31955 45.1339 9.25172C49.164 11.7956 51.8284 15.3571 53.1271 19.8959C54.7204 25.4389 53.8769 31.4907 50.784 36.3374C48.0125 40.6888 44.0227 43.5541 38.9349 44.8929C33.6195 46.2452 28.6388 45.4954 24.1134 42.5499C19.4808 39.5374 16.6692 35.2396 15.598 29.6966L5.55638 46.6201C5.55638 46.6201 4.37816 48.9096 2.14221 47.5707ZM42.5365 13.4826C39.0822 11.1797 35.3868 10.5772 31.263 11.7287C27.1928 12.9069 24.2071 15.2633 22.1452 18.8649C20.1904 22.3059 19.7084 25.9477 20.5787 29.7635C21.449 33.5927 23.5644 36.4713 26.8849 38.4663C30.2723 40.5014 33.8471 41.0236 37.7299 40.0328C41.5993 39.042 44.5582 36.8998 46.6603 33.4722C48.7355 30.0982 49.3514 26.4698 48.5481 22.5335C47.7582 18.6106 45.8034 15.5847 42.5365 13.4826Z" fill="#E4255C"/>
<path d="M51.7614 47.5708L51.8686 47.5172C53.1941 46.7273 53.0869 45.067 52.538 44.1566L35.9759 16.1872C35.9759 16.1872 35.8822 16.0132 35.8421 15.9596C33.084 11.3003 29.0137 8.28777 23.6983 6.93549C18.2892 5.55643 13.3086 6.3196 8.78312 9.26515C4.75306 11.8224 2.08867 15.3705 0.789948 19.9093C-0.80333 25.4389 0.0401706 31.5041 3.133 36.3509C5.9045 40.7023 9.89439 43.5541 14.9822 44.893C20.2976 46.2453 25.2782 45.4955 29.8037 42.5499C34.4362 39.5374 37.2479 35.2396 38.319 29.6966L48.3473 46.6335C48.3473 46.6202 49.5255 48.9097 51.7614 47.5708ZM11.3538 13.4827C14.8081 11.1798 18.5034 10.5773 22.6272 11.7287C26.6974 12.9069 29.6832 15.2634 31.7451 18.865C33.6998 22.3059 34.1818 25.9477 33.3116 29.7635C32.4413 33.5928 30.3258 36.4714 27.0054 38.4663C23.618 40.5014 20.0432 41.0236 16.1604 40.0328C12.291 39.042 9.33206 36.8998 7.23 33.4723C5.15473 30.0983 4.53884 26.4699 5.34217 22.5335C6.1455 18.6106 8.10028 15.5847 11.3538 13.4827Z" fill="#E4255C"/>
<path d="M76.2765 51.8016C75.6205 51.8016 75.0314 51.5606 74.5494 51.0653C74.0674 50.5833 73.8264 50.0075 73.8264 49.3247V25.8272C73.8397 21.7436 75.2857 18.2759 78.1644 15.4106C81.0162 12.5454 84.4705 11.0994 88.5274 11.0994C92.5842 11.0994 96.0519 12.5454 98.9171 15.424C101.796 18.316 103.228 21.7971 103.228 25.8808C103.228 29.9644 101.796 33.4455 98.9171 36.3375C96.0385 39.2295 92.5842 40.6621 88.5274 40.6621C84.8186 40.6621 81.5651 39.4303 78.807 36.9534V49.3247C78.807 49.9942 78.566 50.5699 78.084 51.0653C77.602 51.5473 77.0263 51.8016 76.3569 51.8016H76.2765ZM95.3959 32.7359C97.2971 30.8213 98.2477 28.5184 98.2477 25.8406C98.2477 23.136 97.2971 20.8198 95.3959 18.9051C93.508 17.0173 91.2185 16.0667 88.5407 16.0667C85.863 16.0667 83.5467 17.0173 81.6455 18.9051C79.7576 20.8198 78.8204 23.1226 78.8204 25.8406C78.8204 28.5318 79.771 30.8347 81.6455 32.7359C83.5467 34.6505 85.8496 35.6011 88.5407 35.6011C91.2185 35.6011 93.508 34.6505 95.3959 32.7359Z" fill="white"/>
<path d="M120.406 11.0994C121.089 11.0994 121.678 11.3404 122.16 11.8358C122.629 12.3178 122.856 12.9069 122.856 13.5898V13.6433C122.856 14.3261 122.629 14.9019 122.16 15.3839C121.678 15.8659 121.089 16.1203 120.406 16.1203H118.88C117.193 16.1203 115.76 16.7228 114.569 17.901C113.404 19.0926 112.815 20.5386 112.788 22.2256V38.1985C112.788 38.8814 112.547 39.4571 112.065 39.9391C111.583 40.4211 111.007 40.6755 110.338 40.6755H110.257C109.601 40.6755 109.026 40.4345 108.53 39.9391C108.048 39.4705 107.807 38.8948 107.807 38.1985V22.2256C107.847 19.1328 108.919 16.5085 111.034 14.3529C113.19 12.1839 115.814 11.1128 118.88 11.1128L120.406 11.0994Z" fill="white"/>
<path d="M153.075 19.7353C153.356 20.3512 153.383 20.9804 153.155 21.6231C152.928 22.2524 152.499 22.721 151.87 23.0022C149.353 24.1402 146.059 25.6398 141.962 27.5008C136.888 29.8171 133.594 31.3033 132.081 31.9995C134.023 34.4898 136.567 35.735 139.726 35.735C141.828 35.735 143.73 35.1191 145.43 33.8606C147.077 32.6556 148.242 31.0757 148.898 29.1477C149.299 28.023 150.089 27.4607 151.268 27.4607C152.111 27.4607 152.781 27.8088 153.289 28.5184C153.771 29.2012 153.878 29.951 153.584 30.7677C152.58 33.6865 150.826 36.0563 148.309 37.8638C145.738 39.7249 142.873 40.6487 139.713 40.6487C135.656 40.6487 132.188 39.2027 129.323 36.3241C126.445 33.4321 125.012 29.951 125.012 25.8674C125.012 21.7838 126.445 18.3027 129.323 15.4107C132.202 12.5187 135.656 11.0861 139.713 11.0861C142.645 11.0861 145.31 11.8894 147.733 13.4961C150.13 15.0893 151.897 17.1646 153.075 19.7353ZM139.713 16.1738C137.022 16.1738 134.719 17.1244 132.818 19.0391C130.93 20.9537 129.993 23.2566 129.993 25.9745C129.993 26.4565 130.033 26.9385 130.1 27.4071L147.144 19.6683C145.202 17.3387 142.726 16.1738 139.713 16.1738Z" fill="white"/>
<path d="M161.122 0C161.778 0 162.354 0.227611 162.849 0.709611C163.331 1.19161 163.572 1.78072 163.572 2.46356V11.1128H168.419C169.075 11.1128 169.664 11.3538 170.146 11.8492C170.628 12.3312 170.869 12.9203 170.869 13.6031V13.6567C170.869 14.3395 170.628 14.9152 170.146 15.3972C169.664 15.8792 169.088 16.1336 168.419 16.1336H163.572V33.0036C163.572 33.74 163.84 34.3693 164.349 34.9048C164.871 35.427 165.5 35.6948 166.263 35.6948H168.419C169.075 35.6948 169.664 35.9358 170.146 36.4312C170.628 36.9132 170.869 37.5023 170.869 38.1851V38.2387C170.869 38.9215 170.628 39.4972 170.146 39.9658C169.664 40.4478 169.088 40.7022 168.419 40.7022H166.263C164.148 40.7022 162.327 39.9524 160.827 38.4529C159.341 36.9399 158.591 35.1191 158.591 33.017V2.46356C158.591 1.78072 158.832 1.19161 159.314 0.709611C159.796 0.241 160.372 0 161.042 0H161.122Z" fill="white"/>
<path d="M191.22 16.388C191.421 16.1738 191.367 16.0533 191.059 16.0399H177.215C176.533 16.0399 175.957 15.7989 175.488 15.3035C175.006 14.8215 174.765 14.2458 174.765 13.563V13.4826C174.765 12.8132 175.006 12.2375 175.488 11.7421C175.957 11.2601 176.533 11.0057 177.215 11.0057H193.389C195.264 10.9655 196.562 11.809 197.299 13.5228C198.035 15.2768 197.74 16.8165 196.415 18.1286C190.323 24.5553 184.981 30.192 180.375 35.0521C180.375 35.0789 180.335 35.1325 180.241 35.2128C180.027 35.427 180.067 35.5475 180.375 35.5609H180.563L195.397 35.5877C196.08 35.5877 196.656 35.8153 197.125 36.2973C197.607 36.7793 197.848 37.3684 197.848 38.0513V38.1048C197.848 38.7876 197.607 39.3768 197.125 39.8588C196.656 40.3274 196.08 40.5684 195.397 40.5684H178.032C176.158 40.6219 174.859 39.7784 174.136 38.0513C173.399 36.3241 173.694 34.7844 175.02 33.4455C176.774 31.6112 179.451 28.7861 183.04 24.9971C186.574 21.2616 189.252 18.4365 191.059 16.5219C191.059 16.5353 191.113 16.4684 191.22 16.388Z" fill="white"/>
<path d="M229.419 19.7353C229.7 20.3512 229.727 20.9804 229.499 21.6231C229.271 22.2524 228.843 22.721 228.214 23.0022C225.697 24.1402 222.403 25.6398 218.306 27.5008C213.231 29.8171 209.938 31.3033 208.425 31.9995C210.366 34.4898 212.91 35.735 216.07 35.735C218.172 35.735 220.073 35.1191 221.774 33.8606C223.42 32.6556 224.585 31.0757 225.241 29.1477C225.643 28.023 226.433 27.4607 227.611 27.4607C228.455 27.4607 229.124 27.8088 229.633 28.5184C230.115 29.2012 230.222 29.951 229.927 30.7677C228.923 33.6865 227.169 36.0563 224.652 37.8638C222.082 39.7249 219.216 40.6487 216.057 40.6487C212 40.6487 208.532 39.2027 205.667 36.3241C202.788 33.4321 201.356 29.951 201.356 25.8674C201.356 21.7838 202.788 18.3027 205.667 15.4107C208.545 12.5187 212 11.0861 216.057 11.0861C218.989 11.0861 221.653 11.8894 224.076 13.4961C226.486 15.0893 228.254 17.1646 229.419 19.7353ZM216.07 16.1738C213.379 16.1738 211.076 17.1244 209.175 19.0391C207.287 20.9537 206.35 23.2566 206.35 25.9745C206.35 26.4565 206.39 26.9385 206.457 27.4071L223.501 19.6683C221.559 17.3387 219.082 16.1738 216.07 16.1738Z" fill="white"/>
<path d="M238.55 0C239.206 0 239.782 0.227611 240.277 0.709611C240.759 1.19161 241 1.78072 241 2.46356V38.1985C241 38.8813 240.759 39.4571 240.277 39.9257C239.795 40.4077 239.219 40.6621 238.55 40.6621H238.47C237.813 40.6621 237.224 40.4211 236.742 39.9257C236.26 39.4571 236.019 38.8813 236.019 38.1985V2.46356C236.019 1.78072 236.26 1.19161 236.742 0.709611C237.224 0.241 237.8 0 238.47 0H238.55Z" fill="white"/>
</g>
<defs>
<clipPath id="clip0">
<rect width="241" height="51.8016" fill="white"/>
</clipPath>
</defs>
</svg>
